M48
INCH,TZ
T1C0.0120
T2C0.0160
T3C0.0280
T4C0.0300
T5C0.0315
T6C0.0362
T7C0.0374
T8C0.0392
T9C0.0394
T10C0.0400
T11C0.0433
T12C0.0472
T13C0.0520
T14C0.0551
T15C0.0906
T16C0.1260
%
G90
G05
T1
X17140Y-21400
X17140Y-21700
X17140Y-22000
X17140Y-22300
X17140Y-22600
X17140Y-22900
X17140Y-23200
X17140Y-23500
X17140Y-23810
X17140Y-24100
X17140Y-24400
X17140Y-24700
X17655Y-22437
X17675Y-21115
X18060Y-21115
X18515Y-21115
X18711Y-21999
X19120Y-21490
X21450Y-22290
X21790Y-22160
X22030Y-20110
X22040Y-22320
X22910Y-19190
X22910Y-19620
X23150Y-19880
X23200Y-22550
X23470Y-22550
X23750Y-22550
X23812Y-24318
X24020Y-22550
X24270Y-22550
X24860Y-18630
X24860Y-18990
X24860Y-19350
X24860Y-19740
X27668Y-28898
X28080Y-32200
X33250Y-31630
X33308Y-30228
X33488Y-31988
X33888Y-31988
X33968Y-30288
X34288Y-31988
X34388Y-30288
X34605Y-32305
X34608Y-29968
X34888Y-32588
X34988Y-29788
X35312Y-32588
X35388Y-29788
X35698Y-32588
X35788Y-29788
X36082Y-32588
X36188Y-29788
X45598Y-30866
X47680Y-22210
X47684Y-22990
X47823Y-30929
X48154Y-30586
X48516Y-36063
X48693Y-32232
X49169Y-36362
X49900Y-29440
X50031Y-30965
X50040Y-28400
X50400Y-31520
X51540Y-27780
X52535Y-29457
X59580Y-35890
X60970Y-31650
X62220Y-32780
X62530Y-32510
X63195Y-44113
T2
X16080Y-42560
X16750Y-38400
X17360Y-18260
X17439Y-37789
X17580Y-16100
X18030Y-14300
X18120Y-14850
X18650Y-20170
X18990Y-16760
X19080Y-19170
X19930Y-16090
X20160Y-22150
X20630Y-17360
X21030Y-21320
X21070Y-19486
X21090Y-20780
X21480Y-21770
X21480Y-23570
X23170Y-18240
X25460Y-22240
X25534Y-20750
X25620Y-16970
X25960Y-22700
X26020Y-18660
X26050Y-19540
X26350Y-20990
X26728Y-32498
X26940Y-18890
X27178Y-32418
X27270Y-17450
X27360Y-20290
X27628Y-32308
X27668Y-25898
X28068Y-26248
X28350Y-17550
X28378Y-26568
X28710Y-21120
X28998Y-29408
X28998Y-30998
X29438Y-33528
X29588Y-29408
X29588Y-30998
X29658Y-32978
X30088Y-29408
X30088Y-30998
X30118Y-32998
X30320Y-28270
X30490Y-19190
X30540Y-17440
X30598Y-29408
X30598Y-30998
X30838Y-26068
X30838Y-31418
X31088Y-29408
X31088Y-30998
X31188Y-26438
X31460Y-31525
X31648Y-26728
X31750Y-28650
X31858Y-31658
X32008Y-27068
X32600Y-35940
X33150Y-18390
X33240Y-29578
X33937Y-31579
X34000Y-30870
X34640Y-35440
X35020Y-35970
X35088Y-26148
X35088Y-27028
X35894Y-30173
X36004Y-32201
X36090Y-35870
X36628Y-29388
X36790Y-36200
X37070Y-26390
X37218Y-28268
X37400Y-31690
X38040Y-23820
X38450Y-24100
X38830Y-36890
X39370Y-39950
X39750Y-28600
X40100Y-33180
X40320Y-30360
X40358Y-31758
X40360Y-23390
X40400Y-28320
X40460Y-26520
X40460Y-38430
X40870Y-37080
X40908Y-33668
X40910Y-23830
X41220Y-39890
X41448Y-27868
X41590Y-29190
X41618Y-29808
X41808Y-32768
X41850Y-32260
X41990Y-21600
X42500Y-21500
X42710Y-36900
X42710Y-18230
X42900Y-32260
X43000Y-21500
X43020Y-31820
X43160Y-11850
X43630Y-26880
X43630Y-27810
X43803Y-24406
X44060Y-27660
X44201Y-30840
X44520Y-19970
X44520Y-22960
X44760Y-32600
X44925Y-31394
X45080Y-32300
X45205Y-35697
X45472Y-26980
X45472Y-27732
X45920Y-13870
X45921Y-31921
X46024Y-24173
X46030Y-23180
X46563Y-30622
X46580Y-19520
X46670Y-39720
X46748Y-29886
X46910Y-27320
X47100Y-40640
X47504Y-33937
X47550Y-24760
X47571Y-27201
X47579Y-32661
X47929Y-39146
X48039Y-38079
X48550Y-26380
X48580Y-23630
X48690Y-13030
X48879Y-21445
X48930Y-15620
X49000Y-26460
X49100Y-24610
X49169Y-38748
X49280Y-21570
X49340Y-23905
X49540Y-24910
X49575Y-22229
X49575Y-23017
X49740Y-23580
X49874Y-40453
X50031Y-32417
X50180Y-29090
X50230Y-27030
X50441Y-35118
X50555Y-43685
X51070Y-25850
X51264Y-28063
X51380Y-22640
X51699Y-37830
X51760Y-15830
X52063Y-34921
X52087Y-29440
X52252Y-29000
X52475Y-20720
X52570Y-21710
X52660Y-27690
X52760Y-14160
X52858Y-41079
X52862Y-32114
X52940Y-20700
X52980Y-35488
X53031Y-36898
X53358Y-29480
X53410Y-28780
X53460Y-40360
X53480Y-14350
X53520Y-41843
X53547Y-40937
X53750Y-16210
X53835Y-27245
X53910Y-22970
X54012Y-29071
X54040Y-11880
X54090Y-35713
X54300Y-19670
X54382Y-33913
X54390Y-18080
X54406Y-32311
X54445Y-31492
X54576Y-40533
X54620Y-25330
X54970Y-16536
X54980Y-26580
X55480Y-42756
X55540Y-27900
X55630Y-15420
X55815Y-43323
X56040Y-16010
X56170Y-24280
X56210Y-20820
X56570Y-27520
X56685Y-40858
X56760Y-43886
X57300Y-11870
X57460Y-34820
X57820Y-39750
X57890Y-30130
X58340Y-33180
X58460Y-39790
X58490Y-37980
X58790Y-33410
X58920Y-28650
X59370Y-29060
X59440Y-35500
X59780Y-36980
X60060Y-32930
X60320Y-33810
X60540Y-31200
X60690Y-32870
X60978Y-41776
X61410Y-35270
X61430Y-31450
X61590Y-44190
X61796Y-33106
X62370Y-44960
X62650Y-35510
X62700Y-43760
X62810Y-34070
X63200Y-41770
X63700Y-32860
X63925Y-44760
X64070Y-33900
X64120Y-32870
X64160Y-36300
X64160Y-42660
X64230Y-41210
X64390Y-43690
X64470Y-44940
X64500Y-33550
X64510Y-35170
X64670Y-36320
T3
X15910Y-39150
X15960Y-40290
X16770Y-34850
X17350Y-38740
X17460Y-15340
X18000Y-29200
X18000Y-30000
X18000Y-30800
X18110Y-34850
X18270Y-39140
X19000Y-29200
X19000Y-30000
X19000Y-30800
X19000Y-31610
X19080Y-25020
X19770Y-36780
X20230Y-15570
X22480Y-17150
X28150Y-32710
X28480Y-18480
X28670Y-22440
X29110Y-32980
X29338Y-34098
X29348Y-27018
X30314Y-19894
X30850Y-17940
X31000Y-21460
X31720Y-19810
X32128Y-32898
X35598Y-26698
X36228Y-28878
X37628Y-32318
X37768Y-31218
X37941Y-39378
X39380Y-38640
X41980Y-39230
X42268Y-34083
X44280Y-40720
X44900Y-21370
X45488Y-38650
X45770Y-22400
X46510Y-40900
X46760Y-32031
X47984Y-29476
X49118Y-43445
X53010Y-18910
X56090Y-28190
X58515Y-43459
X60290Y-38140
X60370Y-36420
X61240Y-36220
X62430Y-36110
X63440Y-33360
T4
X20903Y-25281
X21398Y-25776
X23263Y-26947
X23757Y-26453
X25484Y-26431
X26184Y-26431
X31612Y-29858
X31612Y-30558
T5
X35436Y-18426
X35436Y-19426
X35436Y-20426
X35436Y-21426
X38436Y-18426
X38436Y-19426
X38436Y-20426
X38436Y-21426
X40510Y-18740
X41494Y-18740
X42501Y-34868
X43501Y-34868
X44404Y-36464
X44404Y-37464
X44404Y-38464
X44404Y-39464
X44501Y-34868
X45501Y-34868
X46436Y-14944
X46501Y-34868
X47404Y-36464
X47404Y-37464
X47404Y-38464
X47404Y-39464
X47420Y-16243
X48065Y-33417
X48065Y-34402
X48065Y-35386
X48310Y-18161
X48310Y-19539
X48404Y-14944
X49364Y-33417
X49364Y-34402
X49364Y-35386
X50196Y-16766
X50874Y-18710
X51180Y-15467
X51334Y-25230
X51859Y-18710
X52164Y-16766
X52319Y-25230
X53596Y-35206
X53596Y-36206
X53596Y-37206
X53596Y-38206
X53604Y-30924
X53604Y-31924
X53604Y-32924
X53604Y-33924
X54153Y-13460
X54153Y-14444
X54339Y-17432
X54339Y-20432
X54339Y-24632
X54339Y-27632
X54980Y-13460
X56004Y-13460
X56596Y-35206
X56596Y-36206
X56596Y-37206
X56596Y-38206
X56604Y-30924
X56604Y-31924
X56604Y-32924
X56604Y-33924
X56830Y-13460
X56830Y-14444
X57665Y-30856
X57665Y-31840
X57665Y-32824
X58964Y-30856
X58964Y-31840
X58964Y-32824
X59339Y-17432
X59339Y-20432
X59339Y-24632
X59339Y-27632
T6
X21022Y-39331
X21022Y-40363
X22006Y-39331
X22006Y-40363
X22794Y-39331
X22794Y-40363
X23778Y-39331
X23778Y-40363
T7
X21818Y-15295
X21818Y-16082
X22802Y-15295
X22802Y-16082
T9
X32550Y-19030
X32550Y-20030
X33550Y-19030
X33550Y-20030
X43200Y-13200
X43745Y-12082
X44291Y-13200
X44836Y-12082
X45381Y-13200
X45926Y-12082
X46472Y-13200
X47017Y-12082
X47562Y-13200
X59335Y-41910
X59335Y-42910
X59335Y-43910
X60335Y-41910
X60335Y-42910
X60335Y-43910
X60841Y-39195
X61800Y-18413
X61800Y-19503
X61800Y-20594
X61800Y-21684
X61800Y-22775
X61841Y-39195
X62841Y-39195
X62918Y-18958
X62918Y-20049
X62918Y-21139
X62918Y-22230
X63841Y-39195
T10
X15840Y-28210
X18570Y-35680
X20480Y-11820
X25440Y-30180
X39723Y-16210
X41520Y-25880
X42180Y-14550
X54437Y-44598
X61270Y-41010
T11
X16440Y-27246
X17440Y-27246
X18440Y-27246
X56000Y-42000
X56000Y-44000
X57000Y-42000
X58000Y-42000
X58000Y-44000
T12
X61500Y-27955
X61500Y-29333
X61500Y-30711
T13
X31550Y-15040
X32550Y-16040
X33550Y-11040
X34550Y-15040
X35550Y-11040
X36550Y-16040
X37550Y-15040
T14
X28400Y-37990
X28400Y-40490
X28400Y-42990
X34856Y-37990
X34856Y-40490
X34856Y-42990
X36583Y-38000
X36583Y-40500
X36583Y-43000
X43039Y-38000
X43039Y-40500
X43039Y-43000
T15
X19813Y-39194
X19813Y-41430
X19948Y-14169
X24672Y-14169
X24987Y-39194
X24987Y-41430
T16
X40460Y-13082
X50302Y-13082
X61918Y-15673
X61918Y-25515
T8
G00X45010Y-41190
M15
G01X45010Y-41662
M16
G05
G00X46764Y-43394
M15
G01X47237Y-43394
M16
G05
G00X48990Y-41190
M15
G01X48990Y-41662
M16
G05
G00X50510Y-41190
M15
G01X50510Y-41662
M16
G05
G00X52264Y-43394
M15
G01X52737Y-43394
M16
G05
G00X54490Y-41190
M15
G01X54490Y-41662
M16
G05
T9
G00X26366Y-14761
M15
G01X26366Y-13895
M16
G05
G00X28689Y-12990
M15
G01X27823Y-12990
M16
G05
G00X28768Y-15470
M15
G01X27744Y-15470
M16
G05
G00X52795Y-12633
M15
G01X52795Y-12043
M16
G05
G00X55886Y-12023
M15
G01X55098Y-12023
M16
G05
G00X58189Y-12633
M15
G01X58189Y-12043
M16
G05
T0
M30
