<?xml version="1.0" standalone="no"?>
 <!DOCTYPE svg PUBLIC "-//W3C//DTD SVG 1.1//EN" 
 "http://www.w3.org/Graphics/SVG/1.1/DTD/svg11.dtd"> 
<svg
  xmlns:svg="http://www.w3.org/2000/svg"
  xmlns="http://www.w3.org/2000/svg"
  xmlns:xlink="http://www.w3.org/1999/xlink"
  version="1.1"
  width="29.700220cm" height="21.000720cm" viewBox="0 0 116930 82680">
<title>SVG Picture created as radio-usb-NPTH-drl_map.svg date 2024/08/04 07:55:08 </title>
  <desc>Picture generated by PCBNEW </desc>
<g style="fill:#000000; fill-opacity:1.000000;stroke:#000000; stroke-opacity:1.000000;
stroke-linecap:round; stroke-linejoin:round;"
 transform="translate(0 0) scale(1 1)">
</g>
<g style="fill:#000000; fill-opacity:0.0; 
stroke:#000000; stroke-width:0.000000; stroke-opacity:1; 
stroke-linecap:round; stroke-linejoin:round;">
</g>
<g style="fill:#000000; fill-opacity:0.0; 
stroke:#000000; stroke-width:101.217806; stroke-opacity:1; 
stroke-linecap:round; stroke-linejoin:round;">
<path d="M26328 2019
L90601 2019
" />
<path d="M90601 2019
L90601 47588
" />
<path d="M90601 47588
L26328 47588
" />
<path d="M26328 47588
L26328 2019
" />
<path d="M47196 35113
L48209 36126
" />
<path d="M48209 35113
L47196 36126
" />
<path d="M57715 35126
L58728 36138
" />
<path d="M58728 35126
L57715 36138
" />
</g>
<g style="fill:#000000; fill-opacity:0.0; 
stroke:#000000; stroke-width:141.401274; stroke-opacity:1; 
stroke-linecap:round; stroke-linejoin:round;">
<circle cx="47602.811376" cy="5875.511419" r="707.006372" /> 
<circle cx="55315.608158" cy="5875.511419" r="707.006372" /> 
</g>
<g style="fill:#000000; fill-opacity:0.0; 
stroke:#000000; stroke-width:161.948489; stroke-opacity:1; 
stroke-linecap:round; stroke-linejoin:round;">
<path d="M29991 4628
L29991 6248
" />
<path d="M29182 5438
L30801 5438
" />
<path d="M29991 43359
L29991 44979
" />
<path d="M29182 44169
L30801 44169
" />
<path d="M86938 4628
L86938 6248
" />
<path d="M86128 5438
L87747 5438
" />
<path d="M86938 43359
L86938 44979
" />
<path d="M86128 44169
L87747 44169
" />
</g>
<g style="fill:#000000; fill-opacity:0.0; 
stroke:#000000; stroke-width:177.131160; stroke-opacity:1; 
stroke-linecap:round; stroke-linejoin:round;">
<path style="fill:#000000; fill-opacity:0.0; 
stroke:#000000; stroke-width:177.131160; stroke-opacity:1; 
stroke-linecap:round; stroke-linejoin:round;fill:none"
d="M 30091.143638,33194.728022
30091.143638,31942.209299
28838.624916,31942.209299
28838.624916,33194.728022
Z" /> 
</g>
<g style="fill:#000000; fill-opacity:0.0; 
stroke:#000000; stroke-width:101.217806; stroke-opacity:1; 
stroke-linecap:round; stroke-linejoin:round;">
</g>
<g style="fill:#000000; fill-opacity:0.0; 
stroke:#000000; stroke-width:78.740367; stroke-opacity:1; 
stroke-linecap:round; stroke-linejoin:round;">
<text x="27065.139667" y="48899.339095"
textLength="5853.019305" font-size="1049.868530" lengthAdjust="spacingAndGlyphs"
text-anchor="start" opacity="0">Drill Map:</text>
<g class="stroked-text"><desc>Drill Map:</desc>
<path d="M27291 48861
L27291 48074
L27479 48074
L27591 48111
L27666 48186
L27704 48261
L27741 48411
L27741 48524
L27704 48674
L27666 48749
L27591 48824
L27479 48861
L27291 48861
" />
<path d="M28079 48861
L28079 48336
" />
<path d="M28079 48486
L28116 48411
L28154 48374
L28229 48336
L28304 48336
" />
<path d="M28566 48861
L28566 48336
" />
<path d="M28566 48074
L28529 48111
L28566 48149
L28604 48111
L28566 48074
L28566 48149
" />
<path d="M29054 48861
L28979 48824
L28941 48749
L28941 48074
" />
<path d="M29466 48861
L29391 48824
L29354 48749
L29354 48074
" />
<path d="M30366 48861
L30366 48074
L30629 48636
L30891 48074
L30891 48861
" />
<path d="M31603 48861
L31603 48449
L31566 48374
L31491 48336
L31341 48336
L31266 48374
" />
<path d="M31603 48824
L31528 48861
L31341 48861
L31266 48824
L31228 48749
L31228 48674
L31266 48599
L31341 48561
L31528 48561
L31603 48524
" />
<path d="M31978 48336
L31978 49124
" />
<path d="M31978 48374
L32053 48336
L32203 48336
L32278 48374
L32316 48411
L32353 48486
L32353 48711
L32316 48786
L32278 48824
L32203 48861
L32053 48861
L31978 48824
" />
<path d="M32691 48786
L32728 48824
L32691 48861
L32653 48824
L32691 48786
L32691 48861
" />
<path d="M32691 48374
L32728 48411
L32691 48449
L32653 48411
L32691 48374
L32691 48449
" />
</g></g>
<g style="fill:#000000; fill-opacity:0.0; 
stroke:#000000; stroke-width:78.739861; stroke-opacity:1; 
stroke-linecap:round; stroke-linejoin:round;">
<path d="M25490 49765
L26277 50552
" />
<path d="M26277 49765
L25490 50552
" />
</g>
<g style="fill:#000000; fill-opacity:0.0; 
stroke:#000000; stroke-width:101.217806; stroke-opacity:1; 
stroke-linecap:round; stroke-linejoin:round;">
</g>
<g style="fill:#000000; fill-opacity:0.0; 
stroke:#000000; stroke-width:78.740367; stroke-opacity:1; 
stroke-linecap:round; stroke-linejoin:round;">
<text x="27065.139667" y="50552.882763"
textLength="26250.471458" font-size="1049.868530" lengthAdjust="spacingAndGlyphs"
text-anchor="start" opacity="0">2.000mm / 0.0787" (2 holes) (not plated)</text>
<g class="stroked-text"><desc>2.000mm / 0.0787" (2 holes) (not plated)</desc>
<path d="M27254 49802
L27291 49765
L27366 49727
L27554 49727
L27629 49765
L27666 49802
L27704 49877
L27704 49952
L27666 50065
L27216 50515
L27704 50515
" />
<path d="M28041 50440
L28079 50477
L28041 50515
L28004 50477
L28041 50440
L28041 50515
" />
<path d="M28566 49727
L28641 49727
L28716 49765
L28754 49802
L28791 49877
L28829 50027
L28829 50215
L28791 50365
L28754 50440
L28716 50477
L28641 50515
L28566 50515
L28491 50477
L28454 50440
L28416 50365
L28379 50215
L28379 50027
L28416 49877
L28454 49802
L28491 49765
L28566 49727
" />
<path d="M29316 49727
L29391 49727
L29466 49765
L29504 49802
L29541 49877
L29579 50027
L29579 50215
L29541 50365
L29504 50440
L29466 50477
L29391 50515
L29316 50515
L29241 50477
L29204 50440
L29166 50365
L29129 50215
L29129 50027
L29166 49877
L29204 49802
L29241 49765
L29316 49727
" />
<path d="M30066 49727
L30141 49727
L30216 49765
L30254 49802
L30291 49877
L30329 50027
L30329 50215
L30291 50365
L30254 50440
L30216 50477
L30141 50515
L30066 50515
L29991 50477
L29954 50440
L29916 50365
L29879 50215
L29879 50027
L29916 49877
L29954 49802
L29991 49765
L30066 49727
" />
<path d="M30666 50515
L30666 49990
" />
<path d="M30666 50065
L30704 50027
L30779 49990
L30891 49990
L30966 50027
L31004 50102
L31004 50515
" />
<path d="M31004 50102
L31041 50027
L31116 49990
L31228 49990
L31303 50027
L31341 50102
L31341 50515
" />
<path d="M31716 50515
L31716 49990
" />
<path d="M31716 50065
L31753 50027
L31828 49990
L31941 49990
L32016 50027
L32053 50102
L32053 50515
" />
<path d="M32053 50102
L32091 50027
L32166 49990
L32278 49990
L32353 50027
L32391 50102
L32391 50515
" />
<path d="M33928 49690
L33253 50702
" />
<path d="M34941 49727
L35016 49727
L35091 49765
L35128 49802
L35166 49877
L35203 50027
L35203 50215
L35166 50365
L35128 50440
L35091 50477
L35016 50515
L34941 50515
L34866 50477
L34828 50440
L34791 50365
L34753 50215
L34753 50027
L34791 49877
L34828 49802
L34866 49765
L34941 49727
" />
<path d="M35540 50440
L35578 50477
L35540 50515
L35503 50477
L35540 50440
L35540 50515
" />
<path d="M36065 49727
L36140 49727
L36215 49765
L36253 49802
L36290 49877
L36328 50027
L36328 50215
L36290 50365
L36253 50440
L36215 50477
L36140 50515
L36065 50515
L35990 50477
L35953 50440
L35915 50365
L35878 50215
L35878 50027
L35915 49877
L35953 49802
L35990 49765
L36065 49727
" />
<path d="M36590 49727
L37115 49727
L36778 50515
" />
<path d="M37528 50065
L37453 50027
L37415 49990
L37378 49915
L37378 49877
L37415 49802
L37453 49765
L37528 49727
L37678 49727
L37753 49765
L37790 49802
L37828 49877
L37828 49915
L37790 49990
L37753 50027
L37678 50065
L37528 50065
L37453 50102
L37415 50140
L37378 50215
L37378 50365
L37415 50440
L37453 50477
L37528 50515
L37678 50515
L37753 50477
L37790 50440
L37828 50365
L37828 50215
L37790 50140
L37753 50102
L37678 50065
" />
<path d="M38090 49727
L38615 49727
L38278 50515
" />
<path d="M38878 49727
L38878 49877
" />
<path d="M39178 49727
L39178 49877
" />
<path d="M40340 50815
L40302 50777
L40227 50665
L40190 50590
L40152 50477
L40115 50290
L40115 50140
L40152 49952
L40190 49840
L40227 49765
L40302 49652
L40340 49615
" />
<path d="M40602 49802
L40640 49765
L40715 49727
L40902 49727
L40977 49765
L41015 49802
L41052 49877
L41052 49952
L41015 50065
L40565 50515
L41052 50515
" />
<path d="M41990 50515
L41990 49727
" />
<path d="M42327 50515
L42327 50102
L42290 50027
L42215 49990
L42102 49990
L42027 50027
L41990 50065
" />
<path d="M42815 50515
L42740 50477
L42702 50440
L42665 50365
L42665 50140
L42702 50065
L42740 50027
L42815 49990
L42927 49990
L43002 50027
L43040 50065
L43077 50140
L43077 50365
L43040 50440
L43002 50477
L42927 50515
L42815 50515
" />
<path d="M43527 50515
L43452 50477
L43414 50402
L43414 49727
" />
<path d="M44127 50477
L44052 50515
L43902 50515
L43827 50477
L43789 50402
L43789 50102
L43827 50027
L43902 49990
L44052 49990
L44127 50027
L44164 50102
L44164 50177
L43789 50252
" />
<path d="M44464 50477
L44539 50515
L44689 50515
L44764 50477
L44802 50402
L44802 50365
L44764 50290
L44689 50252
L44577 50252
L44502 50215
L44464 50140
L44464 50102
L44502 50027
L44577 49990
L44689 49990
L44764 50027
" />
<path d="M45064 50815
L45102 50777
L45177 50665
L45214 50590
L45252 50477
L45289 50290
L45289 50140
L45252 49952
L45214 49840
L45177 49765
L45102 49652
L45064 49615
" />
<path d="M46489 50815
L46452 50777
L46377 50665
L46339 50590
L46302 50477
L46264 50290
L46264 50140
L46302 49952
L46339 49840
L46377 49765
L46452 49652
L46489 49615
" />
<path d="M46789 49990
L46789 50515
" />
<path d="M46789 50065
L46827 50027
L46902 49990
L47014 49990
L47089 50027
L47127 50102
L47127 50515
" />
<path d="M47614 50515
L47539 50477
L47501 50440
L47464 50365
L47464 50140
L47501 50065
L47539 50027
L47614 49990
L47726 49990
L47801 50027
L47839 50065
L47876 50140
L47876 50365
L47839 50440
L47801 50477
L47726 50515
L47614 50515
" />
<path d="M48101 49990
L48401 49990
" />
<path d="M48214 49727
L48214 50402
L48251 50477
L48326 50515
L48401 50515
" />
<path d="M49264 49990
L49264 50777
" />
<path d="M49264 50027
L49339 49990
L49489 49990
L49564 50027
L49601 50065
L49639 50140
L49639 50365
L49601 50440
L49564 50477
L49489 50515
L49339 50515
L49264 50477
" />
<path d="M50089 50515
L50014 50477
L49976 50402
L49976 49727
" />
<path d="M50726 50515
L50726 50102
L50689 50027
L50614 49990
L50464 49990
L50389 50027
" />
<path d="M50726 50477
L50651 50515
L50464 50515
L50389 50477
L50351 50402
L50351 50327
L50389 50252
L50464 50215
L50651 50215
L50726 50177
" />
<path d="M50989 49990
L51288 49990
" />
<path d="M51101 49727
L51101 50402
L51139 50477
L51213 50515
L51288 50515
" />
<path d="M51851 50477
L51776 50515
L51626 50515
L51551 50477
L51513 50402
L51513 50102
L51551 50027
L51626 49990
L51776 49990
L51851 50027
L51888 50102
L51888 50177
L51513 50252
" />
<path d="M52563 50515
L52563 49727
" />
<path d="M52563 50477
L52488 50515
L52338 50515
L52263 50477
L52226 50440
L52188 50365
L52188 50140
L52226 50065
L52263 50027
L52338 49990
L52488 49990
L52563 50027
" />
<path d="M52863 50815
L52901 50777
L52976 50665
L53013 50590
L53051 50477
L53088 50290
L53088 50140
L53051 49952
L53013 49840
L52976 49765
L52901 49652
L52863 49615
" />
</g></g>
<g style="fill:#000000; fill-opacity:0.0; 
stroke:#000000; stroke-width:78.739861; stroke-opacity:1; 
stroke-linecap:round; stroke-linejoin:round;">
<circle cx="25884.037191" cy="51419.024274" r="393.700825" /> 
</g>
<g style="fill:#000000; fill-opacity:0.0; 
stroke:#000000; stroke-width:101.217806; stroke-opacity:1; 
stroke-linecap:round; stroke-linejoin:round;">
</g>
<g style="fill:#000000; fill-opacity:0.0; 
stroke:#000000; stroke-width:78.740367; stroke-opacity:1; 
stroke-linecap:round; stroke-linejoin:round;">
<text x="27065.139667" y="51812.725099"
textLength="26250.471458" font-size="1049.868530" lengthAdjust="spacingAndGlyphs"
text-anchor="start" opacity="0">2.794mm / 0.1100" (2 holes) (not plated)</text>
<g class="stroked-text"><desc>2.794mm / 0.1100" (2 holes) (not plated)</desc>
<path d="M27254 51062
L27291 51025
L27366 50987
L27554 50987
L27629 51025
L27666 51062
L27704 51137
L27704 51212
L27666 51325
L27216 51775
L27704 51775
" />
<path d="M28041 51700
L28079 51737
L28041 51775
L28004 51737
L28041 51700
L28041 51775
" />
<path d="M28341 50987
L28866 50987
L28529 51775
" />
<path d="M29204 51775
L29354 51775
L29429 51737
L29466 51700
L29541 51587
L29579 51437
L29579 51137
L29541 51062
L29504 51025
L29429 50987
L29279 50987
L29204 51025
L29166 51062
L29129 51137
L29129 51325
L29166 51400
L29204 51437
L29279 51475
L29429 51475
L29504 51437
L29541 51400
L29579 51325
" />
<path d="M30254 51250
L30254 51775
" />
<path d="M30066 50950
L29879 51512
L30366 51512
" />
<path d="M30666 51775
L30666 51250
" />
<path d="M30666 51325
L30704 51287
L30779 51250
L30891 51250
L30966 51287
L31004 51362
L31004 51775
" />
<path d="M31004 51362
L31041 51287
L31116 51250
L31228 51250
L31303 51287
L31341 51362
L31341 51775
" />
<path d="M31716 51775
L31716 51250
" />
<path d="M31716 51325
L31753 51287
L31828 51250
L31941 51250
L32016 51287
L32053 51362
L32053 51775
" />
<path d="M32053 51362
L32091 51287
L32166 51250
L32278 51250
L32353 51287
L32391 51362
L32391 51775
" />
<path d="M33928 50950
L33253 51962
" />
<path d="M34941 50987
L35016 50987
L35091 51025
L35128 51062
L35166 51137
L35203 51287
L35203 51475
L35166 51625
L35128 51700
L35091 51737
L35016 51775
L34941 51775
L34866 51737
L34828 51700
L34791 51625
L34753 51475
L34753 51287
L34791 51137
L34828 51062
L34866 51025
L34941 50987
" />
<path d="M35540 51700
L35578 51737
L35540 51775
L35503 51737
L35540 51700
L35540 51775
" />
<path d="M36328 51775
L35878 51775
" />
<path d="M36103 51775
L36103 50987
L36028 51100
L35953 51175
L35878 51212
" />
<path d="M37078 51775
L36628 51775
" />
<path d="M36853 51775
L36853 50987
L36778 51100
L36703 51175
L36628 51212
" />
<path d="M37565 50987
L37640 50987
L37715 51025
L37753 51062
L37790 51137
L37828 51287
L37828 51475
L37790 51625
L37753 51700
L37715 51737
L37640 51775
L37565 51775
L37490 51737
L37453 51700
L37415 51625
L37378 51475
L37378 51287
L37415 51137
L37453 51062
L37490 51025
L37565 50987
" />
<path d="M38315 50987
L38390 50987
L38465 51025
L38503 51062
L38540 51137
L38578 51287
L38578 51475
L38540 51625
L38503 51700
L38465 51737
L38390 51775
L38315 51775
L38240 51737
L38203 51700
L38165 51625
L38128 51475
L38128 51287
L38165 51137
L38203 51062
L38240 51025
L38315 50987
" />
<path d="M38878 50987
L38878 51137
" />
<path d="M39178 50987
L39178 51137
" />
<path d="M40340 52075
L40302 52037
L40227 51925
L40190 51850
L40152 51737
L40115 51550
L40115 51400
L40152 51212
L40190 51100
L40227 51025
L40302 50912
L40340 50875
" />
<path d="M40602 51062
L40640 51025
L40715 50987
L40902 50987
L40977 51025
L41015 51062
L41052 51137
L41052 51212
L41015 51325
L40565 51775
L41052 51775
" />
<path d="M41990 51775
L41990 50987
" />
<path d="M42327 51775
L42327 51362
L42290 51287
L42215 51250
L42102 51250
L42027 51287
L41990 51325
" />
<path d="M42815 51775
L42740 51737
L42702 51700
L42665 51625
L42665 51400
L42702 51325
L42740 51287
L42815 51250
L42927 51250
L43002 51287
L43040 51325
L43077 51400
L43077 51625
L43040 51700
L43002 51737
L42927 51775
L42815 51775
" />
<path d="M43527 51775
L43452 51737
L43414 51662
L43414 50987
" />
<path d="M44127 51737
L44052 51775
L43902 51775
L43827 51737
L43789 51662
L43789 51362
L43827 51287
L43902 51250
L44052 51250
L44127 51287
L44164 51362
L44164 51437
L43789 51512
" />
<path d="M44464 51737
L44539 51775
L44689 51775
L44764 51737
L44802 51662
L44802 51625
L44764 51550
L44689 51512
L44577 51512
L44502 51475
L44464 51400
L44464 51362
L44502 51287
L44577 51250
L44689 51250
L44764 51287
" />
<path d="M45064 52075
L45102 52037
L45177 51925
L45214 51850
L45252 51737
L45289 51550
L45289 51400
L45252 51212
L45214 51100
L45177 51025
L45102 50912
L45064 50875
" />
<path d="M46489 52075
L46452 52037
L46377 51925
L46339 51850
L46302 51737
L46264 51550
L46264 51400
L46302 51212
L46339 51100
L46377 51025
L46452 50912
L46489 50875
" />
<path d="M46789 51250
L46789 51775
" />
<path d="M46789 51325
L46827 51287
L46902 51250
L47014 51250
L47089 51287
L47127 51362
L47127 51775
" />
<path d="M47614 51775
L47539 51737
L47501 51700
L47464 51625
L47464 51400
L47501 51325
L47539 51287
L47614 51250
L47726 51250
L47801 51287
L47839 51325
L47876 51400
L47876 51625
L47839 51700
L47801 51737
L47726 51775
L47614 51775
" />
<path d="M48101 51250
L48401 51250
" />
<path d="M48214 50987
L48214 51662
L48251 51737
L48326 51775
L48401 51775
" />
<path d="M49264 51250
L49264 52037
" />
<path d="M49264 51287
L49339 51250
L49489 51250
L49564 51287
L49601 51325
L49639 51400
L49639 51625
L49601 51700
L49564 51737
L49489 51775
L49339 51775
L49264 51737
" />
<path d="M50089 51775
L50014 51737
L49976 51662
L49976 50987
" />
<path d="M50726 51775
L50726 51362
L50689 51287
L50614 51250
L50464 51250
L50389 51287
" />
<path d="M50726 51737
L50651 51775
L50464 51775
L50389 51737
L50351 51662
L50351 51587
L50389 51512
L50464 51475
L50651 51475
L50726 51437
" />
<path d="M50989 51250
L51288 51250
" />
<path d="M51101 50987
L51101 51662
L51139 51737
L51213 51775
L51288 51775
" />
<path d="M51851 51737
L51776 51775
L51626 51775
L51551 51737
L51513 51662
L51513 51362
L51551 51287
L51626 51250
L51776 51250
L51851 51287
L51888 51362
L51888 51437
L51513 51512
" />
<path d="M52563 51775
L52563 50987
" />
<path d="M52563 51737
L52488 51775
L52338 51775
L52263 51737
L52226 51700
L52188 51625
L52188 51400
L52226 51325
L52263 51287
L52338 51250
L52488 51250
L52563 51287
" />
<path d="M52863 52075
L52901 52037
L52976 51925
L53013 51850
L53051 51737
L53088 51550
L53088 51400
L53051 51212
L53013 51100
L52976 51025
L52901 50912
L52863 50875
" />
</g></g>
<g style="fill:#000000; fill-opacity:0.0; 
stroke:#000000; stroke-width:78.739861; stroke-opacity:1; 
stroke-linecap:round; stroke-linejoin:round;">
<path d="M25884 52285
L25884 53072
" />
<path d="M25490 52678
L26277 52678
" />
</g>
<g style="fill:#000000; fill-opacity:0.0; 
stroke:#000000; stroke-width:101.217806; stroke-opacity:1; 
stroke-linecap:round; stroke-linejoin:round;">
</g>
<g style="fill:#000000; fill-opacity:0.0; 
stroke:#000000; stroke-width:78.740367; stroke-opacity:1; 
stroke-linecap:round; stroke-linejoin:round;">
<text x="27065.139667" y="53072.567436"
textLength="26250.471458" font-size="1049.868530" lengthAdjust="spacingAndGlyphs"
text-anchor="start" opacity="0">3.200mm / 0.1260" (4 holes) (not plated)</text>
<g class="stroked-text"><desc>3.200mm / 0.1260" (4 holes) (not plated)</desc>
<path d="M27216 52247
L27704 52247
L27441 52547
L27554 52547
L27629 52585
L27666 52622
L27704 52697
L27704 52885
L27666 52960
L27629 52997
L27554 53035
L27329 53035
L27254 52997
L27216 52960
" />
<path d="M28041 52960
L28079 52997
L28041 53035
L28004 52997
L28041 52960
L28041 53035
" />
<path d="M28379 52322
L28416 52285
L28491 52247
L28679 52247
L28754 52285
L28791 52322
L28829 52397
L28829 52472
L28791 52585
L28341 53035
L28829 53035
" />
<path d="M29316 52247
L29391 52247
L29466 52285
L29504 52322
L29541 52397
L29579 52547
L29579 52735
L29541 52885
L29504 52960
L29466 52997
L29391 53035
L29316 53035
L29241 52997
L29204 52960
L29166 52885
L29129 52735
L29129 52547
L29166 52397
L29204 52322
L29241 52285
L29316 52247
" />
<path d="M30066 52247
L30141 52247
L30216 52285
L30254 52322
L30291 52397
L30329 52547
L30329 52735
L30291 52885
L30254 52960
L30216 52997
L30141 53035
L30066 53035
L29991 52997
L29954 52960
L29916 52885
L29879 52735
L29879 52547
L29916 52397
L29954 52322
L29991 52285
L30066 52247
" />
<path d="M30666 53035
L30666 52510
" />
<path d="M30666 52585
L30704 52547
L30779 52510
L30891 52510
L30966 52547
L31004 52622
L31004 53035
" />
<path d="M31004 52622
L31041 52547
L31116 52510
L31228 52510
L31303 52547
L31341 52622
L31341 53035
" />
<path d="M31716 53035
L31716 52510
" />
<path d="M31716 52585
L31753 52547
L31828 52510
L31941 52510
L32016 52547
L32053 52622
L32053 53035
" />
<path d="M32053 52622
L32091 52547
L32166 52510
L32278 52510
L32353 52547
L32391 52622
L32391 53035
" />
<path d="M33928 52210
L33253 53222
" />
<path d="M34941 52247
L35016 52247
L35091 52285
L35128 52322
L35166 52397
L35203 52547
L35203 52735
L35166 52885
L35128 52960
L35091 52997
L35016 53035
L34941 53035
L34866 52997
L34828 52960
L34791 52885
L34753 52735
L34753 52547
L34791 52397
L34828 52322
L34866 52285
L34941 52247
" />
<path d="M35540 52960
L35578 52997
L35540 53035
L35503 52997
L35540 52960
L35540 53035
" />
<path d="M36328 53035
L35878 53035
" />
<path d="M36103 53035
L36103 52247
L36028 52360
L35953 52435
L35878 52472
" />
<path d="M36628 52322
L36665 52285
L36740 52247
L36928 52247
L37003 52285
L37040 52322
L37078 52397
L37078 52472
L37040 52585
L36590 53035
L37078 53035
" />
<path d="M37753 52247
L37603 52247
L37528 52285
L37490 52322
L37415 52435
L37378 52585
L37378 52885
L37415 52960
L37453 52997
L37528 53035
L37678 53035
L37753 52997
L37790 52960
L37828 52885
L37828 52697
L37790 52622
L37753 52585
L37678 52547
L37528 52547
L37453 52585
L37415 52622
L37378 52697
" />
<path d="M38315 52247
L38390 52247
L38465 52285
L38503 52322
L38540 52397
L38578 52547
L38578 52735
L38540 52885
L38503 52960
L38465 52997
L38390 53035
L38315 53035
L38240 52997
L38203 52960
L38165 52885
L38128 52735
L38128 52547
L38165 52397
L38203 52322
L38240 52285
L38315 52247
" />
<path d="M38878 52247
L38878 52397
" />
<path d="M39178 52247
L39178 52397
" />
<path d="M40340 53335
L40302 53297
L40227 53185
L40190 53110
L40152 52997
L40115 52810
L40115 52660
L40152 52472
L40190 52360
L40227 52285
L40302 52172
L40340 52135
" />
<path d="M40977 52510
L40977 53035
" />
<path d="M40790 52210
L40602 52772
L41090 52772
" />
<path d="M41990 53035
L41990 52247
" />
<path d="M42327 53035
L42327 52622
L42290 52547
L42215 52510
L42102 52510
L42027 52547
L41990 52585
" />
<path d="M42815 53035
L42740 52997
L42702 52960
L42665 52885
L42665 52660
L42702 52585
L42740 52547
L42815 52510
L42927 52510
L43002 52547
L43040 52585
L43077 52660
L43077 52885
L43040 52960
L43002 52997
L42927 53035
L42815 53035
" />
<path d="M43527 53035
L43452 52997
L43414 52922
L43414 52247
" />
<path d="M44127 52997
L44052 53035
L43902 53035
L43827 52997
L43789 52922
L43789 52622
L43827 52547
L43902 52510
L44052 52510
L44127 52547
L44164 52622
L44164 52697
L43789 52772
" />
<path d="M44464 52997
L44539 53035
L44689 53035
L44764 52997
L44802 52922
L44802 52885
L44764 52810
L44689 52772
L44577 52772
L44502 52735
L44464 52660
L44464 52622
L44502 52547
L44577 52510
L44689 52510
L44764 52547
" />
<path d="M45064 53335
L45102 53297
L45177 53185
L45214 53110
L45252 52997
L45289 52810
L45289 52660
L45252 52472
L45214 52360
L45177 52285
L45102 52172
L45064 52135
" />
<path d="M46489 53335
L46452 53297
L46377 53185
L46339 53110
L46302 52997
L46264 52810
L46264 52660
L46302 52472
L46339 52360
L46377 52285
L46452 52172
L46489 52135
" />
<path d="M46789 52510
L46789 53035
" />
<path d="M46789 52585
L46827 52547
L46902 52510
L47014 52510
L47089 52547
L47127 52622
L47127 53035
" />
<path d="M47614 53035
L47539 52997
L47501 52960
L47464 52885
L47464 52660
L47501 52585
L47539 52547
L47614 52510
L47726 52510
L47801 52547
L47839 52585
L47876 52660
L47876 52885
L47839 52960
L47801 52997
L47726 53035
L47614 53035
" />
<path d="M48101 52510
L48401 52510
" />
<path d="M48214 52247
L48214 52922
L48251 52997
L48326 53035
L48401 53035
" />
<path d="M49264 52510
L49264 53297
" />
<path d="M49264 52547
L49339 52510
L49489 52510
L49564 52547
L49601 52585
L49639 52660
L49639 52885
L49601 52960
L49564 52997
L49489 53035
L49339 53035
L49264 52997
" />
<path d="M50089 53035
L50014 52997
L49976 52922
L49976 52247
" />
<path d="M50726 53035
L50726 52622
L50689 52547
L50614 52510
L50464 52510
L50389 52547
" />
<path d="M50726 52997
L50651 53035
L50464 53035
L50389 52997
L50351 52922
L50351 52847
L50389 52772
L50464 52735
L50651 52735
L50726 52697
" />
<path d="M50989 52510
L51288 52510
" />
<path d="M51101 52247
L51101 52922
L51139 52997
L51213 53035
L51288 53035
" />
<path d="M51851 52997
L51776 53035
L51626 53035
L51551 52997
L51513 52922
L51513 52622
L51551 52547
L51626 52510
L51776 52510
L51851 52547
L51888 52622
L51888 52697
L51513 52772
" />
<path d="M52563 53035
L52563 52247
" />
<path d="M52563 52997
L52488 53035
L52338 53035
L52263 52997
L52226 52960
L52188 52885
L52188 52660
L52226 52585
L52263 52547
L52338 52510
L52488 52510
L52563 52547
" />
<path d="M52863 53335
L52901 53297
L52976 53185
L53013 53110
L53051 52997
L53088 52810
L53088 52660
L53051 52472
L53013 52360
L52976 52285
L52901 52172
L52863 52135
" />
</g></g>
<g style="fill:#000000; fill-opacity:0.0; 
stroke:#000000; stroke-width:78.739861; stroke-opacity:1; 
stroke-linecap:round; stroke-linejoin:round;">
<path style="fill:#000000; fill-opacity:0.0; 
stroke:#000000; stroke-width:78.739861; stroke-opacity:1; 
stroke-linecap:round; stroke-linejoin:round;fill:none"
d="M 26162.428162,54217.099918
26162.428162,53660.317977
25605.646221,53660.317977
25605.646221,54217.099918
Z" /> 
</g>
<g style="fill:#000000; fill-opacity:0.0; 
stroke:#000000; stroke-width:101.217806; stroke-opacity:1; 
stroke-linecap:round; stroke-linejoin:round;">
</g>
<g style="fill:#000000; fill-opacity:0.0; 
stroke:#000000; stroke-width:78.740367; stroke-opacity:1; 
stroke-linecap:round; stroke-linejoin:round;">
<text x="27065.139667" y="54332.409773"
textLength="25613.050809" font-size="1049.868530" lengthAdjust="spacingAndGlyphs"
text-anchor="start" opacity="0">3.500mm / 0.1378" (1 hole) (not plated)</text>
<g class="stroked-text"><desc>3.500mm / 0.1378" (1 hole) (not plated)</desc>
<path d="M27216 53507
L27704 53507
L27441 53807
L27554 53807
L27629 53844
L27666 53882
L27704 53957
L27704 54144
L27666 54219
L27629 54257
L27554 54294
L27329 54294
L27254 54257
L27216 54219
" />
<path d="M28041 54219
L28079 54257
L28041 54294
L28004 54257
L28041 54219
L28041 54294
" />
<path d="M28791 53507
L28416 53507
L28379 53882
L28416 53844
L28491 53807
L28679 53807
L28754 53844
L28791 53882
L28829 53957
L28829 54144
L28791 54219
L28754 54257
L28679 54294
L28491 54294
L28416 54257
L28379 54219
" />
<path d="M29316 53507
L29391 53507
L29466 53545
L29504 53582
L29541 53657
L29579 53807
L29579 53994
L29541 54144
L29504 54219
L29466 54257
L29391 54294
L29316 54294
L29241 54257
L29204 54219
L29166 54144
L29129 53994
L29129 53807
L29166 53657
L29204 53582
L29241 53545
L29316 53507
" />
<path d="M30066 53507
L30141 53507
L30216 53545
L30254 53582
L30291 53657
L30329 53807
L30329 53994
L30291 54144
L30254 54219
L30216 54257
L30141 54294
L30066 54294
L29991 54257
L29954 54219
L29916 54144
L29879 53994
L29879 53807
L29916 53657
L29954 53582
L29991 53545
L30066 53507
" />
<path d="M30666 54294
L30666 53769
" />
<path d="M30666 53844
L30704 53807
L30779 53769
L30891 53769
L30966 53807
L31004 53882
L31004 54294
" />
<path d="M31004 53882
L31041 53807
L31116 53769
L31228 53769
L31303 53807
L31341 53882
L31341 54294
" />
<path d="M31716 54294
L31716 53769
" />
<path d="M31716 53844
L31753 53807
L31828 53769
L31941 53769
L32016 53807
L32053 53882
L32053 54294
" />
<path d="M32053 53882
L32091 53807
L32166 53769
L32278 53769
L32353 53807
L32391 53882
L32391 54294
" />
<path d="M33928 53470
L33253 54482
" />
<path d="M34941 53507
L35016 53507
L35091 53545
L35128 53582
L35166 53657
L35203 53807
L35203 53994
L35166 54144
L35128 54219
L35091 54257
L35016 54294
L34941 54294
L34866 54257
L34828 54219
L34791 54144
L34753 53994
L34753 53807
L34791 53657
L34828 53582
L34866 53545
L34941 53507
" />
<path d="M35540 54219
L35578 54257
L35540 54294
L35503 54257
L35540 54219
L35540 54294
" />
<path d="M36328 54294
L35878 54294
" />
<path d="M36103 54294
L36103 53507
L36028 53619
L35953 53694
L35878 53732
" />
<path d="M36590 53507
L37078 53507
L36815 53807
L36928 53807
L37003 53844
L37040 53882
L37078 53957
L37078 54144
L37040 54219
L37003 54257
L36928 54294
L36703 54294
L36628 54257
L36590 54219
" />
<path d="M37340 53507
L37865 53507
L37528 54294
" />
<path d="M38278 53844
L38203 53807
L38165 53769
L38128 53694
L38128 53657
L38165 53582
L38203 53545
L38278 53507
L38428 53507
L38503 53545
L38540 53582
L38578 53657
L38578 53694
L38540 53769
L38503 53807
L38428 53844
L38278 53844
L38203 53882
L38165 53919
L38128 53994
L38128 54144
L38165 54219
L38203 54257
L38278 54294
L38428 54294
L38503 54257
L38540 54219
L38578 54144
L38578 53994
L38540 53919
L38503 53882
L38428 53844
" />
<path d="M38878 53507
L38878 53657
" />
<path d="M39178 53507
L39178 53657
" />
<path d="M40340 54594
L40302 54557
L40227 54444
L40190 54369
L40152 54257
L40115 54069
L40115 53919
L40152 53732
L40190 53619
L40227 53545
L40302 53432
L40340 53395
" />
<path d="M41052 54294
L40602 54294
" />
<path d="M40827 54294
L40827 53507
L40752 53619
L40677 53694
L40602 53732
" />
<path d="M41990 54294
L41990 53507
" />
<path d="M42327 54294
L42327 53882
L42290 53807
L42215 53769
L42102 53769
L42027 53807
L41990 53844
" />
<path d="M42815 54294
L42740 54257
L42702 54219
L42665 54144
L42665 53919
L42702 53844
L42740 53807
L42815 53769
L42927 53769
L43002 53807
L43040 53844
L43077 53919
L43077 54144
L43040 54219
L43002 54257
L42927 54294
L42815 54294
" />
<path d="M43527 54294
L43452 54257
L43414 54182
L43414 53507
" />
<path d="M44127 54257
L44052 54294
L43902 54294
L43827 54257
L43789 54182
L43789 53882
L43827 53807
L43902 53769
L44052 53769
L44127 53807
L44164 53882
L44164 53957
L43789 54032
" />
<path d="M44427 54594
L44464 54557
L44539 54444
L44577 54369
L44614 54257
L44652 54069
L44652 53919
L44614 53732
L44577 53619
L44539 53545
L44464 53432
L44427 53395
" />
<path d="M45852 54594
L45814 54557
L45739 54444
L45702 54369
L45664 54257
L45627 54069
L45627 53919
L45664 53732
L45702 53619
L45739 53545
L45814 53432
L45852 53395
" />
<path d="M46152 53769
L46152 54294
" />
<path d="M46152 53844
L46189 53807
L46264 53769
L46377 53769
L46452 53807
L46489 53882
L46489 54294
" />
<path d="M46977 54294
L46902 54257
L46864 54219
L46827 54144
L46827 53919
L46864 53844
L46902 53807
L46977 53769
L47089 53769
L47164 53807
L47201 53844
L47239 53919
L47239 54144
L47201 54219
L47164 54257
L47089 54294
L46977 54294
" />
<path d="M47464 53769
L47764 53769
" />
<path d="M47576 53507
L47576 54182
L47614 54257
L47689 54294
L47764 54294
" />
<path d="M48626 53769
L48626 54557
" />
<path d="M48626 53807
L48701 53769
L48851 53769
L48926 53807
L48964 53844
L49001 53919
L49001 54144
L48964 54219
L48926 54257
L48851 54294
L48701 54294
L48626 54257
" />
<path d="M49451 54294
L49376 54257
L49339 54182
L49339 53507
" />
<path d="M50089 54294
L50089 53882
L50051 53807
L49976 53769
L49826 53769
L49751 53807
" />
<path d="M50089 54257
L50014 54294
L49826 54294
L49751 54257
L49714 54182
L49714 54107
L49751 54032
L49826 53994
L50014 53994
L50089 53957
" />
<path d="M50351 53769
L50651 53769
" />
<path d="M50464 53507
L50464 54182
L50501 54257
L50576 54294
L50651 54294
" />
<path d="M51213 54257
L51139 54294
L50989 54294
L50914 54257
L50876 54182
L50876 53882
L50914 53807
L50989 53769
L51139 53769
L51213 53807
L51251 53882
L51251 53957
L50876 54032
" />
<path d="M51926 54294
L51926 53507
" />
<path d="M51926 54257
L51851 54294
L51701 54294
L51626 54257
L51588 54219
L51551 54144
L51551 53919
L51588 53844
L51626 53807
L51701 53769
L51851 53769
L51926 53807
" />
<path d="M52226 54594
L52263 54557
L52338 54444
L52376 54369
L52413 54257
L52451 54069
L52451 53919
L52413 53732
L52376 53619
L52338 53545
L52263 53432
L52226 53395
" />
</g></g> 
</svg>
