%TF.GenerationSoftware,KiCad,Pcbnew,6.0.2+dfsg-1*%
%TF.CreationDate,2024-08-04T07:55:02+02:00*%
%TF.ProjectId,radio-usb,72616469-6f2d-4757-9362-2e6b69636164,rev?*%
%TF.SameCoordinates,Original*%
%TF.FileFunction,Paste,Top*%
%TF.FilePolarity,Positive*%
%FSLAX46Y46*%
G04 Gerber Fmt 4.6, Leading zero omitted, Abs format (unit mm)*
G04 Created by KiCad (PCBNEW 6.0.2+dfsg-1) date 2024-08-04 07:55:02*
%MOMM*%
%LPD*%
G01*
G04 APERTURE LIST*
G04 Aperture macros list*
%AMRoundRect*
0 Rectangle with rounded corners*
0 $1 Rounding radius*
0 $2 $3 $4 $5 $6 $7 $8 $9 X,Y pos of 4 corners*
0 Add a 4 corners polygon primitive as box body*
4,1,4,$2,$3,$4,$5,$6,$7,$8,$9,$2,$3,0*
0 Add four circle primitives for the rounded corners*
1,1,$1+$1,$2,$3*
1,1,$1+$1,$4,$5*
1,1,$1+$1,$6,$7*
1,1,$1+$1,$8,$9*
0 Add four rect primitives between the rounded corners*
20,1,$1+$1,$2,$3,$4,$5,0*
20,1,$1+$1,$4,$5,$6,$7,0*
20,1,$1+$1,$6,$7,$8,$9,0*
20,1,$1+$1,$8,$9,$2,$3,0*%
G04 Aperture macros list end*
%ADD10RoundRect,0.250000X0.450000X-0.350000X0.450000X0.350000X-0.450000X0.350000X-0.450000X-0.350000X0*%
%ADD11RoundRect,0.250000X-0.537500X-0.425000X0.537500X-0.425000X0.537500X0.425000X-0.537500X0.425000X0*%
%ADD12RoundRect,0.250000X-0.337500X-0.475000X0.337500X-0.475000X0.337500X0.475000X-0.337500X0.475000X0*%
%ADD13R,1.800000X2.500000*%
%ADD14RoundRect,0.250001X-0.462499X-1.074999X0.462499X-1.074999X0.462499X1.074999X-0.462499X1.074999X0*%
%ADD15RoundRect,0.250000X-0.350000X-0.450000X0.350000X-0.450000X0.350000X0.450000X-0.350000X0.450000X0*%
%ADD16RoundRect,0.237500X-0.250000X-0.237500X0.250000X-0.237500X0.250000X0.237500X-0.250000X0.237500X0*%
%ADD17RoundRect,0.250000X0.450000X-0.325000X0.450000X0.325000X-0.450000X0.325000X-0.450000X-0.325000X0*%
%ADD18RoundRect,0.250000X-0.475000X0.337500X-0.475000X-0.337500X0.475000X-0.337500X0.475000X0.337500X0*%
%ADD19RoundRect,0.250000X0.475000X-0.337500X0.475000X0.337500X-0.475000X0.337500X-0.475000X-0.337500X0*%
%ADD20RoundRect,0.250000X0.337500X0.475000X-0.337500X0.475000X-0.337500X-0.475000X0.337500X-0.475000X0*%
%ADD21RoundRect,0.250001X1.074999X-0.462499X1.074999X0.462499X-1.074999X0.462499X-1.074999X-0.462499X0*%
%ADD22R,1.560000X0.650000*%
%ADD23RoundRect,0.250000X-0.425000X0.537500X-0.425000X-0.537500X0.425000X-0.537500X0.425000X0.537500X0*%
%ADD24RoundRect,0.237500X-0.344715X0.008839X0.008839X-0.344715X0.344715X-0.008839X-0.008839X0.344715X0*%
%ADD25RoundRect,0.250000X0.325000X0.450000X-0.325000X0.450000X-0.325000X-0.450000X0.325000X-0.450000X0*%
%ADD26RoundRect,0.250001X-1.074999X0.462499X-1.074999X-0.462499X1.074999X-0.462499X1.074999X0.462499X0*%
%ADD27RoundRect,0.250000X0.537500X0.425000X-0.537500X0.425000X-0.537500X-0.425000X0.537500X-0.425000X0*%
%ADD28R,1.600000X0.760000*%
%ADD29RoundRect,0.150000X-0.587500X-0.150000X0.587500X-0.150000X0.587500X0.150000X-0.587500X0.150000X0*%
%ADD30R,1.000000X1.000000*%
%ADD31RoundRect,0.237500X-0.237500X0.250000X-0.237500X-0.250000X0.237500X-0.250000X0.237500X0.250000X0*%
%ADD32RoundRect,0.237500X0.008839X0.344715X-0.344715X-0.008839X-0.008839X-0.344715X0.344715X0.008839X0*%
%ADD33RoundRect,0.250000X0.350000X0.450000X-0.350000X0.450000X-0.350000X-0.450000X0.350000X-0.450000X0*%
%ADD34RoundRect,0.250000X-0.412500X-0.650000X0.412500X-0.650000X0.412500X0.650000X-0.412500X0.650000X0*%
%ADD35RoundRect,0.150000X0.150000X-0.587500X0.150000X0.587500X-0.150000X0.587500X-0.150000X-0.587500X0*%
%ADD36RoundRect,0.237500X0.250000X0.237500X-0.250000X0.237500X-0.250000X-0.237500X0.250000X-0.237500X0*%
%ADD37RoundRect,0.150000X-0.150000X0.587500X-0.150000X-0.587500X0.150000X-0.587500X0.150000X0.587500X0*%
%ADD38RoundRect,0.150000X0.150000X-0.512500X0.150000X0.512500X-0.150000X0.512500X-0.150000X-0.512500X0*%
%ADD39R,1.200000X0.900000*%
%ADD40RoundRect,0.250000X-0.450000X0.350000X-0.450000X-0.350000X0.450000X-0.350000X0.450000X0.350000X0*%
%ADD41RoundRect,0.237500X0.300000X0.237500X-0.300000X0.237500X-0.300000X-0.237500X0.300000X-0.237500X0*%
%ADD42R,1.200000X1.400000*%
%ADD43RoundRect,0.237500X0.237500X-0.250000X0.237500X0.250000X-0.237500X0.250000X-0.237500X-0.250000X0*%
%ADD44RoundRect,0.100000X0.100000X-0.637500X0.100000X0.637500X-0.100000X0.637500X-0.100000X-0.637500X0*%
%ADD45R,1.780000X2.000000*%
%ADD46RoundRect,0.250000X-0.400000X-0.625000X0.400000X-0.625000X0.400000X0.625000X-0.400000X0.625000X0*%
%ADD47RoundRect,0.237500X-0.300000X-0.237500X0.300000X-0.237500X0.300000X0.237500X-0.300000X0.237500X0*%
%ADD48RoundRect,0.250000X0.425000X-0.537500X0.425000X0.537500X-0.425000X0.537500X-0.425000X-0.537500X0*%
%ADD49R,3.050000X2.750000*%
%ADD50R,2.200000X1.200000*%
%ADD51R,1.750000X0.450000*%
%ADD52RoundRect,0.150000X-0.512500X-0.150000X0.512500X-0.150000X0.512500X0.150000X-0.512500X0.150000X0*%
%ADD53RoundRect,0.250001X-0.499999X-0.924999X0.499999X-0.924999X0.499999X0.924999X-0.499999X0.924999X0*%
%ADD54RoundRect,0.250000X-0.325000X-0.450000X0.325000X-0.450000X0.325000X0.450000X-0.325000X0.450000X0*%
%ADD55RoundRect,0.250000X0.760500X0.250000X-0.760500X0.250000X-0.760500X-0.250000X0.760500X-0.250000X0*%
%ADD56RoundRect,0.250000X0.750000X0.250000X-0.750000X0.250000X-0.750000X-0.250000X0.750000X-0.250000X0*%
%ADD57RoundRect,0.250000X0.700000X0.250000X-0.700000X0.250000X-0.700000X-0.250000X0.700000X-0.250000X0*%
%ADD58RoundRect,0.247500X0.247500X-0.247500X0.247500X0.247500X-0.247500X0.247500X-0.247500X-0.247500X0*%
%ADD59RoundRect,0.062500X0.062500X-0.350000X0.062500X0.350000X-0.062500X0.350000X-0.062500X-0.350000X0*%
%ADD60RoundRect,0.062500X0.350000X-0.062500X0.350000X0.062500X-0.350000X0.062500X-0.350000X-0.062500X0*%
%ADD61R,0.800000X1.900000*%
%ADD62RoundRect,0.075000X0.700000X0.075000X-0.700000X0.075000X-0.700000X-0.075000X0.700000X-0.075000X0*%
%ADD63RoundRect,0.075000X0.075000X0.700000X-0.075000X0.700000X-0.075000X-0.700000X0.075000X-0.700000X0*%
%ADD64RoundRect,0.250000X0.875000X0.925000X-0.875000X0.925000X-0.875000X-0.925000X0.875000X-0.925000X0*%
G04 APERTURE END LIST*
D10*
%TO.C,R27*%
X134010400Y-80552800D03*
X134010400Y-78552800D03*
%TD*%
D11*
%TO.C,C61*%
X114222500Y-65650000D03*
X117097500Y-65650000D03*
%TD*%
%TO.C,C38*%
X98206700Y-82219800D03*
X101081700Y-82219800D03*
%TD*%
D12*
%TO.C,C34*%
X88036400Y-73374522D03*
X90111400Y-73374522D03*
%TD*%
D13*
%TO.C,D4*%
X64846200Y-27946600D03*
X64846200Y-31946600D03*
%TD*%
D14*
%TO.C,L2*%
X155560700Y-94310200D03*
X158535700Y-94310200D03*
%TD*%
D15*
%TO.C,R34*%
X39995600Y-105054400D03*
X41995600Y-105054400D03*
%TD*%
D16*
%TO.C,R17*%
X45671100Y-37719000D03*
X47496100Y-37719000D03*
%TD*%
D17*
%TO.C,D16*%
X96266000Y-71459200D03*
X96266000Y-69409200D03*
%TD*%
D18*
%TO.C,C9*%
X70891400Y-54182100D03*
X70891400Y-56257100D03*
%TD*%
D19*
%TO.C,C57*%
X120777000Y-64228800D03*
X120777000Y-62153800D03*
%TD*%
D20*
%TO.C,C58*%
X109217500Y-57740000D03*
X107142500Y-57740000D03*
%TD*%
D21*
%TO.C,L3*%
X150571200Y-102681100D03*
X150571200Y-99706100D03*
%TD*%
D15*
%TO.C,R10*%
X50003200Y-61010800D03*
X52003200Y-61010800D03*
%TD*%
D22*
%TO.C,U16*%
X132960000Y-99510000D03*
X132960000Y-100460000D03*
X132960000Y-101410000D03*
X135660000Y-101410000D03*
X135660000Y-99510000D03*
%TD*%
D23*
%TO.C,C42*%
X48310800Y-93914100D03*
X48310800Y-96789100D03*
%TD*%
D12*
%TO.C,C14*%
X66932900Y-57607200D03*
X69007900Y-57607200D03*
%TD*%
D10*
%TO.C,R16*%
X44145200Y-45145200D03*
X44145200Y-43145200D03*
%TD*%
D20*
%TO.C,C59*%
X109217500Y-59750000D03*
X107142500Y-59750000D03*
%TD*%
D24*
%TO.C,R46*%
X63449200Y-63423800D03*
X64739670Y-64714270D03*
%TD*%
D15*
%TO.C,R33*%
X146167600Y-93370400D03*
X148167600Y-93370400D03*
%TD*%
D10*
%TO.C,R14*%
X50165000Y-52155600D03*
X50165000Y-50155600D03*
%TD*%
D12*
%TO.C,C51*%
X127842100Y-56464200D03*
X129917100Y-56464200D03*
%TD*%
D25*
%TO.C,L4*%
X100669200Y-79445122D03*
X98619200Y-79445122D03*
%TD*%
D11*
%TO.C,C60*%
X119362500Y-67320000D03*
X122237500Y-67320000D03*
%TD*%
D26*
%TO.C,L5*%
X110439200Y-38390500D03*
X110439200Y-41365500D03*
%TD*%
D27*
%TO.C,C13*%
X52923300Y-56261000D03*
X50048300Y-56261000D03*
%TD*%
D11*
%TO.C,C18*%
X160792300Y-97028000D03*
X163667300Y-97028000D03*
%TD*%
D28*
%TO.C,SW5*%
X103755100Y-80664322D03*
X103755100Y-81934322D03*
X103755100Y-83204322D03*
X103755100Y-84474322D03*
X111375100Y-84474322D03*
X111375100Y-83204322D03*
X111375100Y-81934322D03*
X111375100Y-80664322D03*
%TD*%
D18*
%TO.C,C39*%
X117170200Y-43869700D03*
X117170200Y-45944700D03*
%TD*%
D11*
%TO.C,C11*%
X69504700Y-50215800D03*
X72379700Y-50215800D03*
%TD*%
D15*
%TO.C,R57*%
X91354400Y-62992000D03*
X93354400Y-62992000D03*
%TD*%
D29*
%TO.C,Q3*%
X161876500Y-112435600D03*
X161876500Y-114335600D03*
X163751500Y-113385600D03*
%TD*%
D20*
%TO.C,C5*%
X46884500Y-54940200D03*
X44809500Y-54940200D03*
%TD*%
D10*
%TO.C,R23*%
X46380400Y-103362000D03*
X46380400Y-101362000D03*
%TD*%
D11*
%TO.C,C50*%
X124165500Y-64871600D03*
X127040500Y-64871600D03*
%TD*%
D30*
%TO.C,D18*%
X119461600Y-72898000D03*
X116961600Y-72898000D03*
%TD*%
%TO.C,D17*%
X119461600Y-70891400D03*
X116961600Y-70891400D03*
%TD*%
D31*
%TO.C,R22*%
X58877200Y-63425700D03*
X58877200Y-65250700D03*
%TD*%
D11*
%TO.C,C54*%
X123759100Y-62661800D03*
X126634100Y-62661800D03*
%TD*%
D12*
%TO.C,C28*%
X90932000Y-71342522D03*
X93007000Y-71342522D03*
%TD*%
D10*
%TO.C,R2*%
X74650600Y-50530000D03*
X74650600Y-48530000D03*
%TD*%
D15*
%TO.C,R53*%
X110760000Y-43357800D03*
X112760000Y-43357800D03*
%TD*%
D32*
%TO.C,R30*%
X56906235Y-62829365D03*
X55615765Y-64119835D03*
%TD*%
D33*
%TO.C,R44*%
X97262100Y-75711322D03*
X95262100Y-75711322D03*
%TD*%
D34*
%TO.C,C62*%
X121587500Y-69610000D03*
X124712500Y-69610000D03*
%TD*%
D15*
%TO.C,R51*%
X93437200Y-88925400D03*
X95437200Y-88925400D03*
%TD*%
D23*
%TO.C,C48*%
X109090000Y-63082500D03*
X109090000Y-65957500D03*
%TD*%
D10*
%TO.C,R65*%
X134010400Y-84439000D03*
X134010400Y-82439000D03*
%TD*%
D30*
%TO.C,D19*%
X119461600Y-74904600D03*
X116961600Y-74904600D03*
%TD*%
D35*
%TO.C,Q4*%
X132527000Y-70431900D03*
X134427000Y-70431900D03*
X133477000Y-68556900D03*
%TD*%
D36*
%TO.C,R35*%
X147072500Y-103780000D03*
X145247500Y-103780000D03*
%TD*%
D18*
%TO.C,C10*%
X45770800Y-94974500D03*
X45770800Y-97049500D03*
%TD*%
D19*
%TO.C,C21*%
X150977600Y-95931900D03*
X150977600Y-93856900D03*
%TD*%
D33*
%TO.C,R80*%
X119750000Y-82960000D03*
X117750000Y-82960000D03*
%TD*%
D36*
%TO.C,R78*%
X128166500Y-66751200D03*
X126341500Y-66751200D03*
%TD*%
D23*
%TO.C,C37*%
X114757200Y-42504500D03*
X114757200Y-45379500D03*
%TD*%
D15*
%TO.C,R5*%
X50181000Y-54152800D03*
X52181000Y-54152800D03*
%TD*%
D33*
%TO.C,R49*%
X100110800Y-86868000D03*
X98110800Y-86868000D03*
%TD*%
D16*
%TO.C,R43*%
X65305300Y-62484000D03*
X67130300Y-62484000D03*
%TD*%
D37*
%TO.C,Q5*%
X124700000Y-93312500D03*
X122800000Y-93312500D03*
X123750000Y-95187500D03*
%TD*%
D16*
%TO.C,R42*%
X65305300Y-60960000D03*
X67130300Y-60960000D03*
%TD*%
D12*
%TO.C,C52*%
X127867500Y-58496200D03*
X129942500Y-58496200D03*
%TD*%
D38*
%TO.C,U4*%
X41366400Y-96133500D03*
X42316400Y-96133500D03*
X43266400Y-96133500D03*
X43266400Y-93858500D03*
X41366400Y-93858500D03*
%TD*%
D27*
%TO.C,C49*%
X101894500Y-62230000D03*
X99019500Y-62230000D03*
%TD*%
D39*
%TO.C,D7*%
X152222200Y-79678800D03*
X152222200Y-76378800D03*
%TD*%
D29*
%TO.C,Q2*%
X161800300Y-108930400D03*
X161800300Y-110830400D03*
X163675300Y-109880400D03*
%TD*%
D15*
%TO.C,R79*%
X125200000Y-99590000D03*
X127200000Y-99590000D03*
%TD*%
D40*
%TO.C,R9*%
X148183600Y-89551000D03*
X148183600Y-91551000D03*
%TD*%
D41*
%TO.C,C32*%
X160577700Y-89636600D03*
X158852700Y-89636600D03*
%TD*%
D42*
%TO.C,Y1*%
X46544600Y-59189800D03*
X46544600Y-56989800D03*
X44844600Y-56989800D03*
X44844600Y-59189800D03*
%TD*%
D33*
%TO.C,R54*%
X123783600Y-53111400D03*
X121783600Y-53111400D03*
%TD*%
D20*
%TO.C,C1*%
X49475300Y-66522600D03*
X47400300Y-66522600D03*
%TD*%
D43*
%TO.C,R70*%
X134391400Y-51560100D03*
X134391400Y-49735100D03*
%TD*%
D24*
%TO.C,R48*%
X62382400Y-64490600D03*
X63672870Y-65781070D03*
%TD*%
D44*
%TO.C,U13*%
X159497600Y-87850900D03*
X160147600Y-87850900D03*
X160797600Y-87850900D03*
X161447600Y-87850900D03*
X162097600Y-87850900D03*
X162747600Y-87850900D03*
X163397600Y-87850900D03*
X164047600Y-87850900D03*
X164047600Y-82125900D03*
X163397600Y-82125900D03*
X162747600Y-82125900D03*
X162097600Y-82125900D03*
X161447600Y-82125900D03*
X160797600Y-82125900D03*
X160147600Y-82125900D03*
X159497598Y-82125896D03*
%TD*%
D15*
%TO.C,R60*%
X116900000Y-63250000D03*
X118900000Y-63250000D03*
%TD*%
D31*
%TO.C,R24*%
X60401200Y-63425700D03*
X60401200Y-65250700D03*
%TD*%
D20*
%TO.C,C55*%
X134158900Y-57531000D03*
X132083900Y-57531000D03*
%TD*%
D40*
%TO.C,R38*%
X146024600Y-89500200D03*
X146024600Y-91500200D03*
%TD*%
D12*
%TO.C,C4*%
X82680900Y-45339000D03*
X84755900Y-45339000D03*
%TD*%
D33*
%TO.C,R4*%
X67471800Y-50215800D03*
X65471800Y-50215800D03*
%TD*%
D15*
%TO.C,R29*%
X128720000Y-89340000D03*
X130720000Y-89340000D03*
%TD*%
D10*
%TO.C,R18*%
X87833200Y-45526200D03*
X87833200Y-43526200D03*
%TD*%
D30*
%TO.C,D20*%
X119461600Y-76936600D03*
X116961600Y-76936600D03*
%TD*%
D32*
%TO.C,R26*%
X55839435Y-61762565D03*
X54548965Y-63053035D03*
%TD*%
D33*
%TO.C,R6*%
X67573400Y-54305200D03*
X65573400Y-54305200D03*
%TD*%
%TO.C,R62*%
X105902000Y-62204600D03*
X103902000Y-62204600D03*
%TD*%
D20*
%TO.C,C36*%
X101138900Y-75565000D03*
X99063900Y-75565000D03*
%TD*%
D15*
%TO.C,R1*%
X44745400Y-48260000D03*
X46745400Y-48260000D03*
%TD*%
D45*
%TO.C,U20*%
X128625600Y-87020400D03*
X131165600Y-87020400D03*
X131165600Y-79400400D03*
X128625600Y-79400400D03*
%TD*%
D46*
%TO.C,R20*%
X157428600Y-91541600D03*
X160528600Y-91541600D03*
%TD*%
D28*
%TO.C,SW4*%
X103831300Y-71901322D03*
X103831300Y-73171322D03*
X103831300Y-74441322D03*
X103831300Y-75711322D03*
X111451300Y-75711322D03*
X111451300Y-74441322D03*
X111451300Y-73171322D03*
X111451300Y-71901322D03*
%TD*%
D47*
%TO.C,C29*%
X162383300Y-89687400D03*
X164108300Y-89687400D03*
%TD*%
D48*
%TO.C,C16*%
X153365200Y-94655500D03*
X153365200Y-91780500D03*
%TD*%
D12*
%TO.C,C27*%
X125911700Y-52451000D03*
X127986700Y-52451000D03*
%TD*%
D42*
%TO.C,Y2*%
X90093800Y-78038600D03*
X90093800Y-80238600D03*
X88393800Y-80238600D03*
X88393800Y-78038600D03*
%TD*%
D10*
%TO.C,R45*%
X108483400Y-50758600D03*
X108483400Y-48758600D03*
%TD*%
%TO.C,R61*%
X105283000Y-60232800D03*
X105283000Y-58232800D03*
%TD*%
D45*
%TO.C,U21*%
X127508000Y-76479400D03*
X130048000Y-76479400D03*
X130048000Y-68859400D03*
X127508000Y-68859400D03*
%TD*%
D15*
%TO.C,R32*%
X146066000Y-95275400D03*
X148066000Y-95275400D03*
%TD*%
D40*
%TO.C,R40*%
X151028400Y-87747600D03*
X151028400Y-89747600D03*
%TD*%
D15*
%TO.C,R52*%
X89068400Y-88265000D03*
X91068400Y-88265000D03*
%TD*%
D40*
%TO.C,R15*%
X54457600Y-46345600D03*
X54457600Y-48345600D03*
%TD*%
D20*
%TO.C,C43*%
X131923700Y-52476400D03*
X129848700Y-52476400D03*
%TD*%
D17*
%TO.C,D15*%
X99999800Y-71535400D03*
X99999800Y-69485400D03*
%TD*%
D27*
%TO.C,C56*%
X69988200Y-83966322D03*
X67113200Y-83966322D03*
%TD*%
D12*
%TO.C,C35*%
X87045800Y-71342522D03*
X89120800Y-71342522D03*
%TD*%
%TO.C,C45*%
X132058500Y-59486800D03*
X134133500Y-59486800D03*
%TD*%
%TO.C,C25*%
X82804000Y-84728322D03*
X84879000Y-84728322D03*
%TD*%
D25*
%TO.C,D6*%
X76056600Y-46609000D03*
X74006600Y-46609000D03*
%TD*%
D33*
%TO.C,R81*%
X119008400Y-85750400D03*
X117008400Y-85750400D03*
%TD*%
%TO.C,R8*%
X67421000Y-44907200D03*
X65421000Y-44907200D03*
%TD*%
%TO.C,R41*%
X159800800Y-114274600D03*
X157800800Y-114274600D03*
%TD*%
D10*
%TO.C,R31*%
X140817600Y-102981000D03*
X140817600Y-100981000D03*
%TD*%
D49*
%TO.C,U7*%
X102572000Y-42698400D03*
X99222000Y-39648400D03*
X99222000Y-42698400D03*
X102572000Y-39648400D03*
D50*
X107197000Y-43453400D03*
X107197000Y-38893400D03*
%TD*%
D47*
%TO.C,C33*%
X162332500Y-91287600D03*
X164057500Y-91287600D03*
%TD*%
D10*
%TO.C,R55*%
X125919611Y-58462598D03*
X125919611Y-56462598D03*
%TD*%
D19*
%TO.C,C41*%
X89277100Y-86121422D03*
X89277100Y-84046422D03*
%TD*%
D10*
%TO.C,R3*%
X70891400Y-46567600D03*
X70891400Y-44567600D03*
%TD*%
D33*
%TO.C,R19*%
X94980000Y-44221400D03*
X92980000Y-44221400D03*
%TD*%
D43*
%TO.C,R36*%
X156108400Y-114577500D03*
X156108400Y-112752500D03*
%TD*%
D51*
%TO.C,U15*%
X111614400Y-52467800D03*
X111614400Y-53117800D03*
X111614407Y-53767812D03*
X111614407Y-54417798D03*
X111614407Y-55067810D03*
X111614407Y-55717796D03*
X111614407Y-56367807D03*
X111614400Y-57017800D03*
X111614400Y-57667800D03*
X111614400Y-58317800D03*
X111614407Y-58967802D03*
X111614400Y-59617800D03*
X111614400Y-60267800D03*
X111614400Y-60917800D03*
X118814400Y-60917800D03*
X118814400Y-60267800D03*
X118814400Y-59617800D03*
X118814393Y-58967802D03*
X118814400Y-58317800D03*
X118814400Y-57667800D03*
X118814400Y-57017800D03*
X118814393Y-56367807D03*
X118814400Y-55717800D03*
X118814400Y-55067800D03*
X118814393Y-54417798D03*
X118814393Y-53767812D03*
X118814400Y-53117800D03*
X118814393Y-52467789D03*
%TD*%
D33*
%TO.C,R7*%
X67446400Y-47980600D03*
X65446400Y-47980600D03*
%TD*%
D15*
%TO.C,R59*%
X91379800Y-64947800D03*
X93379800Y-64947800D03*
%TD*%
D20*
%TO.C,C2*%
X46884500Y-61214000D03*
X44809500Y-61214000D03*
%TD*%
D18*
%TO.C,C7*%
X56515000Y-46333500D03*
X56515000Y-48408500D03*
%TD*%
D47*
%TO.C,C24*%
X155499900Y-89636600D03*
X157224900Y-89636600D03*
%TD*%
D15*
%TO.C,R39*%
X142710000Y-102020000D03*
X144710000Y-102020000D03*
%TD*%
D52*
%TO.C,U5*%
X46741500Y-39537600D03*
X46741500Y-40487600D03*
X46741500Y-41437600D03*
X49016500Y-41437600D03*
X49016500Y-39537600D03*
%TD*%
D12*
%TO.C,C6*%
X49965700Y-58953400D03*
X52040700Y-58953400D03*
%TD*%
%TO.C,C31*%
X91871800Y-78022722D03*
X93946800Y-78022722D03*
%TD*%
D53*
%TO.C,C19*%
X160681000Y-94259400D03*
X163931000Y-94259400D03*
%TD*%
D10*
%TO.C,R28*%
X133934200Y-88376000D03*
X133934200Y-86376000D03*
%TD*%
D44*
%TO.C,U9*%
X152939200Y-87850900D03*
X153589200Y-87850900D03*
X154239200Y-87850900D03*
X154889200Y-87850900D03*
X155539211Y-87850904D03*
X156189197Y-87850904D03*
X156839200Y-87850900D03*
X156839200Y-82125900D03*
X156189200Y-82125900D03*
X155539200Y-82125900D03*
X154889200Y-82125900D03*
X154239189Y-82125896D03*
X153589200Y-82125900D03*
X152939191Y-82125896D03*
%TD*%
D54*
%TO.C,D1*%
X41697800Y-52349400D03*
X43747800Y-52349400D03*
%TD*%
D15*
%TO.C,R50*%
X102073200Y-87655400D03*
X104073200Y-87655400D03*
%TD*%
D45*
%TO.C,U18*%
X121900000Y-80270000D03*
X124440000Y-80270000D03*
X124440000Y-72650000D03*
X121900000Y-72650000D03*
%TD*%
D33*
%TO.C,R58*%
X134146800Y-55499000D03*
X132146800Y-55499000D03*
%TD*%
D15*
%TO.C,R67*%
X112150000Y-69120000D03*
X114150000Y-69120000D03*
%TD*%
D12*
%TO.C,C12*%
X65510500Y-52298600D03*
X67585500Y-52298600D03*
%TD*%
D54*
%TO.C,D5*%
X74006600Y-44602400D03*
X76056600Y-44602400D03*
%TD*%
D33*
%TO.C,R66*%
X119310000Y-78890000D03*
X117310000Y-78890000D03*
%TD*%
D11*
%TO.C,C20*%
X155534500Y-97002600D03*
X158409500Y-97002600D03*
%TD*%
D20*
%TO.C,C46*%
X113217500Y-63230000D03*
X111142500Y-63230000D03*
%TD*%
D11*
%TO.C,C8*%
X42555300Y-66522600D03*
X45430300Y-66522600D03*
%TD*%
D12*
%TO.C,C47*%
X74574400Y-66922922D03*
X76649400Y-66922922D03*
%TD*%
D40*
%TO.C,R68*%
X112020000Y-65150000D03*
X112020000Y-67150000D03*
%TD*%
D29*
%TO.C,Q1*%
X46230300Y-43119000D03*
X46230300Y-45019000D03*
X48105300Y-44069000D03*
%TD*%
D16*
%TO.C,R37*%
X157710500Y-112522000D03*
X159535500Y-112522000D03*
%TD*%
D12*
%TO.C,C53*%
X78003400Y-85312522D03*
X80078400Y-85312522D03*
%TD*%
%TO.C,C17*%
X40821700Y-36880800D03*
X42896700Y-36880800D03*
%TD*%
D20*
%TO.C,C22*%
X163851500Y-106095800D03*
X161776500Y-106095800D03*
%TD*%
D42*
%TO.C,Y3*%
X123989200Y-58504000D03*
X123989200Y-56304000D03*
X122289200Y-56304000D03*
X122289200Y-58504000D03*
%TD*%
D10*
%TO.C,R47*%
X85162300Y-71174122D03*
X85162300Y-69174122D03*
%TD*%
D20*
%TO.C,C26*%
X70832800Y-86125322D03*
X68757800Y-86125322D03*
%TD*%
D25*
%TO.C,L6*%
X94213700Y-84880722D03*
X92163700Y-84880722D03*
%TD*%
D40*
%TO.C,R63*%
X134112000Y-72360000D03*
X134112000Y-74360000D03*
%TD*%
%TO.C,R13*%
X52146200Y-50155600D03*
X52146200Y-52155600D03*
%TD*%
D55*
%TO.C,SW8*%
X133059500Y-97423500D03*
D56*
X133070000Y-94923500D03*
D57*
X133020000Y-92423500D03*
D55*
X126680500Y-97423500D03*
X126680500Y-94923500D03*
X126680500Y-92423500D03*
%TD*%
D23*
%TO.C,C23*%
X146740000Y-99052500D03*
X146740000Y-101927500D03*
%TD*%
D58*
%TO.C,U6*%
X59044200Y-57277000D03*
X60274200Y-58507000D03*
X60274200Y-56047000D03*
X59044200Y-56047000D03*
X59044200Y-58507000D03*
X61504200Y-57277000D03*
X61504200Y-58507000D03*
X61504200Y-56047000D03*
X60274200Y-57277000D03*
D59*
X58274200Y-60214500D03*
X58774200Y-60214500D03*
X59274200Y-60214500D03*
X59774200Y-60214500D03*
X60274200Y-60214500D03*
X60774200Y-60214500D03*
X61274200Y-60214500D03*
X61774200Y-60214500D03*
X62274200Y-60214500D03*
D60*
X63211700Y-59277000D03*
X63211710Y-58776997D03*
X63211700Y-58277000D03*
X63211710Y-57776999D03*
X63211710Y-57277000D03*
X63211700Y-56777000D03*
X63211710Y-56277002D03*
X63211700Y-55777000D03*
X63211700Y-55277000D03*
D59*
X62274200Y-54339500D03*
X61774200Y-54339500D03*
X61274198Y-54339490D03*
X60774200Y-54339500D03*
X60274200Y-54339500D03*
X59774200Y-54339500D03*
X59274200Y-54339500D03*
X58774200Y-54339500D03*
X58274200Y-54339500D03*
D60*
X57336700Y-55277000D03*
X57336704Y-55776992D03*
X57336700Y-56277000D03*
X57336700Y-56777000D03*
X57336700Y-57277000D03*
X57336700Y-57777000D03*
X57336700Y-58277000D03*
X57336700Y-58777000D03*
X57336700Y-59277000D03*
%TD*%
D61*
%TO.C,U3*%
X50104000Y-48083600D03*
X52004000Y-48083600D03*
X51054000Y-45083600D03*
%TD*%
D12*
%TO.C,C30*%
X91897200Y-80232522D03*
X93972200Y-80232522D03*
%TD*%
D43*
%TO.C,R69*%
X134416800Y-45387900D03*
X134416800Y-43562900D03*
%TD*%
D52*
%TO.C,U10*%
X42118700Y-101361200D03*
X42118700Y-102311200D03*
X42118700Y-103261200D03*
X44393700Y-103261200D03*
X44393700Y-101361200D03*
%TD*%
D25*
%TO.C,L1*%
X76793200Y-54381400D03*
X74743200Y-54381400D03*
%TD*%
D62*
%TO.C,U17*%
X82937883Y-79893135D03*
X82937900Y-79393122D03*
X82937900Y-78893122D03*
X82937900Y-78393122D03*
X82937895Y-77893131D03*
X82937895Y-77393132D03*
X82937895Y-76893133D03*
X82937895Y-76393134D03*
X82937895Y-75893110D03*
X82937895Y-75393111D03*
X82937895Y-74893112D03*
X82937900Y-74393122D03*
X82937895Y-73893114D03*
X82937900Y-73393122D03*
X82937895Y-72893116D03*
X82937900Y-72393122D03*
D63*
X81012905Y-70468127D03*
X80512900Y-70468122D03*
X80012900Y-70468122D03*
X79512900Y-70468122D03*
X79012900Y-70468122D03*
X78512900Y-70468122D03*
X78012911Y-70468127D03*
X77512900Y-70468122D03*
X77012900Y-70468122D03*
X76512900Y-70468122D03*
X76012900Y-70468122D03*
X75512900Y-70468122D03*
X75012900Y-70468122D03*
X74512893Y-70468127D03*
X74012900Y-70468122D03*
X73512895Y-70468127D03*
D62*
X71587900Y-72393122D03*
X71587905Y-72893116D03*
X71587905Y-73393115D03*
X71587905Y-73893114D03*
X71587900Y-74393122D03*
X71587900Y-74893122D03*
X71587900Y-75393122D03*
X71587900Y-75893122D03*
X71587900Y-76393122D03*
X71587900Y-76893122D03*
X71587900Y-77393122D03*
X71587900Y-77893122D03*
X71587905Y-78393130D03*
X71587900Y-78893122D03*
X71587900Y-79393122D03*
X71587900Y-79893122D03*
D63*
X73512900Y-81818122D03*
X74012894Y-81818117D03*
X74512893Y-81818117D03*
X75012892Y-81818117D03*
X75512891Y-81818117D03*
X76012900Y-81818122D03*
X76512900Y-81818122D03*
X77012900Y-81818122D03*
X77512912Y-81818117D03*
X78012900Y-81818122D03*
X78512900Y-81818122D03*
X79012900Y-81818122D03*
X79512908Y-81818117D03*
X80012907Y-81818117D03*
X80512900Y-81818122D03*
X81012900Y-81818122D03*
%TD*%
D64*
%TO.C,C3*%
X45450600Y-27965400D03*
X40350600Y-27965400D03*
%TD*%
M02*
