%TF.GenerationSoftware,KiCad,Pcbnew,6.0.2+dfsg-1*%
%TF.CreationDate,2024-03-10T18:27:39+01:00*%
%TF.ProjectId,radio-usb,72616469-6f2d-4757-9362-2e6b69636164,rev?*%
%TF.SameCoordinates,Original*%
%TF.FileFunction,Legend,Bot*%
%TF.FilePolarity,Positive*%
%FSLAX46Y46*%
G04 Gerber Fmt 4.6, Leading zero omitted, Abs format (unit mm)*
G04 Created by KiCad (PCBNEW 6.0.2+dfsg-1) date 2024-03-10 18:27:39*
%MOMM*%
%LPD*%
G01*
G04 APERTURE LIST*
%ADD10C,0.203200*%
%ADD11C,0.304800*%
%ADD12C,0.150000*%
%ADD13C,0.120000*%
G04 APERTURE END LIST*
D10*
X147977739Y-70440247D02*
X147300405Y-70440247D01*
X146961739Y-70440247D02*
X147010120Y-70391866D01*
X147058500Y-70440247D01*
X147010120Y-70488628D01*
X146961739Y-70440247D01*
X147058500Y-70440247D01*
X147929358Y-70875676D02*
X147977739Y-70972438D01*
X147977739Y-71165961D01*
X147929358Y-71262723D01*
X147832596Y-71311104D01*
X147784215Y-71311104D01*
X147687453Y-71262723D01*
X147639072Y-71165961D01*
X147639072Y-71020819D01*
X147590691Y-70924057D01*
X147493929Y-70875676D01*
X147445548Y-70875676D01*
X147348786Y-70924057D01*
X147300405Y-71020819D01*
X147300405Y-71165961D01*
X147348786Y-71262723D01*
X147977739Y-71891676D02*
X147929358Y-71794914D01*
X147880977Y-71746533D01*
X147784215Y-71698152D01*
X147493929Y-71698152D01*
X147397167Y-71746533D01*
X147348786Y-71794914D01*
X147300405Y-71891676D01*
X147300405Y-72036819D01*
X147348786Y-72133580D01*
X147397167Y-72181961D01*
X147493929Y-72230342D01*
X147784215Y-72230342D01*
X147880977Y-72181961D01*
X147929358Y-72133580D01*
X147977739Y-72036819D01*
X147977739Y-71891676D01*
X147977739Y-72810914D02*
X147929358Y-72714152D01*
X147832596Y-72665771D01*
X146961739Y-72665771D01*
X147977739Y-73633390D02*
X147445548Y-73633390D01*
X147348786Y-73585009D01*
X147300405Y-73488247D01*
X147300405Y-73294723D01*
X147348786Y-73197961D01*
X147929358Y-73633390D02*
X147977739Y-73536628D01*
X147977739Y-73294723D01*
X147929358Y-73197961D01*
X147832596Y-73149580D01*
X147735834Y-73149580D01*
X147639072Y-73197961D01*
X147590691Y-73294723D01*
X147590691Y-73536628D01*
X147542310Y-73633390D01*
X147300405Y-73972057D02*
X147300405Y-74359104D01*
X146961739Y-74117200D02*
X147832596Y-74117200D01*
X147929358Y-74165580D01*
X147977739Y-74262342D01*
X147977739Y-74359104D01*
X147929358Y-75084819D02*
X147977739Y-74988057D01*
X147977739Y-74794533D01*
X147929358Y-74697771D01*
X147832596Y-74649390D01*
X147445548Y-74649390D01*
X147348786Y-74697771D01*
X147300405Y-74794533D01*
X147300405Y-74988057D01*
X147348786Y-75084819D01*
X147445548Y-75133200D01*
X147542310Y-75133200D01*
X147639072Y-74649390D01*
X147977739Y-76004057D02*
X146961739Y-76004057D01*
X147929358Y-76004057D02*
X147977739Y-75907295D01*
X147977739Y-75713771D01*
X147929358Y-75617009D01*
X147880977Y-75568628D01*
X147784215Y-75520247D01*
X147493929Y-75520247D01*
X147397167Y-75568628D01*
X147348786Y-75617009D01*
X147300405Y-75713771D01*
X147300405Y-75907295D01*
X147348786Y-76004057D01*
X148597499Y-70029009D02*
X148597499Y-70609580D01*
X149613499Y-70319295D02*
X148597499Y-70319295D01*
X148597499Y-70803104D02*
X148597499Y-71383676D01*
X149613499Y-71093390D02*
X148597499Y-71093390D01*
X149613499Y-72206152D02*
X149613499Y-71722342D01*
X148597499Y-71722342D01*
X149226451Y-72544819D02*
X149226451Y-73318914D01*
X148597499Y-73802723D02*
X149419975Y-73802723D01*
X149516737Y-73851104D01*
X149565118Y-73899485D01*
X149613499Y-73996247D01*
X149613499Y-74189771D01*
X149565118Y-74286533D01*
X149516737Y-74334914D01*
X149419975Y-74383295D01*
X148597499Y-74383295D01*
X149323213Y-74818723D02*
X149323213Y-75302533D01*
X149613499Y-74721961D02*
X148597499Y-75060628D01*
X149613499Y-75399295D01*
X149613499Y-76318533D02*
X149129689Y-75979866D01*
X149613499Y-75737961D02*
X148597499Y-75737961D01*
X148597499Y-76125009D01*
X148645880Y-76221771D01*
X148694260Y-76270152D01*
X148791022Y-76318533D01*
X148936165Y-76318533D01*
X149032927Y-76270152D01*
X149081308Y-76221771D01*
X149129689Y-76125009D01*
X149129689Y-75737961D01*
X148597499Y-76608819D02*
X148597499Y-77189390D01*
X149613499Y-76899104D02*
X148597499Y-76899104D01*
X113960123Y-77726419D02*
X113960123Y-76710419D01*
X113573076Y-76710419D01*
X113476314Y-76758800D01*
X113427933Y-76807180D01*
X113379552Y-76903942D01*
X113379552Y-77049085D01*
X113427933Y-77145847D01*
X113476314Y-77194228D01*
X113573076Y-77242609D01*
X113960123Y-77242609D01*
X113089266Y-76710419D02*
X112508695Y-76710419D01*
X112798980Y-77726419D02*
X112798980Y-76710419D01*
X112315171Y-76710419D02*
X111734600Y-76710419D01*
X112024885Y-77726419D02*
X112024885Y-76710419D01*
X111637838Y-77823180D02*
X110863742Y-77823180D01*
X110041266Y-77629657D02*
X110089647Y-77678038D01*
X110234790Y-77726419D01*
X110331552Y-77726419D01*
X110476695Y-77678038D01*
X110573457Y-77581276D01*
X110621838Y-77484514D01*
X110670219Y-77290990D01*
X110670219Y-77145847D01*
X110621838Y-76952323D01*
X110573457Y-76855561D01*
X110476695Y-76758800D01*
X110331552Y-76710419D01*
X110234790Y-76710419D01*
X110089647Y-76758800D01*
X110041266Y-76807180D01*
X109750980Y-76710419D02*
X109170409Y-76710419D01*
X109460695Y-77726419D02*
X109460695Y-76710419D01*
X108251171Y-77726419D02*
X108589838Y-77242609D01*
X108831742Y-77726419D02*
X108831742Y-76710419D01*
X108444695Y-76710419D01*
X108347933Y-76758800D01*
X108299552Y-76807180D01*
X108251171Y-76903942D01*
X108251171Y-77049085D01*
X108299552Y-77145847D01*
X108347933Y-77194228D01*
X108444695Y-77242609D01*
X108831742Y-77242609D01*
X107331933Y-77726419D02*
X107815742Y-77726419D01*
X107815742Y-76710419D01*
D11*
X122174000Y-105707180D02*
X121448285Y-105707180D01*
X122319142Y-106142608D02*
X121811142Y-104618608D01*
X121303142Y-106142608D01*
X120142000Y-105126608D02*
X120142000Y-106142608D01*
X120795142Y-105126608D02*
X120795142Y-105924894D01*
X120722571Y-106070037D01*
X120577428Y-106142608D01*
X120359714Y-106142608D01*
X120214571Y-106070037D01*
X120142000Y-105997465D01*
X118763142Y-106142608D02*
X118763142Y-104618608D01*
X118763142Y-106070037D02*
X118908285Y-106142608D01*
X119198571Y-106142608D01*
X119343714Y-106070037D01*
X119416285Y-105997465D01*
X119488857Y-105852322D01*
X119488857Y-105416894D01*
X119416285Y-105271751D01*
X119343714Y-105199180D01*
X119198571Y-105126608D01*
X118908285Y-105126608D01*
X118763142Y-105199180D01*
X118037428Y-106142608D02*
X118037428Y-105126608D01*
X118037428Y-104618608D02*
X118110000Y-104691180D01*
X118037428Y-104763751D01*
X117964857Y-104691180D01*
X118037428Y-104618608D01*
X118037428Y-104763751D01*
X117094000Y-106142608D02*
X117239142Y-106070037D01*
X117311714Y-105997465D01*
X117384285Y-105852322D01*
X117384285Y-105416894D01*
X117311714Y-105271751D01*
X117239142Y-105199180D01*
X117094000Y-105126608D01*
X116876285Y-105126608D01*
X116731142Y-105199180D01*
X116658571Y-105271751D01*
X116586000Y-105416894D01*
X116586000Y-105852322D01*
X116658571Y-105997465D01*
X116731142Y-106070037D01*
X116876285Y-106142608D01*
X117094000Y-106142608D01*
X120432285Y-108596248D02*
X121158000Y-108596248D01*
X121158000Y-107072248D01*
X119343714Y-108523677D02*
X119488857Y-108596248D01*
X119779142Y-108596248D01*
X119924285Y-108523677D01*
X119996857Y-108378534D01*
X119996857Y-107797962D01*
X119924285Y-107652820D01*
X119779142Y-107580248D01*
X119488857Y-107580248D01*
X119343714Y-107652820D01*
X119271142Y-107797962D01*
X119271142Y-107943105D01*
X119996857Y-108088248D01*
X118835714Y-107580248D02*
X118255142Y-107580248D01*
X118618000Y-108596248D02*
X118618000Y-107289962D01*
X118545428Y-107144820D01*
X118400285Y-107072248D01*
X118255142Y-107072248D01*
X117964857Y-107580248D02*
X117384285Y-107580248D01*
X117747142Y-107072248D02*
X117747142Y-108378534D01*
X117674571Y-108523677D01*
X117529428Y-108596248D01*
X117384285Y-108596248D01*
D10*
X56881485Y-27682371D02*
X56107390Y-27682371D01*
X56494438Y-28069419D02*
X56494438Y-27295323D01*
X55139771Y-27053419D02*
X55623580Y-27053419D01*
X55671961Y-27537228D01*
X55623580Y-27488847D01*
X55526819Y-27440466D01*
X55284914Y-27440466D01*
X55188152Y-27488847D01*
X55139771Y-27537228D01*
X55091390Y-27633990D01*
X55091390Y-27875895D01*
X55139771Y-27972657D01*
X55188152Y-28021038D01*
X55284914Y-28069419D01*
X55526819Y-28069419D01*
X55623580Y-28021038D01*
X55671961Y-27972657D01*
X54801104Y-27053419D02*
X54462438Y-28069419D01*
X54123771Y-27053419D01*
X163966676Y-79072619D02*
X163386104Y-79072619D01*
X163676390Y-80088619D02*
X163676390Y-79072619D01*
X163192580Y-79072619D02*
X162612009Y-79072619D01*
X162902295Y-80088619D02*
X162902295Y-79072619D01*
X161789533Y-80088619D02*
X162273342Y-80088619D01*
X162273342Y-79072619D01*
X161692771Y-80185380D02*
X160918676Y-80185380D01*
X160821914Y-79072619D02*
X160241342Y-79072619D01*
X160531628Y-80088619D02*
X160531628Y-79072619D01*
X159999438Y-79072619D02*
X159322104Y-80088619D01*
X159322104Y-79072619D02*
X159999438Y-80088619D01*
X48003580Y-41099619D02*
X47664914Y-42115619D01*
X47326247Y-41099619D01*
X46648914Y-41583428D02*
X46503771Y-41631809D01*
X46455390Y-41680190D01*
X46407009Y-41776952D01*
X46407009Y-41922095D01*
X46455390Y-42018857D01*
X46503771Y-42067238D01*
X46600533Y-42115619D01*
X46987580Y-42115619D01*
X46987580Y-41099619D01*
X46648914Y-41099619D01*
X46552152Y-41148000D01*
X46503771Y-41196380D01*
X46455390Y-41293142D01*
X46455390Y-41389904D01*
X46503771Y-41486666D01*
X46552152Y-41535047D01*
X46648914Y-41583428D01*
X46987580Y-41583428D01*
X45971580Y-41099619D02*
X45971580Y-41922095D01*
X45923200Y-42018857D01*
X45874819Y-42067238D01*
X45778057Y-42115619D01*
X45584533Y-42115619D01*
X45487771Y-42067238D01*
X45439390Y-42018857D01*
X45391009Y-41922095D01*
X45391009Y-41099619D01*
X44955580Y-42067238D02*
X44810438Y-42115619D01*
X44568533Y-42115619D01*
X44471771Y-42067238D01*
X44423390Y-42018857D01*
X44375009Y-41922095D01*
X44375009Y-41825333D01*
X44423390Y-41728571D01*
X44471771Y-41680190D01*
X44568533Y-41631809D01*
X44762057Y-41583428D01*
X44858819Y-41535047D01*
X44907200Y-41486666D01*
X44955580Y-41389904D01*
X44955580Y-41293142D01*
X44907200Y-41196380D01*
X44858819Y-41148000D01*
X44762057Y-41099619D01*
X44520152Y-41099619D01*
X44375009Y-41148000D01*
X44181485Y-42212380D02*
X43407390Y-42212380D01*
X42826819Y-41583428D02*
X43165485Y-41583428D01*
X43165485Y-42115619D02*
X43165485Y-41099619D01*
X42681676Y-41099619D01*
X41810819Y-42115619D02*
X42294628Y-42115619D01*
X42294628Y-41099619D01*
X40939961Y-41148000D02*
X41036723Y-41099619D01*
X41181866Y-41099619D01*
X41327009Y-41148000D01*
X41423771Y-41244761D01*
X41472152Y-41341523D01*
X41520533Y-41535047D01*
X41520533Y-41680190D01*
X41472152Y-41873714D01*
X41423771Y-41970476D01*
X41327009Y-42067238D01*
X41181866Y-42115619D01*
X41085104Y-42115619D01*
X40939961Y-42067238D01*
X40891580Y-42018857D01*
X40891580Y-41680190D01*
X41085104Y-41680190D01*
X83555114Y-88871939D02*
X83555114Y-87855939D01*
X83071304Y-88871939D02*
X83071304Y-87855939D01*
X82490733Y-88871939D01*
X82490733Y-87855939D01*
X82055304Y-88823558D02*
X81910161Y-88871939D01*
X81668257Y-88871939D01*
X81571495Y-88823558D01*
X81523114Y-88775177D01*
X81474733Y-88678415D01*
X81474733Y-88581653D01*
X81523114Y-88484891D01*
X81571495Y-88436510D01*
X81668257Y-88388129D01*
X81861780Y-88339748D01*
X81958542Y-88291367D01*
X82006923Y-88242986D01*
X82055304Y-88146224D01*
X82055304Y-88049462D01*
X82006923Y-87952700D01*
X81958542Y-87904320D01*
X81861780Y-87855939D01*
X81619876Y-87855939D01*
X81474733Y-87904320D01*
X81039304Y-88339748D02*
X80700638Y-88339748D01*
X80555495Y-88871939D02*
X81039304Y-88871939D01*
X81039304Y-87855939D01*
X80555495Y-87855939D01*
X79539495Y-88871939D02*
X79878161Y-88388129D01*
X80120066Y-88871939D02*
X80120066Y-87855939D01*
X79733019Y-87855939D01*
X79636257Y-87904320D01*
X79587876Y-87952700D01*
X79539495Y-88049462D01*
X79539495Y-88194605D01*
X79587876Y-88291367D01*
X79636257Y-88339748D01*
X79733019Y-88388129D01*
X80120066Y-88388129D01*
X79249209Y-87855939D02*
X78668638Y-87855939D01*
X78958923Y-88871939D02*
X78958923Y-87855939D01*
X87449780Y-90217413D02*
X86965971Y-90217413D01*
X87546542Y-90507699D02*
X87207876Y-89491699D01*
X86869209Y-90507699D01*
X86095114Y-89830365D02*
X86095114Y-90507699D01*
X86530542Y-89830365D02*
X86530542Y-90362556D01*
X86482161Y-90459318D01*
X86385400Y-90507699D01*
X86240257Y-90507699D01*
X86143495Y-90459318D01*
X86095114Y-90410937D01*
X85175876Y-90507699D02*
X85175876Y-89491699D01*
X85175876Y-90459318D02*
X85272638Y-90507699D01*
X85466161Y-90507699D01*
X85562923Y-90459318D01*
X85611304Y-90410937D01*
X85659685Y-90314175D01*
X85659685Y-90023889D01*
X85611304Y-89927127D01*
X85562923Y-89878746D01*
X85466161Y-89830365D01*
X85272638Y-89830365D01*
X85175876Y-89878746D01*
X84692066Y-90507699D02*
X84692066Y-89830365D01*
X84692066Y-89491699D02*
X84740447Y-89540080D01*
X84692066Y-89588460D01*
X84643685Y-89540080D01*
X84692066Y-89491699D01*
X84692066Y-89588460D01*
X84063114Y-90507699D02*
X84159876Y-90459318D01*
X84208257Y-90410937D01*
X84256638Y-90314175D01*
X84256638Y-90023889D01*
X84208257Y-89927127D01*
X84159876Y-89878746D01*
X84063114Y-89830365D01*
X83917971Y-89830365D01*
X83821209Y-89878746D01*
X83772828Y-89927127D01*
X83724447Y-90023889D01*
X83724447Y-90314175D01*
X83772828Y-90410937D01*
X83821209Y-90459318D01*
X83917971Y-90507699D01*
X84063114Y-90507699D01*
X82176257Y-89975508D02*
X82514923Y-89975508D01*
X82514923Y-90507699D02*
X82514923Y-89491699D01*
X82031114Y-89491699D01*
X81644066Y-90507699D02*
X81644066Y-89830365D01*
X81644066Y-90023889D02*
X81595685Y-89927127D01*
X81547304Y-89878746D01*
X81450542Y-89830365D01*
X81353780Y-89830365D01*
X80869971Y-90507699D02*
X80966733Y-90459318D01*
X81015114Y-90410937D01*
X81063495Y-90314175D01*
X81063495Y-90023889D01*
X81015114Y-89927127D01*
X80966733Y-89878746D01*
X80869971Y-89830365D01*
X80724828Y-89830365D01*
X80628066Y-89878746D01*
X80579685Y-89927127D01*
X80531304Y-90023889D01*
X80531304Y-90314175D01*
X80579685Y-90410937D01*
X80628066Y-90459318D01*
X80724828Y-90507699D01*
X80869971Y-90507699D01*
X80095876Y-90507699D02*
X80095876Y-89830365D01*
X80095876Y-89927127D02*
X80047495Y-89878746D01*
X79950733Y-89830365D01*
X79805590Y-89830365D01*
X79708828Y-89878746D01*
X79660447Y-89975508D01*
X79660447Y-90507699D01*
X79660447Y-89975508D02*
X79612066Y-89878746D01*
X79515304Y-89830365D01*
X79370161Y-89830365D01*
X79273400Y-89878746D01*
X79225019Y-89975508D01*
X79225019Y-90507699D01*
X77386542Y-90507699D02*
X77725209Y-90023889D01*
X77967114Y-90507699D02*
X77967114Y-89491699D01*
X77580066Y-89491699D01*
X77483304Y-89540080D01*
X77434923Y-89588460D01*
X77386542Y-89685222D01*
X77386542Y-89830365D01*
X77434923Y-89927127D01*
X77483304Y-89975508D01*
X77580066Y-90023889D01*
X77967114Y-90023889D01*
X76515685Y-90507699D02*
X76515685Y-89975508D01*
X76564066Y-89878746D01*
X76660828Y-89830365D01*
X76854352Y-89830365D01*
X76951114Y-89878746D01*
X76515685Y-90459318D02*
X76612447Y-90507699D01*
X76854352Y-90507699D01*
X76951114Y-90459318D01*
X76999495Y-90362556D01*
X76999495Y-90265794D01*
X76951114Y-90169032D01*
X76854352Y-90120651D01*
X76612447Y-90120651D01*
X76515685Y-90072270D01*
X75596447Y-90507699D02*
X75596447Y-89491699D01*
X75596447Y-90459318D02*
X75693209Y-90507699D01*
X75886733Y-90507699D01*
X75983495Y-90459318D01*
X76031876Y-90410937D01*
X76080257Y-90314175D01*
X76080257Y-90023889D01*
X76031876Y-89927127D01*
X75983495Y-89878746D01*
X75886733Y-89830365D01*
X75693209Y-89830365D01*
X75596447Y-89878746D01*
X75112638Y-90507699D02*
X75112638Y-89830365D01*
X75112638Y-89491699D02*
X75161019Y-89540080D01*
X75112638Y-89588460D01*
X75064257Y-89540080D01*
X75112638Y-89491699D01*
X75112638Y-89588460D01*
X74483685Y-90507699D02*
X74580447Y-90459318D01*
X74628828Y-90410937D01*
X74677209Y-90314175D01*
X74677209Y-90023889D01*
X74628828Y-89927127D01*
X74580447Y-89878746D01*
X74483685Y-89830365D01*
X74338542Y-89830365D01*
X74241780Y-89878746D01*
X74193400Y-89927127D01*
X74145019Y-90023889D01*
X74145019Y-90314175D01*
X74193400Y-90410937D01*
X74241780Y-90459318D01*
X74338542Y-90507699D01*
X74483685Y-90507699D01*
X151623485Y-97030419D02*
X151042914Y-97030419D01*
X151333200Y-98046419D02*
X151333200Y-97030419D01*
X150849390Y-97030419D02*
X150268819Y-97030419D01*
X150559104Y-98046419D02*
X150559104Y-97030419D01*
X149446342Y-98046419D02*
X149930152Y-98046419D01*
X149930152Y-97030419D01*
X149349580Y-98143180D02*
X148575485Y-98143180D01*
X147753009Y-98046419D02*
X148091676Y-97562609D01*
X148333580Y-98046419D02*
X148333580Y-97030419D01*
X147946533Y-97030419D01*
X147849771Y-97078800D01*
X147801390Y-97127180D01*
X147753009Y-97223942D01*
X147753009Y-97369085D01*
X147801390Y-97465847D01*
X147849771Y-97514228D01*
X147946533Y-97562609D01*
X148333580Y-97562609D01*
X147414342Y-97030419D02*
X146737009Y-98046419D01*
X146737009Y-97030419D02*
X147414342Y-98046419D01*
X146591866Y-98143180D02*
X145817771Y-98143180D01*
X145624247Y-97127180D02*
X145575866Y-97078800D01*
X145479104Y-97030419D01*
X145237200Y-97030419D01*
X145140438Y-97078800D01*
X145092057Y-97127180D01*
X145043676Y-97223942D01*
X145043676Y-97320704D01*
X145092057Y-97465847D01*
X145672628Y-98046419D01*
X145043676Y-98046419D01*
X93130914Y-56989859D02*
X93130914Y-55973859D01*
X92889009Y-55973859D01*
X92743866Y-56022240D01*
X92647104Y-56119001D01*
X92598723Y-56215763D01*
X92550342Y-56409287D01*
X92550342Y-56554430D01*
X92598723Y-56747954D01*
X92647104Y-56844716D01*
X92743866Y-56941478D01*
X92889009Y-56989859D01*
X93130914Y-56989859D01*
X92114914Y-56989859D02*
X92114914Y-55973859D01*
X91631104Y-56989859D02*
X91631104Y-55973859D01*
X91050533Y-56989859D01*
X91050533Y-55973859D01*
X90082914Y-55973859D02*
X90566723Y-55973859D01*
X90615104Y-56457668D01*
X90566723Y-56409287D01*
X90469961Y-56360906D01*
X90228057Y-56360906D01*
X90131295Y-56409287D01*
X90082914Y-56457668D01*
X90034533Y-56554430D01*
X90034533Y-56796335D01*
X90082914Y-56893097D01*
X90131295Y-56941478D01*
X90228057Y-56989859D01*
X90469961Y-56989859D01*
X90566723Y-56941478D01*
X90615104Y-56893097D01*
X88825009Y-56312525D02*
X88825009Y-57328525D01*
X88825009Y-56360906D02*
X88728247Y-56312525D01*
X88534723Y-56312525D01*
X88437961Y-56360906D01*
X88389580Y-56409287D01*
X88341200Y-56506049D01*
X88341200Y-56796335D01*
X88389580Y-56893097D01*
X88437961Y-56941478D01*
X88534723Y-56989859D01*
X88728247Y-56989859D01*
X88825009Y-56941478D01*
X87905771Y-56989859D02*
X87905771Y-56312525D01*
X87905771Y-55973859D02*
X87954152Y-56022240D01*
X87905771Y-56070620D01*
X87857390Y-56022240D01*
X87905771Y-55973859D01*
X87905771Y-56070620D01*
X87421961Y-56312525D02*
X87421961Y-56989859D01*
X87421961Y-56409287D02*
X87373580Y-56360906D01*
X87276819Y-56312525D01*
X87131676Y-56312525D01*
X87034914Y-56360906D01*
X86986533Y-56457668D01*
X86986533Y-56989859D01*
X86357580Y-56989859D02*
X86454342Y-56941478D01*
X86502723Y-56893097D01*
X86551104Y-56796335D01*
X86551104Y-56506049D01*
X86502723Y-56409287D01*
X86454342Y-56360906D01*
X86357580Y-56312525D01*
X86212438Y-56312525D01*
X86115676Y-56360906D01*
X86067295Y-56409287D01*
X86018914Y-56506049D01*
X86018914Y-56796335D01*
X86067295Y-56893097D01*
X86115676Y-56941478D01*
X86212438Y-56989859D01*
X86357580Y-56989859D01*
X85148057Y-56312525D02*
X85148057Y-56989859D01*
X85583485Y-56312525D02*
X85583485Y-56844716D01*
X85535104Y-56941478D01*
X85438342Y-56989859D01*
X85293200Y-56989859D01*
X85196438Y-56941478D01*
X85148057Y-56893097D01*
X84809390Y-56312525D02*
X84422342Y-56312525D01*
X84664247Y-55973859D02*
X84664247Y-56844716D01*
X84615866Y-56941478D01*
X84519104Y-56989859D01*
X84422342Y-56989859D01*
X95477390Y-58625619D02*
X96057961Y-58625619D01*
X95767676Y-58625619D02*
X95767676Y-57609619D01*
X95864438Y-57754761D01*
X95961200Y-57851523D01*
X96057961Y-57899904D01*
X94267866Y-58238571D02*
X93493771Y-58238571D01*
X92284247Y-58335333D02*
X91800438Y-58335333D01*
X92381009Y-58625619D02*
X92042342Y-57609619D01*
X91703676Y-58625619D01*
X90929580Y-57948285D02*
X90929580Y-58625619D01*
X91365009Y-57948285D02*
X91365009Y-58480476D01*
X91316628Y-58577238D01*
X91219866Y-58625619D01*
X91074723Y-58625619D01*
X90977961Y-58577238D01*
X90929580Y-58528857D01*
X90010342Y-58625619D02*
X90010342Y-57609619D01*
X90010342Y-58577238D02*
X90107104Y-58625619D01*
X90300628Y-58625619D01*
X90397390Y-58577238D01*
X90445771Y-58528857D01*
X90494152Y-58432095D01*
X90494152Y-58141809D01*
X90445771Y-58045047D01*
X90397390Y-57996666D01*
X90300628Y-57948285D01*
X90107104Y-57948285D01*
X90010342Y-57996666D01*
X89526533Y-58625619D02*
X89526533Y-57948285D01*
X89526533Y-57609619D02*
X89574914Y-57658000D01*
X89526533Y-57706380D01*
X89478152Y-57658000D01*
X89526533Y-57609619D01*
X89526533Y-57706380D01*
X88897580Y-58625619D02*
X88994342Y-58577238D01*
X89042723Y-58528857D01*
X89091104Y-58432095D01*
X89091104Y-58141809D01*
X89042723Y-58045047D01*
X88994342Y-57996666D01*
X88897580Y-57948285D01*
X88752438Y-57948285D01*
X88655676Y-57996666D01*
X88607295Y-58045047D01*
X88558914Y-58141809D01*
X88558914Y-58432095D01*
X88607295Y-58528857D01*
X88655676Y-58577238D01*
X88752438Y-58625619D01*
X88897580Y-58625619D01*
X87494533Y-57948285D02*
X87107485Y-57948285D01*
X87349390Y-57609619D02*
X87349390Y-58480476D01*
X87301009Y-58577238D01*
X87204247Y-58625619D01*
X87107485Y-58625619D01*
X86623676Y-58625619D02*
X86720438Y-58577238D01*
X86768819Y-58528857D01*
X86817200Y-58432095D01*
X86817200Y-58141809D01*
X86768819Y-58045047D01*
X86720438Y-57996666D01*
X86623676Y-57948285D01*
X86478533Y-57948285D01*
X86381771Y-57996666D01*
X86333390Y-58045047D01*
X86285009Y-58141809D01*
X86285009Y-58432095D01*
X86333390Y-58528857D01*
X86381771Y-58577238D01*
X86478533Y-58625619D01*
X86623676Y-58625619D01*
X85075485Y-58625619D02*
X85075485Y-57948285D01*
X85075485Y-58141809D02*
X85027104Y-58045047D01*
X84978723Y-57996666D01*
X84881961Y-57948285D01*
X84785200Y-57948285D01*
X84011104Y-58625619D02*
X84011104Y-58093428D01*
X84059485Y-57996666D01*
X84156247Y-57948285D01*
X84349771Y-57948285D01*
X84446533Y-57996666D01*
X84011104Y-58577238D02*
X84107866Y-58625619D01*
X84349771Y-58625619D01*
X84446533Y-58577238D01*
X84494914Y-58480476D01*
X84494914Y-58383714D01*
X84446533Y-58286952D01*
X84349771Y-58238571D01*
X84107866Y-58238571D01*
X84011104Y-58190190D01*
X83091866Y-58625619D02*
X83091866Y-57609619D01*
X83091866Y-58577238D02*
X83188628Y-58625619D01*
X83382152Y-58625619D01*
X83478914Y-58577238D01*
X83527295Y-58528857D01*
X83575676Y-58432095D01*
X83575676Y-58141809D01*
X83527295Y-58045047D01*
X83478914Y-57996666D01*
X83382152Y-57948285D01*
X83188628Y-57948285D01*
X83091866Y-57996666D01*
X82608057Y-58625619D02*
X82608057Y-57948285D01*
X82608057Y-57609619D02*
X82656438Y-57658000D01*
X82608057Y-57706380D01*
X82559676Y-57658000D01*
X82608057Y-57609619D01*
X82608057Y-57706380D01*
X81979104Y-58625619D02*
X82075866Y-58577238D01*
X82124247Y-58528857D01*
X82172628Y-58432095D01*
X82172628Y-58141809D01*
X82124247Y-58045047D01*
X82075866Y-57996666D01*
X81979104Y-57948285D01*
X81833961Y-57948285D01*
X81737200Y-57996666D01*
X81688819Y-58045047D01*
X81640438Y-58141809D01*
X81640438Y-58432095D01*
X81688819Y-58528857D01*
X81737200Y-58577238D01*
X81833961Y-58625619D01*
X81979104Y-58625619D01*
X93203485Y-59342140D02*
X93155104Y-59293760D01*
X93058342Y-59245379D01*
X92816438Y-59245379D01*
X92719676Y-59293760D01*
X92671295Y-59342140D01*
X92622914Y-59438902D01*
X92622914Y-59535664D01*
X92671295Y-59680807D01*
X93251866Y-60261379D01*
X92622914Y-60261379D01*
X91413390Y-59874331D02*
X90639295Y-59874331D01*
X88849200Y-59293760D02*
X88945961Y-59245379D01*
X89091104Y-59245379D01*
X89236247Y-59293760D01*
X89333009Y-59390521D01*
X89381390Y-59487283D01*
X89429771Y-59680807D01*
X89429771Y-59825950D01*
X89381390Y-60019474D01*
X89333009Y-60116236D01*
X89236247Y-60212998D01*
X89091104Y-60261379D01*
X88994342Y-60261379D01*
X88849200Y-60212998D01*
X88800819Y-60164617D01*
X88800819Y-59825950D01*
X88994342Y-59825950D01*
X88365390Y-60261379D02*
X88365390Y-59584045D01*
X88365390Y-59777569D02*
X88317009Y-59680807D01*
X88268628Y-59632426D01*
X88171866Y-59584045D01*
X88075104Y-59584045D01*
X87591295Y-60261379D02*
X87688057Y-60212998D01*
X87736438Y-60164617D01*
X87784819Y-60067855D01*
X87784819Y-59777569D01*
X87736438Y-59680807D01*
X87688057Y-59632426D01*
X87591295Y-59584045D01*
X87446152Y-59584045D01*
X87349390Y-59632426D01*
X87301009Y-59680807D01*
X87252628Y-59777569D01*
X87252628Y-60067855D01*
X87301009Y-60164617D01*
X87349390Y-60212998D01*
X87446152Y-60261379D01*
X87591295Y-60261379D01*
X86381771Y-59584045D02*
X86381771Y-60261379D01*
X86817200Y-59584045D02*
X86817200Y-60116236D01*
X86768819Y-60212998D01*
X86672057Y-60261379D01*
X86526914Y-60261379D01*
X86430152Y-60212998D01*
X86381771Y-60164617D01*
X85897961Y-59584045D02*
X85897961Y-60261379D01*
X85897961Y-59680807D02*
X85849580Y-59632426D01*
X85752819Y-59584045D01*
X85607676Y-59584045D01*
X85510914Y-59632426D01*
X85462533Y-59729188D01*
X85462533Y-60261379D01*
X84543295Y-60261379D02*
X84543295Y-59245379D01*
X84543295Y-60212998D02*
X84640057Y-60261379D01*
X84833580Y-60261379D01*
X84930342Y-60212998D01*
X84978723Y-60164617D01*
X85027104Y-60067855D01*
X85027104Y-59777569D01*
X84978723Y-59680807D01*
X84930342Y-59632426D01*
X84833580Y-59584045D01*
X84640057Y-59584045D01*
X84543295Y-59632426D01*
X93469580Y-60881139D02*
X92840628Y-60881139D01*
X93179295Y-61268186D01*
X93034152Y-61268186D01*
X92937390Y-61316567D01*
X92889009Y-61364948D01*
X92840628Y-61461710D01*
X92840628Y-61703615D01*
X92889009Y-61800377D01*
X92937390Y-61848758D01*
X93034152Y-61897139D01*
X93324438Y-61897139D01*
X93421200Y-61848758D01*
X93469580Y-61800377D01*
X91631104Y-61510091D02*
X90857009Y-61510091D01*
X89599104Y-61897139D02*
X89599104Y-60881139D01*
X89212057Y-60881139D01*
X89115295Y-60929520D01*
X89066914Y-60977900D01*
X89018533Y-61074662D01*
X89018533Y-61219805D01*
X89066914Y-61316567D01*
X89115295Y-61364948D01*
X89212057Y-61413329D01*
X89599104Y-61413329D01*
X88728247Y-60881139D02*
X88147676Y-60881139D01*
X88437961Y-61897139D02*
X88437961Y-60881139D01*
X87954152Y-60881139D02*
X87373580Y-60881139D01*
X87663866Y-61897139D02*
X87663866Y-60881139D01*
X86115676Y-61897139D02*
X86212438Y-61848758D01*
X86260819Y-61800377D01*
X86309200Y-61703615D01*
X86309200Y-61413329D01*
X86260819Y-61316567D01*
X86212438Y-61268186D01*
X86115676Y-61219805D01*
X85970533Y-61219805D01*
X85873771Y-61268186D01*
X85825390Y-61316567D01*
X85777009Y-61413329D01*
X85777009Y-61703615D01*
X85825390Y-61800377D01*
X85873771Y-61848758D01*
X85970533Y-61897139D01*
X86115676Y-61897139D01*
X84906152Y-61219805D02*
X84906152Y-61897139D01*
X85341580Y-61219805D02*
X85341580Y-61751996D01*
X85293200Y-61848758D01*
X85196438Y-61897139D01*
X85051295Y-61897139D01*
X84954533Y-61848758D01*
X84906152Y-61800377D01*
X84567485Y-61219805D02*
X84180438Y-61219805D01*
X84422342Y-60881139D02*
X84422342Y-61751996D01*
X84373961Y-61848758D01*
X84277200Y-61897139D01*
X84180438Y-61897139D01*
X96565961Y-62855565D02*
X96565961Y-63532899D01*
X96807866Y-62468518D02*
X97049771Y-63194232D01*
X96420819Y-63194232D01*
X95259676Y-63145851D02*
X94485580Y-63145851D01*
X93276057Y-63242613D02*
X92792247Y-63242613D01*
X93372819Y-63532899D02*
X93034152Y-62516899D01*
X92695485Y-63532899D01*
X91921390Y-62855565D02*
X91921390Y-63532899D01*
X92356819Y-62855565D02*
X92356819Y-63387756D01*
X92308438Y-63484518D01*
X92211676Y-63532899D01*
X92066533Y-63532899D01*
X91969771Y-63484518D01*
X91921390Y-63436137D01*
X91002152Y-63532899D02*
X91002152Y-62516899D01*
X91002152Y-63484518D02*
X91098914Y-63532899D01*
X91292438Y-63532899D01*
X91389200Y-63484518D01*
X91437580Y-63436137D01*
X91485961Y-63339375D01*
X91485961Y-63049089D01*
X91437580Y-62952327D01*
X91389200Y-62903946D01*
X91292438Y-62855565D01*
X91098914Y-62855565D01*
X91002152Y-62903946D01*
X90518342Y-63532899D02*
X90518342Y-62855565D01*
X90518342Y-62516899D02*
X90566723Y-62565280D01*
X90518342Y-62613660D01*
X90469961Y-62565280D01*
X90518342Y-62516899D01*
X90518342Y-62613660D01*
X89889390Y-63532899D02*
X89986152Y-63484518D01*
X90034533Y-63436137D01*
X90082914Y-63339375D01*
X90082914Y-63049089D01*
X90034533Y-62952327D01*
X89986152Y-62903946D01*
X89889390Y-62855565D01*
X89744247Y-62855565D01*
X89647485Y-62903946D01*
X89599104Y-62952327D01*
X89550723Y-63049089D01*
X89550723Y-63339375D01*
X89599104Y-63436137D01*
X89647485Y-63484518D01*
X89744247Y-63532899D01*
X89889390Y-63532899D01*
X88486342Y-62855565D02*
X88099295Y-62855565D01*
X88341200Y-63532899D02*
X88341200Y-62662041D01*
X88292819Y-62565280D01*
X88196057Y-62516899D01*
X88099295Y-62516899D01*
X87760628Y-63532899D02*
X87760628Y-62855565D01*
X87760628Y-63049089D02*
X87712247Y-62952327D01*
X87663866Y-62903946D01*
X87567104Y-62855565D01*
X87470342Y-62855565D01*
X86986533Y-63532899D02*
X87083295Y-63484518D01*
X87131676Y-63436137D01*
X87180057Y-63339375D01*
X87180057Y-63049089D01*
X87131676Y-62952327D01*
X87083295Y-62903946D01*
X86986533Y-62855565D01*
X86841390Y-62855565D01*
X86744628Y-62903946D01*
X86696247Y-62952327D01*
X86647866Y-63049089D01*
X86647866Y-63339375D01*
X86696247Y-63436137D01*
X86744628Y-63484518D01*
X86841390Y-63532899D01*
X86986533Y-63532899D01*
X86212438Y-63532899D02*
X86212438Y-62855565D01*
X86212438Y-62952327D02*
X86164057Y-62903946D01*
X86067295Y-62855565D01*
X85922152Y-62855565D01*
X85825390Y-62903946D01*
X85777009Y-63000708D01*
X85777009Y-63532899D01*
X85777009Y-63000708D02*
X85728628Y-62903946D01*
X85631866Y-62855565D01*
X85486723Y-62855565D01*
X85389961Y-62903946D01*
X85341580Y-63000708D01*
X85341580Y-63532899D01*
X84083676Y-63532899D02*
X84083676Y-62855565D01*
X84083676Y-63049089D02*
X84035295Y-62952327D01*
X83986914Y-62903946D01*
X83890152Y-62855565D01*
X83793390Y-62855565D01*
X83019295Y-63532899D02*
X83019295Y-63000708D01*
X83067676Y-62903946D01*
X83164438Y-62855565D01*
X83357961Y-62855565D01*
X83454723Y-62903946D01*
X83019295Y-63484518D02*
X83116057Y-63532899D01*
X83357961Y-63532899D01*
X83454723Y-63484518D01*
X83503104Y-63387756D01*
X83503104Y-63290994D01*
X83454723Y-63194232D01*
X83357961Y-63145851D01*
X83116057Y-63145851D01*
X83019295Y-63097470D01*
X82100057Y-63532899D02*
X82100057Y-62516899D01*
X82100057Y-63484518D02*
X82196819Y-63532899D01*
X82390342Y-63532899D01*
X82487104Y-63484518D01*
X82535485Y-63436137D01*
X82583866Y-63339375D01*
X82583866Y-63049089D01*
X82535485Y-62952327D01*
X82487104Y-62903946D01*
X82390342Y-62855565D01*
X82196819Y-62855565D01*
X82100057Y-62903946D01*
X81616247Y-63532899D02*
X81616247Y-62855565D01*
X81616247Y-62516899D02*
X81664628Y-62565280D01*
X81616247Y-62613660D01*
X81567866Y-62565280D01*
X81616247Y-62516899D01*
X81616247Y-62613660D01*
X80987295Y-63532899D02*
X81084057Y-63484518D01*
X81132438Y-63436137D01*
X81180819Y-63339375D01*
X81180819Y-63049089D01*
X81132438Y-62952327D01*
X81084057Y-62903946D01*
X80987295Y-62855565D01*
X80842152Y-62855565D01*
X80745390Y-62903946D01*
X80697009Y-62952327D01*
X80648628Y-63049089D01*
X80648628Y-63339375D01*
X80697009Y-63436137D01*
X80745390Y-63484518D01*
X80842152Y-63532899D01*
X80987295Y-63532899D01*
X102202342Y-64152659D02*
X102686152Y-64152659D01*
X102734533Y-64636468D01*
X102686152Y-64588087D01*
X102589390Y-64539706D01*
X102347485Y-64539706D01*
X102250723Y-64588087D01*
X102202342Y-64636468D01*
X102153961Y-64733230D01*
X102153961Y-64975135D01*
X102202342Y-65071897D01*
X102250723Y-65120278D01*
X102347485Y-65168659D01*
X102589390Y-65168659D01*
X102686152Y-65120278D01*
X102734533Y-65071897D01*
X100944438Y-64781611D02*
X100170342Y-64781611D01*
X98331866Y-65168659D02*
X98670533Y-64684849D01*
X98912438Y-65168659D02*
X98912438Y-64152659D01*
X98525390Y-64152659D01*
X98428628Y-64201040D01*
X98380247Y-64249420D01*
X98331866Y-64346182D01*
X98331866Y-64491325D01*
X98380247Y-64588087D01*
X98428628Y-64636468D01*
X98525390Y-64684849D01*
X98912438Y-64684849D01*
X97993200Y-64152659D02*
X97315866Y-65168659D01*
X97315866Y-64152659D02*
X97993200Y-65168659D01*
X95719295Y-65168659D02*
X95719295Y-64636468D01*
X95767676Y-64539706D01*
X95864438Y-64491325D01*
X96057961Y-64491325D01*
X96154723Y-64539706D01*
X95719295Y-65120278D02*
X95816057Y-65168659D01*
X96057961Y-65168659D01*
X96154723Y-65120278D01*
X96203104Y-65023516D01*
X96203104Y-64926754D01*
X96154723Y-64829992D01*
X96057961Y-64781611D01*
X95816057Y-64781611D01*
X95719295Y-64733230D01*
X94800057Y-65120278D02*
X94896819Y-65168659D01*
X95090342Y-65168659D01*
X95187104Y-65120278D01*
X95235485Y-65071897D01*
X95283866Y-64975135D01*
X95283866Y-64684849D01*
X95235485Y-64588087D01*
X95187104Y-64539706D01*
X95090342Y-64491325D01*
X94896819Y-64491325D01*
X94800057Y-64539706D01*
X94509771Y-64491325D02*
X94122723Y-64491325D01*
X94364628Y-64152659D02*
X94364628Y-65023516D01*
X94316247Y-65120278D01*
X94219485Y-65168659D01*
X94122723Y-65168659D01*
X93784057Y-65168659D02*
X93784057Y-64491325D01*
X93784057Y-64152659D02*
X93832438Y-64201040D01*
X93784057Y-64249420D01*
X93735676Y-64201040D01*
X93784057Y-64152659D01*
X93784057Y-64249420D01*
X93397009Y-64491325D02*
X93155104Y-65168659D01*
X92913200Y-64491325D01*
X92139104Y-65120278D02*
X92235866Y-65168659D01*
X92429390Y-65168659D01*
X92526152Y-65120278D01*
X92574533Y-65023516D01*
X92574533Y-64636468D01*
X92526152Y-64539706D01*
X92429390Y-64491325D01*
X92235866Y-64491325D01*
X92139104Y-64539706D01*
X92090723Y-64636468D01*
X92090723Y-64733230D01*
X92574533Y-64829992D01*
X90881200Y-65168659D02*
X90881200Y-64491325D01*
X90881200Y-64152659D02*
X90929580Y-64201040D01*
X90881200Y-64249420D01*
X90832819Y-64201040D01*
X90881200Y-64152659D01*
X90881200Y-64249420D01*
X90397390Y-64491325D02*
X90397390Y-65168659D01*
X90397390Y-64588087D02*
X90349009Y-64539706D01*
X90252247Y-64491325D01*
X90107104Y-64491325D01*
X90010342Y-64539706D01*
X89961961Y-64636468D01*
X89961961Y-65168659D01*
X87978342Y-64104278D02*
X88849200Y-65410563D01*
X86285009Y-65071897D02*
X86333390Y-65120278D01*
X86478533Y-65168659D01*
X86575295Y-65168659D01*
X86720438Y-65120278D01*
X86817200Y-65023516D01*
X86865580Y-64926754D01*
X86913961Y-64733230D01*
X86913961Y-64588087D01*
X86865580Y-64394563D01*
X86817200Y-64297801D01*
X86720438Y-64201040D01*
X86575295Y-64152659D01*
X86478533Y-64152659D01*
X86333390Y-64201040D01*
X86285009Y-64249420D01*
X85994723Y-64152659D02*
X85414152Y-64152659D01*
X85704438Y-65168659D02*
X85704438Y-64152659D01*
X84494914Y-65071897D02*
X84543295Y-65120278D01*
X84688438Y-65168659D01*
X84785200Y-65168659D01*
X84930342Y-65120278D01*
X85027104Y-65023516D01*
X85075485Y-64926754D01*
X85123866Y-64733230D01*
X85123866Y-64588087D01*
X85075485Y-64394563D01*
X85027104Y-64297801D01*
X84930342Y-64201040D01*
X84785200Y-64152659D01*
X84688438Y-64152659D01*
X84543295Y-64201040D01*
X84494914Y-64249420D01*
X84107866Y-65120278D02*
X83962723Y-65168659D01*
X83720819Y-65168659D01*
X83624057Y-65120278D01*
X83575676Y-65071897D01*
X83527295Y-64975135D01*
X83527295Y-64878373D01*
X83575676Y-64781611D01*
X83624057Y-64733230D01*
X83720819Y-64684849D01*
X83914342Y-64636468D01*
X84011104Y-64588087D01*
X84059485Y-64539706D01*
X84107866Y-64442944D01*
X84107866Y-64346182D01*
X84059485Y-64249420D01*
X84011104Y-64201040D01*
X83914342Y-64152659D01*
X83672438Y-64152659D01*
X83527295Y-64201040D01*
X83140247Y-65120278D02*
X82995104Y-65168659D01*
X82753200Y-65168659D01*
X82656438Y-65120278D01*
X82608057Y-65071897D01*
X82559676Y-64975135D01*
X82559676Y-64878373D01*
X82608057Y-64781611D01*
X82656438Y-64733230D01*
X82753200Y-64684849D01*
X82946723Y-64636468D01*
X83043485Y-64588087D01*
X83091866Y-64539706D01*
X83140247Y-64442944D01*
X83140247Y-64346182D01*
X83091866Y-64249420D01*
X83043485Y-64201040D01*
X82946723Y-64152659D01*
X82704819Y-64152659D01*
X82559676Y-64201040D01*
X81398533Y-65120278D02*
X81301771Y-65168659D01*
X81108247Y-65168659D01*
X81011485Y-65120278D01*
X80963104Y-65023516D01*
X80963104Y-64975135D01*
X81011485Y-64878373D01*
X81108247Y-64829992D01*
X81253390Y-64829992D01*
X81350152Y-64781611D01*
X81398533Y-64684849D01*
X81398533Y-64636468D01*
X81350152Y-64539706D01*
X81253390Y-64491325D01*
X81108247Y-64491325D01*
X81011485Y-64539706D01*
X80672819Y-64491325D02*
X80285771Y-64491325D01*
X80527676Y-64152659D02*
X80527676Y-65023516D01*
X80479295Y-65120278D01*
X80382533Y-65168659D01*
X80285771Y-65168659D01*
X79511676Y-65168659D02*
X79511676Y-64636468D01*
X79560057Y-64539706D01*
X79656819Y-64491325D01*
X79850342Y-64491325D01*
X79947104Y-64539706D01*
X79511676Y-65120278D02*
X79608438Y-65168659D01*
X79850342Y-65168659D01*
X79947104Y-65120278D01*
X79995485Y-65023516D01*
X79995485Y-64926754D01*
X79947104Y-64829992D01*
X79850342Y-64781611D01*
X79608438Y-64781611D01*
X79511676Y-64733230D01*
X79173009Y-64491325D02*
X78785961Y-64491325D01*
X79027866Y-64152659D02*
X79027866Y-65023516D01*
X78979485Y-65120278D01*
X78882723Y-65168659D01*
X78785961Y-65168659D01*
X78011866Y-64491325D02*
X78011866Y-65168659D01*
X78447295Y-64491325D02*
X78447295Y-65023516D01*
X78398914Y-65120278D01*
X78302152Y-65168659D01*
X78157009Y-65168659D01*
X78060247Y-65120278D01*
X78011866Y-65071897D01*
X77576438Y-65120278D02*
X77479676Y-65168659D01*
X77286152Y-65168659D01*
X77189390Y-65120278D01*
X77141009Y-65023516D01*
X77141009Y-64975135D01*
X77189390Y-64878373D01*
X77286152Y-64829992D01*
X77431295Y-64829992D01*
X77528057Y-64781611D01*
X77576438Y-64684849D01*
X77576438Y-64636468D01*
X77528057Y-64539706D01*
X77431295Y-64491325D01*
X77286152Y-64491325D01*
X77189390Y-64539706D01*
X75931485Y-65168659D02*
X75931485Y-64491325D01*
X75931485Y-64152659D02*
X75979866Y-64201040D01*
X75931485Y-64249420D01*
X75883104Y-64201040D01*
X75931485Y-64152659D01*
X75931485Y-64249420D01*
X75447676Y-64491325D02*
X75447676Y-65168659D01*
X75447676Y-64588087D02*
X75399295Y-64539706D01*
X75302533Y-64491325D01*
X75157390Y-64491325D01*
X75060628Y-64539706D01*
X75012247Y-64636468D01*
X75012247Y-65168659D01*
X45786523Y-104517371D02*
X45012428Y-104517371D01*
X45399476Y-104904419D02*
X45399476Y-104130323D01*
X44044809Y-103888419D02*
X44528619Y-103888419D01*
X44577000Y-104372228D01*
X44528619Y-104323847D01*
X44431857Y-104275466D01*
X44189952Y-104275466D01*
X44093190Y-104323847D01*
X44044809Y-104372228D01*
X43996428Y-104468990D01*
X43996428Y-104710895D01*
X44044809Y-104807657D01*
X44093190Y-104856038D01*
X44189952Y-104904419D01*
X44431857Y-104904419D01*
X44528619Y-104856038D01*
X44577000Y-104807657D01*
X43706142Y-103888419D02*
X43367476Y-104904419D01*
X43028809Y-103888419D01*
X42690142Y-104904419D02*
X42690142Y-103888419D01*
X42303095Y-103888419D01*
X42206333Y-103936800D01*
X42157952Y-103985180D01*
X42109571Y-104081942D01*
X42109571Y-104227085D01*
X42157952Y-104323847D01*
X42206333Y-104372228D01*
X42303095Y-104420609D01*
X42690142Y-104420609D01*
X41916047Y-105001180D02*
X41141952Y-105001180D01*
X40706523Y-103888419D02*
X40513000Y-103888419D01*
X40416238Y-103936800D01*
X40319476Y-104033561D01*
X40271095Y-104227085D01*
X40271095Y-104565752D01*
X40319476Y-104759276D01*
X40416238Y-104856038D01*
X40513000Y-104904419D01*
X40706523Y-104904419D01*
X40803285Y-104856038D01*
X40900047Y-104759276D01*
X40948428Y-104565752D01*
X40948428Y-104227085D01*
X40900047Y-104033561D01*
X40803285Y-103936800D01*
X40706523Y-103888419D01*
X39835666Y-104904419D02*
X39835666Y-103888419D01*
X39255095Y-104904419D02*
X39690523Y-104323847D01*
X39255095Y-103888419D02*
X39835666Y-104468990D01*
D11*
X155299228Y-43905714D02*
X153775228Y-43905714D01*
X155226657Y-44558857D02*
X155299228Y-44704000D01*
X155299228Y-44994285D01*
X155226657Y-45139428D01*
X155081514Y-45212000D01*
X155008942Y-45212000D01*
X154863800Y-45139428D01*
X154791228Y-44994285D01*
X154791228Y-44776571D01*
X154718657Y-44631428D01*
X154573514Y-44558857D01*
X154500942Y-44558857D01*
X154355800Y-44631428D01*
X154283228Y-44776571D01*
X154283228Y-44994285D01*
X154355800Y-45139428D01*
X155299228Y-46082857D02*
X155226657Y-45937714D01*
X155154085Y-45865142D01*
X155008942Y-45792571D01*
X154573514Y-45792571D01*
X154428371Y-45865142D01*
X154355800Y-45937714D01*
X154283228Y-46082857D01*
X154283228Y-46300571D01*
X154355800Y-46445714D01*
X154428371Y-46518285D01*
X154573514Y-46590857D01*
X155008942Y-46590857D01*
X155154085Y-46518285D01*
X155226657Y-46445714D01*
X155299228Y-46300571D01*
X155299228Y-46082857D01*
X155299228Y-47461714D02*
X155226657Y-47316571D01*
X155081514Y-47244000D01*
X153775228Y-47244000D01*
X155299228Y-48695428D02*
X154500942Y-48695428D01*
X154355800Y-48622857D01*
X154283228Y-48477714D01*
X154283228Y-48187428D01*
X154355800Y-48042285D01*
X155226657Y-48695428D02*
X155299228Y-48550285D01*
X155299228Y-48187428D01*
X155226657Y-48042285D01*
X155081514Y-47969714D01*
X154936371Y-47969714D01*
X154791228Y-48042285D01*
X154718657Y-48187428D01*
X154718657Y-48550285D01*
X154646085Y-48695428D01*
X154283228Y-49203428D02*
X154283228Y-49784000D01*
X153775228Y-49421142D02*
X155081514Y-49421142D01*
X155226657Y-49493714D01*
X155299228Y-49638857D01*
X155299228Y-49784000D01*
X155226657Y-50872571D02*
X155299228Y-50727428D01*
X155299228Y-50437142D01*
X155226657Y-50292000D01*
X155081514Y-50219428D01*
X154500942Y-50219428D01*
X154355800Y-50292000D01*
X154283228Y-50437142D01*
X154283228Y-50727428D01*
X154355800Y-50872571D01*
X154500942Y-50945142D01*
X154646085Y-50945142D01*
X154791228Y-50219428D01*
X155299228Y-52251428D02*
X153775228Y-52251428D01*
X155226657Y-52251428D02*
X155299228Y-52106285D01*
X155299228Y-51816000D01*
X155226657Y-51670857D01*
X155154085Y-51598285D01*
X155008942Y-51525714D01*
X154573514Y-51525714D01*
X154428371Y-51598285D01*
X154355800Y-51670857D01*
X154283228Y-51816000D01*
X154283228Y-52106285D01*
X154355800Y-52251428D01*
X155299228Y-55009142D02*
X154573514Y-54501142D01*
X155299228Y-54138285D02*
X153775228Y-54138285D01*
X153775228Y-54718857D01*
X153847800Y-54864000D01*
X153920371Y-54936571D01*
X154065514Y-55009142D01*
X154283228Y-55009142D01*
X154428371Y-54936571D01*
X154500942Y-54864000D01*
X154573514Y-54718857D01*
X154573514Y-54138285D01*
X155226657Y-55589714D02*
X155299228Y-55807428D01*
X155299228Y-56170285D01*
X155226657Y-56315428D01*
X155154085Y-56388000D01*
X155008942Y-56460571D01*
X154863800Y-56460571D01*
X154718657Y-56388000D01*
X154646085Y-56315428D01*
X154573514Y-56170285D01*
X154500942Y-55880000D01*
X154428371Y-55734857D01*
X154355800Y-55662285D01*
X154210657Y-55589714D01*
X154065514Y-55589714D01*
X153920371Y-55662285D01*
X153847800Y-55734857D01*
X153775228Y-55880000D01*
X153775228Y-56242857D01*
X153847800Y-56460571D01*
X153920371Y-57041142D02*
X153847800Y-57113714D01*
X153775228Y-57258857D01*
X153775228Y-57621714D01*
X153847800Y-57766857D01*
X153920371Y-57839428D01*
X154065514Y-57912000D01*
X154210657Y-57912000D01*
X154428371Y-57839428D01*
X155299228Y-56968571D01*
X155299228Y-57912000D01*
X153775228Y-58420000D02*
X153775228Y-59363428D01*
X154355800Y-58855428D01*
X154355800Y-59073142D01*
X154428371Y-59218285D01*
X154500942Y-59290857D01*
X154646085Y-59363428D01*
X155008942Y-59363428D01*
X155154085Y-59290857D01*
X155226657Y-59218285D01*
X155299228Y-59073142D01*
X155299228Y-58637714D01*
X155226657Y-58492571D01*
X155154085Y-58420000D01*
X153920371Y-59944000D02*
X153847800Y-60016571D01*
X153775228Y-60161714D01*
X153775228Y-60524571D01*
X153847800Y-60669714D01*
X153920371Y-60742285D01*
X154065514Y-60814857D01*
X154210657Y-60814857D01*
X154428371Y-60742285D01*
X155299228Y-59871428D01*
X155299228Y-60814857D01*
D10*
X144571961Y-39057459D02*
X144571961Y-38380125D01*
X144571961Y-38476887D02*
X144523580Y-38428506D01*
X144426819Y-38380125D01*
X144281676Y-38380125D01*
X144184914Y-38428506D01*
X144136533Y-38525268D01*
X144136533Y-39057459D01*
X144136533Y-38525268D02*
X144088152Y-38428506D01*
X143991390Y-38380125D01*
X143846247Y-38380125D01*
X143749485Y-38428506D01*
X143701104Y-38525268D01*
X143701104Y-39057459D01*
X143217295Y-39057459D02*
X143217295Y-38380125D01*
X143217295Y-38041459D02*
X143265676Y-38089840D01*
X143217295Y-38138220D01*
X143168914Y-38089840D01*
X143217295Y-38041459D01*
X143217295Y-38138220D01*
X142733485Y-38380125D02*
X142733485Y-39057459D01*
X142733485Y-38476887D02*
X142685104Y-38428506D01*
X142588342Y-38380125D01*
X142443200Y-38380125D01*
X142346438Y-38428506D01*
X142298057Y-38525268D01*
X142298057Y-39057459D01*
X141814247Y-39057459D02*
X141814247Y-38380125D01*
X141814247Y-38041459D02*
X141862628Y-38089840D01*
X141814247Y-38138220D01*
X141765866Y-38089840D01*
X141814247Y-38041459D01*
X141814247Y-38138220D01*
X141330438Y-39057459D02*
X141330438Y-38041459D01*
X141088533Y-38041459D01*
X140943390Y-38089840D01*
X140846628Y-38186601D01*
X140798247Y-38283363D01*
X140749866Y-38476887D01*
X140749866Y-38622030D01*
X140798247Y-38815554D01*
X140846628Y-38912316D01*
X140943390Y-39009078D01*
X141088533Y-39057459D01*
X141330438Y-39057459D01*
X140314438Y-39057459D02*
X140314438Y-38041459D01*
X139830628Y-39057459D02*
X139830628Y-38041459D01*
X139250057Y-39057459D01*
X139250057Y-38041459D01*
X138330819Y-38041459D02*
X138524342Y-38041459D01*
X138621104Y-38089840D01*
X138669485Y-38138220D01*
X138766247Y-38283363D01*
X138814628Y-38476887D01*
X138814628Y-38863935D01*
X138766247Y-38960697D01*
X138717866Y-39009078D01*
X138621104Y-39057459D01*
X138427580Y-39057459D01*
X138330819Y-39009078D01*
X138282438Y-38960697D01*
X138234057Y-38863935D01*
X138234057Y-38622030D01*
X138282438Y-38525268D01*
X138330819Y-38476887D01*
X138427580Y-38428506D01*
X138621104Y-38428506D01*
X138717866Y-38476887D01*
X138766247Y-38525268D01*
X138814628Y-38622030D01*
X150450247Y-40209409D02*
X150450247Y-40693219D01*
X150788914Y-39677219D02*
X150450247Y-40209409D01*
X150111580Y-39677219D01*
X149337485Y-40693219D02*
X149337485Y-40161028D01*
X149385866Y-40064266D01*
X149482628Y-40015885D01*
X149676152Y-40015885D01*
X149772914Y-40064266D01*
X149337485Y-40644838D02*
X149434247Y-40693219D01*
X149676152Y-40693219D01*
X149772914Y-40644838D01*
X149821295Y-40548076D01*
X149821295Y-40451314D01*
X149772914Y-40354552D01*
X149676152Y-40306171D01*
X149434247Y-40306171D01*
X149337485Y-40257790D01*
X148466628Y-40644838D02*
X148563390Y-40693219D01*
X148756914Y-40693219D01*
X148853676Y-40644838D01*
X148902057Y-40548076D01*
X148902057Y-40161028D01*
X148853676Y-40064266D01*
X148756914Y-40015885D01*
X148563390Y-40015885D01*
X148466628Y-40064266D01*
X148418247Y-40161028D01*
X148418247Y-40257790D01*
X148902057Y-40354552D01*
X148031200Y-40644838D02*
X147934438Y-40693219D01*
X147740914Y-40693219D01*
X147644152Y-40644838D01*
X147595771Y-40548076D01*
X147595771Y-40499695D01*
X147644152Y-40402933D01*
X147740914Y-40354552D01*
X147886057Y-40354552D01*
X147982819Y-40306171D01*
X148031200Y-40209409D01*
X148031200Y-40161028D01*
X147982819Y-40064266D01*
X147886057Y-40015885D01*
X147740914Y-40015885D01*
X147644152Y-40064266D01*
X146724914Y-40015885D02*
X146724914Y-40693219D01*
X147160342Y-40015885D02*
X147160342Y-40548076D01*
X147111961Y-40644838D01*
X147015200Y-40693219D01*
X146870057Y-40693219D01*
X146773295Y-40644838D01*
X146724914Y-40596457D01*
X145563771Y-39677219D02*
X144886438Y-39677219D01*
X145321866Y-40693219D01*
X144354247Y-40112647D02*
X144451009Y-40064266D01*
X144499390Y-40015885D01*
X144547771Y-39919123D01*
X144547771Y-39870742D01*
X144499390Y-39773980D01*
X144451009Y-39725600D01*
X144354247Y-39677219D01*
X144160723Y-39677219D01*
X144063961Y-39725600D01*
X144015580Y-39773980D01*
X143967200Y-39870742D01*
X143967200Y-39919123D01*
X144015580Y-40015885D01*
X144063961Y-40064266D01*
X144160723Y-40112647D01*
X144354247Y-40112647D01*
X144451009Y-40161028D01*
X144499390Y-40209409D01*
X144547771Y-40306171D01*
X144547771Y-40499695D01*
X144499390Y-40596457D01*
X144451009Y-40644838D01*
X144354247Y-40693219D01*
X144160723Y-40693219D01*
X144063961Y-40644838D01*
X144015580Y-40596457D01*
X143967200Y-40499695D01*
X143967200Y-40306171D01*
X144015580Y-40209409D01*
X144063961Y-40161028D01*
X144160723Y-40112647D01*
X143338247Y-39677219D02*
X143241485Y-39677219D01*
X143144723Y-39725600D01*
X143096342Y-39773980D01*
X143047961Y-39870742D01*
X142999580Y-40064266D01*
X142999580Y-40306171D01*
X143047961Y-40499695D01*
X143096342Y-40596457D01*
X143144723Y-40644838D01*
X143241485Y-40693219D01*
X143338247Y-40693219D01*
X143435009Y-40644838D01*
X143483390Y-40596457D01*
X143531771Y-40499695D01*
X143580152Y-40306171D01*
X143580152Y-40064266D01*
X143531771Y-39870742D01*
X143483390Y-39773980D01*
X143435009Y-39725600D01*
X143338247Y-39677219D01*
X142370628Y-39677219D02*
X142273866Y-39677219D01*
X142177104Y-39725600D01*
X142128723Y-39773980D01*
X142080342Y-39870742D01*
X142031961Y-40064266D01*
X142031961Y-40306171D01*
X142080342Y-40499695D01*
X142128723Y-40596457D01*
X142177104Y-40644838D01*
X142273866Y-40693219D01*
X142370628Y-40693219D01*
X142467390Y-40644838D01*
X142515771Y-40596457D01*
X142564152Y-40499695D01*
X142612533Y-40306171D01*
X142612533Y-40064266D01*
X142564152Y-39870742D01*
X142515771Y-39773980D01*
X142467390Y-39725600D01*
X142370628Y-39677219D01*
X140870819Y-39628838D02*
X141741676Y-40935123D01*
X140387009Y-40112647D02*
X140483771Y-40064266D01*
X140532152Y-40015885D01*
X140580533Y-39919123D01*
X140580533Y-39870742D01*
X140532152Y-39773980D01*
X140483771Y-39725600D01*
X140387009Y-39677219D01*
X140193485Y-39677219D01*
X140096723Y-39725600D01*
X140048342Y-39773980D01*
X139999961Y-39870742D01*
X139999961Y-39919123D01*
X140048342Y-40015885D01*
X140096723Y-40064266D01*
X140193485Y-40112647D01*
X140387009Y-40112647D01*
X140483771Y-40161028D01*
X140532152Y-40209409D01*
X140580533Y-40306171D01*
X140580533Y-40499695D01*
X140532152Y-40596457D01*
X140483771Y-40644838D01*
X140387009Y-40693219D01*
X140193485Y-40693219D01*
X140096723Y-40644838D01*
X140048342Y-40596457D01*
X139999961Y-40499695D01*
X139999961Y-40306171D01*
X140048342Y-40209409D01*
X140096723Y-40161028D01*
X140193485Y-40112647D01*
X139419390Y-40112647D02*
X139516152Y-40064266D01*
X139564533Y-40015885D01*
X139612914Y-39919123D01*
X139612914Y-39870742D01*
X139564533Y-39773980D01*
X139516152Y-39725600D01*
X139419390Y-39677219D01*
X139225866Y-39677219D01*
X139129104Y-39725600D01*
X139080723Y-39773980D01*
X139032342Y-39870742D01*
X139032342Y-39919123D01*
X139080723Y-40015885D01*
X139129104Y-40064266D01*
X139225866Y-40112647D01*
X139419390Y-40112647D01*
X139516152Y-40161028D01*
X139564533Y-40209409D01*
X139612914Y-40306171D01*
X139612914Y-40499695D01*
X139564533Y-40596457D01*
X139516152Y-40644838D01*
X139419390Y-40693219D01*
X139225866Y-40693219D01*
X139129104Y-40644838D01*
X139080723Y-40596457D01*
X139032342Y-40499695D01*
X139032342Y-40306171D01*
X139080723Y-40209409D01*
X139129104Y-40161028D01*
X139225866Y-40112647D01*
X138403390Y-39677219D02*
X138306628Y-39677219D01*
X138209866Y-39725600D01*
X138161485Y-39773980D01*
X138113104Y-39870742D01*
X138064723Y-40064266D01*
X138064723Y-40306171D01*
X138113104Y-40499695D01*
X138161485Y-40596457D01*
X138209866Y-40644838D01*
X138306628Y-40693219D01*
X138403390Y-40693219D01*
X138500152Y-40644838D01*
X138548533Y-40596457D01*
X138596914Y-40499695D01*
X138645295Y-40306171D01*
X138645295Y-40064266D01*
X138596914Y-39870742D01*
X138548533Y-39773980D01*
X138500152Y-39725600D01*
X138403390Y-39677219D01*
X137435771Y-39677219D02*
X137339009Y-39677219D01*
X137242247Y-39725600D01*
X137193866Y-39773980D01*
X137145485Y-39870742D01*
X137097104Y-40064266D01*
X137097104Y-40306171D01*
X137145485Y-40499695D01*
X137193866Y-40596457D01*
X137242247Y-40644838D01*
X137339009Y-40693219D01*
X137435771Y-40693219D01*
X137532533Y-40644838D01*
X137580914Y-40596457D01*
X137629295Y-40499695D01*
X137677676Y-40306171D01*
X137677676Y-40064266D01*
X137629295Y-39870742D01*
X137580914Y-39773980D01*
X137532533Y-39725600D01*
X137435771Y-39677219D01*
X135935961Y-39628838D02*
X136806819Y-40935123D01*
X135452152Y-40112647D02*
X135548914Y-40064266D01*
X135597295Y-40015885D01*
X135645676Y-39919123D01*
X135645676Y-39870742D01*
X135597295Y-39773980D01*
X135548914Y-39725600D01*
X135452152Y-39677219D01*
X135258628Y-39677219D01*
X135161866Y-39725600D01*
X135113485Y-39773980D01*
X135065104Y-39870742D01*
X135065104Y-39919123D01*
X135113485Y-40015885D01*
X135161866Y-40064266D01*
X135258628Y-40112647D01*
X135452152Y-40112647D01*
X135548914Y-40161028D01*
X135597295Y-40209409D01*
X135645676Y-40306171D01*
X135645676Y-40499695D01*
X135597295Y-40596457D01*
X135548914Y-40644838D01*
X135452152Y-40693219D01*
X135258628Y-40693219D01*
X135161866Y-40644838D01*
X135113485Y-40596457D01*
X135065104Y-40499695D01*
X135065104Y-40306171D01*
X135113485Y-40209409D01*
X135161866Y-40161028D01*
X135258628Y-40112647D01*
X134581295Y-40693219D02*
X134387771Y-40693219D01*
X134291009Y-40644838D01*
X134242628Y-40596457D01*
X134145866Y-40451314D01*
X134097485Y-40257790D01*
X134097485Y-39870742D01*
X134145866Y-39773980D01*
X134194247Y-39725600D01*
X134291009Y-39677219D01*
X134484533Y-39677219D01*
X134581295Y-39725600D01*
X134629676Y-39773980D01*
X134678057Y-39870742D01*
X134678057Y-40112647D01*
X134629676Y-40209409D01*
X134581295Y-40257790D01*
X134484533Y-40306171D01*
X134291009Y-40306171D01*
X134194247Y-40257790D01*
X134145866Y-40209409D01*
X134097485Y-40112647D01*
X133468533Y-39677219D02*
X133371771Y-39677219D01*
X133275009Y-39725600D01*
X133226628Y-39773980D01*
X133178247Y-39870742D01*
X133129866Y-40064266D01*
X133129866Y-40306171D01*
X133178247Y-40499695D01*
X133226628Y-40596457D01*
X133275009Y-40644838D01*
X133371771Y-40693219D01*
X133468533Y-40693219D01*
X133565295Y-40644838D01*
X133613676Y-40596457D01*
X133662057Y-40499695D01*
X133710438Y-40306171D01*
X133710438Y-40064266D01*
X133662057Y-39870742D01*
X133613676Y-39773980D01*
X133565295Y-39725600D01*
X133468533Y-39677219D01*
X132500914Y-39677219D02*
X132404152Y-39677219D01*
X132307390Y-39725600D01*
X132259009Y-39773980D01*
X132210628Y-39870742D01*
X132162247Y-40064266D01*
X132162247Y-40306171D01*
X132210628Y-40499695D01*
X132259009Y-40596457D01*
X132307390Y-40644838D01*
X132404152Y-40693219D01*
X132500914Y-40693219D01*
X132597676Y-40644838D01*
X132646057Y-40596457D01*
X132694438Y-40499695D01*
X132742819Y-40306171D01*
X132742819Y-40064266D01*
X132694438Y-39870742D01*
X132646057Y-39773980D01*
X132597676Y-39725600D01*
X132500914Y-39677219D01*
X143555961Y-41651645D02*
X143555961Y-42667645D01*
X143555961Y-41700026D02*
X143459200Y-41651645D01*
X143265676Y-41651645D01*
X143168914Y-41700026D01*
X143120533Y-41748407D01*
X143072152Y-41845169D01*
X143072152Y-42135455D01*
X143120533Y-42232217D01*
X143168914Y-42280598D01*
X143265676Y-42328979D01*
X143459200Y-42328979D01*
X143555961Y-42280598D01*
X142636723Y-42328979D02*
X142636723Y-41651645D01*
X142636723Y-41312979D02*
X142685104Y-41361360D01*
X142636723Y-41409740D01*
X142588342Y-41361360D01*
X142636723Y-41312979D01*
X142636723Y-41409740D01*
X142152914Y-41651645D02*
X142152914Y-42328979D01*
X142152914Y-41748407D02*
X142104533Y-41700026D01*
X142007771Y-41651645D01*
X141862628Y-41651645D01*
X141765866Y-41700026D01*
X141717485Y-41796788D01*
X141717485Y-42328979D01*
X141088533Y-42328979D02*
X141185295Y-42280598D01*
X141233676Y-42232217D01*
X141282057Y-42135455D01*
X141282057Y-41845169D01*
X141233676Y-41748407D01*
X141185295Y-41700026D01*
X141088533Y-41651645D01*
X140943390Y-41651645D01*
X140846628Y-41700026D01*
X140798247Y-41748407D01*
X140749866Y-41845169D01*
X140749866Y-42135455D01*
X140798247Y-42232217D01*
X140846628Y-42280598D01*
X140943390Y-42328979D01*
X141088533Y-42328979D01*
X139879009Y-41651645D02*
X139879009Y-42328979D01*
X140314438Y-41651645D02*
X140314438Y-42183836D01*
X140266057Y-42280598D01*
X140169295Y-42328979D01*
X140024152Y-42328979D01*
X139927390Y-42280598D01*
X139879009Y-42232217D01*
X139540342Y-41651645D02*
X139153295Y-41651645D01*
X139395200Y-41312979D02*
X139395200Y-42183836D01*
X139346819Y-42280598D01*
X139250057Y-42328979D01*
X139153295Y-42328979D01*
X119687219Y-51234219D02*
X119687219Y-50218219D01*
X119445314Y-50218219D01*
X119300171Y-50266600D01*
X119203409Y-50363361D01*
X119155028Y-50460123D01*
X119106647Y-50653647D01*
X119106647Y-50798790D01*
X119155028Y-50992314D01*
X119203409Y-51089076D01*
X119300171Y-51185838D01*
X119445314Y-51234219D01*
X119687219Y-51234219D01*
X118332552Y-50702028D02*
X118187409Y-50750409D01*
X118139028Y-50798790D01*
X118090647Y-50895552D01*
X118090647Y-51040695D01*
X118139028Y-51137457D01*
X118187409Y-51185838D01*
X118284171Y-51234219D01*
X118671219Y-51234219D01*
X118671219Y-50218219D01*
X118332552Y-50218219D01*
X118235790Y-50266600D01*
X118187409Y-50314980D01*
X118139028Y-50411742D01*
X118139028Y-50508504D01*
X118187409Y-50605266D01*
X118235790Y-50653647D01*
X118332552Y-50702028D01*
X118671219Y-50702028D01*
X117606838Y-51234219D02*
X117413314Y-51234219D01*
X117316552Y-51185838D01*
X117268171Y-51137457D01*
X117171409Y-50992314D01*
X117123028Y-50798790D01*
X117123028Y-50411742D01*
X117171409Y-50314980D01*
X117219790Y-50266600D01*
X117316552Y-50218219D01*
X117510076Y-50218219D01*
X117606838Y-50266600D01*
X117655219Y-50314980D01*
X117703600Y-50411742D01*
X117703600Y-50653647D01*
X117655219Y-50750409D01*
X117606838Y-50798790D01*
X117510076Y-50847171D01*
X117316552Y-50847171D01*
X117219790Y-50798790D01*
X117171409Y-50750409D01*
X117123028Y-50653647D01*
X115913504Y-50556885D02*
X115913504Y-51572885D01*
X115913504Y-50605266D02*
X115816742Y-50556885D01*
X115623219Y-50556885D01*
X115526457Y-50605266D01*
X115478076Y-50653647D01*
X115429695Y-50750409D01*
X115429695Y-51040695D01*
X115478076Y-51137457D01*
X115526457Y-51185838D01*
X115623219Y-51234219D01*
X115816742Y-51234219D01*
X115913504Y-51185838D01*
X114994266Y-51234219D02*
X114994266Y-50556885D01*
X114994266Y-50218219D02*
X115042647Y-50266600D01*
X114994266Y-50314980D01*
X114945885Y-50266600D01*
X114994266Y-50218219D01*
X114994266Y-50314980D01*
X114510457Y-50556885D02*
X114510457Y-51234219D01*
X114510457Y-50653647D02*
X114462076Y-50605266D01*
X114365314Y-50556885D01*
X114220171Y-50556885D01*
X114123409Y-50605266D01*
X114075028Y-50702028D01*
X114075028Y-51234219D01*
X113446076Y-51234219D02*
X113542838Y-51185838D01*
X113591219Y-51137457D01*
X113639600Y-51040695D01*
X113639600Y-50750409D01*
X113591219Y-50653647D01*
X113542838Y-50605266D01*
X113446076Y-50556885D01*
X113300933Y-50556885D01*
X113204171Y-50605266D01*
X113155790Y-50653647D01*
X113107409Y-50750409D01*
X113107409Y-51040695D01*
X113155790Y-51137457D01*
X113204171Y-51185838D01*
X113300933Y-51234219D01*
X113446076Y-51234219D01*
X112236552Y-50556885D02*
X112236552Y-51234219D01*
X112671980Y-50556885D02*
X112671980Y-51089076D01*
X112623600Y-51185838D01*
X112526838Y-51234219D01*
X112381695Y-51234219D01*
X112284933Y-51185838D01*
X112236552Y-51137457D01*
X111897885Y-50556885D02*
X111510838Y-50556885D01*
X111752742Y-50218219D02*
X111752742Y-51089076D01*
X111704361Y-51185838D01*
X111607600Y-51234219D01*
X111510838Y-51234219D01*
X128976361Y-52869979D02*
X129556933Y-52869979D01*
X129266647Y-52869979D02*
X129266647Y-51853979D01*
X129363409Y-51999121D01*
X129460171Y-52095883D01*
X129556933Y-52144264D01*
X127766838Y-52482931D02*
X126992742Y-52482931D01*
X125154266Y-52869979D02*
X125492933Y-52386169D01*
X125734838Y-52869979D02*
X125734838Y-51853979D01*
X125347790Y-51853979D01*
X125251028Y-51902360D01*
X125202647Y-51950740D01*
X125154266Y-52047502D01*
X125154266Y-52192645D01*
X125202647Y-52289407D01*
X125251028Y-52337788D01*
X125347790Y-52386169D01*
X125734838Y-52386169D01*
X124815600Y-51853979D02*
X124138266Y-52869979D01*
X124138266Y-51853979D02*
X124815600Y-52869979D01*
X122541695Y-52869979D02*
X122541695Y-52337788D01*
X122590076Y-52241026D01*
X122686838Y-52192645D01*
X122880361Y-52192645D01*
X122977123Y-52241026D01*
X122541695Y-52821598D02*
X122638457Y-52869979D01*
X122880361Y-52869979D01*
X122977123Y-52821598D01*
X123025504Y-52724836D01*
X123025504Y-52628074D01*
X122977123Y-52531312D01*
X122880361Y-52482931D01*
X122638457Y-52482931D01*
X122541695Y-52434550D01*
X121622457Y-52821598D02*
X121719219Y-52869979D01*
X121912742Y-52869979D01*
X122009504Y-52821598D01*
X122057885Y-52773217D01*
X122106266Y-52676455D01*
X122106266Y-52386169D01*
X122057885Y-52289407D01*
X122009504Y-52241026D01*
X121912742Y-52192645D01*
X121719219Y-52192645D01*
X121622457Y-52241026D01*
X121332171Y-52192645D02*
X120945123Y-52192645D01*
X121187028Y-51853979D02*
X121187028Y-52724836D01*
X121138647Y-52821598D01*
X121041885Y-52869979D01*
X120945123Y-52869979D01*
X120606457Y-52869979D02*
X120606457Y-52192645D01*
X120606457Y-51853979D02*
X120654838Y-51902360D01*
X120606457Y-51950740D01*
X120558076Y-51902360D01*
X120606457Y-51853979D01*
X120606457Y-51950740D01*
X120219409Y-52192645D02*
X119977504Y-52869979D01*
X119735600Y-52192645D01*
X118961504Y-52821598D02*
X119058266Y-52869979D01*
X119251790Y-52869979D01*
X119348552Y-52821598D01*
X119396933Y-52724836D01*
X119396933Y-52337788D01*
X119348552Y-52241026D01*
X119251790Y-52192645D01*
X119058266Y-52192645D01*
X118961504Y-52241026D01*
X118913123Y-52337788D01*
X118913123Y-52434550D01*
X119396933Y-52531312D01*
X117703600Y-52869979D02*
X117703600Y-52192645D01*
X117703600Y-51853979D02*
X117751980Y-51902360D01*
X117703600Y-51950740D01*
X117655219Y-51902360D01*
X117703600Y-51853979D01*
X117703600Y-51950740D01*
X117219790Y-52192645D02*
X117219790Y-52869979D01*
X117219790Y-52289407D02*
X117171409Y-52241026D01*
X117074647Y-52192645D01*
X116929504Y-52192645D01*
X116832742Y-52241026D01*
X116784361Y-52337788D01*
X116784361Y-52869979D01*
X114800742Y-51805598D02*
X115671600Y-53111883D01*
X113107409Y-52773217D02*
X113155790Y-52821598D01*
X113300933Y-52869979D01*
X113397695Y-52869979D01*
X113542838Y-52821598D01*
X113639600Y-52724836D01*
X113687980Y-52628074D01*
X113736361Y-52434550D01*
X113736361Y-52289407D01*
X113687980Y-52095883D01*
X113639600Y-51999121D01*
X113542838Y-51902360D01*
X113397695Y-51853979D01*
X113300933Y-51853979D01*
X113155790Y-51902360D01*
X113107409Y-51950740D01*
X112817123Y-51853979D02*
X112236552Y-51853979D01*
X112526838Y-52869979D02*
X112526838Y-51853979D01*
X111317314Y-52773217D02*
X111365695Y-52821598D01*
X111510838Y-52869979D01*
X111607600Y-52869979D01*
X111752742Y-52821598D01*
X111849504Y-52724836D01*
X111897885Y-52628074D01*
X111946266Y-52434550D01*
X111946266Y-52289407D01*
X111897885Y-52095883D01*
X111849504Y-51999121D01*
X111752742Y-51902360D01*
X111607600Y-51853979D01*
X111510838Y-51853979D01*
X111365695Y-51902360D01*
X111317314Y-51950740D01*
X110930266Y-52821598D02*
X110785123Y-52869979D01*
X110543219Y-52869979D01*
X110446457Y-52821598D01*
X110398076Y-52773217D01*
X110349695Y-52676455D01*
X110349695Y-52579693D01*
X110398076Y-52482931D01*
X110446457Y-52434550D01*
X110543219Y-52386169D01*
X110736742Y-52337788D01*
X110833504Y-52289407D01*
X110881885Y-52241026D01*
X110930266Y-52144264D01*
X110930266Y-52047502D01*
X110881885Y-51950740D01*
X110833504Y-51902360D01*
X110736742Y-51853979D01*
X110494838Y-51853979D01*
X110349695Y-51902360D01*
X109962647Y-52821598D02*
X109817504Y-52869979D01*
X109575600Y-52869979D01*
X109478838Y-52821598D01*
X109430457Y-52773217D01*
X109382076Y-52676455D01*
X109382076Y-52579693D01*
X109430457Y-52482931D01*
X109478838Y-52434550D01*
X109575600Y-52386169D01*
X109769123Y-52337788D01*
X109865885Y-52289407D01*
X109914266Y-52241026D01*
X109962647Y-52144264D01*
X109962647Y-52047502D01*
X109914266Y-51950740D01*
X109865885Y-51902360D01*
X109769123Y-51853979D01*
X109527219Y-51853979D01*
X109382076Y-51902360D01*
X108220933Y-52821598D02*
X108124171Y-52869979D01*
X107930647Y-52869979D01*
X107833885Y-52821598D01*
X107785504Y-52724836D01*
X107785504Y-52676455D01*
X107833885Y-52579693D01*
X107930647Y-52531312D01*
X108075790Y-52531312D01*
X108172552Y-52482931D01*
X108220933Y-52386169D01*
X108220933Y-52337788D01*
X108172552Y-52241026D01*
X108075790Y-52192645D01*
X107930647Y-52192645D01*
X107833885Y-52241026D01*
X107495219Y-52192645D02*
X107108171Y-52192645D01*
X107350076Y-51853979D02*
X107350076Y-52724836D01*
X107301695Y-52821598D01*
X107204933Y-52869979D01*
X107108171Y-52869979D01*
X106334076Y-52869979D02*
X106334076Y-52337788D01*
X106382457Y-52241026D01*
X106479219Y-52192645D01*
X106672742Y-52192645D01*
X106769504Y-52241026D01*
X106334076Y-52821598D02*
X106430838Y-52869979D01*
X106672742Y-52869979D01*
X106769504Y-52821598D01*
X106817885Y-52724836D01*
X106817885Y-52628074D01*
X106769504Y-52531312D01*
X106672742Y-52482931D01*
X106430838Y-52482931D01*
X106334076Y-52434550D01*
X105995409Y-52192645D02*
X105608361Y-52192645D01*
X105850266Y-51853979D02*
X105850266Y-52724836D01*
X105801885Y-52821598D01*
X105705123Y-52869979D01*
X105608361Y-52869979D01*
X104834266Y-52192645D02*
X104834266Y-52869979D01*
X105269695Y-52192645D02*
X105269695Y-52724836D01*
X105221314Y-52821598D01*
X105124552Y-52869979D01*
X104979409Y-52869979D01*
X104882647Y-52821598D01*
X104834266Y-52773217D01*
X104398838Y-52821598D02*
X104302076Y-52869979D01*
X104108552Y-52869979D01*
X104011790Y-52821598D01*
X103963409Y-52724836D01*
X103963409Y-52676455D01*
X104011790Y-52579693D01*
X104108552Y-52531312D01*
X104253695Y-52531312D01*
X104350457Y-52482931D01*
X104398838Y-52386169D01*
X104398838Y-52337788D01*
X104350457Y-52241026D01*
X104253695Y-52192645D01*
X104108552Y-52192645D01*
X104011790Y-52241026D01*
X102753885Y-52869979D02*
X102753885Y-52192645D01*
X102753885Y-51853979D02*
X102802266Y-51902360D01*
X102753885Y-51950740D01*
X102705504Y-51902360D01*
X102753885Y-51853979D01*
X102753885Y-51950740D01*
X102270076Y-52192645D02*
X102270076Y-52869979D01*
X102270076Y-52289407D02*
X102221695Y-52241026D01*
X102124933Y-52192645D01*
X101979790Y-52192645D01*
X101883028Y-52241026D01*
X101834647Y-52337788D01*
X101834647Y-52869979D01*
X123920552Y-53489739D02*
X123291600Y-53489739D01*
X123630266Y-53876786D01*
X123485123Y-53876786D01*
X123388361Y-53925167D01*
X123339980Y-53973548D01*
X123291600Y-54070310D01*
X123291600Y-54312215D01*
X123339980Y-54408977D01*
X123388361Y-54457358D01*
X123485123Y-54505739D01*
X123775409Y-54505739D01*
X123872171Y-54457358D01*
X123920552Y-54408977D01*
X122082076Y-54118691D02*
X121307980Y-54118691D01*
X120098457Y-54215453D02*
X119614647Y-54215453D01*
X120195219Y-54505739D02*
X119856552Y-53489739D01*
X119517885Y-54505739D01*
X118743790Y-53828405D02*
X118743790Y-54505739D01*
X119179219Y-53828405D02*
X119179219Y-54360596D01*
X119130838Y-54457358D01*
X119034076Y-54505739D01*
X118888933Y-54505739D01*
X118792171Y-54457358D01*
X118743790Y-54408977D01*
X117824552Y-54505739D02*
X117824552Y-53489739D01*
X117824552Y-54457358D02*
X117921314Y-54505739D01*
X118114838Y-54505739D01*
X118211600Y-54457358D01*
X118259980Y-54408977D01*
X118308361Y-54312215D01*
X118308361Y-54021929D01*
X118259980Y-53925167D01*
X118211600Y-53876786D01*
X118114838Y-53828405D01*
X117921314Y-53828405D01*
X117824552Y-53876786D01*
X117340742Y-54505739D02*
X117340742Y-53828405D01*
X117340742Y-53489739D02*
X117389123Y-53538120D01*
X117340742Y-53586500D01*
X117292361Y-53538120D01*
X117340742Y-53489739D01*
X117340742Y-53586500D01*
X116711790Y-54505739D02*
X116808552Y-54457358D01*
X116856933Y-54408977D01*
X116905314Y-54312215D01*
X116905314Y-54021929D01*
X116856933Y-53925167D01*
X116808552Y-53876786D01*
X116711790Y-53828405D01*
X116566647Y-53828405D01*
X116469885Y-53876786D01*
X116421504Y-53925167D01*
X116373123Y-54021929D01*
X116373123Y-54312215D01*
X116421504Y-54408977D01*
X116469885Y-54457358D01*
X116566647Y-54505739D01*
X116711790Y-54505739D01*
X115308742Y-53828405D02*
X114921695Y-53828405D01*
X115163600Y-54505739D02*
X115163600Y-53634881D01*
X115115219Y-53538120D01*
X115018457Y-53489739D01*
X114921695Y-53489739D01*
X114583028Y-54505739D02*
X114583028Y-53828405D01*
X114583028Y-54021929D02*
X114534647Y-53925167D01*
X114486266Y-53876786D01*
X114389504Y-53828405D01*
X114292742Y-53828405D01*
X113808933Y-54505739D02*
X113905695Y-54457358D01*
X113954076Y-54408977D01*
X114002457Y-54312215D01*
X114002457Y-54021929D01*
X113954076Y-53925167D01*
X113905695Y-53876786D01*
X113808933Y-53828405D01*
X113663790Y-53828405D01*
X113567028Y-53876786D01*
X113518647Y-53925167D01*
X113470266Y-54021929D01*
X113470266Y-54312215D01*
X113518647Y-54408977D01*
X113567028Y-54457358D01*
X113663790Y-54505739D01*
X113808933Y-54505739D01*
X113034838Y-54505739D02*
X113034838Y-53828405D01*
X113034838Y-53925167D02*
X112986457Y-53876786D01*
X112889695Y-53828405D01*
X112744552Y-53828405D01*
X112647790Y-53876786D01*
X112599409Y-53973548D01*
X112599409Y-54505739D01*
X112599409Y-53973548D02*
X112551028Y-53876786D01*
X112454266Y-53828405D01*
X112309123Y-53828405D01*
X112212361Y-53876786D01*
X112163980Y-53973548D01*
X112163980Y-54505739D01*
X110906076Y-54505739D02*
X110906076Y-53828405D01*
X110906076Y-54021929D02*
X110857695Y-53925167D01*
X110809314Y-53876786D01*
X110712552Y-53828405D01*
X110615790Y-53828405D01*
X109841695Y-54505739D02*
X109841695Y-53973548D01*
X109890076Y-53876786D01*
X109986838Y-53828405D01*
X110180361Y-53828405D01*
X110277123Y-53876786D01*
X109841695Y-54457358D02*
X109938457Y-54505739D01*
X110180361Y-54505739D01*
X110277123Y-54457358D01*
X110325504Y-54360596D01*
X110325504Y-54263834D01*
X110277123Y-54167072D01*
X110180361Y-54118691D01*
X109938457Y-54118691D01*
X109841695Y-54070310D01*
X108922457Y-54505739D02*
X108922457Y-53489739D01*
X108922457Y-54457358D02*
X109019219Y-54505739D01*
X109212742Y-54505739D01*
X109309504Y-54457358D01*
X109357885Y-54408977D01*
X109406266Y-54312215D01*
X109406266Y-54021929D01*
X109357885Y-53925167D01*
X109309504Y-53876786D01*
X109212742Y-53828405D01*
X109019219Y-53828405D01*
X108922457Y-53876786D01*
X108438647Y-54505739D02*
X108438647Y-53828405D01*
X108438647Y-53489739D02*
X108487028Y-53538120D01*
X108438647Y-53586500D01*
X108390266Y-53538120D01*
X108438647Y-53489739D01*
X108438647Y-53586500D01*
X107809695Y-54505739D02*
X107906457Y-54457358D01*
X107954838Y-54408977D01*
X108003219Y-54312215D01*
X108003219Y-54021929D01*
X107954838Y-53925167D01*
X107906457Y-53876786D01*
X107809695Y-53828405D01*
X107664552Y-53828405D01*
X107567790Y-53876786D01*
X107519409Y-53925167D01*
X107471028Y-54021929D01*
X107471028Y-54312215D01*
X107519409Y-54408977D01*
X107567790Y-54457358D01*
X107664552Y-54505739D01*
X107809695Y-54505739D01*
X119759790Y-55464165D02*
X119759790Y-56141499D01*
X120001695Y-55077118D02*
X120243600Y-55802832D01*
X119614647Y-55802832D01*
X118453504Y-55754451D02*
X117679409Y-55754451D01*
X116421504Y-56141499D02*
X116421504Y-55125499D01*
X116034457Y-55125499D01*
X115937695Y-55173880D01*
X115889314Y-55222260D01*
X115840933Y-55319022D01*
X115840933Y-55464165D01*
X115889314Y-55560927D01*
X115937695Y-55609308D01*
X116034457Y-55657689D01*
X116421504Y-55657689D01*
X115550647Y-55125499D02*
X114970076Y-55125499D01*
X115260361Y-56141499D02*
X115260361Y-55125499D01*
X114776552Y-55125499D02*
X114195980Y-55125499D01*
X114486266Y-56141499D02*
X114486266Y-55125499D01*
X112938076Y-56141499D02*
X113034838Y-56093118D01*
X113083219Y-56044737D01*
X113131600Y-55947975D01*
X113131600Y-55657689D01*
X113083219Y-55560927D01*
X113034838Y-55512546D01*
X112938076Y-55464165D01*
X112792933Y-55464165D01*
X112696171Y-55512546D01*
X112647790Y-55560927D01*
X112599409Y-55657689D01*
X112599409Y-55947975D01*
X112647790Y-56044737D01*
X112696171Y-56093118D01*
X112792933Y-56141499D01*
X112938076Y-56141499D01*
X111728552Y-55464165D02*
X111728552Y-56141499D01*
X112163980Y-55464165D02*
X112163980Y-55996356D01*
X112115600Y-56093118D01*
X112018838Y-56141499D01*
X111873695Y-56141499D01*
X111776933Y-56093118D01*
X111728552Y-56044737D01*
X111389885Y-55464165D02*
X111002838Y-55464165D01*
X111244742Y-55125499D02*
X111244742Y-55996356D01*
X111196361Y-56093118D01*
X111099600Y-56141499D01*
X111002838Y-56141499D01*
X122348171Y-56761259D02*
X122831980Y-56761259D01*
X122880361Y-57245068D01*
X122831980Y-57196687D01*
X122735219Y-57148306D01*
X122493314Y-57148306D01*
X122396552Y-57196687D01*
X122348171Y-57245068D01*
X122299790Y-57341830D01*
X122299790Y-57583735D01*
X122348171Y-57680497D01*
X122396552Y-57728878D01*
X122493314Y-57777259D01*
X122735219Y-57777259D01*
X122831980Y-57728878D01*
X122880361Y-57680497D01*
X121090266Y-57390211D02*
X120316171Y-57390211D01*
X119106647Y-57486973D02*
X118622838Y-57486973D01*
X119203409Y-57777259D02*
X118864742Y-56761259D01*
X118526076Y-57777259D01*
X117751980Y-57099925D02*
X117751980Y-57777259D01*
X118187409Y-57099925D02*
X118187409Y-57632116D01*
X118139028Y-57728878D01*
X118042266Y-57777259D01*
X117897123Y-57777259D01*
X117800361Y-57728878D01*
X117751980Y-57680497D01*
X116832742Y-57777259D02*
X116832742Y-56761259D01*
X116832742Y-57728878D02*
X116929504Y-57777259D01*
X117123028Y-57777259D01*
X117219790Y-57728878D01*
X117268171Y-57680497D01*
X117316552Y-57583735D01*
X117316552Y-57293449D01*
X117268171Y-57196687D01*
X117219790Y-57148306D01*
X117123028Y-57099925D01*
X116929504Y-57099925D01*
X116832742Y-57148306D01*
X116348933Y-57777259D02*
X116348933Y-57099925D01*
X116348933Y-56761259D02*
X116397314Y-56809640D01*
X116348933Y-56858020D01*
X116300552Y-56809640D01*
X116348933Y-56761259D01*
X116348933Y-56858020D01*
X115719980Y-57777259D02*
X115816742Y-57728878D01*
X115865123Y-57680497D01*
X115913504Y-57583735D01*
X115913504Y-57293449D01*
X115865123Y-57196687D01*
X115816742Y-57148306D01*
X115719980Y-57099925D01*
X115574838Y-57099925D01*
X115478076Y-57148306D01*
X115429695Y-57196687D01*
X115381314Y-57293449D01*
X115381314Y-57583735D01*
X115429695Y-57680497D01*
X115478076Y-57728878D01*
X115574838Y-57777259D01*
X115719980Y-57777259D01*
X114316933Y-57099925D02*
X113929885Y-57099925D01*
X114171790Y-56761259D02*
X114171790Y-57632116D01*
X114123409Y-57728878D01*
X114026647Y-57777259D01*
X113929885Y-57777259D01*
X113446076Y-57777259D02*
X113542838Y-57728878D01*
X113591219Y-57680497D01*
X113639600Y-57583735D01*
X113639600Y-57293449D01*
X113591219Y-57196687D01*
X113542838Y-57148306D01*
X113446076Y-57099925D01*
X113300933Y-57099925D01*
X113204171Y-57148306D01*
X113155790Y-57196687D01*
X113107409Y-57293449D01*
X113107409Y-57583735D01*
X113155790Y-57680497D01*
X113204171Y-57728878D01*
X113300933Y-57777259D01*
X113446076Y-57777259D01*
X111897885Y-57777259D02*
X111897885Y-57099925D01*
X111897885Y-57293449D02*
X111849504Y-57196687D01*
X111801123Y-57148306D01*
X111704361Y-57099925D01*
X111607600Y-57099925D01*
X110833504Y-57777259D02*
X110833504Y-57245068D01*
X110881885Y-57148306D01*
X110978647Y-57099925D01*
X111172171Y-57099925D01*
X111268933Y-57148306D01*
X110833504Y-57728878D02*
X110930266Y-57777259D01*
X111172171Y-57777259D01*
X111268933Y-57728878D01*
X111317314Y-57632116D01*
X111317314Y-57535354D01*
X111268933Y-57438592D01*
X111172171Y-57390211D01*
X110930266Y-57390211D01*
X110833504Y-57341830D01*
X109914266Y-57777259D02*
X109914266Y-56761259D01*
X109914266Y-57728878D02*
X110011028Y-57777259D01*
X110204552Y-57777259D01*
X110301314Y-57728878D01*
X110349695Y-57680497D01*
X110398076Y-57583735D01*
X110398076Y-57293449D01*
X110349695Y-57196687D01*
X110301314Y-57148306D01*
X110204552Y-57099925D01*
X110011028Y-57099925D01*
X109914266Y-57148306D01*
X109430457Y-57777259D02*
X109430457Y-57099925D01*
X109430457Y-56761259D02*
X109478838Y-56809640D01*
X109430457Y-56858020D01*
X109382076Y-56809640D01*
X109430457Y-56761259D01*
X109430457Y-56858020D01*
X108801504Y-57777259D02*
X108898266Y-57728878D01*
X108946647Y-57680497D01*
X108995028Y-57583735D01*
X108995028Y-57293449D01*
X108946647Y-57196687D01*
X108898266Y-57148306D01*
X108801504Y-57099925D01*
X108656361Y-57099925D01*
X108559600Y-57148306D01*
X108511219Y-57196687D01*
X108462838Y-57293449D01*
X108462838Y-57583735D01*
X108511219Y-57680497D01*
X108559600Y-57728878D01*
X108656361Y-57777259D01*
X108801504Y-57777259D01*
X120074266Y-58397019D02*
X119396933Y-58397019D01*
X119832361Y-59413019D01*
X118235790Y-59025971D02*
X117461695Y-59025971D01*
X115671600Y-58445400D02*
X115768361Y-58397019D01*
X115913504Y-58397019D01*
X116058647Y-58445400D01*
X116155409Y-58542161D01*
X116203790Y-58638923D01*
X116252171Y-58832447D01*
X116252171Y-58977590D01*
X116203790Y-59171114D01*
X116155409Y-59267876D01*
X116058647Y-59364638D01*
X115913504Y-59413019D01*
X115816742Y-59413019D01*
X115671600Y-59364638D01*
X115623219Y-59316257D01*
X115623219Y-58977590D01*
X115816742Y-58977590D01*
X115187790Y-59413019D02*
X115187790Y-58735685D01*
X115187790Y-58929209D02*
X115139409Y-58832447D01*
X115091028Y-58784066D01*
X114994266Y-58735685D01*
X114897504Y-58735685D01*
X114413695Y-59413019D02*
X114510457Y-59364638D01*
X114558838Y-59316257D01*
X114607219Y-59219495D01*
X114607219Y-58929209D01*
X114558838Y-58832447D01*
X114510457Y-58784066D01*
X114413695Y-58735685D01*
X114268552Y-58735685D01*
X114171790Y-58784066D01*
X114123409Y-58832447D01*
X114075028Y-58929209D01*
X114075028Y-59219495D01*
X114123409Y-59316257D01*
X114171790Y-59364638D01*
X114268552Y-59413019D01*
X114413695Y-59413019D01*
X113204171Y-58735685D02*
X113204171Y-59413019D01*
X113639600Y-58735685D02*
X113639600Y-59267876D01*
X113591219Y-59364638D01*
X113494457Y-59413019D01*
X113349314Y-59413019D01*
X113252552Y-59364638D01*
X113204171Y-59316257D01*
X112720361Y-58735685D02*
X112720361Y-59413019D01*
X112720361Y-58832447D02*
X112671980Y-58784066D01*
X112575219Y-58735685D01*
X112430076Y-58735685D01*
X112333314Y-58784066D01*
X112284933Y-58880828D01*
X112284933Y-59413019D01*
X111365695Y-59413019D02*
X111365695Y-58397019D01*
X111365695Y-59364638D02*
X111462457Y-59413019D01*
X111655980Y-59413019D01*
X111752742Y-59364638D01*
X111801123Y-59316257D01*
X111849504Y-59219495D01*
X111849504Y-58929209D01*
X111801123Y-58832447D01*
X111752742Y-58784066D01*
X111655980Y-58735685D01*
X111462457Y-58735685D01*
X111365695Y-58784066D01*
X152654000Y-70269704D02*
X152605619Y-70172942D01*
X152605619Y-70027800D01*
X152654000Y-69882657D01*
X152750761Y-69785895D01*
X152847523Y-69737514D01*
X153041047Y-69689133D01*
X153186190Y-69689133D01*
X153379714Y-69737514D01*
X153476476Y-69785895D01*
X153573238Y-69882657D01*
X153621619Y-70027800D01*
X153621619Y-70124561D01*
X153573238Y-70269704D01*
X153524857Y-70318085D01*
X153186190Y-70318085D01*
X153186190Y-70124561D01*
X153621619Y-70753514D02*
X152605619Y-70753514D01*
X153621619Y-71334085D01*
X152605619Y-71334085D01*
X153621619Y-71817895D02*
X152605619Y-71817895D01*
X152605619Y-72059800D01*
X152654000Y-72204942D01*
X152750761Y-72301704D01*
X152847523Y-72350085D01*
X153041047Y-72398466D01*
X153186190Y-72398466D01*
X153379714Y-72350085D01*
X153476476Y-72301704D01*
X153573238Y-72204942D01*
X153621619Y-72059800D01*
X153621619Y-71817895D01*
X116173552Y-43563419D02*
X115980028Y-43563419D01*
X115883266Y-43611800D01*
X115786504Y-43708561D01*
X115738123Y-43902085D01*
X115738123Y-44240752D01*
X115786504Y-44434276D01*
X115883266Y-44531038D01*
X115980028Y-44579419D01*
X116173552Y-44579419D01*
X116270314Y-44531038D01*
X116367076Y-44434276D01*
X116415457Y-44240752D01*
X116415457Y-43902085D01*
X116367076Y-43708561D01*
X116270314Y-43611800D01*
X116173552Y-43563419D01*
X115302695Y-44579419D02*
X115302695Y-43563419D01*
X114915647Y-43563419D01*
X114818885Y-43611800D01*
X114770504Y-43660180D01*
X114722123Y-43756942D01*
X114722123Y-43902085D01*
X114770504Y-43998847D01*
X114818885Y-44047228D01*
X114915647Y-44095609D01*
X115302695Y-44095609D01*
X114335076Y-44289133D02*
X113851266Y-44289133D01*
X114431838Y-44579419D02*
X114093171Y-43563419D01*
X113754504Y-44579419D01*
X113415838Y-44579419D02*
X113415838Y-43563419D01*
X113077171Y-44289133D01*
X112738504Y-43563419D01*
X112738504Y-44579419D01*
X112254695Y-44579419D02*
X112254695Y-43563419D01*
X111867647Y-43563419D01*
X111770885Y-43611800D01*
X111722504Y-43660180D01*
X111674123Y-43756942D01*
X111674123Y-43902085D01*
X111722504Y-43998847D01*
X111770885Y-44047228D01*
X111867647Y-44095609D01*
X112254695Y-44095609D01*
X111480600Y-44676180D02*
X110706504Y-44676180D01*
X110125933Y-44047228D02*
X109980790Y-44095609D01*
X109932409Y-44143990D01*
X109884028Y-44240752D01*
X109884028Y-44385895D01*
X109932409Y-44482657D01*
X109980790Y-44531038D01*
X110077552Y-44579419D01*
X110464600Y-44579419D01*
X110464600Y-43563419D01*
X110125933Y-43563419D01*
X110029171Y-43611800D01*
X109980790Y-43660180D01*
X109932409Y-43756942D01*
X109932409Y-43853704D01*
X109980790Y-43950466D01*
X110029171Y-43998847D01*
X110125933Y-44047228D01*
X110464600Y-44047228D01*
X109448600Y-44579419D02*
X109448600Y-43563419D01*
X109013171Y-44289133D02*
X108529361Y-44289133D01*
X109109933Y-44579419D02*
X108771266Y-43563419D01*
X108432600Y-44579419D01*
X108142314Y-44531038D02*
X107997171Y-44579419D01*
X107755266Y-44579419D01*
X107658504Y-44531038D01*
X107610123Y-44482657D01*
X107561742Y-44385895D01*
X107561742Y-44289133D01*
X107610123Y-44192371D01*
X107658504Y-44143990D01*
X107755266Y-44095609D01*
X107948790Y-44047228D01*
X108045552Y-43998847D01*
X108093933Y-43950466D01*
X108142314Y-43853704D01*
X108142314Y-43756942D01*
X108093933Y-43660180D01*
X108045552Y-43611800D01*
X107948790Y-43563419D01*
X107706885Y-43563419D01*
X107561742Y-43611800D01*
X127312057Y-64329733D02*
X126828247Y-64329733D01*
X127408819Y-64620019D02*
X127070152Y-63604019D01*
X126731485Y-64620019D01*
X126392819Y-63604019D02*
X126392819Y-64426495D01*
X126344438Y-64523257D01*
X126296057Y-64571638D01*
X126199295Y-64620019D01*
X126005771Y-64620019D01*
X125909009Y-64571638D01*
X125860628Y-64523257D01*
X125812247Y-64426495D01*
X125812247Y-63604019D01*
X125328438Y-64620019D02*
X125328438Y-63604019D01*
X125086533Y-63604019D01*
X124941390Y-63652400D01*
X124844628Y-63749161D01*
X124796247Y-63845923D01*
X124747866Y-64039447D01*
X124747866Y-64184590D01*
X124796247Y-64378114D01*
X124844628Y-64474876D01*
X124941390Y-64571638D01*
X125086533Y-64620019D01*
X125328438Y-64620019D01*
X124554342Y-64716780D02*
X123780247Y-64716780D01*
X123344819Y-63604019D02*
X123151295Y-63604019D01*
X123054533Y-63652400D01*
X122957771Y-63749161D01*
X122909390Y-63942685D01*
X122909390Y-64281352D01*
X122957771Y-64474876D01*
X123054533Y-64571638D01*
X123151295Y-64620019D01*
X123344819Y-64620019D01*
X123441580Y-64571638D01*
X123538342Y-64474876D01*
X123586723Y-64281352D01*
X123586723Y-63942685D01*
X123538342Y-63749161D01*
X123441580Y-63652400D01*
X123344819Y-63604019D01*
X122473961Y-63604019D02*
X122473961Y-64426495D01*
X122425580Y-64523257D01*
X122377200Y-64571638D01*
X122280438Y-64620019D01*
X122086914Y-64620019D01*
X121990152Y-64571638D01*
X121941771Y-64523257D01*
X121893390Y-64426495D01*
X121893390Y-63604019D01*
X121554723Y-63604019D02*
X120974152Y-63604019D01*
X121264438Y-64620019D02*
X121264438Y-63604019D01*
X120877390Y-64716780D02*
X120103295Y-64716780D01*
X119377580Y-64620019D02*
X119861390Y-64620019D01*
X119861390Y-63604019D01*
X103849714Y-88897339D02*
X103849714Y-87881339D01*
X103365904Y-88897339D02*
X103365904Y-87881339D01*
X102785333Y-88897339D01*
X102785333Y-87881339D01*
X102349904Y-88848958D02*
X102204761Y-88897339D01*
X101962857Y-88897339D01*
X101866095Y-88848958D01*
X101817714Y-88800577D01*
X101769333Y-88703815D01*
X101769333Y-88607053D01*
X101817714Y-88510291D01*
X101866095Y-88461910D01*
X101962857Y-88413529D01*
X102156380Y-88365148D01*
X102253142Y-88316767D01*
X102301523Y-88268386D01*
X102349904Y-88171624D01*
X102349904Y-88074862D01*
X102301523Y-87978100D01*
X102253142Y-87929720D01*
X102156380Y-87881339D01*
X101914476Y-87881339D01*
X101769333Y-87929720D01*
X101333904Y-88365148D02*
X100995238Y-88365148D01*
X100850095Y-88897339D02*
X101333904Y-88897339D01*
X101333904Y-87881339D01*
X100850095Y-87881339D01*
X99834095Y-88897339D02*
X100172761Y-88413529D01*
X100414666Y-88897339D02*
X100414666Y-87881339D01*
X100027619Y-87881339D01*
X99930857Y-87929720D01*
X99882476Y-87978100D01*
X99834095Y-88074862D01*
X99834095Y-88220005D01*
X99882476Y-88316767D01*
X99930857Y-88365148D01*
X100027619Y-88413529D01*
X100414666Y-88413529D01*
X99543809Y-87881339D02*
X98963238Y-87881339D01*
X99253523Y-88897339D02*
X99253523Y-87881339D01*
X106704190Y-90242813D02*
X106220380Y-90242813D01*
X106800952Y-90533099D02*
X106462285Y-89517099D01*
X106123619Y-90533099D01*
X105349523Y-89855765D02*
X105349523Y-90533099D01*
X105784952Y-89855765D02*
X105784952Y-90387956D01*
X105736571Y-90484718D01*
X105639809Y-90533099D01*
X105494666Y-90533099D01*
X105397904Y-90484718D01*
X105349523Y-90436337D01*
X104430285Y-90533099D02*
X104430285Y-89517099D01*
X104430285Y-90484718D02*
X104527047Y-90533099D01*
X104720571Y-90533099D01*
X104817333Y-90484718D01*
X104865714Y-90436337D01*
X104914095Y-90339575D01*
X104914095Y-90049289D01*
X104865714Y-89952527D01*
X104817333Y-89904146D01*
X104720571Y-89855765D01*
X104527047Y-89855765D01*
X104430285Y-89904146D01*
X103946476Y-90533099D02*
X103946476Y-89855765D01*
X103946476Y-89517099D02*
X103994857Y-89565480D01*
X103946476Y-89613860D01*
X103898095Y-89565480D01*
X103946476Y-89517099D01*
X103946476Y-89613860D01*
X103317523Y-90533099D02*
X103414285Y-90484718D01*
X103462666Y-90436337D01*
X103511047Y-90339575D01*
X103511047Y-90049289D01*
X103462666Y-89952527D01*
X103414285Y-89904146D01*
X103317523Y-89855765D01*
X103172380Y-89855765D01*
X103075619Y-89904146D01*
X103027238Y-89952527D01*
X102978857Y-90049289D01*
X102978857Y-90339575D01*
X103027238Y-90436337D01*
X103075619Y-90484718D01*
X103172380Y-90533099D01*
X103317523Y-90533099D01*
X101914476Y-89517099D02*
X101333904Y-89517099D01*
X101624190Y-90533099D02*
X101624190Y-89517099D01*
X100850095Y-90533099D02*
X100946857Y-90484718D01*
X100995238Y-90436337D01*
X101043619Y-90339575D01*
X101043619Y-90049289D01*
X100995238Y-89952527D01*
X100946857Y-89904146D01*
X100850095Y-89855765D01*
X100704952Y-89855765D01*
X100608190Y-89904146D01*
X100559809Y-89952527D01*
X100511428Y-90049289D01*
X100511428Y-90339575D01*
X100559809Y-90436337D01*
X100608190Y-90484718D01*
X100704952Y-90533099D01*
X100850095Y-90533099D01*
X98721333Y-90533099D02*
X99060000Y-90049289D01*
X99301904Y-90533099D02*
X99301904Y-89517099D01*
X98914857Y-89517099D01*
X98818095Y-89565480D01*
X98769714Y-89613860D01*
X98721333Y-89710622D01*
X98721333Y-89855765D01*
X98769714Y-89952527D01*
X98818095Y-90000908D01*
X98914857Y-90049289D01*
X99301904Y-90049289D01*
X97850476Y-90533099D02*
X97850476Y-90000908D01*
X97898857Y-89904146D01*
X97995619Y-89855765D01*
X98189142Y-89855765D01*
X98285904Y-89904146D01*
X97850476Y-90484718D02*
X97947238Y-90533099D01*
X98189142Y-90533099D01*
X98285904Y-90484718D01*
X98334285Y-90387956D01*
X98334285Y-90291194D01*
X98285904Y-90194432D01*
X98189142Y-90146051D01*
X97947238Y-90146051D01*
X97850476Y-90097670D01*
X96931238Y-90533099D02*
X96931238Y-89517099D01*
X96931238Y-90484718D02*
X97028000Y-90533099D01*
X97221523Y-90533099D01*
X97318285Y-90484718D01*
X97366666Y-90436337D01*
X97415047Y-90339575D01*
X97415047Y-90049289D01*
X97366666Y-89952527D01*
X97318285Y-89904146D01*
X97221523Y-89855765D01*
X97028000Y-89855765D01*
X96931238Y-89904146D01*
X96447428Y-90533099D02*
X96447428Y-89855765D01*
X96447428Y-89517099D02*
X96495809Y-89565480D01*
X96447428Y-89613860D01*
X96399047Y-89565480D01*
X96447428Y-89517099D01*
X96447428Y-89613860D01*
X95818476Y-90533099D02*
X95915238Y-90484718D01*
X95963619Y-90436337D01*
X96012000Y-90339575D01*
X96012000Y-90049289D01*
X95963619Y-89952527D01*
X95915238Y-89904146D01*
X95818476Y-89855765D01*
X95673333Y-89855765D01*
X95576571Y-89904146D01*
X95528190Y-89952527D01*
X95479809Y-90049289D01*
X95479809Y-90339575D01*
X95528190Y-90436337D01*
X95576571Y-90484718D01*
X95673333Y-90533099D01*
X95818476Y-90533099D01*
D11*
X136296400Y-105707180D02*
X135570685Y-105707180D01*
X136441542Y-106142608D02*
X135933542Y-104618608D01*
X135425542Y-106142608D01*
X134264400Y-105126608D02*
X134264400Y-106142608D01*
X134917542Y-105126608D02*
X134917542Y-105924894D01*
X134844971Y-106070037D01*
X134699828Y-106142608D01*
X134482114Y-106142608D01*
X134336971Y-106070037D01*
X134264400Y-105997465D01*
X132885542Y-106142608D02*
X132885542Y-104618608D01*
X132885542Y-106070037D02*
X133030685Y-106142608D01*
X133320971Y-106142608D01*
X133466114Y-106070037D01*
X133538685Y-105997465D01*
X133611257Y-105852322D01*
X133611257Y-105416894D01*
X133538685Y-105271751D01*
X133466114Y-105199180D01*
X133320971Y-105126608D01*
X133030685Y-105126608D01*
X132885542Y-105199180D01*
X132159828Y-106142608D02*
X132159828Y-105126608D01*
X132159828Y-104618608D02*
X132232400Y-104691180D01*
X132159828Y-104763751D01*
X132087257Y-104691180D01*
X132159828Y-104618608D01*
X132159828Y-104763751D01*
X131216400Y-106142608D02*
X131361542Y-106070037D01*
X131434114Y-105997465D01*
X131506685Y-105852322D01*
X131506685Y-105416894D01*
X131434114Y-105271751D01*
X131361542Y-105199180D01*
X131216400Y-105126608D01*
X130998685Y-105126608D01*
X130853542Y-105199180D01*
X130780971Y-105271751D01*
X130708400Y-105416894D01*
X130708400Y-105852322D01*
X130780971Y-105997465D01*
X130853542Y-106070037D01*
X130998685Y-106142608D01*
X131216400Y-106142608D01*
X135207828Y-108596248D02*
X135715828Y-107870534D01*
X136078685Y-108596248D02*
X136078685Y-107072248D01*
X135498114Y-107072248D01*
X135352971Y-107144820D01*
X135280400Y-107217391D01*
X135207828Y-107362534D01*
X135207828Y-107580248D01*
X135280400Y-107725391D01*
X135352971Y-107797962D01*
X135498114Y-107870534D01*
X136078685Y-107870534D01*
X134554685Y-108596248D02*
X134554685Y-107580248D01*
X134554685Y-107072248D02*
X134627257Y-107144820D01*
X134554685Y-107217391D01*
X134482114Y-107144820D01*
X134554685Y-107072248D01*
X134554685Y-107217391D01*
X133175828Y-107580248D02*
X133175828Y-108813962D01*
X133248400Y-108959105D01*
X133320971Y-109031677D01*
X133466114Y-109104248D01*
X133683828Y-109104248D01*
X133828971Y-109031677D01*
X133175828Y-108523677D02*
X133320971Y-108596248D01*
X133611257Y-108596248D01*
X133756400Y-108523677D01*
X133828971Y-108451105D01*
X133901542Y-108305962D01*
X133901542Y-107870534D01*
X133828971Y-107725391D01*
X133756400Y-107652820D01*
X133611257Y-107580248D01*
X133320971Y-107580248D01*
X133175828Y-107652820D01*
X132450114Y-108596248D02*
X132450114Y-107072248D01*
X131796971Y-108596248D02*
X131796971Y-107797962D01*
X131869542Y-107652820D01*
X132014685Y-107580248D01*
X132232400Y-107580248D01*
X132377542Y-107652820D01*
X132450114Y-107725391D01*
X131288971Y-107580248D02*
X130708400Y-107580248D01*
X131071257Y-107072248D02*
X131071257Y-108378534D01*
X130998685Y-108523677D01*
X130853542Y-108596248D01*
X130708400Y-108596248D01*
D10*
X52971095Y-50389971D02*
X52197000Y-50389971D01*
X52584047Y-50777019D02*
X52584047Y-50002923D01*
X51761571Y-49857780D02*
X51713190Y-49809400D01*
X51616428Y-49761019D01*
X51374523Y-49761019D01*
X51277761Y-49809400D01*
X51229380Y-49857780D01*
X51181000Y-49954542D01*
X51181000Y-50051304D01*
X51229380Y-50196447D01*
X51809952Y-50777019D01*
X51181000Y-50777019D01*
X50890714Y-49761019D02*
X50552047Y-50777019D01*
X50213380Y-49761019D01*
X49390904Y-49761019D02*
X49874714Y-49761019D01*
X49923095Y-50244828D01*
X49874714Y-50196447D01*
X49777952Y-50148066D01*
X49536047Y-50148066D01*
X49439285Y-50196447D01*
X49390904Y-50244828D01*
X49342523Y-50341590D01*
X49342523Y-50583495D01*
X49390904Y-50680257D01*
X49439285Y-50728638D01*
X49536047Y-50777019D01*
X49777952Y-50777019D01*
X49874714Y-50728638D01*
X49923095Y-50680257D01*
X132897638Y-89312447D02*
X132946019Y-89457590D01*
X132946019Y-89699495D01*
X132897638Y-89796257D01*
X132849257Y-89844638D01*
X132752495Y-89893019D01*
X132655733Y-89893019D01*
X132558971Y-89844638D01*
X132510590Y-89796257D01*
X132462209Y-89699495D01*
X132413828Y-89505971D01*
X132365447Y-89409209D01*
X132317066Y-89360828D01*
X132220304Y-89312447D01*
X132123542Y-89312447D01*
X132026780Y-89360828D01*
X131978400Y-89409209D01*
X131930019Y-89505971D01*
X131930019Y-89747876D01*
X131978400Y-89893019D01*
X132413828Y-90328447D02*
X132413828Y-90667114D01*
X132946019Y-90812257D02*
X132946019Y-90328447D01*
X131930019Y-90328447D01*
X131930019Y-90812257D01*
X132946019Y-91828257D02*
X132462209Y-91489590D01*
X132946019Y-91247685D02*
X131930019Y-91247685D01*
X131930019Y-91634733D01*
X131978400Y-91731495D01*
X132026780Y-91779876D01*
X132123542Y-91828257D01*
X132268685Y-91828257D01*
X132365447Y-91779876D01*
X132413828Y-91731495D01*
X132462209Y-91634733D01*
X132462209Y-91247685D01*
X133042780Y-92021780D02*
X133042780Y-92795876D01*
X132413828Y-93376447D02*
X132462209Y-93521590D01*
X132510590Y-93569971D01*
X132607352Y-93618352D01*
X132752495Y-93618352D01*
X132849257Y-93569971D01*
X132897638Y-93521590D01*
X132946019Y-93424828D01*
X132946019Y-93037780D01*
X131930019Y-93037780D01*
X131930019Y-93376447D01*
X131978400Y-93473209D01*
X132026780Y-93521590D01*
X132123542Y-93569971D01*
X132220304Y-93569971D01*
X132317066Y-93521590D01*
X132365447Y-93473209D01*
X132413828Y-93376447D01*
X132413828Y-93037780D01*
X133042780Y-93811876D02*
X133042780Y-94585971D01*
X132946019Y-95408447D02*
X132462209Y-95069780D01*
X132946019Y-94827876D02*
X131930019Y-94827876D01*
X131930019Y-95214923D01*
X131978400Y-95311685D01*
X132026780Y-95360066D01*
X132123542Y-95408447D01*
X132268685Y-95408447D01*
X132365447Y-95360066D01*
X132413828Y-95311685D01*
X132462209Y-95214923D01*
X132462209Y-94827876D01*
X131930019Y-95747114D02*
X132946019Y-96424447D01*
X131930019Y-96424447D02*
X132946019Y-95747114D01*
X132946019Y-96811495D02*
X131930019Y-96811495D01*
X131930019Y-97053400D01*
X131978400Y-97198542D01*
X132075161Y-97295304D01*
X132171923Y-97343685D01*
X132365447Y-97392066D01*
X132510590Y-97392066D01*
X132704114Y-97343685D01*
X132800876Y-97295304D01*
X132897638Y-97198542D01*
X132946019Y-97053400D01*
X132946019Y-96811495D01*
X133042780Y-97585590D02*
X133042780Y-98359685D01*
X132946019Y-98601590D02*
X131930019Y-98601590D01*
X132946019Y-99085400D02*
X131930019Y-99085400D01*
X132946019Y-99665971D01*
X131930019Y-99665971D01*
X56783514Y-110924219D02*
X56783514Y-111746695D01*
X56735133Y-111843457D01*
X56686752Y-111891838D01*
X56589990Y-111940219D01*
X56396466Y-111940219D01*
X56299704Y-111891838D01*
X56251323Y-111843457D01*
X56202942Y-111746695D01*
X56202942Y-110924219D01*
X55767514Y-111891838D02*
X55622371Y-111940219D01*
X55380466Y-111940219D01*
X55283704Y-111891838D01*
X55235323Y-111843457D01*
X55186942Y-111746695D01*
X55186942Y-111649933D01*
X55235323Y-111553171D01*
X55283704Y-111504790D01*
X55380466Y-111456409D01*
X55573990Y-111408028D01*
X55670752Y-111359647D01*
X55719133Y-111311266D01*
X55767514Y-111214504D01*
X55767514Y-111117742D01*
X55719133Y-111020980D01*
X55670752Y-110972600D01*
X55573990Y-110924219D01*
X55332085Y-110924219D01*
X55186942Y-110972600D01*
X54412847Y-111408028D02*
X54267704Y-111456409D01*
X54219323Y-111504790D01*
X54170942Y-111601552D01*
X54170942Y-111746695D01*
X54219323Y-111843457D01*
X54267704Y-111891838D01*
X54364466Y-111940219D01*
X54751514Y-111940219D01*
X54751514Y-110924219D01*
X54412847Y-110924219D01*
X54316085Y-110972600D01*
X54267704Y-111020980D01*
X54219323Y-111117742D01*
X54219323Y-111214504D01*
X54267704Y-111311266D01*
X54316085Y-111359647D01*
X54412847Y-111408028D01*
X54751514Y-111408028D01*
X53977419Y-112036980D02*
X53203323Y-112036980D01*
X52429228Y-110972600D02*
X52525990Y-110924219D01*
X52671133Y-110924219D01*
X52816276Y-110972600D01*
X52913038Y-111069361D01*
X52961419Y-111166123D01*
X53009800Y-111359647D01*
X53009800Y-111504790D01*
X52961419Y-111698314D01*
X52913038Y-111795076D01*
X52816276Y-111891838D01*
X52671133Y-111940219D01*
X52574371Y-111940219D01*
X52429228Y-111891838D01*
X52380847Y-111843457D01*
X52380847Y-111504790D01*
X52574371Y-111504790D01*
X51364847Y-111940219D02*
X51703514Y-111456409D01*
X51945419Y-111940219D02*
X51945419Y-110924219D01*
X51558371Y-110924219D01*
X51461609Y-110972600D01*
X51413228Y-111020980D01*
X51364847Y-111117742D01*
X51364847Y-111262885D01*
X51413228Y-111359647D01*
X51461609Y-111408028D01*
X51558371Y-111456409D01*
X51945419Y-111456409D01*
X50735895Y-110924219D02*
X50542371Y-110924219D01*
X50445609Y-110972600D01*
X50348847Y-111069361D01*
X50300466Y-111262885D01*
X50300466Y-111601552D01*
X50348847Y-111795076D01*
X50445609Y-111891838D01*
X50542371Y-111940219D01*
X50735895Y-111940219D01*
X50832657Y-111891838D01*
X50929419Y-111795076D01*
X50977800Y-111601552D01*
X50977800Y-111262885D01*
X50929419Y-111069361D01*
X50832657Y-110972600D01*
X50735895Y-110924219D01*
X49865038Y-110924219D02*
X49865038Y-111746695D01*
X49816657Y-111843457D01*
X49768276Y-111891838D01*
X49671514Y-111940219D01*
X49477990Y-111940219D01*
X49381228Y-111891838D01*
X49332847Y-111843457D01*
X49284466Y-111746695D01*
X49284466Y-110924219D01*
X48800657Y-111940219D02*
X48800657Y-110924219D01*
X48220085Y-111940219D01*
X48220085Y-110924219D01*
X47736276Y-111940219D02*
X47736276Y-110924219D01*
X47494371Y-110924219D01*
X47349228Y-110972600D01*
X47252466Y-111069361D01*
X47204085Y-111166123D01*
X47155704Y-111359647D01*
X47155704Y-111504790D01*
X47204085Y-111698314D01*
X47252466Y-111795076D01*
X47349228Y-111891838D01*
X47494371Y-111940219D01*
X47736276Y-111940219D01*
X87004676Y-31648400D02*
X87101438Y-31600019D01*
X87246580Y-31600019D01*
X87391723Y-31648400D01*
X87488485Y-31745161D01*
X87536866Y-31841923D01*
X87585247Y-32035447D01*
X87585247Y-32180590D01*
X87536866Y-32374114D01*
X87488485Y-32470876D01*
X87391723Y-32567638D01*
X87246580Y-32616019D01*
X87149819Y-32616019D01*
X87004676Y-32567638D01*
X86956295Y-32519257D01*
X86956295Y-32180590D01*
X87149819Y-32180590D01*
X85940295Y-32616019D02*
X86278961Y-32132209D01*
X86520866Y-32616019D02*
X86520866Y-31600019D01*
X86133819Y-31600019D01*
X86037057Y-31648400D01*
X85988676Y-31696780D01*
X85940295Y-31793542D01*
X85940295Y-31938685D01*
X85988676Y-32035447D01*
X86037057Y-32083828D01*
X86133819Y-32132209D01*
X86520866Y-32132209D01*
X85311342Y-31600019D02*
X85117819Y-31600019D01*
X85021057Y-31648400D01*
X84924295Y-31745161D01*
X84875914Y-31938685D01*
X84875914Y-32277352D01*
X84924295Y-32470876D01*
X85021057Y-32567638D01*
X85117819Y-32616019D01*
X85311342Y-32616019D01*
X85408104Y-32567638D01*
X85504866Y-32470876D01*
X85553247Y-32277352D01*
X85553247Y-31938685D01*
X85504866Y-31745161D01*
X85408104Y-31648400D01*
X85311342Y-31600019D01*
X84440485Y-31600019D02*
X84440485Y-32422495D01*
X84392104Y-32519257D01*
X84343723Y-32567638D01*
X84246961Y-32616019D01*
X84053438Y-32616019D01*
X83956676Y-32567638D01*
X83908295Y-32519257D01*
X83859914Y-32422495D01*
X83859914Y-31600019D01*
X83376104Y-32616019D02*
X83376104Y-31600019D01*
X82795533Y-32616019D01*
X82795533Y-31600019D01*
X82311723Y-32616019D02*
X82311723Y-31600019D01*
X82069819Y-31600019D01*
X81924676Y-31648400D01*
X81827914Y-31745161D01*
X81779533Y-31841923D01*
X81731152Y-32035447D01*
X81731152Y-32180590D01*
X81779533Y-32374114D01*
X81827914Y-32470876D01*
X81924676Y-32567638D01*
X82069819Y-32616019D01*
X82311723Y-32616019D01*
X55576409Y-92909571D02*
X54802314Y-92909571D01*
X55189361Y-93296619D02*
X55189361Y-92522523D01*
X53786314Y-93296619D02*
X54366885Y-93296619D01*
X54076600Y-93296619D02*
X54076600Y-92280619D01*
X54173361Y-92425761D01*
X54270123Y-92522523D01*
X54366885Y-92570904D01*
X53399266Y-92377380D02*
X53350885Y-92329000D01*
X53254123Y-92280619D01*
X53012219Y-92280619D01*
X52915457Y-92329000D01*
X52867076Y-92377380D01*
X52818695Y-92474142D01*
X52818695Y-92570904D01*
X52867076Y-92716047D01*
X53447647Y-93296619D01*
X52818695Y-93296619D01*
X52528409Y-92280619D02*
X52189742Y-93296619D01*
X51851076Y-92280619D01*
X51754314Y-93393380D02*
X50980219Y-93393380D01*
X50399647Y-92764428D02*
X50738314Y-92764428D01*
X50738314Y-93296619D02*
X50738314Y-92280619D01*
X50254504Y-92280619D01*
X49383647Y-93296619D02*
X49867457Y-93296619D01*
X49867457Y-92280619D01*
X48512790Y-92329000D02*
X48609552Y-92280619D01*
X48754695Y-92280619D01*
X48899838Y-92329000D01*
X48996600Y-92425761D01*
X49044980Y-92522523D01*
X49093361Y-92716047D01*
X49093361Y-92861190D01*
X49044980Y-93054714D01*
X48996600Y-93151476D01*
X48899838Y-93248238D01*
X48754695Y-93296619D01*
X48657933Y-93296619D01*
X48512790Y-93248238D01*
X48464409Y-93199857D01*
X48464409Y-92861190D01*
X48657933Y-92861190D01*
X95493114Y-83304259D02*
X94912542Y-83304259D01*
X95202828Y-84320259D02*
X95202828Y-83304259D01*
X94573876Y-84320259D02*
X94573876Y-83304259D01*
X94090066Y-84320259D02*
X94090066Y-83304259D01*
X93703019Y-83304259D01*
X93606257Y-83352640D01*
X93557876Y-83401020D01*
X93509495Y-83497782D01*
X93509495Y-83642925D01*
X93557876Y-83739687D01*
X93606257Y-83788068D01*
X93703019Y-83836449D01*
X94090066Y-83836449D01*
X92299971Y-83933211D02*
X91525876Y-83933211D01*
X90316352Y-84271878D02*
X90171209Y-84320259D01*
X89929304Y-84320259D01*
X89832542Y-84271878D01*
X89784161Y-84223497D01*
X89735780Y-84126735D01*
X89735780Y-84029973D01*
X89784161Y-83933211D01*
X89832542Y-83884830D01*
X89929304Y-83836449D01*
X90122828Y-83788068D01*
X90219590Y-83739687D01*
X90267971Y-83691306D01*
X90316352Y-83594544D01*
X90316352Y-83497782D01*
X90267971Y-83401020D01*
X90219590Y-83352640D01*
X90122828Y-83304259D01*
X89880923Y-83304259D01*
X89735780Y-83352640D01*
X88913304Y-84271878D02*
X89010066Y-84320259D01*
X89203590Y-84320259D01*
X89300352Y-84271878D01*
X89348733Y-84175116D01*
X89348733Y-83788068D01*
X89300352Y-83691306D01*
X89203590Y-83642925D01*
X89010066Y-83642925D01*
X88913304Y-83691306D01*
X88864923Y-83788068D01*
X88864923Y-83884830D01*
X89348733Y-83981592D01*
X88429495Y-83642925D02*
X88429495Y-84320259D01*
X88429495Y-83739687D02*
X88381114Y-83691306D01*
X88284352Y-83642925D01*
X88139209Y-83642925D01*
X88042447Y-83691306D01*
X87994066Y-83788068D01*
X87994066Y-84320259D01*
X87074828Y-84320259D02*
X87074828Y-83304259D01*
X87074828Y-84271878D02*
X87171590Y-84320259D01*
X87365114Y-84320259D01*
X87461876Y-84271878D01*
X87510257Y-84223497D01*
X87558638Y-84126735D01*
X87558638Y-83836449D01*
X87510257Y-83739687D01*
X87461876Y-83691306D01*
X87365114Y-83642925D01*
X87171590Y-83642925D01*
X87074828Y-83691306D01*
X96049495Y-85956019D02*
X96388161Y-85472209D01*
X96630066Y-85956019D02*
X96630066Y-84940019D01*
X96243019Y-84940019D01*
X96146257Y-84988400D01*
X96097876Y-85036780D01*
X96049495Y-85133542D01*
X96049495Y-85278685D01*
X96097876Y-85375447D01*
X96146257Y-85423828D01*
X96243019Y-85472209D01*
X96630066Y-85472209D01*
X95614066Y-85956019D02*
X95614066Y-84940019D01*
X95130257Y-85956019D02*
X95130257Y-84940019D01*
X94549685Y-85956019D01*
X94549685Y-84940019D01*
X93533685Y-84988400D02*
X93630447Y-84940019D01*
X93775590Y-84940019D01*
X93920733Y-84988400D01*
X94017495Y-85085161D01*
X94065876Y-85181923D01*
X94114257Y-85375447D01*
X94114257Y-85520590D01*
X94065876Y-85714114D01*
X94017495Y-85810876D01*
X93920733Y-85907638D01*
X93775590Y-85956019D01*
X93678828Y-85956019D01*
X93533685Y-85907638D01*
X93485304Y-85859257D01*
X93485304Y-85520590D01*
X93678828Y-85520590D01*
X92275780Y-85568971D02*
X91501685Y-85568971D01*
X89663209Y-85956019D02*
X90001876Y-85472209D01*
X90243780Y-85956019D02*
X90243780Y-84940019D01*
X89856733Y-84940019D01*
X89759971Y-84988400D01*
X89711590Y-85036780D01*
X89663209Y-85133542D01*
X89663209Y-85278685D01*
X89711590Y-85375447D01*
X89759971Y-85423828D01*
X89856733Y-85472209D01*
X90243780Y-85472209D01*
X88840733Y-85907638D02*
X88937495Y-85956019D01*
X89131019Y-85956019D01*
X89227780Y-85907638D01*
X89276161Y-85810876D01*
X89276161Y-85423828D01*
X89227780Y-85327066D01*
X89131019Y-85278685D01*
X88937495Y-85278685D01*
X88840733Y-85327066D01*
X88792352Y-85423828D01*
X88792352Y-85520590D01*
X89276161Y-85617352D01*
X88502066Y-85278685D02*
X88115019Y-85278685D01*
X88356923Y-84940019D02*
X88356923Y-85810876D01*
X88308542Y-85907638D01*
X88211780Y-85956019D01*
X88115019Y-85956019D01*
X87340923Y-85278685D02*
X87340923Y-85956019D01*
X87776352Y-85278685D02*
X87776352Y-85810876D01*
X87727971Y-85907638D01*
X87631209Y-85956019D01*
X87486066Y-85956019D01*
X87389304Y-85907638D01*
X87340923Y-85859257D01*
X86857114Y-85956019D02*
X86857114Y-85278685D01*
X86857114Y-85472209D02*
X86808733Y-85375447D01*
X86760352Y-85327066D01*
X86663590Y-85278685D01*
X86566828Y-85278685D01*
X86228161Y-85278685D02*
X86228161Y-85956019D01*
X86228161Y-85375447D02*
X86179780Y-85327066D01*
X86083019Y-85278685D01*
X85937876Y-85278685D01*
X85841114Y-85327066D01*
X85792733Y-85423828D01*
X85792733Y-85956019D01*
X97791209Y-87543398D02*
X97646066Y-87591779D01*
X97404161Y-87591779D01*
X97307400Y-87543398D01*
X97259019Y-87495017D01*
X97210638Y-87398255D01*
X97210638Y-87301493D01*
X97259019Y-87204731D01*
X97307400Y-87156350D01*
X97404161Y-87107969D01*
X97597685Y-87059588D01*
X97694447Y-87011207D01*
X97742828Y-86962826D01*
X97791209Y-86866064D01*
X97791209Y-86769302D01*
X97742828Y-86672540D01*
X97694447Y-86624160D01*
X97597685Y-86575779D01*
X97355780Y-86575779D01*
X97210638Y-86624160D01*
X96291400Y-87591779D02*
X96775209Y-87591779D01*
X96775209Y-86575779D01*
X95952733Y-87059588D02*
X95614066Y-87059588D01*
X95468923Y-87591779D02*
X95952733Y-87591779D01*
X95952733Y-86575779D01*
X95468923Y-86575779D01*
X95033495Y-87059588D02*
X94694828Y-87059588D01*
X94549685Y-87591779D02*
X95033495Y-87591779D01*
X95033495Y-86575779D01*
X94549685Y-86575779D01*
X94259400Y-86575779D02*
X93920733Y-87591779D01*
X93582066Y-86575779D01*
X93243400Y-87059588D02*
X92904733Y-87059588D01*
X92759590Y-87591779D02*
X93243400Y-87591779D01*
X93243400Y-86575779D01*
X92759590Y-86575779D01*
X91550066Y-87204731D02*
X90775971Y-87204731D01*
X88985876Y-86624160D02*
X89082638Y-86575779D01*
X89227780Y-86575779D01*
X89372923Y-86624160D01*
X89469685Y-86720921D01*
X89518066Y-86817683D01*
X89566447Y-87011207D01*
X89566447Y-87156350D01*
X89518066Y-87349874D01*
X89469685Y-87446636D01*
X89372923Y-87543398D01*
X89227780Y-87591779D01*
X89131019Y-87591779D01*
X88985876Y-87543398D01*
X88937495Y-87495017D01*
X88937495Y-87156350D01*
X89131019Y-87156350D01*
X88502066Y-87591779D02*
X88502066Y-86914445D01*
X88502066Y-87107969D02*
X88453685Y-87011207D01*
X88405304Y-86962826D01*
X88308542Y-86914445D01*
X88211780Y-86914445D01*
X87727971Y-87591779D02*
X87824733Y-87543398D01*
X87873114Y-87495017D01*
X87921495Y-87398255D01*
X87921495Y-87107969D01*
X87873114Y-87011207D01*
X87824733Y-86962826D01*
X87727971Y-86914445D01*
X87582828Y-86914445D01*
X87486066Y-86962826D01*
X87437685Y-87011207D01*
X87389304Y-87107969D01*
X87389304Y-87398255D01*
X87437685Y-87495017D01*
X87486066Y-87543398D01*
X87582828Y-87591779D01*
X87727971Y-87591779D01*
X86518447Y-86914445D02*
X86518447Y-87591779D01*
X86953876Y-86914445D02*
X86953876Y-87446636D01*
X86905495Y-87543398D01*
X86808733Y-87591779D01*
X86663590Y-87591779D01*
X86566828Y-87543398D01*
X86518447Y-87495017D01*
X86034638Y-86914445D02*
X86034638Y-87591779D01*
X86034638Y-87011207D02*
X85986257Y-86962826D01*
X85889495Y-86914445D01*
X85744352Y-86914445D01*
X85647590Y-86962826D01*
X85599209Y-87059588D01*
X85599209Y-87591779D01*
X84679971Y-87591779D02*
X84679971Y-86575779D01*
X84679971Y-87543398D02*
X84776733Y-87591779D01*
X84970257Y-87591779D01*
X85067019Y-87543398D01*
X85115400Y-87495017D01*
X85163780Y-87398255D01*
X85163780Y-87107969D01*
X85115400Y-87011207D01*
X85067019Y-86962826D01*
X84970257Y-86914445D01*
X84776733Y-86914445D01*
X84679971Y-86962826D01*
X153621619Y-77808666D02*
X153137809Y-77470000D01*
X153621619Y-77228095D02*
X152605619Y-77228095D01*
X152605619Y-77615142D01*
X152654000Y-77711904D01*
X152702380Y-77760285D01*
X152799142Y-77808666D01*
X152944285Y-77808666D01*
X153041047Y-77760285D01*
X153089428Y-77711904D01*
X153137809Y-77615142D01*
X153137809Y-77228095D01*
X152605619Y-78147333D02*
X153621619Y-78824666D01*
X152605619Y-78824666D02*
X153621619Y-78147333D01*
X151578733Y-86641819D02*
X150998161Y-86641819D01*
X151288447Y-87657819D02*
X151288447Y-86641819D01*
X150804638Y-86641819D02*
X150224066Y-86641819D01*
X150514352Y-87657819D02*
X150514352Y-86641819D01*
X149401590Y-87657819D02*
X149885400Y-87657819D01*
X149885400Y-86641819D01*
X149304828Y-87754580D02*
X148530733Y-87754580D01*
X148433971Y-86641819D02*
X147853400Y-86641819D01*
X148143685Y-87657819D02*
X148143685Y-86641819D01*
X147611495Y-86641819D02*
X146934161Y-87657819D01*
X146934161Y-86641819D02*
X147611495Y-87657819D01*
X146789019Y-87754580D02*
X146014923Y-87754580D01*
X145821400Y-86738580D02*
X145773019Y-86690200D01*
X145676257Y-86641819D01*
X145434352Y-86641819D01*
X145337590Y-86690200D01*
X145289209Y-86738580D01*
X145240828Y-86835342D01*
X145240828Y-86932104D01*
X145289209Y-87077247D01*
X145869780Y-87657819D01*
X145240828Y-87657819D01*
X152605619Y-73749504D02*
X152605619Y-74330076D01*
X153621619Y-74039790D02*
X152605619Y-74039790D01*
X152605619Y-74571980D02*
X153621619Y-75249314D01*
X152605619Y-75249314D02*
X153621619Y-74571980D01*
D11*
X137421257Y-111916028D02*
X136550400Y-111916028D01*
X136985828Y-113440028D02*
X136985828Y-111916028D01*
X136042400Y-113440028D02*
X136042400Y-111916028D01*
X135389257Y-113440028D02*
X135389257Y-112641742D01*
X135461828Y-112496600D01*
X135606971Y-112424028D01*
X135824685Y-112424028D01*
X135969828Y-112496600D01*
X136042400Y-112569171D01*
X134082971Y-113367457D02*
X134228114Y-113440028D01*
X134518400Y-113440028D01*
X134663542Y-113367457D01*
X134736114Y-113222314D01*
X134736114Y-112641742D01*
X134663542Y-112496600D01*
X134518400Y-112424028D01*
X134228114Y-112424028D01*
X134082971Y-112496600D01*
X134010400Y-112641742D01*
X134010400Y-112786885D01*
X134736114Y-112932028D01*
X133429828Y-113367457D02*
X133284685Y-113440028D01*
X132994400Y-113440028D01*
X132849257Y-113367457D01*
X132776685Y-113222314D01*
X132776685Y-113149742D01*
X132849257Y-113004600D01*
X132994400Y-112932028D01*
X133212114Y-112932028D01*
X133357257Y-112859457D01*
X133429828Y-112714314D01*
X133429828Y-112641742D01*
X133357257Y-112496600D01*
X133212114Y-112424028D01*
X132994400Y-112424028D01*
X132849257Y-112496600D01*
X131542971Y-113367457D02*
X131688114Y-113440028D01*
X131978400Y-113440028D01*
X132123542Y-113367457D01*
X132196114Y-113222314D01*
X132196114Y-112641742D01*
X132123542Y-112496600D01*
X131978400Y-112424028D01*
X131688114Y-112424028D01*
X131542971Y-112496600D01*
X131470400Y-112641742D01*
X131470400Y-112786885D01*
X132196114Y-112932028D01*
X129728685Y-113004600D02*
X129002971Y-113004600D01*
X129873828Y-113440028D02*
X129365828Y-111916028D01*
X128857828Y-113440028D01*
X127696685Y-112424028D02*
X127696685Y-113440028D01*
X128349828Y-112424028D02*
X128349828Y-113222314D01*
X128277257Y-113367457D01*
X128132114Y-113440028D01*
X127914400Y-113440028D01*
X127769257Y-113367457D01*
X127696685Y-113294885D01*
X126317828Y-113440028D02*
X126317828Y-111916028D01*
X126317828Y-113367457D02*
X126462971Y-113440028D01*
X126753257Y-113440028D01*
X126898400Y-113367457D01*
X126970971Y-113294885D01*
X127043542Y-113149742D01*
X127043542Y-112714314D01*
X126970971Y-112569171D01*
X126898400Y-112496600D01*
X126753257Y-112424028D01*
X126462971Y-112424028D01*
X126317828Y-112496600D01*
X125592114Y-113440028D02*
X125592114Y-112424028D01*
X125592114Y-111916028D02*
X125664685Y-111988600D01*
X125592114Y-112061171D01*
X125519542Y-111988600D01*
X125592114Y-111916028D01*
X125592114Y-112061171D01*
X124648685Y-113440028D02*
X124793828Y-113367457D01*
X124866400Y-113294885D01*
X124938971Y-113149742D01*
X124938971Y-112714314D01*
X124866400Y-112569171D01*
X124793828Y-112496600D01*
X124648685Y-112424028D01*
X124430971Y-112424028D01*
X124285828Y-112496600D01*
X124213257Y-112569171D01*
X124140685Y-112714314D01*
X124140685Y-113149742D01*
X124213257Y-113294885D01*
X124285828Y-113367457D01*
X124430971Y-113440028D01*
X124648685Y-113440028D01*
X121673257Y-113367457D02*
X121818400Y-113440028D01*
X122108685Y-113440028D01*
X122253828Y-113367457D01*
X122326400Y-113294885D01*
X122398971Y-113149742D01*
X122398971Y-112714314D01*
X122326400Y-112569171D01*
X122253828Y-112496600D01*
X122108685Y-112424028D01*
X121818400Y-112424028D01*
X121673257Y-112496600D01*
X120802400Y-113440028D02*
X120947542Y-113367457D01*
X121020114Y-113294885D01*
X121092685Y-113149742D01*
X121092685Y-112714314D01*
X121020114Y-112569171D01*
X120947542Y-112496600D01*
X120802400Y-112424028D01*
X120584685Y-112424028D01*
X120439542Y-112496600D01*
X120366971Y-112569171D01*
X120294400Y-112714314D01*
X120294400Y-113149742D01*
X120366971Y-113294885D01*
X120439542Y-113367457D01*
X120584685Y-113440028D01*
X120802400Y-113440028D01*
X119641257Y-112424028D02*
X119641257Y-113440028D01*
X119641257Y-112569171D02*
X119568685Y-112496600D01*
X119423542Y-112424028D01*
X119205828Y-112424028D01*
X119060685Y-112496600D01*
X118988114Y-112641742D01*
X118988114Y-113440028D01*
X118262400Y-112424028D02*
X118262400Y-113440028D01*
X118262400Y-112569171D02*
X118189828Y-112496600D01*
X118044685Y-112424028D01*
X117826971Y-112424028D01*
X117681828Y-112496600D01*
X117609257Y-112641742D01*
X117609257Y-113440028D01*
X116302971Y-113367457D02*
X116448114Y-113440028D01*
X116738400Y-113440028D01*
X116883542Y-113367457D01*
X116956114Y-113222314D01*
X116956114Y-112641742D01*
X116883542Y-112496600D01*
X116738400Y-112424028D01*
X116448114Y-112424028D01*
X116302971Y-112496600D01*
X116230400Y-112641742D01*
X116230400Y-112786885D01*
X116956114Y-112932028D01*
X114924114Y-113367457D02*
X115069257Y-113440028D01*
X115359542Y-113440028D01*
X115504685Y-113367457D01*
X115577257Y-113294885D01*
X115649828Y-113149742D01*
X115649828Y-112714314D01*
X115577257Y-112569171D01*
X115504685Y-112496600D01*
X115359542Y-112424028D01*
X115069257Y-112424028D01*
X114924114Y-112496600D01*
X114488685Y-112424028D02*
X113908114Y-112424028D01*
X114270971Y-111916028D02*
X114270971Y-113222314D01*
X114198400Y-113367457D01*
X114053257Y-113440028D01*
X113908114Y-113440028D01*
X113182400Y-113440028D02*
X113327542Y-113367457D01*
X113400114Y-113294885D01*
X113472685Y-113149742D01*
X113472685Y-112714314D01*
X113400114Y-112569171D01*
X113327542Y-112496600D01*
X113182400Y-112424028D01*
X112964685Y-112424028D01*
X112819542Y-112496600D01*
X112746971Y-112569171D01*
X112674400Y-112714314D01*
X112674400Y-113149742D01*
X112746971Y-113294885D01*
X112819542Y-113367457D01*
X112964685Y-113440028D01*
X113182400Y-113440028D01*
X112021257Y-113440028D02*
X112021257Y-112424028D01*
X112021257Y-112714314D02*
X111948685Y-112569171D01*
X111876114Y-112496600D01*
X111730971Y-112424028D01*
X111585828Y-112424028D01*
X111150400Y-113367457D02*
X111005257Y-113440028D01*
X110714971Y-113440028D01*
X110569828Y-113367457D01*
X110497257Y-113222314D01*
X110497257Y-113149742D01*
X110569828Y-113004600D01*
X110714971Y-112932028D01*
X110932685Y-112932028D01*
X111077828Y-112859457D01*
X111150400Y-112714314D01*
X111150400Y-112641742D01*
X111077828Y-112496600D01*
X110932685Y-112424028D01*
X110714971Y-112424028D01*
X110569828Y-112496600D01*
X108029828Y-113440028D02*
X108029828Y-112641742D01*
X108102400Y-112496600D01*
X108247542Y-112424028D01*
X108537828Y-112424028D01*
X108682971Y-112496600D01*
X108029828Y-113367457D02*
X108174971Y-113440028D01*
X108537828Y-113440028D01*
X108682971Y-113367457D01*
X108755542Y-113222314D01*
X108755542Y-113077171D01*
X108682971Y-112932028D01*
X108537828Y-112859457D01*
X108174971Y-112859457D01*
X108029828Y-112786885D01*
X107304114Y-113440028D02*
X107304114Y-112424028D01*
X107304114Y-112714314D02*
X107231542Y-112569171D01*
X107158971Y-112496600D01*
X107013828Y-112424028D01*
X106868685Y-112424028D01*
X105780114Y-113367457D02*
X105925257Y-113440028D01*
X106215542Y-113440028D01*
X106360685Y-113367457D01*
X106433257Y-113222314D01*
X106433257Y-112641742D01*
X106360685Y-112496600D01*
X106215542Y-112424028D01*
X105925257Y-112424028D01*
X105780114Y-112496600D01*
X105707542Y-112641742D01*
X105707542Y-112786885D01*
X106433257Y-112932028D01*
X103675542Y-113440028D02*
X103820685Y-113367457D01*
X103893257Y-113294885D01*
X103965828Y-113149742D01*
X103965828Y-112714314D01*
X103893257Y-112569171D01*
X103820685Y-112496600D01*
X103675542Y-112424028D01*
X103457828Y-112424028D01*
X103312685Y-112496600D01*
X103240114Y-112569171D01*
X103167542Y-112714314D01*
X103167542Y-113149742D01*
X103240114Y-113294885D01*
X103312685Y-113367457D01*
X103457828Y-113440028D01*
X103675542Y-113440028D01*
X102514400Y-112424028D02*
X102514400Y-113440028D01*
X102514400Y-112569171D02*
X102441828Y-112496600D01*
X102296685Y-112424028D01*
X102078971Y-112424028D01*
X101933828Y-112496600D01*
X101861257Y-112641742D01*
X101861257Y-113440028D01*
X99974400Y-112424028D02*
X99974400Y-113440028D01*
X99974400Y-112569171D02*
X99901828Y-112496600D01*
X99756685Y-112424028D01*
X99538971Y-112424028D01*
X99393828Y-112496600D01*
X99321257Y-112641742D01*
X99321257Y-113440028D01*
X98377828Y-113440028D02*
X98522971Y-113367457D01*
X98595542Y-113294885D01*
X98668114Y-113149742D01*
X98668114Y-112714314D01*
X98595542Y-112569171D01*
X98522971Y-112496600D01*
X98377828Y-112424028D01*
X98160114Y-112424028D01*
X98014971Y-112496600D01*
X97942400Y-112569171D01*
X97869828Y-112714314D01*
X97869828Y-113149742D01*
X97942400Y-113294885D01*
X98014971Y-113367457D01*
X98160114Y-113440028D01*
X98377828Y-113440028D01*
X97216685Y-112424028D02*
X97216685Y-113440028D01*
X97216685Y-112569171D02*
X97144114Y-112496600D01*
X96998971Y-112424028D01*
X96781257Y-112424028D01*
X96636114Y-112496600D01*
X96563542Y-112641742D01*
X96563542Y-113440028D01*
X95837828Y-112859457D02*
X94676685Y-112859457D01*
X93950971Y-113440028D02*
X93950971Y-112424028D01*
X93950971Y-111916028D02*
X94023542Y-111988600D01*
X93950971Y-112061171D01*
X93878400Y-111988600D01*
X93950971Y-111916028D01*
X93950971Y-112061171D01*
X93297828Y-113367457D02*
X93152685Y-113440028D01*
X92862400Y-113440028D01*
X92717257Y-113367457D01*
X92644685Y-113222314D01*
X92644685Y-113149742D01*
X92717257Y-113004600D01*
X92862400Y-112932028D01*
X93080114Y-112932028D01*
X93225257Y-112859457D01*
X93297828Y-112714314D01*
X93297828Y-112641742D01*
X93225257Y-112496600D01*
X93080114Y-112424028D01*
X92862400Y-112424028D01*
X92717257Y-112496600D01*
X91773828Y-113440028D02*
X91918971Y-113367457D01*
X91991542Y-113294885D01*
X92064114Y-113149742D01*
X92064114Y-112714314D01*
X91991542Y-112569171D01*
X91918971Y-112496600D01*
X91773828Y-112424028D01*
X91556114Y-112424028D01*
X91410971Y-112496600D01*
X91338400Y-112569171D01*
X91265828Y-112714314D01*
X91265828Y-113149742D01*
X91338400Y-113294885D01*
X91410971Y-113367457D01*
X91556114Y-113440028D01*
X91773828Y-113440028D01*
X90394971Y-113440028D02*
X90540114Y-113367457D01*
X90612685Y-113222314D01*
X90612685Y-111916028D01*
X89161257Y-113440028D02*
X89161257Y-112641742D01*
X89233828Y-112496600D01*
X89378971Y-112424028D01*
X89669257Y-112424028D01*
X89814400Y-112496600D01*
X89161257Y-113367457D02*
X89306400Y-113440028D01*
X89669257Y-113440028D01*
X89814400Y-113367457D01*
X89886971Y-113222314D01*
X89886971Y-113077171D01*
X89814400Y-112932028D01*
X89669257Y-112859457D01*
X89306400Y-112859457D01*
X89161257Y-112786885D01*
X88653257Y-112424028D02*
X88072685Y-112424028D01*
X88435542Y-111916028D02*
X88435542Y-113222314D01*
X88362971Y-113367457D01*
X88217828Y-113440028D01*
X88072685Y-113440028D01*
X86984114Y-113367457D02*
X87129257Y-113440028D01*
X87419542Y-113440028D01*
X87564685Y-113367457D01*
X87637257Y-113222314D01*
X87637257Y-112641742D01*
X87564685Y-112496600D01*
X87419542Y-112424028D01*
X87129257Y-112424028D01*
X86984114Y-112496600D01*
X86911542Y-112641742D01*
X86911542Y-112786885D01*
X87637257Y-112932028D01*
X85605257Y-113440028D02*
X85605257Y-111916028D01*
X85605257Y-113367457D02*
X85750400Y-113440028D01*
X86040685Y-113440028D01*
X86185828Y-113367457D01*
X86258400Y-113294885D01*
X86330971Y-113149742D01*
X86330971Y-112714314D01*
X86258400Y-112569171D01*
X86185828Y-112496600D01*
X86040685Y-112424028D01*
X85750400Y-112424028D01*
X85605257Y-112496600D01*
X83718400Y-111916028D02*
X83718400Y-113149742D01*
X83645828Y-113294885D01*
X83573257Y-113367457D01*
X83428114Y-113440028D01*
X83137828Y-113440028D01*
X82992685Y-113367457D01*
X82920114Y-113294885D01*
X82847542Y-113149742D01*
X82847542Y-111916028D01*
X82194400Y-113367457D02*
X81976685Y-113440028D01*
X81613828Y-113440028D01*
X81468685Y-113367457D01*
X81396114Y-113294885D01*
X81323542Y-113149742D01*
X81323542Y-113004600D01*
X81396114Y-112859457D01*
X81468685Y-112786885D01*
X81613828Y-112714314D01*
X81904114Y-112641742D01*
X82049257Y-112569171D01*
X82121828Y-112496600D01*
X82194400Y-112351457D01*
X82194400Y-112206314D01*
X82121828Y-112061171D01*
X82049257Y-111988600D01*
X81904114Y-111916028D01*
X81541257Y-111916028D01*
X81323542Y-111988600D01*
X80162400Y-112641742D02*
X79944685Y-112714314D01*
X79872114Y-112786885D01*
X79799542Y-112932028D01*
X79799542Y-113149742D01*
X79872114Y-113294885D01*
X79944685Y-113367457D01*
X80089828Y-113440028D01*
X80670400Y-113440028D01*
X80670400Y-111916028D01*
X80162400Y-111916028D01*
X80017257Y-111988600D01*
X79944685Y-112061171D01*
X79872114Y-112206314D01*
X79872114Y-112351457D01*
X79944685Y-112496600D01*
X80017257Y-112569171D01*
X80162400Y-112641742D01*
X80670400Y-112641742D01*
X77332114Y-112424028D02*
X77332114Y-113657742D01*
X77404685Y-113802885D01*
X77477257Y-113875457D01*
X77622400Y-113948028D01*
X77840114Y-113948028D01*
X77985257Y-113875457D01*
X77332114Y-113367457D02*
X77477257Y-113440028D01*
X77767542Y-113440028D01*
X77912685Y-113367457D01*
X77985257Y-113294885D01*
X78057828Y-113149742D01*
X78057828Y-112714314D01*
X77985257Y-112569171D01*
X77912685Y-112496600D01*
X77767542Y-112424028D01*
X77477257Y-112424028D01*
X77332114Y-112496600D01*
X76606400Y-113440028D02*
X76606400Y-112424028D01*
X76606400Y-112714314D02*
X76533828Y-112569171D01*
X76461257Y-112496600D01*
X76316114Y-112424028D01*
X76170971Y-112424028D01*
X75445257Y-113440028D02*
X75590400Y-113367457D01*
X75662971Y-113294885D01*
X75735542Y-113149742D01*
X75735542Y-112714314D01*
X75662971Y-112569171D01*
X75590400Y-112496600D01*
X75445257Y-112424028D01*
X75227542Y-112424028D01*
X75082400Y-112496600D01*
X75009828Y-112569171D01*
X74937257Y-112714314D01*
X74937257Y-113149742D01*
X75009828Y-113294885D01*
X75082400Y-113367457D01*
X75227542Y-113440028D01*
X75445257Y-113440028D01*
X73630971Y-112424028D02*
X73630971Y-113440028D01*
X74284114Y-112424028D02*
X74284114Y-113222314D01*
X74211542Y-113367457D01*
X74066400Y-113440028D01*
X73848685Y-113440028D01*
X73703542Y-113367457D01*
X73630971Y-113294885D01*
X72905257Y-112424028D02*
X72905257Y-113440028D01*
X72905257Y-112569171D02*
X72832685Y-112496600D01*
X72687542Y-112424028D01*
X72469828Y-112424028D01*
X72324685Y-112496600D01*
X72252114Y-112641742D01*
X72252114Y-113440028D01*
X70873257Y-113440028D02*
X70873257Y-111916028D01*
X70873257Y-113367457D02*
X71018400Y-113440028D01*
X71308685Y-113440028D01*
X71453828Y-113367457D01*
X71526400Y-113294885D01*
X71598971Y-113149742D01*
X71598971Y-112714314D01*
X71526400Y-112569171D01*
X71453828Y-112496600D01*
X71308685Y-112424028D01*
X71018400Y-112424028D01*
X70873257Y-112496600D01*
D10*
X131830838Y-71026866D02*
X131879219Y-71172009D01*
X131879219Y-71413914D01*
X131830838Y-71510676D01*
X131782457Y-71559057D01*
X131685695Y-71607438D01*
X131588933Y-71607438D01*
X131492171Y-71559057D01*
X131443790Y-71510676D01*
X131395409Y-71413914D01*
X131347028Y-71220390D01*
X131298647Y-71123628D01*
X131250266Y-71075247D01*
X131153504Y-71026866D01*
X131056742Y-71026866D01*
X130959980Y-71075247D01*
X130911600Y-71123628D01*
X130863219Y-71220390D01*
X130863219Y-71462295D01*
X130911600Y-71607438D01*
X131347028Y-72042866D02*
X131347028Y-72381533D01*
X131879219Y-72526676D02*
X131879219Y-72042866D01*
X130863219Y-72042866D01*
X130863219Y-72526676D01*
X131879219Y-73542676D02*
X131395409Y-73204009D01*
X131879219Y-72962104D02*
X130863219Y-72962104D01*
X130863219Y-73349152D01*
X130911600Y-73445914D01*
X130959980Y-73494295D01*
X131056742Y-73542676D01*
X131201885Y-73542676D01*
X131298647Y-73494295D01*
X131347028Y-73445914D01*
X131395409Y-73349152D01*
X131395409Y-72962104D01*
X131975980Y-73736200D02*
X131975980Y-74510295D01*
X131347028Y-75090866D02*
X131395409Y-75236009D01*
X131443790Y-75284390D01*
X131540552Y-75332771D01*
X131685695Y-75332771D01*
X131782457Y-75284390D01*
X131830838Y-75236009D01*
X131879219Y-75139247D01*
X131879219Y-74752200D01*
X130863219Y-74752200D01*
X130863219Y-75090866D01*
X130911600Y-75187628D01*
X130959980Y-75236009D01*
X131056742Y-75284390D01*
X131153504Y-75284390D01*
X131250266Y-75236009D01*
X131298647Y-75187628D01*
X131347028Y-75090866D01*
X131347028Y-74752200D01*
X131975980Y-75526295D02*
X131975980Y-76300390D01*
X130863219Y-76397152D02*
X130863219Y-76977723D01*
X131879219Y-76687438D02*
X130863219Y-76687438D01*
X130863219Y-77219628D02*
X131879219Y-77896961D01*
X130863219Y-77896961D02*
X131879219Y-77219628D01*
X131879219Y-78284009D02*
X130863219Y-78284009D01*
X130863219Y-78525914D01*
X130911600Y-78671057D01*
X131008361Y-78767819D01*
X131105123Y-78816200D01*
X131298647Y-78864580D01*
X131443790Y-78864580D01*
X131637314Y-78816200D01*
X131734076Y-78767819D01*
X131830838Y-78671057D01*
X131879219Y-78525914D01*
X131879219Y-78284009D01*
X131975980Y-79058104D02*
X131975980Y-79832200D01*
X130863219Y-80267628D02*
X130863219Y-80461152D01*
X130911600Y-80557914D01*
X131008361Y-80654676D01*
X131201885Y-80703057D01*
X131540552Y-80703057D01*
X131734076Y-80654676D01*
X131830838Y-80557914D01*
X131879219Y-80461152D01*
X131879219Y-80267628D01*
X131830838Y-80170866D01*
X131734076Y-80074104D01*
X131540552Y-80025723D01*
X131201885Y-80025723D01*
X131008361Y-80074104D01*
X130911600Y-80170866D01*
X130863219Y-80267628D01*
X130863219Y-81138485D02*
X131685695Y-81138485D01*
X131782457Y-81186866D01*
X131830838Y-81235247D01*
X131879219Y-81332009D01*
X131879219Y-81525533D01*
X131830838Y-81622295D01*
X131782457Y-81670676D01*
X131685695Y-81719057D01*
X130863219Y-81719057D01*
X130863219Y-82057723D02*
X130863219Y-82638295D01*
X131879219Y-82348009D02*
X130863219Y-82348009D01*
X47306895Y-65553771D02*
X46532800Y-65553771D01*
X46919847Y-65940819D02*
X46919847Y-65166723D01*
X45516800Y-65940819D02*
X46097371Y-65940819D01*
X45807085Y-65940819D02*
X45807085Y-64924819D01*
X45903847Y-65069961D01*
X46000609Y-65166723D01*
X46097371Y-65215104D01*
X45129752Y-65021580D02*
X45081371Y-64973200D01*
X44984609Y-64924819D01*
X44742704Y-64924819D01*
X44645942Y-64973200D01*
X44597561Y-65021580D01*
X44549180Y-65118342D01*
X44549180Y-65215104D01*
X44597561Y-65360247D01*
X45178133Y-65940819D01*
X44549180Y-65940819D01*
X44258895Y-64924819D02*
X43920228Y-65940819D01*
X43581561Y-64924819D01*
X124843419Y-68419133D02*
X124359609Y-68419133D01*
X124940180Y-68709419D02*
X124601514Y-67693419D01*
X124262847Y-68709419D01*
X123924180Y-67693419D02*
X123924180Y-68515895D01*
X123875800Y-68612657D01*
X123827419Y-68661038D01*
X123730657Y-68709419D01*
X123537133Y-68709419D01*
X123440371Y-68661038D01*
X123391990Y-68612657D01*
X123343609Y-68515895D01*
X123343609Y-67693419D01*
X122859800Y-68709419D02*
X122859800Y-67693419D01*
X122617895Y-67693419D01*
X122472752Y-67741800D01*
X122375990Y-67838561D01*
X122327609Y-67935323D01*
X122279228Y-68128847D01*
X122279228Y-68273990D01*
X122327609Y-68467514D01*
X122375990Y-68564276D01*
X122472752Y-68661038D01*
X122617895Y-68709419D01*
X122859800Y-68709419D01*
X122085704Y-68806180D02*
X121311609Y-68806180D01*
X120876180Y-67693419D02*
X120682657Y-67693419D01*
X120585895Y-67741800D01*
X120489133Y-67838561D01*
X120440752Y-68032085D01*
X120440752Y-68370752D01*
X120489133Y-68564276D01*
X120585895Y-68661038D01*
X120682657Y-68709419D01*
X120876180Y-68709419D01*
X120972942Y-68661038D01*
X121069704Y-68564276D01*
X121118085Y-68370752D01*
X121118085Y-68032085D01*
X121069704Y-67838561D01*
X120972942Y-67741800D01*
X120876180Y-67693419D01*
X120005323Y-67693419D02*
X120005323Y-68515895D01*
X119956942Y-68612657D01*
X119908561Y-68661038D01*
X119811800Y-68709419D01*
X119618276Y-68709419D01*
X119521514Y-68661038D01*
X119473133Y-68612657D01*
X119424752Y-68515895D01*
X119424752Y-67693419D01*
X119086085Y-67693419D02*
X118505514Y-67693419D01*
X118795800Y-68709419D02*
X118795800Y-67693419D01*
X118408752Y-68806180D02*
X117634657Y-68806180D01*
X116812180Y-68709419D02*
X117150847Y-68225609D01*
X117392752Y-68709419D02*
X117392752Y-67693419D01*
X117005704Y-67693419D01*
X116908942Y-67741800D01*
X116860561Y-67790180D01*
X116812180Y-67886942D01*
X116812180Y-68032085D01*
X116860561Y-68128847D01*
X116908942Y-68177228D01*
X117005704Y-68225609D01*
X117392752Y-68225609D01*
X153495828Y-90477219D02*
X152915257Y-90477219D01*
X153205542Y-91493219D02*
X153205542Y-90477219D01*
X152721733Y-90477219D02*
X152141161Y-90477219D01*
X152431447Y-91493219D02*
X152431447Y-90477219D01*
X151318685Y-91493219D02*
X151802495Y-91493219D01*
X151802495Y-90477219D01*
X151221923Y-91589980D02*
X150447828Y-91589980D01*
X149625352Y-91493219D02*
X149964019Y-91009409D01*
X150205923Y-91493219D02*
X150205923Y-90477219D01*
X149818876Y-90477219D01*
X149722114Y-90525600D01*
X149673733Y-90573980D01*
X149625352Y-90670742D01*
X149625352Y-90815885D01*
X149673733Y-90912647D01*
X149722114Y-90961028D01*
X149818876Y-91009409D01*
X150205923Y-91009409D01*
X149286685Y-90477219D02*
X148609352Y-91493219D01*
X148609352Y-90477219D02*
X149286685Y-91493219D01*
D12*
%TO.C,R56*%
X161639780Y-72102742D02*
X161163590Y-71769409D01*
X161639780Y-71531314D02*
X160639780Y-71531314D01*
X160639780Y-71912266D01*
X160687400Y-72007504D01*
X160735019Y-72055123D01*
X160830257Y-72102742D01*
X160973114Y-72102742D01*
X161068352Y-72055123D01*
X161115971Y-72007504D01*
X161163590Y-71912266D01*
X161163590Y-71531314D01*
X160639780Y-73007504D02*
X160639780Y-72531314D01*
X161115971Y-72483695D01*
X161068352Y-72531314D01*
X161020733Y-72626552D01*
X161020733Y-72864647D01*
X161068352Y-72959885D01*
X161115971Y-73007504D01*
X161211209Y-73055123D01*
X161449304Y-73055123D01*
X161544542Y-73007504D01*
X161592161Y-72959885D01*
X161639780Y-72864647D01*
X161639780Y-72626552D01*
X161592161Y-72531314D01*
X161544542Y-72483695D01*
X160639780Y-73912266D02*
X160639780Y-73721790D01*
X160687400Y-73626552D01*
X160735019Y-73578933D01*
X160877876Y-73483695D01*
X161068352Y-73436076D01*
X161449304Y-73436076D01*
X161544542Y-73483695D01*
X161592161Y-73531314D01*
X161639780Y-73626552D01*
X161639780Y-73817028D01*
X161592161Y-73912266D01*
X161544542Y-73959885D01*
X161449304Y-74007504D01*
X161211209Y-74007504D01*
X161115971Y-73959885D01*
X161068352Y-73912266D01*
X161020733Y-73817028D01*
X161020733Y-73626552D01*
X161068352Y-73531314D01*
X161115971Y-73483695D01*
X161211209Y-73436076D01*
%TO.C,R12*%
X57624487Y-54581749D02*
X57523472Y-54009330D01*
X58028548Y-54177688D02*
X57321441Y-53470582D01*
X57052067Y-53739956D01*
X57018395Y-53840971D01*
X57018395Y-53908314D01*
X57052067Y-54009330D01*
X57153082Y-54110345D01*
X57254098Y-54144017D01*
X57321441Y-54144017D01*
X57422456Y-54110345D01*
X57691830Y-53840971D01*
X56951052Y-55255185D02*
X57355113Y-54851124D01*
X57153082Y-55053154D02*
X56445975Y-54346047D01*
X56614334Y-54379719D01*
X56749021Y-54379719D01*
X56850037Y-54346047D01*
X56041914Y-54884795D02*
X55974571Y-54884795D01*
X55873556Y-54918467D01*
X55705197Y-55086826D01*
X55671525Y-55187841D01*
X55671525Y-55255185D01*
X55705197Y-55356200D01*
X55772540Y-55423543D01*
X55907227Y-55490887D01*
X56715349Y-55490887D01*
X56277617Y-55928620D01*
%TO.C,R11*%
X56557687Y-53514949D02*
X56456672Y-52942530D01*
X56961748Y-53110888D02*
X56254641Y-52403782D01*
X55985267Y-52673156D01*
X55951595Y-52774171D01*
X55951595Y-52841514D01*
X55985267Y-52942530D01*
X56086282Y-53043545D01*
X56187298Y-53077217D01*
X56254641Y-53077217D01*
X56355656Y-53043545D01*
X56625030Y-52774171D01*
X55884252Y-54188385D02*
X56288313Y-53784324D01*
X56086282Y-53986354D02*
X55379175Y-53279247D01*
X55547534Y-53312919D01*
X55682221Y-53312919D01*
X55783237Y-53279247D01*
X55210817Y-54861820D02*
X55614878Y-54457759D01*
X55412847Y-54659789D02*
X54705740Y-53952682D01*
X54874099Y-53986354D01*
X55008786Y-53986354D01*
X55109801Y-53952682D01*
D13*
%TO.C,R56*%
X160272400Y-72972664D02*
X160272400Y-72518536D01*
X158802400Y-72972664D02*
X158802400Y-72518536D01*
%TO.C,TP18*%
X56775200Y-29616400D02*
G75*
G03*
X56775200Y-29616400I-1200000J0D01*
G01*
%TO.C,TP17*%
X52355600Y-52222400D02*
G75*
G03*
X52355600Y-52222400I-1200000J0D01*
G01*
%TO.C,TP10*%
X124542400Y-61925200D02*
G75*
G03*
X124542400Y-61925200I-1200000J0D01*
G01*
%TO.C,TP11*%
X121977000Y-66268600D02*
G75*
G03*
X121977000Y-66268600I-1200000J0D01*
G01*
%TO.C,R12*%
X57671854Y-55178020D02*
X57311620Y-55538254D01*
X58410780Y-55916946D02*
X58050546Y-56277180D01*
%TO.C,TP12*%
X113188600Y-46101000D02*
G75*
G03*
X113188600Y-46101000I-1200000J0D01*
G01*
%TO.C,TP1*%
X52719200Y-94361000D02*
G75*
G03*
X52719200Y-94361000I-700000J0D01*
G01*
%TO.C,TP4*%
X162244000Y-81203800D02*
G75*
G03*
X162244000Y-81203800I-700000J0D01*
G01*
%TO.C,R11*%
X56605054Y-54111220D02*
X56244820Y-54471454D01*
X57343980Y-54850146D02*
X56983746Y-55210380D01*
%TO.C,TP7*%
X147859600Y-95478600D02*
G75*
G03*
X147859600Y-95478600I-1200000J0D01*
G01*
%TO.C,TP9*%
X134685000Y-94538800D02*
G75*
G03*
X134685000Y-94538800I-700000J0D01*
G01*
%TO.C,TP14*%
X53193800Y-109245400D02*
G75*
G03*
X53193800Y-109245400I-1200000J0D01*
G01*
%TO.C,TP8*%
X134778600Y-76936600D02*
G75*
G03*
X134778600Y-76936600I-1200000J0D01*
G01*
%TO.C,TP13*%
X111994800Y-79502000D02*
G75*
G03*
X111994800Y-79502000I-1200000J0D01*
G01*
%TO.C,TP2*%
X45200800Y-43205400D02*
G75*
G03*
X45200800Y-43205400I-700000J0D01*
G01*
%TO.C,TP5*%
X151728400Y-92456000D02*
G75*
G03*
X151728400Y-92456000I-700000J0D01*
G01*
%TO.C,TP15*%
X85832800Y-34239200D02*
G75*
G03*
X85832800Y-34239200I-1200000J0D01*
G01*
%TO.C,TP16*%
X46742200Y-63347600D02*
G75*
G03*
X46742200Y-63347600I-1200000J0D01*
G01*
%TO.C,TP6*%
X149036000Y-88620600D02*
G75*
G03*
X149036000Y-88620600I-700000J0D01*
G01*
%TO.C,TP3*%
X43465600Y-106527600D02*
G75*
G03*
X43465600Y-106527600I-1200000J0D01*
G01*
%TD*%
M02*
