%FSLAX45Y45*%
G04 Gerber Fmt 4.5, Leading zero omitted, Abs format (unit mm)*
G04 Created by KiCad (PCBNEW 6.0.2+dfsg-1) date 2024-03-13 18:23:55*
%MOMM*%
%LPD*%
G01*
G04 APERTURE LIST*
%TA.AperFunction,Profile*%
%ADD10C,0.200000*%
%TD*%
%ADD11C,0.200000*%
%ADD12C,0.030480*%
%ADD13C,0.040640*%
%ADD14C,0.071120*%
%ADD15C,0.076200*%
%ADD16C,0.080000*%
%ADD17C,0.092000*%
%ADD18C,0.095000*%
%ADD19C,0.099568*%
%ADD20C,0.100000*%
%ADD21C,0.101600*%
%ADD22C,0.110000*%
%ADD23C,0.120000*%
%ADD24C,0.132080*%
%ADD25C,0.140000*%
%ADD26C,0.230000*%
%ADD27C,0.320000*%
G04 APERTURE END LIST*
D10*
X3810000Y-2550160D02*
X16510000Y-2550160D01*
X16510000Y-2550160D02*
X16510000Y-11554460D01*
X16510000Y-11554460D02*
X3810000Y-11554460D01*
X3810000Y-11554460D02*
X3810000Y-2550160D01*
D11*
D12*
X4338320Y-5420360D02*
X4368800Y-5450840D01*
X4368800Y-5420360D02*
X4338320Y-5450840D01*
X4338320Y-5496560D02*
X4368800Y-5527040D01*
X4368800Y-5496560D02*
X4338320Y-5527040D01*
X4338320Y-5572760D02*
X4368800Y-5603240D01*
X4368800Y-5572760D02*
X4338320Y-5603240D01*
X4338320Y-5648960D02*
X4368800Y-5679440D01*
X4368800Y-5648960D02*
X4338320Y-5679440D01*
X4338320Y-5725160D02*
X4368800Y-5755640D01*
X4368800Y-5725160D02*
X4338320Y-5755640D01*
X4338320Y-5801360D02*
X4368800Y-5831840D01*
X4368800Y-5801360D02*
X4338320Y-5831840D01*
X4338320Y-5877560D02*
X4368800Y-5908040D01*
X4368800Y-5877560D02*
X4338320Y-5908040D01*
X4338320Y-5953760D02*
X4368800Y-5984240D01*
X4368800Y-5953760D02*
X4338320Y-5984240D01*
X4338320Y-6032500D02*
X4368800Y-6062980D01*
X4368800Y-6032500D02*
X4338320Y-6062980D01*
X4338320Y-6106160D02*
X4368800Y-6136640D01*
X4368800Y-6106160D02*
X4338320Y-6136640D01*
X4338320Y-6182360D02*
X4368800Y-6212840D01*
X4368800Y-6182360D02*
X4338320Y-6212840D01*
X4338320Y-6258560D02*
X4368800Y-6289040D01*
X4368800Y-6258560D02*
X4338320Y-6289040D01*
X4469220Y-5683740D02*
X4499700Y-5714220D01*
X4499700Y-5683740D02*
X4469220Y-5714220D01*
X4474148Y-5347908D02*
X4504628Y-5378388D01*
X4504628Y-5347908D02*
X4474148Y-5378388D01*
X4572000Y-5347908D02*
X4602480Y-5378388D01*
X4602480Y-5347908D02*
X4572000Y-5378388D01*
X4687632Y-5347908D02*
X4718112Y-5378388D01*
X4718112Y-5347908D02*
X4687632Y-5378388D01*
X4737336Y-5572524D02*
X4767816Y-5603004D01*
X4767816Y-5572524D02*
X4737336Y-5603004D01*
X4841240Y-5443220D02*
X4871720Y-5473700D01*
X4871720Y-5443220D02*
X4841240Y-5473700D01*
X5433060Y-5646420D02*
X5463540Y-5676900D01*
X5463540Y-5646420D02*
X5433060Y-5676900D01*
X5519420Y-5613400D02*
X5549900Y-5643880D01*
X5549900Y-5613400D02*
X5519420Y-5643880D01*
X5580380Y-5092700D02*
X5610860Y-5123180D01*
X5610860Y-5092700D02*
X5580380Y-5123180D01*
X5582920Y-5654040D02*
X5613400Y-5684520D01*
X5613400Y-5654040D02*
X5582920Y-5684520D01*
X5803900Y-4859020D02*
X5834380Y-4889500D01*
X5834380Y-4859020D02*
X5803900Y-4889500D01*
X5803900Y-4968240D02*
X5834380Y-4998720D01*
X5834380Y-4968240D02*
X5803900Y-4998720D01*
X5864860Y-5034280D02*
X5895340Y-5064760D01*
X5895340Y-5034280D02*
X5864860Y-5064760D01*
X5877560Y-5712460D02*
X5908040Y-5742940D01*
X5908040Y-5712460D02*
X5877560Y-5742940D01*
X5946140Y-5712460D02*
X5976620Y-5742940D01*
X5976620Y-5712460D02*
X5946140Y-5742940D01*
X6017260Y-5712460D02*
X6047740Y-5742940D01*
X6047740Y-5712460D02*
X6017260Y-5742940D01*
X6033134Y-6161406D02*
X6063614Y-6191886D01*
X6063614Y-6161406D02*
X6033134Y-6191886D01*
X6085840Y-5712460D02*
X6116320Y-5742940D01*
X6116320Y-5712460D02*
X6085840Y-5742940D01*
X6149340Y-5712460D02*
X6179820Y-5742940D01*
X6179820Y-5712460D02*
X6149340Y-5742940D01*
X6299200Y-4716780D02*
X6329680Y-4747260D01*
X6329680Y-4716780D02*
X6299200Y-4747260D01*
X6299200Y-4808220D02*
X6329680Y-4838700D01*
X6329680Y-4808220D02*
X6299200Y-4838700D01*
X6299200Y-4899660D02*
X6329680Y-4930140D01*
X6329680Y-4899660D02*
X6299200Y-4930140D01*
X6299200Y-4998720D02*
X6329680Y-5029200D01*
X6329680Y-4998720D02*
X6299200Y-5029200D01*
X7012550Y-7324752D02*
X7043030Y-7355232D01*
X7043030Y-7324752D02*
X7012550Y-7355232D01*
X7117080Y-8163560D02*
X7147560Y-8194040D01*
X7147560Y-8163560D02*
X7117080Y-8194040D01*
X8430369Y-8018671D02*
X8460849Y-8049151D01*
X8460849Y-8018671D02*
X8430369Y-8049151D01*
X8445110Y-7662572D02*
X8475590Y-7693052D01*
X8475590Y-7662572D02*
X8445110Y-7693052D01*
X8490830Y-8109612D02*
X8521310Y-8140092D01*
X8521310Y-8109612D02*
X8490830Y-8140092D01*
X8592430Y-8109612D02*
X8622910Y-8140092D01*
X8622910Y-8109612D02*
X8592430Y-8140092D01*
X8612750Y-7677812D02*
X8643230Y-7708292D01*
X8643230Y-7677812D02*
X8612750Y-7708292D01*
X8694030Y-8109612D02*
X8724510Y-8140092D01*
X8724510Y-8109612D02*
X8694030Y-8140092D01*
X8719430Y-7677812D02*
X8749910Y-7708292D01*
X8749910Y-7677812D02*
X8719430Y-7708292D01*
X8774539Y-8190121D02*
X8805019Y-8220601D01*
X8805019Y-8190121D02*
X8774539Y-8220601D01*
X8775201Y-7596641D02*
X8805681Y-7627121D01*
X8805681Y-7596641D02*
X8775201Y-7627121D01*
X8846430Y-8262012D02*
X8876910Y-8292492D01*
X8876910Y-8262012D02*
X8846430Y-8292492D01*
X8871830Y-7550812D02*
X8902310Y-7581292D01*
X8902310Y-7550812D02*
X8871830Y-7581292D01*
X8954108Y-8262012D02*
X8984588Y-8292492D01*
X8984588Y-8262012D02*
X8954108Y-8292492D01*
X8973430Y-7550812D02*
X9003910Y-7581292D01*
X9003910Y-7550812D02*
X8973430Y-7581292D01*
X9052170Y-8262012D02*
X9082650Y-8292492D01*
X9082650Y-8262012D02*
X9052170Y-8292492D01*
X9075030Y-7550812D02*
X9105510Y-7581292D01*
X9105510Y-7550812D02*
X9075030Y-7581292D01*
X9149688Y-8262012D02*
X9180168Y-8292492D01*
X9180168Y-8262012D02*
X9149688Y-8292492D01*
X9176630Y-7550812D02*
X9207110Y-7581292D01*
X9207110Y-7550812D02*
X9176630Y-7581292D01*
X12095480Y-5626100D02*
X12125960Y-5656580D01*
X12125960Y-5626100D02*
X12095480Y-5656580D01*
X12096491Y-5824220D02*
X12126971Y-5854700D01*
X12126971Y-5824220D02*
X12096491Y-5854700D01*
X12247880Y-7835900D02*
X12278360Y-7866380D01*
X12278360Y-7835900D02*
X12247880Y-7866380D01*
X12316460Y-8125460D02*
X12346940Y-8155940D01*
X12346940Y-8125460D02*
X12316460Y-8155940D01*
X12473940Y-7805420D02*
X12504420Y-7835900D01*
X12504420Y-7805420D02*
X12473940Y-7835900D01*
X12659360Y-7462520D02*
X12689840Y-7493000D01*
X12689840Y-7462520D02*
X12659360Y-7493000D01*
X12694920Y-7198360D02*
X12725400Y-7228840D01*
X12725400Y-7198360D02*
X12694920Y-7228840D01*
X12786360Y-7990840D02*
X12816840Y-8021320D01*
X12816840Y-7990840D02*
X12786360Y-8021320D01*
X13075970Y-7040880D02*
X13106450Y-7071360D01*
X13106450Y-7040880D02*
X13075970Y-7071360D01*
X13241020Y-9507245D02*
X13271500Y-9537725D01*
X13271500Y-9507245D02*
X13241020Y-9537725D01*
X15118080Y-9100820D02*
X15148560Y-9131300D01*
X15148560Y-9100820D02*
X15118080Y-9131300D01*
X15471140Y-8023860D02*
X15501620Y-8054340D01*
X15501620Y-8023860D02*
X15471140Y-8054340D01*
X15788640Y-8310880D02*
X15819120Y-8341360D01*
X15819120Y-8310880D02*
X15788640Y-8341360D01*
X15867380Y-8242300D02*
X15897860Y-8272780D01*
X15897860Y-8242300D02*
X15867380Y-8272780D01*
X16036247Y-11189520D02*
X16066727Y-11220000D01*
X16066727Y-11189520D02*
X16036247Y-11220000D01*
D13*
X4104640Y-10810240D02*
G75*
G03*
X4104640Y-10810240I-20320J0D01*
G01*
X4274820Y-9753600D02*
G75*
G03*
X4274820Y-9753600I-20320J0D01*
G01*
X4429760Y-4638040D02*
G75*
G03*
X4429760Y-4638040I-20320J0D01*
G01*
X4449776Y-9598356D02*
G75*
G03*
X4449776Y-9598356I-20320J0D01*
G01*
X4485640Y-4089400D02*
G75*
G03*
X4485640Y-4089400I-20320J0D01*
G01*
X4599940Y-3632200D02*
G75*
G03*
X4599940Y-3632200I-20320J0D01*
G01*
X4622800Y-3771900D02*
G75*
G03*
X4622800Y-3771900I-20320J0D01*
G01*
X4757420Y-5123180D02*
G75*
G03*
X4757420Y-5123180I-20320J0D01*
G01*
X4843780Y-4257040D02*
G75*
G03*
X4843780Y-4257040I-20320J0D01*
G01*
X4866640Y-4869180D02*
G75*
G03*
X4866640Y-4869180I-20320J0D01*
G01*
X5082540Y-4086860D02*
G75*
G03*
X5082540Y-4086860I-20320J0D01*
G01*
X5140960Y-5626100D02*
G75*
G03*
X5140960Y-5626100I-20320J0D01*
G01*
X5260340Y-4409440D02*
G75*
G03*
X5260340Y-4409440I-20320J0D01*
G01*
X5361940Y-5415280D02*
G75*
G03*
X5361940Y-5415280I-20320J0D01*
G01*
X5372150Y-4949335D02*
G75*
G03*
X5372150Y-4949335I-20320J0D01*
G01*
X5377180Y-5278120D02*
G75*
G03*
X5377180Y-5278120I-20320J0D01*
G01*
X5476240Y-5529580D02*
G75*
G03*
X5476240Y-5529580I-20320J0D01*
G01*
X5476240Y-5986780D02*
G75*
G03*
X5476240Y-5986780I-20320J0D01*
G01*
X5905500Y-4632960D02*
G75*
G03*
X5905500Y-4632960I-20320J0D01*
G01*
X6487155Y-5648960D02*
G75*
G03*
X6487155Y-5648960I-20320J0D01*
G01*
X6505970Y-5270500D02*
G75*
G03*
X6505970Y-5270500I-20320J0D01*
G01*
X6527800Y-4310380D02*
G75*
G03*
X6527800Y-4310380I-20320J0D01*
G01*
X6614160Y-5765800D02*
G75*
G03*
X6614160Y-5765800I-20320J0D01*
G01*
X6629400Y-4739640D02*
G75*
G03*
X6629400Y-4739640I-20320J0D01*
G01*
X6637020Y-4963160D02*
G75*
G03*
X6637020Y-4963160I-20320J0D01*
G01*
X6713220Y-5331460D02*
G75*
G03*
X6713220Y-5331460I-20320J0D01*
G01*
X6809350Y-8254392D02*
G75*
G03*
X6809350Y-8254392I-20320J0D01*
G01*
X6863080Y-4798060D02*
G75*
G03*
X6863080Y-4798060I-20320J0D01*
G01*
X6923650Y-8234072D02*
G75*
G03*
X6923650Y-8234072I-20320J0D01*
G01*
X6946900Y-4432300D02*
G75*
G03*
X6946900Y-4432300I-20320J0D01*
G01*
X6969760Y-5153660D02*
G75*
G03*
X6969760Y-5153660I-20320J0D01*
G01*
X7037950Y-8206132D02*
G75*
G03*
X7037950Y-8206132I-20320J0D01*
G01*
X7048110Y-6577992D02*
G75*
G03*
X7048110Y-6577992I-20320J0D01*
G01*
X7149710Y-6666892D02*
G75*
G03*
X7149710Y-6666892I-20320J0D01*
G01*
X7221220Y-4457700D02*
G75*
G03*
X7221220Y-4457700I-20320J0D01*
G01*
X7228450Y-6748172D02*
G75*
G03*
X7228450Y-6748172I-20320J0D01*
G01*
X7312660Y-5364480D02*
G75*
G03*
X7312660Y-5364480I-20320J0D01*
G01*
X7385930Y-7469532D02*
G75*
G03*
X7385930Y-7469532I-20320J0D01*
G01*
X7385930Y-7873392D02*
G75*
G03*
X7385930Y-7873392I-20320J0D01*
G01*
X7497690Y-8516012D02*
G75*
G03*
X7497690Y-8516012I-20320J0D01*
G01*
X7535790Y-7469532D02*
G75*
G03*
X7535790Y-7469532I-20320J0D01*
G01*
X7535790Y-7873392D02*
G75*
G03*
X7535790Y-7873392I-20320J0D01*
G01*
X7553570Y-8376312D02*
G75*
G03*
X7553570Y-8376312I-20320J0D01*
G01*
X7662790Y-7469532D02*
G75*
G03*
X7662790Y-7469532I-20320J0D01*
G01*
X7662790Y-7873392D02*
G75*
G03*
X7662790Y-7873392I-20320J0D01*
G01*
X7670410Y-8381392D02*
G75*
G03*
X7670410Y-8381392I-20320J0D01*
G01*
X7721600Y-7180580D02*
G75*
G03*
X7721600Y-7180580I-20320J0D01*
G01*
X7764830Y-4874260D02*
G75*
G03*
X7764830Y-4874260I-20320J0D01*
G01*
X7777480Y-4429760D02*
G75*
G03*
X7777480Y-4429760I-20320J0D01*
G01*
X7792330Y-7469532D02*
G75*
G03*
X7792330Y-7469532I-20320J0D01*
G01*
X7792330Y-7873392D02*
G75*
G03*
X7792330Y-7873392I-20320J0D01*
G01*
X7853290Y-6621172D02*
G75*
G03*
X7853290Y-6621172I-20320J0D01*
G01*
X7853290Y-7980072D02*
G75*
G03*
X7853290Y-7980072I-20320J0D01*
G01*
X7916790Y-7469532D02*
G75*
G03*
X7916790Y-7469532I-20320J0D01*
G01*
X7916790Y-7873392D02*
G75*
G03*
X7916790Y-7873392I-20320J0D01*
G01*
X7942190Y-6715152D02*
G75*
G03*
X7942190Y-6715152I-20320J0D01*
G01*
X8011212Y-8007313D02*
G75*
G03*
X8011212Y-8007313I-20320J0D01*
G01*
X8059030Y-6788812D02*
G75*
G03*
X8059030Y-6788812I-20320J0D01*
G01*
X8084820Y-7277100D02*
G75*
G03*
X8084820Y-7277100I-20320J0D01*
G01*
X8112370Y-8041032D02*
G75*
G03*
X8112370Y-8041032I-20320J0D01*
G01*
X8150470Y-6875172D02*
G75*
G03*
X8150470Y-6875172I-20320J0D01*
G01*
X8300720Y-9128760D02*
G75*
G03*
X8300720Y-9128760I-20320J0D01*
G01*
X8440420Y-4671060D02*
G75*
G03*
X8440420Y-4671060I-20320J0D01*
G01*
X8463280Y-7512922D02*
G75*
G03*
X8463280Y-7512922I-20320J0D01*
G01*
X8656320Y-7840980D02*
G75*
G03*
X8656320Y-7840980I-20320J0D01*
G01*
X8818880Y-9001760D02*
G75*
G03*
X8818880Y-9001760I-20320J0D01*
G01*
X8915400Y-9136380D02*
G75*
G03*
X8915400Y-9136380I-20320J0D01*
G01*
X8932790Y-6641492D02*
G75*
G03*
X8932790Y-6641492I-20320J0D01*
G01*
X8932790Y-6865012D02*
G75*
G03*
X8932790Y-6865012I-20320J0D01*
G01*
X9117040Y-7803860D02*
G75*
G03*
X9117040Y-7803860I-20320J0D01*
G01*
X9187180Y-9110980D02*
G75*
G03*
X9187180Y-9110980I-20320J0D01*
G01*
X9296400Y-9880600D02*
G75*
G03*
X9296400Y-9880600I-20320J0D01*
G01*
X9323950Y-7464452D02*
G75*
G03*
X9323950Y-7464452I-20320J0D01*
G01*
X9364980Y-9194800D02*
G75*
G03*
X9364980Y-9194800I-20320J0D01*
G01*
X9436100Y-6703060D02*
G75*
G03*
X9436100Y-6703060I-20320J0D01*
G01*
X9473810Y-7179972D02*
G75*
G03*
X9473810Y-7179972I-20320J0D01*
G01*
X9519920Y-8049260D02*
G75*
G03*
X9519920Y-8049260I-20320J0D01*
G01*
X9682480Y-6050280D02*
G75*
G03*
X9682480Y-6050280I-20320J0D01*
G01*
X9786620Y-6121400D02*
G75*
G03*
X9786620Y-6121400I-20320J0D01*
G01*
X9883140Y-9370010D02*
G75*
G03*
X9883140Y-9370010I-20320J0D01*
G01*
X10020300Y-10147300D02*
G75*
G03*
X10020300Y-10147300I-20320J0D01*
G01*
X10116820Y-7264400D02*
G75*
G03*
X10116820Y-7264400I-20320J0D01*
G01*
X10205720Y-8427720D02*
G75*
G03*
X10205720Y-8427720I-20320J0D01*
G01*
X10261600Y-7711440D02*
G75*
G03*
X10261600Y-7711440I-20320J0D01*
G01*
X10271370Y-8066432D02*
G75*
G03*
X10271370Y-8066432I-20320J0D01*
G01*
X10271760Y-5941060D02*
G75*
G03*
X10271760Y-5941060I-20320J0D01*
G01*
X10281920Y-7193280D02*
G75*
G03*
X10281920Y-7193280I-20320J0D01*
G01*
X10297160Y-6736080D02*
G75*
G03*
X10297160Y-6736080I-20320J0D01*
G01*
X10297160Y-9761220D02*
G75*
G03*
X10297160Y-9761220I-20320J0D01*
G01*
X10401300Y-9418320D02*
G75*
G03*
X10401300Y-9418320I-20320J0D01*
G01*
X10411070Y-8551572D02*
G75*
G03*
X10411070Y-8551572I-20320J0D01*
G01*
X10411460Y-6052820D02*
G75*
G03*
X10411460Y-6052820I-20320J0D01*
G01*
X10548230Y-7078372D02*
G75*
G03*
X10548230Y-7078372I-20320J0D01*
G01*
X10584180Y-7414260D02*
G75*
G03*
X10584180Y-7414260I-20320J0D01*
G01*
X10591410Y-7571132D02*
G75*
G03*
X10591410Y-7571132I-20320J0D01*
G01*
X10639670Y-8322972D02*
G75*
G03*
X10639670Y-8322972I-20320J0D01*
G01*
X10650220Y-8194040D02*
G75*
G03*
X10650220Y-8194040I-20320J0D01*
G01*
X10685780Y-5486400D02*
G75*
G03*
X10685780Y-5486400I-20320J0D01*
G01*
X10815320Y-5461000D02*
G75*
G03*
X10815320Y-5461000I-20320J0D01*
G01*
X10868710Y-4630420D02*
G75*
G03*
X10868710Y-4630420I-20320J0D01*
G01*
X10916920Y-8194040D02*
G75*
G03*
X10916920Y-8194040I-20320J0D01*
G01*
X10942320Y-5461000D02*
G75*
G03*
X10942320Y-5461000I-20320J0D01*
G01*
X10947400Y-8082280D02*
G75*
G03*
X10947400Y-8082280I-20320J0D01*
G01*
X10975340Y-4569460D02*
G75*
G03*
X10975340Y-4569460I-20320J0D01*
G01*
X10982960Y-3009900D02*
G75*
G03*
X10982960Y-3009900I-20320J0D01*
G01*
X11102340Y-6827520D02*
G75*
G03*
X11102340Y-6827520I-20320J0D01*
G01*
X11102340Y-7063740D02*
G75*
G03*
X11102340Y-7063740I-20320J0D01*
G01*
X11211560Y-7025590D02*
G75*
G03*
X11211560Y-7025590I-20320J0D01*
G01*
X11272520Y-6601460D02*
G75*
G03*
X11272520Y-6601460I-20320J0D01*
G01*
X11328400Y-5072380D02*
G75*
G03*
X11328400Y-5072380I-20320J0D01*
G01*
X11328400Y-5831840D02*
G75*
G03*
X11328400Y-5831840I-20320J0D01*
G01*
X11376660Y-7833360D02*
G75*
G03*
X11376660Y-7833360I-20320J0D01*
G01*
X11389360Y-8280400D02*
G75*
G03*
X11389360Y-8280400I-20320J0D01*
G01*
X11430000Y-4810760D02*
G75*
G03*
X11430000Y-4810760I-20320J0D01*
G01*
X11447780Y-9011920D02*
G75*
G03*
X11447780Y-9011920I-20320J0D01*
G01*
X11465560Y-6268720D02*
G75*
G03*
X11465560Y-6268720I-20320J0D01*
G01*
X11470591Y-8204249D02*
G75*
G03*
X11470591Y-8204249I-20320J0D01*
G01*
X11488420Y-6850380D02*
G75*
G03*
X11488420Y-6850380I-20320J0D01*
G01*
X11610340Y-6824980D02*
G75*
G03*
X11610340Y-6824980I-20320J0D01*
G01*
X11684000Y-3522980D02*
G75*
G03*
X11684000Y-3522980I-20320J0D01*
G01*
X11711940Y-5887720D02*
G75*
G03*
X11711940Y-5887720I-20320J0D01*
G01*
X11724640Y-6256020D02*
G75*
G03*
X11724640Y-6256020I-20320J0D01*
G01*
X11729720Y-4907280D02*
G75*
G03*
X11729720Y-4907280I-20320J0D01*
G01*
X11794685Y-6422195D02*
G75*
G03*
X11794685Y-6422195I-20320J0D01*
G01*
X11851640Y-4958080D02*
G75*
G03*
X11851640Y-4958080I-20320J0D01*
G01*
X11874500Y-10088880D02*
G75*
G03*
X11874500Y-10088880I-20320J0D01*
G01*
X11899900Y-7904480D02*
G75*
G03*
X11899900Y-7904480I-20320J0D01*
G01*
X11931430Y-9118600D02*
G75*
G03*
X11931430Y-9118600I-20320J0D01*
G01*
X11935460Y-6939280D02*
G75*
G03*
X11935460Y-6939280I-20320J0D01*
G01*
X11983720Y-10322560D02*
G75*
G03*
X11983720Y-10322560I-20320J0D01*
G01*
X12001500Y-8089900D02*
G75*
G03*
X12001500Y-8089900I-20320J0D01*
G01*
X12004040Y-7838440D02*
G75*
G03*
X12004040Y-7838440I-20320J0D01*
G01*
X12087860Y-7388860D02*
G75*
G03*
X12087860Y-7388860I-20320J0D01*
G01*
X12098020Y-6289040D02*
G75*
G03*
X12098020Y-6289040I-20320J0D01*
G01*
X12268200Y-8244840D02*
G75*
G03*
X12268200Y-8244840I-20320J0D01*
G01*
X12280900Y-9951720D02*
G75*
G03*
X12280900Y-9951720I-20320J0D01*
G01*
X12285980Y-7061200D02*
G75*
G03*
X12285980Y-7061200I-20320J0D01*
G01*
X12359640Y-6002020D02*
G75*
G03*
X12359640Y-6002020I-20320J0D01*
G01*
X12362180Y-7157770D02*
G75*
G03*
X12362180Y-7157770I-20320J0D01*
G01*
X12377420Y-8610600D02*
G75*
G03*
X12377420Y-8610600I-20320J0D01*
G01*
X12387580Y-3309620D02*
G75*
G03*
X12387580Y-3309620I-20320J0D01*
G01*
X12390120Y-8237220D02*
G75*
G03*
X12390120Y-8237220I-20320J0D01*
G01*
X12435622Y-5447109D02*
G75*
G03*
X12435622Y-5447109I-20320J0D01*
G01*
X12448540Y-3967480D02*
G75*
G03*
X12448540Y-3967480I-20320J0D01*
G01*
X12466320Y-6720840D02*
G75*
G03*
X12466320Y-6720840I-20320J0D01*
G01*
X12491720Y-6250940D02*
G75*
G03*
X12491720Y-6250940I-20320J0D01*
G01*
X12537440Y-5478780D02*
G75*
G03*
X12537440Y-5478780I-20320J0D01*
G01*
X12552680Y-6071778D02*
G75*
G03*
X12552680Y-6071778I-20320J0D01*
G01*
X12603480Y-6327140D02*
G75*
G03*
X12603480Y-6327140I-20320J0D01*
G01*
X12612281Y-5646260D02*
G75*
G03*
X12612281Y-5646260I-20320J0D01*
G01*
X12612281Y-5846260D02*
G75*
G03*
X12612281Y-5846260I-20320J0D01*
G01*
X12654280Y-5989320D02*
G75*
G03*
X12654280Y-5989320I-20320J0D01*
G01*
X12656820Y-10718800D02*
G75*
G03*
X12656820Y-10718800I-20320J0D01*
G01*
X12680058Y-7862555D02*
G75*
G03*
X12680058Y-7862555I-20320J0D01*
G01*
X12712700Y-8552180D02*
G75*
G03*
X12712700Y-8552180I-20320J0D01*
G01*
X12766040Y-7388860D02*
G75*
G03*
X12766040Y-7388860I-20320J0D01*
G01*
X12778740Y-6865620D02*
G75*
G03*
X12778740Y-6865620I-20320J0D01*
G01*
X12832370Y-9159240D02*
G75*
G03*
X12832370Y-9159240I-20320J0D01*
G01*
X12992100Y-6565950D02*
G75*
G03*
X12992100Y-6565950I-20320J0D01*
G01*
X13020040Y-7058660D02*
G75*
G03*
X13020040Y-7058660I-20320J0D01*
G01*
X13070840Y-5750560D02*
G75*
G03*
X13070840Y-5750560I-20320J0D01*
G01*
X13151974Y-9608820D02*
G75*
G03*
X13151974Y-9608820I-20320J0D01*
G01*
X13167360Y-4020820D02*
G75*
G03*
X13167360Y-4020820I-20320J0D01*
G01*
X13190220Y-9423400D02*
G75*
G03*
X13190220Y-9423400I-20320J0D01*
G01*
X13251180Y-7477858D02*
G75*
G03*
X13251180Y-7477858I-20320J0D01*
G01*
X13348967Y-5262930D02*
G75*
G03*
X13348967Y-5262930I-20320J0D01*
G01*
X13373100Y-5514340D02*
G75*
G03*
X13373100Y-5514340I-20320J0D01*
G01*
X13395960Y-7033260D02*
G75*
G03*
X13395960Y-7033260I-20320J0D01*
G01*
X13421360Y-3596640D02*
G75*
G03*
X13421360Y-3596640I-20320J0D01*
G01*
X13436600Y-9032240D02*
G75*
G03*
X13436600Y-9032240I-20320J0D01*
G01*
X13467178Y-5257800D02*
G75*
G03*
X13467178Y-5257800I-20320J0D01*
G01*
X13586460Y-7310120D02*
G75*
G03*
X13586460Y-7310120I-20320J0D01*
G01*
X13599160Y-10251440D02*
G75*
G03*
X13599160Y-10251440I-20320J0D01*
G01*
X13604240Y-3644900D02*
G75*
G03*
X13604240Y-3644900I-20320J0D01*
G01*
X13672820Y-4117340D02*
G75*
G03*
X13672820Y-4117340I-20320J0D01*
G01*
X13693140Y-7363460D02*
G75*
G03*
X13693140Y-7363460I-20320J0D01*
G01*
X13694443Y-6920197D02*
G75*
G03*
X13694443Y-6920197I-20320J0D01*
G01*
X13713460Y-5834380D02*
G75*
G03*
X13713460Y-5834380I-20320J0D01*
G01*
X13741400Y-7543850D02*
G75*
G03*
X13741400Y-7543850I-20320J0D01*
G01*
X13743940Y-10287000D02*
G75*
G03*
X13743940Y-10287000I-20320J0D01*
G01*
X13746480Y-3017520D02*
G75*
G03*
X13746480Y-3017520I-20320J0D01*
G01*
X13812520Y-4996180D02*
G75*
G03*
X13812520Y-4996180I-20320J0D01*
G01*
X13827760Y-8196580D02*
G75*
G03*
X13827760Y-8196580I-20320J0D01*
G01*
X13835380Y-4592320D02*
G75*
G03*
X13835380Y-4592320I-20320J0D01*
G01*
X13893800Y-6433820D02*
G75*
G03*
X13893800Y-6433820I-20320J0D01*
G01*
X13982702Y-4200247D02*
G75*
G03*
X13982702Y-4200247I-20320J0D01*
G01*
X13985240Y-6751320D02*
G75*
G03*
X13985240Y-6751320I-20320J0D01*
G01*
X14127480Y-7086600D02*
G75*
G03*
X14127480Y-7086600I-20320J0D01*
G01*
X14150340Y-3916680D02*
G75*
G03*
X14150340Y-3916680I-20320J0D01*
G01*
X14254480Y-4066540D02*
G75*
G03*
X14254480Y-4066540I-20320J0D01*
G01*
X14287500Y-6167120D02*
G75*
G03*
X14287500Y-6167120I-20320J0D01*
G01*
X14297660Y-5288280D02*
G75*
G03*
X14297660Y-5288280I-20320J0D01*
G01*
X14389100Y-6990080D02*
G75*
G03*
X14389100Y-6990080I-20320J0D01*
G01*
X14424660Y-10403840D02*
G75*
G03*
X14424660Y-10403840I-20320J0D01*
G01*
X14574520Y-3014980D02*
G75*
G03*
X14574520Y-3014980I-20320J0D01*
G01*
X14592300Y-11137900D02*
G75*
G03*
X14592300Y-11137900I-20320J0D01*
G01*
X14615160Y-8844280D02*
G75*
G03*
X14615160Y-8844280I-20320J0D01*
G01*
X14706600Y-10096500D02*
G75*
G03*
X14706600Y-10096500I-20320J0D01*
G01*
X14724380Y-7653020D02*
G75*
G03*
X14724380Y-7653020I-20320J0D01*
G01*
X14838680Y-8427770D02*
G75*
G03*
X14838680Y-8427770I-20320J0D01*
G01*
X14869160Y-10106660D02*
G75*
G03*
X14869160Y-10106660I-20320J0D01*
G01*
X14876780Y-9646920D02*
G75*
G03*
X14876780Y-9646920I-20320J0D01*
G01*
X14952980Y-8486140D02*
G75*
G03*
X14952980Y-8486140I-20320J0D01*
G01*
X14986000Y-7277150D02*
G75*
G03*
X14986000Y-7277150I-20320J0D01*
G01*
X15100300Y-7381240D02*
G75*
G03*
X15100300Y-7381240I-20320J0D01*
G01*
X15118080Y-9017000D02*
G75*
G03*
X15118080Y-9017000I-20320J0D01*
G01*
X15204440Y-9392920D02*
G75*
G03*
X15204440Y-9392920I-20320J0D01*
G01*
X15222220Y-11310620D02*
G75*
G03*
X15222220Y-11310620I-20320J0D01*
G01*
X15275560Y-8364220D02*
G75*
G03*
X15275560Y-8364220I-20320J0D01*
G01*
X15341600Y-8587740D02*
G75*
G03*
X15341600Y-8587740I-20320J0D01*
G01*
X15397480Y-7924800D02*
G75*
G03*
X15397480Y-7924800I-20320J0D01*
G01*
X15435580Y-8348980D02*
G75*
G03*
X15435580Y-8348980I-20320J0D01*
G01*
X15618460Y-8958580D02*
G75*
G03*
X15618460Y-8958580I-20320J0D01*
G01*
X15623540Y-7988300D02*
G75*
G03*
X15623540Y-7988300I-20320J0D01*
G01*
X15664180Y-11224260D02*
G75*
G03*
X15664180Y-11224260I-20320J0D01*
G01*
X15716506Y-8408926D02*
G75*
G03*
X15716506Y-8408926I-20320J0D01*
G01*
X15862300Y-11419840D02*
G75*
G03*
X15862300Y-11419840I-20320J0D01*
G01*
X15933420Y-9019540D02*
G75*
G03*
X15933420Y-9019540I-20320J0D01*
G01*
X15946120Y-11115040D02*
G75*
G03*
X15946120Y-11115040I-20320J0D01*
G01*
X15974060Y-8653780D02*
G75*
G03*
X15974060Y-8653780I-20320J0D01*
G01*
X16073120Y-10609580D02*
G75*
G03*
X16073120Y-10609580I-20320J0D01*
G01*
X16200120Y-8346440D02*
G75*
G03*
X16200120Y-8346440I-20320J0D01*
G01*
X16257233Y-11369090D02*
G75*
G03*
X16257233Y-11369090I-20320J0D01*
G01*
X16294100Y-8610600D02*
G75*
G03*
X16294100Y-8610600I-20320J0D01*
G01*
X16306800Y-8348980D02*
G75*
G03*
X16306800Y-8348980I-20320J0D01*
G01*
X16316960Y-9220200D02*
G75*
G03*
X16316960Y-9220200I-20320J0D01*
G01*
X16316960Y-10835640D02*
G75*
G03*
X16316960Y-10835640I-20320J0D01*
G01*
X16334740Y-10467340D02*
G75*
G03*
X16334740Y-10467340I-20320J0D01*
G01*
X16375380Y-11097260D02*
G75*
G03*
X16375380Y-11097260I-20320J0D01*
G01*
X16395700Y-11414760D02*
G75*
G03*
X16395700Y-11414760I-20320J0D01*
G01*
X16403320Y-8521700D02*
G75*
G03*
X16403320Y-8521700I-20320J0D01*
G01*
X16405860Y-8933180D02*
G75*
G03*
X16405860Y-8933180I-20320J0D01*
G01*
X16446500Y-9225280D02*
G75*
G03*
X16446500Y-9225280I-20320J0D01*
G01*
D14*
X4041140Y-9908540D02*
X4041140Y-9979660D01*
X4005580Y-9944100D02*
X4076700Y-9944100D01*
X4053840Y-10198100D02*
X4053840Y-10269220D01*
X4018280Y-10233660D02*
X4089400Y-10233660D01*
X4259580Y-8816340D02*
X4259580Y-8887460D01*
X4224020Y-8851900D02*
X4295140Y-8851900D01*
X4406900Y-9804400D02*
X4406900Y-9875520D01*
X4371340Y-9839960D02*
X4442460Y-9839960D01*
X4434840Y-3860800D02*
X4434840Y-3931920D01*
X4399280Y-3896360D02*
X4470400Y-3896360D01*
X4572000Y-7381240D02*
X4572000Y-7452360D01*
X4536440Y-7416800D02*
X4607560Y-7416800D01*
X4572000Y-7584440D02*
X4572000Y-7655560D01*
X4536440Y-7620000D02*
X4607560Y-7620000D01*
X4572000Y-7787640D02*
X4572000Y-7858760D01*
X4536440Y-7823200D02*
X4607560Y-7823200D01*
X4599940Y-8816340D02*
X4599940Y-8887460D01*
X4564380Y-8851900D02*
X4635500Y-8851900D01*
X4640580Y-9906000D02*
X4640580Y-9977120D01*
X4605020Y-9941560D02*
X4676140Y-9941560D01*
X4826000Y-7381240D02*
X4826000Y-7452360D01*
X4790440Y-7416800D02*
X4861560Y-7416800D01*
X4826000Y-7584440D02*
X4826000Y-7655560D01*
X4790440Y-7620000D02*
X4861560Y-7620000D01*
X4826000Y-7787640D02*
X4826000Y-7858760D01*
X4790440Y-7823200D02*
X4861560Y-7823200D01*
X4826000Y-7993380D02*
X4826000Y-8064500D01*
X4790440Y-8028940D02*
X4861560Y-8028940D01*
X4846320Y-6319520D02*
X4846320Y-6390640D01*
X4810760Y-6355080D02*
X4881880Y-6355080D01*
X5021580Y-9306560D02*
X5021580Y-9377680D01*
X4986020Y-9342120D02*
X5057140Y-9342120D01*
X5138420Y-3919220D02*
X5138420Y-3990340D01*
X5102860Y-3954780D02*
X5173980Y-3954780D01*
X5709920Y-4320540D02*
X5709920Y-4391660D01*
X5674360Y-4356100D02*
X5745480Y-4356100D01*
X7150100Y-8272780D02*
X7150100Y-8343900D01*
X7114540Y-8308340D02*
X7185660Y-8308340D01*
X7233920Y-4658360D02*
X7233920Y-4729480D01*
X7198360Y-4693920D02*
X7269480Y-4693920D01*
X7282180Y-5664200D02*
X7282180Y-5735320D01*
X7246620Y-5699760D02*
X7317740Y-5699760D01*
X7393940Y-8341360D02*
X7393940Y-8412480D01*
X7358380Y-8376920D02*
X7429500Y-8376920D01*
X7451970Y-8625232D02*
X7451970Y-8696352D01*
X7416410Y-8660792D02*
X7487530Y-8660792D01*
X7454510Y-6826912D02*
X7454510Y-6898032D01*
X7418950Y-6862472D02*
X7490070Y-6862472D01*
X7699680Y-5017440D02*
X7699680Y-5088560D01*
X7664120Y-5053000D02*
X7735240Y-5053000D01*
X7835900Y-4521200D02*
X7835900Y-4592320D01*
X7800340Y-4556760D02*
X7871460Y-4556760D01*
X7874000Y-5415280D02*
X7874000Y-5486400D01*
X7838440Y-5450840D02*
X7909560Y-5450840D01*
X8056880Y-4996180D02*
X8056880Y-5067300D01*
X8021320Y-5031740D02*
X8092440Y-5031740D01*
X8160630Y-8320432D02*
X8160630Y-8391552D01*
X8125070Y-8355992D02*
X8196190Y-8355992D01*
X9042010Y-6745632D02*
X9042010Y-6816752D01*
X9006450Y-6781192D02*
X9077570Y-6781192D01*
X9202030Y-7299352D02*
X9202030Y-7370472D01*
X9166470Y-7334912D02*
X9237590Y-7334912D01*
X9557630Y-8173112D02*
X9557630Y-8244232D01*
X9522070Y-8208672D02*
X9593190Y-8208672D01*
X9593190Y-7893712D02*
X9593190Y-7964832D01*
X9557630Y-7929272D02*
X9628750Y-7929272D01*
X10002520Y-9779000D02*
X10002520Y-9850120D01*
X9966960Y-9814560D02*
X10038080Y-9814560D01*
X10662920Y-9928860D02*
X10662920Y-9999980D01*
X10627360Y-9964420D02*
X10698480Y-9964420D01*
X10721340Y-8564880D02*
X10721340Y-8636000D01*
X10685780Y-8600440D02*
X10756900Y-8600440D01*
X10960100Y-10002520D02*
X10960100Y-10073640D01*
X10924540Y-10038080D02*
X10995660Y-10038080D01*
X11247120Y-10307320D02*
X11247120Y-10378440D01*
X11211560Y-10342880D02*
X11282680Y-10342880D01*
X11404600Y-5392420D02*
X11404600Y-5463540D01*
X11369040Y-5427980D02*
X11440160Y-5427980D01*
X11625580Y-5654040D02*
X11625580Y-5725160D01*
X11590020Y-5689600D02*
X11661140Y-5689600D01*
X11813540Y-10353040D02*
X11813540Y-10424160D01*
X11777980Y-10388600D02*
X11849100Y-10388600D01*
X11899900Y-8196580D02*
X11899900Y-8267700D01*
X11864340Y-8232140D02*
X11935460Y-8232140D01*
X13261340Y-8115300D02*
X13261340Y-8186420D01*
X13225780Y-8150860D02*
X13296900Y-8150860D01*
X13464540Y-4767580D02*
X13464540Y-4838700D01*
X13428980Y-4803140D02*
X13500100Y-4803140D01*
X14246860Y-7124700D02*
X14246860Y-7195820D01*
X14211300Y-7160260D02*
X14282420Y-7160260D01*
X15313660Y-9652000D02*
X15313660Y-9723120D01*
X15278100Y-9687560D02*
X15349220Y-9687560D01*
X15333980Y-9215120D02*
X15333980Y-9286240D01*
X15298420Y-9250680D02*
X15369540Y-9250680D01*
X15554960Y-9164320D02*
X15554960Y-9235440D01*
X15519400Y-9199880D02*
X15590520Y-9199880D01*
X15857220Y-9136380D02*
X15857220Y-9207500D01*
X15821660Y-9171940D02*
X15892780Y-9171940D01*
X16113760Y-8437880D02*
X16113760Y-8509000D01*
X16078200Y-8473440D02*
X16149320Y-8473440D01*
D15*
X5336415Y-6448197D02*
X5336415Y-6394315D01*
X5282533Y-6394315D01*
X5282533Y-6448197D01*
X5336415Y-6448197D01*
X5462139Y-6573921D02*
X5462139Y-6520039D01*
X5408257Y-6520039D01*
X5408257Y-6573921D01*
X5462139Y-6573921D01*
X5935619Y-6871603D02*
X5935619Y-6817721D01*
X5881737Y-6817721D01*
X5881737Y-6871603D01*
X5935619Y-6871603D01*
X6061343Y-6745879D02*
X6061343Y-6691997D01*
X6007461Y-6691997D01*
X6007461Y-6745879D01*
X6061343Y-6745879D01*
X6499977Y-6740373D02*
X6499977Y-6686491D01*
X6446095Y-6686491D01*
X6446095Y-6740373D01*
X6499977Y-6740373D01*
X6677777Y-6740373D02*
X6677777Y-6686491D01*
X6623895Y-6686491D01*
X6623895Y-6740373D01*
X6677777Y-6740373D01*
X8056479Y-7610773D02*
X8056479Y-7556891D01*
X8002597Y-7556891D01*
X8002597Y-7610773D01*
X8056479Y-7610773D01*
X8056479Y-7788573D02*
X8056479Y-7734691D01*
X8002597Y-7734691D01*
X8002597Y-7788573D01*
X8056479Y-7788573D01*
D16*
X9000760Y-4720220D02*
X9040760Y-4680220D01*
X9000760Y-4640220D01*
X8960760Y-4680220D01*
X9000760Y-4720220D01*
X9000760Y-4974220D02*
X9040760Y-4934220D01*
X9000760Y-4894220D01*
X8960760Y-4934220D01*
X9000760Y-4974220D01*
X9000760Y-5228220D02*
X9040760Y-5188220D01*
X9000760Y-5148220D01*
X8960760Y-5188220D01*
X9000760Y-5228220D01*
X9000760Y-5482220D02*
X9040760Y-5442220D01*
X9000760Y-5402220D01*
X8960760Y-5442220D01*
X9000760Y-5482220D01*
X9762760Y-4720220D02*
X9802760Y-4680220D01*
X9762760Y-4640220D01*
X9722760Y-4680220D01*
X9762760Y-4720220D01*
X9762760Y-4974220D02*
X9802760Y-4934220D01*
X9762760Y-4894220D01*
X9722760Y-4934220D01*
X9762760Y-4974220D01*
X9762760Y-5228220D02*
X9802760Y-5188220D01*
X9762760Y-5148220D01*
X9722760Y-5188220D01*
X9762760Y-5228220D01*
X9762760Y-5482220D02*
X9802760Y-5442220D01*
X9762760Y-5402220D01*
X9722760Y-5442220D01*
X9762760Y-5482220D01*
X10289591Y-4799960D02*
X10329591Y-4759960D01*
X10289591Y-4719960D01*
X10249591Y-4759960D01*
X10289591Y-4799960D01*
X10539591Y-4799960D02*
X10579591Y-4759960D01*
X10539591Y-4719960D01*
X10499591Y-4759960D01*
X10539591Y-4799960D01*
X10795150Y-8896372D02*
X10835150Y-8856372D01*
X10795150Y-8816372D01*
X10755150Y-8856372D01*
X10795150Y-8896372D01*
X11049150Y-8896372D02*
X11089150Y-8856372D01*
X11049150Y-8816372D01*
X11009150Y-8856372D01*
X11049150Y-8896372D01*
X11278600Y-9301840D02*
X11318600Y-9261840D01*
X11278600Y-9221840D01*
X11238600Y-9261840D01*
X11278600Y-9301840D01*
X11278600Y-9555840D02*
X11318600Y-9515840D01*
X11278600Y-9475840D01*
X11238600Y-9515840D01*
X11278600Y-9555840D01*
X11278600Y-9809840D02*
X11318600Y-9769840D01*
X11278600Y-9729840D01*
X11238600Y-9769840D01*
X11278600Y-9809840D01*
X11278600Y-10063840D02*
X11318600Y-10023840D01*
X11278600Y-9983840D01*
X11238600Y-10023840D01*
X11278600Y-10063840D01*
X11303150Y-8896372D02*
X11343150Y-8856372D01*
X11303150Y-8816372D01*
X11263150Y-8856372D01*
X11303150Y-8896372D01*
X11557150Y-8896372D02*
X11597150Y-8856372D01*
X11557150Y-8816372D01*
X11517150Y-8856372D01*
X11557150Y-8896372D01*
X11794680Y-3835840D02*
X11834680Y-3795840D01*
X11794680Y-3755840D01*
X11754680Y-3795840D01*
X11794680Y-3835840D01*
X11811150Y-8896372D02*
X11851150Y-8856372D01*
X11811150Y-8816372D01*
X11771150Y-8856372D01*
X11811150Y-8896372D01*
X12040600Y-9301840D02*
X12080600Y-9261840D01*
X12040600Y-9221840D01*
X12000600Y-9261840D01*
X12040600Y-9301840D01*
X12040600Y-9555840D02*
X12080600Y-9515840D01*
X12040600Y-9475840D01*
X12000600Y-9515840D01*
X12040600Y-9555840D01*
X12040600Y-9809840D02*
X12080600Y-9769840D01*
X12040600Y-9729840D01*
X12000600Y-9769840D01*
X12040600Y-9809840D01*
X12040600Y-10063840D02*
X12080600Y-10023840D01*
X12040600Y-9983840D01*
X12000600Y-10023840D01*
X12040600Y-10063840D01*
X12044680Y-4165840D02*
X12084680Y-4125840D01*
X12044680Y-4085840D01*
X12004680Y-4125840D01*
X12044680Y-4165840D01*
X12270740Y-4652866D02*
X12310740Y-4612866D01*
X12270740Y-4572866D01*
X12230740Y-4612866D01*
X12270740Y-4652866D01*
X12270740Y-5002866D02*
X12310740Y-4962866D01*
X12270740Y-4922866D01*
X12230740Y-4962866D01*
X12270740Y-5002866D01*
X12294680Y-3835840D02*
X12334680Y-3795840D01*
X12294680Y-3755840D01*
X12254680Y-3795840D01*
X12294680Y-3835840D01*
X12325340Y-9061000D02*
X12365340Y-9021000D01*
X12325340Y-8981000D01*
X12285340Y-9021000D01*
X12325340Y-9061000D01*
X12325340Y-9311000D02*
X12365340Y-9271000D01*
X12325340Y-9231000D01*
X12285340Y-9271000D01*
X12325340Y-9311000D01*
X12325340Y-9561000D02*
X12365340Y-9521000D01*
X12325340Y-9481000D01*
X12285340Y-9521000D01*
X12325340Y-9561000D01*
X12655340Y-9061000D02*
X12695340Y-9021000D01*
X12655340Y-8981000D01*
X12615340Y-9021000D01*
X12655340Y-9061000D01*
X12655340Y-9311000D02*
X12695340Y-9271000D01*
X12655340Y-9231000D01*
X12615340Y-9271000D01*
X12655340Y-9311000D01*
X12655340Y-9561000D02*
X12695340Y-9521000D01*
X12655340Y-9481000D01*
X12615340Y-9521000D01*
X12655340Y-9561000D01*
X12749720Y-4298500D02*
X12789720Y-4258500D01*
X12749720Y-4218500D01*
X12709720Y-4258500D01*
X12749720Y-4298500D01*
X12922122Y-4792340D02*
X12962122Y-4752340D01*
X12922122Y-4712340D01*
X12882122Y-4752340D01*
X12922122Y-4792340D01*
X12999720Y-3968500D02*
X13039720Y-3928500D01*
X12999720Y-3888500D01*
X12959720Y-3928500D01*
X12999720Y-3968500D01*
X13038962Y-6448420D02*
X13078962Y-6408420D01*
X13038962Y-6368420D01*
X12998962Y-6408420D01*
X13038962Y-6448420D01*
X13172122Y-4792340D02*
X13212122Y-4752340D01*
X13172122Y-4712340D01*
X13132122Y-4752340D01*
X13172122Y-4792340D01*
X13249720Y-4298500D02*
X13289720Y-4258500D01*
X13249720Y-4218500D01*
X13209720Y-4258500D01*
X13249720Y-4298500D01*
X13288962Y-6448420D02*
X13328962Y-6408420D01*
X13288962Y-6368420D01*
X13248962Y-6408420D01*
X13288962Y-6448420D01*
X13613400Y-8982340D02*
X13653400Y-8942340D01*
X13613400Y-8902340D01*
X13573400Y-8942340D01*
X13613400Y-8982340D01*
X13613400Y-9236340D02*
X13653400Y-9196340D01*
X13613400Y-9156340D01*
X13573400Y-9196340D01*
X13613400Y-9236340D01*
X13613400Y-9490340D02*
X13653400Y-9450340D01*
X13613400Y-9410340D01*
X13573400Y-9450340D01*
X13613400Y-9490340D01*
X13613400Y-9744340D02*
X13653400Y-9704340D01*
X13613400Y-9664340D01*
X13573400Y-9704340D01*
X13613400Y-9744340D01*
X13615400Y-7894680D02*
X13655400Y-7854680D01*
X13615400Y-7814680D01*
X13575400Y-7854680D01*
X13615400Y-7894680D01*
X13615400Y-8148680D02*
X13655400Y-8108680D01*
X13615400Y-8068680D01*
X13575400Y-8108680D01*
X13615400Y-8148680D01*
X13615400Y-8402680D02*
X13655400Y-8362680D01*
X13615400Y-8322680D01*
X13575400Y-8362680D01*
X13615400Y-8402680D01*
X13615400Y-8656680D02*
X13655400Y-8616680D01*
X13615400Y-8576680D01*
X13575400Y-8616680D01*
X13615400Y-8656680D01*
X13754920Y-3458840D02*
X13794920Y-3418840D01*
X13754920Y-3378840D01*
X13714920Y-3418840D01*
X13754920Y-3458840D01*
X13754920Y-3708840D02*
X13794920Y-3668840D01*
X13754920Y-3628840D01*
X13714920Y-3668840D01*
X13754920Y-3708840D01*
X13802159Y-4467799D02*
X13842159Y-4427799D01*
X13802159Y-4387799D01*
X13762159Y-4427799D01*
X13802159Y-4467799D01*
X13802159Y-5229799D02*
X13842159Y-5189799D01*
X13802159Y-5149799D01*
X13762159Y-5189799D01*
X13802159Y-5229799D01*
X13802159Y-6296599D02*
X13842159Y-6256599D01*
X13802159Y-6216599D01*
X13762159Y-6256599D01*
X13802159Y-6296599D01*
X13802159Y-7058599D02*
X13842159Y-7018599D01*
X13802159Y-6978599D01*
X13762159Y-7018599D01*
X13802159Y-7058599D01*
X13964920Y-3458840D02*
X14004920Y-3418840D01*
X13964920Y-3378840D01*
X13924920Y-3418840D01*
X13964920Y-3458840D01*
X14224920Y-3458840D02*
X14264920Y-3418840D01*
X14224920Y-3378840D01*
X14184920Y-3418840D01*
X14224920Y-3458840D01*
X14375400Y-8982340D02*
X14415400Y-8942340D01*
X14375400Y-8902340D01*
X14335400Y-8942340D01*
X14375400Y-8982340D01*
X14375400Y-9236340D02*
X14415400Y-9196340D01*
X14375400Y-9156340D01*
X14335400Y-9196340D01*
X14375400Y-9236340D01*
X14375400Y-9490340D02*
X14415400Y-9450340D01*
X14375400Y-9410340D01*
X14335400Y-9450340D01*
X14375400Y-9490340D01*
X14375400Y-9744340D02*
X14415400Y-9704340D01*
X14375400Y-9664340D01*
X14335400Y-9704340D01*
X14375400Y-9744340D01*
X14377400Y-7894680D02*
X14417400Y-7854680D01*
X14377400Y-7814680D01*
X14337400Y-7854680D01*
X14377400Y-7894680D01*
X14377400Y-8148680D02*
X14417400Y-8108680D01*
X14377400Y-8068680D01*
X14337400Y-8108680D01*
X14377400Y-8148680D01*
X14377400Y-8402680D02*
X14417400Y-8362680D01*
X14377400Y-8322680D01*
X14337400Y-8362680D01*
X14377400Y-8402680D01*
X14377400Y-8656680D02*
X14417400Y-8616680D01*
X14377400Y-8576680D01*
X14337400Y-8616680D01*
X14377400Y-8656680D01*
X14434920Y-3458840D02*
X14474920Y-3418840D01*
X14434920Y-3378840D01*
X14394920Y-3418840D01*
X14434920Y-3458840D01*
X14434920Y-3708840D02*
X14474920Y-3668840D01*
X14434920Y-3628840D01*
X14394920Y-3668840D01*
X14434920Y-3708840D01*
X14646900Y-7877360D02*
X14686900Y-7837360D01*
X14646900Y-7797360D01*
X14606900Y-7837360D01*
X14646900Y-7877360D01*
X14646900Y-8127360D02*
X14686900Y-8087360D01*
X14646900Y-8047360D01*
X14606900Y-8087360D01*
X14646900Y-8127360D01*
X14646900Y-8377360D02*
X14686900Y-8337360D01*
X14646900Y-8297360D01*
X14606900Y-8337360D01*
X14646900Y-8377360D01*
X14976900Y-7877360D02*
X15016900Y-7837360D01*
X14976900Y-7797360D01*
X14936900Y-7837360D01*
X14976900Y-7877360D01*
X14976900Y-8127360D02*
X15016900Y-8087360D01*
X14976900Y-8047360D01*
X14936900Y-8087360D01*
X14976900Y-8127360D01*
X14976900Y-8377360D02*
X15016900Y-8337360D01*
X14976900Y-8297360D01*
X14936900Y-8337360D01*
X14976900Y-8377360D01*
X15072159Y-4467799D02*
X15112159Y-4427799D01*
X15072159Y-4387799D01*
X15032159Y-4427799D01*
X15072159Y-4467799D01*
X15072159Y-5229799D02*
X15112159Y-5189799D01*
X15072159Y-5149799D01*
X15032159Y-5189799D01*
X15072159Y-5229799D01*
X15072159Y-6296599D02*
X15112159Y-6256599D01*
X15072159Y-6216599D01*
X15032159Y-6256599D01*
X15072159Y-6296599D01*
X15072159Y-7058599D02*
X15112159Y-7018599D01*
X15072159Y-6978599D01*
X15032159Y-7018599D01*
X15072159Y-7058599D01*
D17*
X5293600Y-9944160D02*
X5385600Y-10036160D01*
X5385600Y-9944160D02*
X5293600Y-10036160D01*
X5385600Y-9990160D02*
G75*
G03*
X5385600Y-9990160I-46000J0D01*
G01*
X5293600Y-10206160D02*
X5385600Y-10298160D01*
X5385600Y-10206160D02*
X5293600Y-10298160D01*
X5385600Y-10252160D02*
G75*
G03*
X5385600Y-10252160I-46000J0D01*
G01*
X5543600Y-9944160D02*
X5635600Y-10036160D01*
X5635600Y-9944160D02*
X5543600Y-10036160D01*
X5635600Y-9990160D02*
G75*
G03*
X5635600Y-9990160I-46000J0D01*
G01*
X5543600Y-10206160D02*
X5635600Y-10298160D01*
X5635600Y-10206160D02*
X5543600Y-10298160D01*
X5635600Y-10252160D02*
G75*
G03*
X5635600Y-10252160I-46000J0D01*
G01*
X5743600Y-9944160D02*
X5835600Y-10036160D01*
X5835600Y-9944160D02*
X5743600Y-10036160D01*
X5835600Y-9990160D02*
G75*
G03*
X5835600Y-9990160I-46000J0D01*
G01*
X5743600Y-10206160D02*
X5835600Y-10298160D01*
X5835600Y-10206160D02*
X5743600Y-10298160D01*
X5835600Y-10252160D02*
G75*
G03*
X5835600Y-10252160I-46000J0D01*
G01*
X5993600Y-9944160D02*
X6085600Y-10036160D01*
X6085600Y-9944160D02*
X5993600Y-10036160D01*
X6085600Y-9990160D02*
G75*
G03*
X6085600Y-9990160I-46000J0D01*
G01*
X5993600Y-10206160D02*
X6085600Y-10298160D01*
X6085600Y-10206160D02*
X5993600Y-10298160D01*
X6085600Y-10252160D02*
G75*
G03*
X6085600Y-10252160I-46000J0D01*
G01*
D18*
X5494240Y-3837390D02*
X5589240Y-3932390D01*
X5589240Y-3837390D02*
X5494240Y-3932390D01*
X5541740Y-3837390D02*
X5541740Y-3932390D01*
X5494240Y-3884890D02*
X5589240Y-3884890D01*
X5494240Y-4037390D02*
X5589240Y-4132390D01*
X5589240Y-4037390D02*
X5494240Y-4132390D01*
X5541740Y-4037390D02*
X5541740Y-4132390D01*
X5494240Y-4084890D02*
X5589240Y-4084890D01*
X5744240Y-3837390D02*
X5839240Y-3932390D01*
X5839240Y-3837390D02*
X5744240Y-3932390D01*
X5791740Y-3837390D02*
X5791740Y-3932390D01*
X5744240Y-3884890D02*
X5839240Y-3884890D01*
X5744240Y-4037390D02*
X5839240Y-4132390D01*
X5839240Y-4037390D02*
X5744240Y-4132390D01*
X5791740Y-4037390D02*
X5791740Y-4132390D01*
X5744240Y-4084890D02*
X5839240Y-4084890D01*
D19*
X11382756Y-10472420D02*
X11482324Y-10571988D01*
X11482324Y-10472420D02*
X11382756Y-10571988D01*
X11467743Y-10557407D02*
X11467743Y-10487001D01*
X11397337Y-10487001D01*
X11397337Y-10557407D01*
X11467743Y-10557407D01*
D11*
X11392756Y-10462133D02*
X11392756Y-10582275D01*
X11472324Y-10462133D02*
X11472324Y-10582275D01*
X11392756Y-10582275D02*
G75*
G03*
X11472324Y-10582275I39784J0D01*
G01*
X11472324Y-10462133D02*
G75*
G03*
X11392756Y-10462133I-39784J0D01*
G01*
D19*
X11888216Y-10972216D02*
X11987784Y-11071784D01*
X11987784Y-10972216D02*
X11888216Y-11071784D01*
X11973203Y-11057203D02*
X11973203Y-10986797D01*
X11902797Y-10986797D01*
X11902797Y-11057203D01*
X11973203Y-11057203D01*
D11*
X11877929Y-11061784D02*
X11998071Y-11061784D01*
X11877929Y-10982216D02*
X11998071Y-10982216D01*
X11998071Y-11061784D02*
G75*
G03*
X11998071Y-10982216I0J39784D01*
G01*
X11877929Y-10982216D02*
G75*
G03*
X11877929Y-11061784I0J-39784D01*
G01*
D19*
X12393676Y-10472420D02*
X12493244Y-10571988D01*
X12493244Y-10472420D02*
X12393676Y-10571988D01*
X12478663Y-10557407D02*
X12478663Y-10487001D01*
X12408257Y-10487001D01*
X12408257Y-10557407D01*
X12478663Y-10557407D01*
D11*
X12403676Y-10462133D02*
X12403676Y-10582275D01*
X12483244Y-10462133D02*
X12483244Y-10582275D01*
X12403676Y-10582275D02*
G75*
G03*
X12483244Y-10582275I39784J0D01*
G01*
X12483244Y-10462133D02*
G75*
G03*
X12403676Y-10462133I-39784J0D01*
G01*
D19*
X12779756Y-10472420D02*
X12879324Y-10571988D01*
X12879324Y-10472420D02*
X12779756Y-10571988D01*
X12864743Y-10557407D02*
X12864743Y-10487001D01*
X12794337Y-10487001D01*
X12794337Y-10557407D01*
X12864743Y-10557407D01*
D11*
X12789756Y-10462133D02*
X12789756Y-10582275D01*
X12869324Y-10462133D02*
X12869324Y-10582275D01*
X12789756Y-10582275D02*
G75*
G03*
X12869324Y-10582275I39784J0D01*
G01*
X12869324Y-10462133D02*
G75*
G03*
X12789756Y-10462133I-39784J0D01*
G01*
D19*
X13285216Y-10972216D02*
X13384784Y-11071784D01*
X13384784Y-10972216D02*
X13285216Y-11071784D01*
X13370203Y-11057203D02*
X13370203Y-10986797D01*
X13299797Y-10986797D01*
X13299797Y-11057203D01*
X13370203Y-11057203D01*
D11*
X13274929Y-11061784D02*
X13395071Y-11061784D01*
X13274929Y-10982216D02*
X13395071Y-10982216D01*
X13395071Y-11061784D02*
G75*
G03*
X13395071Y-10982216I0J39784D01*
G01*
X13274929Y-10982216D02*
G75*
G03*
X13274929Y-11061784I0J-39784D01*
G01*
D19*
X13790676Y-10472420D02*
X13890244Y-10571988D01*
X13890244Y-10472420D02*
X13790676Y-10571988D01*
X13875663Y-10557407D02*
X13875663Y-10487001D01*
X13805257Y-10487001D01*
X13805257Y-10557407D01*
X13875663Y-10557407D01*
D11*
X13800676Y-10462133D02*
X13800676Y-10582275D01*
X13880244Y-10462133D02*
X13880244Y-10582275D01*
X13800676Y-10582275D02*
G75*
G03*
X13880244Y-10582275I39784J0D01*
G01*
X13880244Y-10462133D02*
G75*
G03*
X13800676Y-10462133I-39784J0D01*
G01*
D20*
X6647000Y-3589380D02*
X6747000Y-3689380D01*
X6747000Y-3589380D02*
X6647000Y-3689380D01*
X6697000Y-3689380D02*
X6747000Y-3639380D01*
X6697000Y-3589380D01*
X6647000Y-3639380D01*
X6697000Y-3689380D01*
D11*
X6737000Y-3749380D02*
X6737000Y-3529380D01*
X6657000Y-3749380D02*
X6657000Y-3529380D01*
X6737000Y-3529380D02*
G75*
G03*
X6657000Y-3529380I-40000J0D01*
G01*
X6657000Y-3749380D02*
G75*
G03*
X6737000Y-3749380I40000J0D01*
G01*
D20*
X7127000Y-3249380D02*
X7227000Y-3349380D01*
X7227000Y-3249380D02*
X7127000Y-3349380D01*
X7177000Y-3349380D02*
X7227000Y-3299380D01*
X7177000Y-3249380D01*
X7127000Y-3299380D01*
X7177000Y-3349380D01*
D11*
X7287000Y-3259380D02*
X7067000Y-3259380D01*
X7287000Y-3339380D02*
X7067000Y-3339380D01*
X7067000Y-3259380D02*
G75*
G03*
X7067000Y-3339380I0J-40000D01*
G01*
X7287000Y-3339380D02*
G75*
G03*
X7287000Y-3259380I0J40000D01*
G01*
D20*
X7127000Y-3879380D02*
X7227000Y-3979380D01*
X7227000Y-3879380D02*
X7127000Y-3979380D01*
X7177000Y-3979380D02*
X7227000Y-3929380D01*
X7177000Y-3879380D01*
X7127000Y-3929380D01*
X7177000Y-3979380D01*
D11*
X7307000Y-3889380D02*
X7047000Y-3889380D01*
X7307000Y-3969380D02*
X7047000Y-3969380D01*
X7047000Y-3889380D02*
G75*
G03*
X7047000Y-3969380I0J-40000D01*
G01*
X7307000Y-3969380D02*
G75*
G03*
X7307000Y-3889380I0J40000D01*
G01*
D20*
X8217700Y-4783620D02*
X8317700Y-4883620D01*
X8317700Y-4783620D02*
X8217700Y-4883620D01*
X8267700Y-4883620D02*
X8317700Y-4833620D01*
X8267700Y-4783620D01*
X8217700Y-4833620D01*
X8267700Y-4883620D01*
X8217700Y-5037620D02*
X8317700Y-5137620D01*
X8317700Y-5037620D02*
X8217700Y-5137620D01*
X8267700Y-5137620D02*
X8317700Y-5087620D01*
X8267700Y-5037620D01*
X8217700Y-5087620D01*
X8267700Y-5137620D01*
X8471700Y-4783620D02*
X8571700Y-4883620D01*
X8571700Y-4783620D02*
X8471700Y-4883620D01*
X8521700Y-4883620D02*
X8571700Y-4833620D01*
X8521700Y-4783620D01*
X8471700Y-4833620D01*
X8521700Y-4883620D01*
X8471700Y-5037620D02*
X8571700Y-5137620D01*
X8571700Y-5037620D02*
X8471700Y-5137620D01*
X8521700Y-5137620D02*
X8571700Y-5087620D01*
X8521700Y-5037620D01*
X8471700Y-5087620D01*
X8521700Y-5137620D01*
X10922800Y-3302800D02*
X11022800Y-3402800D01*
X11022800Y-3302800D02*
X10922800Y-3402800D01*
X10972800Y-3402800D02*
X11022800Y-3352800D01*
X10972800Y-3302800D01*
X10922800Y-3352800D01*
X10972800Y-3402800D01*
X11061300Y-3018800D02*
X11161300Y-3118800D01*
X11161300Y-3018800D02*
X11061300Y-3118800D01*
X11111300Y-3118800D02*
X11161300Y-3068800D01*
X11111300Y-3018800D01*
X11061300Y-3068800D01*
X11111300Y-3118800D01*
X11199800Y-3302800D02*
X11299800Y-3402800D01*
X11299800Y-3302800D02*
X11199800Y-3402800D01*
X11249800Y-3402800D02*
X11299800Y-3352800D01*
X11249800Y-3302800D01*
X11199800Y-3352800D01*
X11249800Y-3402800D01*
X11338300Y-3018800D02*
X11438300Y-3118800D01*
X11438300Y-3018800D02*
X11338300Y-3118800D01*
X11388300Y-3118800D02*
X11438300Y-3068800D01*
X11388300Y-3018800D01*
X11338300Y-3068800D01*
X11388300Y-3118800D01*
X11476800Y-3302800D02*
X11576800Y-3402800D01*
X11576800Y-3302800D02*
X11476800Y-3402800D01*
X11526800Y-3402800D02*
X11576800Y-3352800D01*
X11526800Y-3302800D01*
X11476800Y-3352800D01*
X11526800Y-3402800D01*
X11615300Y-3018800D02*
X11715300Y-3118800D01*
X11715300Y-3018800D02*
X11615300Y-3118800D01*
X11665300Y-3118800D02*
X11715300Y-3068800D01*
X11665300Y-3018800D01*
X11615300Y-3068800D01*
X11665300Y-3118800D01*
X11753800Y-3302800D02*
X11853800Y-3402800D01*
X11853800Y-3302800D02*
X11753800Y-3402800D01*
X11803800Y-3402800D02*
X11853800Y-3352800D01*
X11803800Y-3302800D01*
X11753800Y-3352800D01*
X11803800Y-3402800D01*
X11892300Y-3018800D02*
X11992300Y-3118800D01*
X11992300Y-3018800D02*
X11892300Y-3118800D01*
X11942300Y-3118800D02*
X11992300Y-3068800D01*
X11942300Y-3018800D01*
X11892300Y-3068800D01*
X11942300Y-3118800D01*
X12030800Y-3302800D02*
X12130800Y-3402800D01*
X12130800Y-3302800D02*
X12030800Y-3402800D01*
X12080800Y-3402800D02*
X12130800Y-3352800D01*
X12080800Y-3302800D01*
X12030800Y-3352800D01*
X12080800Y-3402800D01*
X13359920Y-3083840D02*
X13459920Y-3183840D01*
X13459920Y-3083840D02*
X13359920Y-3183840D01*
X13409920Y-3183840D02*
X13459920Y-3133840D01*
X13409920Y-3083840D01*
X13359920Y-3133840D01*
X13409920Y-3183840D01*
D11*
X13449920Y-3208840D02*
X13449920Y-3058840D01*
X13369920Y-3208840D02*
X13369920Y-3058840D01*
X13449920Y-3058840D02*
G75*
G03*
X13369920Y-3058840I-40000J0D01*
G01*
X13369920Y-3208840D02*
G75*
G03*
X13449920Y-3208840I40000J0D01*
G01*
D20*
X14044920Y-3003840D02*
X14144920Y-3103840D01*
X14144920Y-3003840D02*
X14044920Y-3103840D01*
X14094920Y-3103840D02*
X14144920Y-3053840D01*
X14094920Y-3003840D01*
X14044920Y-3053840D01*
X14094920Y-3103840D01*
D11*
X14194920Y-3013840D02*
X13994920Y-3013840D01*
X14194920Y-3093840D02*
X13994920Y-3093840D01*
X13994920Y-3013840D02*
G75*
G03*
X13994920Y-3093840I0J-40000D01*
G01*
X14194920Y-3093840D02*
G75*
G03*
X14194920Y-3013840I0J40000D01*
G01*
D20*
X14729920Y-3083840D02*
X14829920Y-3183840D01*
X14829920Y-3083840D02*
X14729920Y-3183840D01*
X14779920Y-3183840D02*
X14829920Y-3133840D01*
X14779920Y-3083840D01*
X14729920Y-3133840D01*
X14779920Y-3183840D01*
D11*
X14819920Y-3208840D02*
X14819920Y-3058840D01*
X14739920Y-3208840D02*
X14739920Y-3058840D01*
X14819920Y-3058840D02*
G75*
G03*
X14739920Y-3058840I-40000J0D01*
G01*
X14739920Y-3208840D02*
G75*
G03*
X14819920Y-3208840I40000J0D01*
G01*
D20*
X15021020Y-10595070D02*
X15121020Y-10695070D01*
X15121020Y-10595070D02*
X15021020Y-10695070D01*
X15071020Y-10695070D02*
X15121020Y-10645070D01*
X15071020Y-10595070D01*
X15021020Y-10645070D01*
X15071020Y-10695070D01*
X15021020Y-10849070D02*
X15121020Y-10949070D01*
X15121020Y-10849070D02*
X15021020Y-10949070D01*
X15071020Y-10949070D02*
X15121020Y-10899070D01*
X15071020Y-10849070D01*
X15021020Y-10899070D01*
X15071020Y-10949070D01*
X15021020Y-11103070D02*
X15121020Y-11203070D01*
X15121020Y-11103070D02*
X15021020Y-11203070D01*
X15071020Y-11203070D02*
X15121020Y-11153070D01*
X15071020Y-11103070D01*
X15021020Y-11153070D01*
X15071020Y-11203070D01*
X15275020Y-10595070D02*
X15375020Y-10695070D01*
X15375020Y-10595070D02*
X15275020Y-10695070D01*
X15325020Y-10695070D02*
X15375020Y-10645070D01*
X15325020Y-10595070D01*
X15275020Y-10645070D01*
X15325020Y-10695070D01*
X15275020Y-10849070D02*
X15375020Y-10949070D01*
X15375020Y-10849070D02*
X15275020Y-10949070D01*
X15325020Y-10949070D02*
X15375020Y-10899070D01*
X15325020Y-10849070D01*
X15275020Y-10899070D01*
X15325020Y-10949070D01*
X15275020Y-11103070D02*
X15375020Y-11203070D01*
X15375020Y-11103070D02*
X15275020Y-11203070D01*
X15325020Y-11203070D02*
X15375020Y-11153070D01*
X15325020Y-11103070D01*
X15275020Y-11153070D01*
X15325020Y-11203070D01*
X15403690Y-9905470D02*
X15503690Y-10005470D01*
X15503690Y-9905470D02*
X15403690Y-10005470D01*
X15453690Y-10005470D02*
X15503690Y-9955470D01*
X15453690Y-9905470D01*
X15403690Y-9955470D01*
X15453690Y-10005470D01*
X15647200Y-4626860D02*
X15747200Y-4726860D01*
X15747200Y-4626860D02*
X15647200Y-4726860D01*
X15697200Y-4726860D02*
X15747200Y-4676860D01*
X15697200Y-4626860D01*
X15647200Y-4676860D01*
X15697200Y-4726860D01*
X15647200Y-4903860D02*
X15747200Y-5003860D01*
X15747200Y-4903860D02*
X15647200Y-5003860D01*
X15697200Y-5003860D02*
X15747200Y-4953860D01*
X15697200Y-4903860D01*
X15647200Y-4953860D01*
X15697200Y-5003860D01*
X15647200Y-5180860D02*
X15747200Y-5280860D01*
X15747200Y-5180860D02*
X15647200Y-5280860D01*
X15697200Y-5280860D02*
X15747200Y-5230860D01*
X15697200Y-5180860D01*
X15647200Y-5230860D01*
X15697200Y-5280860D01*
X15647200Y-5457860D02*
X15747200Y-5557860D01*
X15747200Y-5457860D02*
X15647200Y-5557860D01*
X15697200Y-5557860D02*
X15747200Y-5507860D01*
X15697200Y-5457860D01*
X15647200Y-5507860D01*
X15697200Y-5557860D01*
X15647200Y-5734860D02*
X15747200Y-5834860D01*
X15747200Y-5734860D02*
X15647200Y-5834860D01*
X15697200Y-5834860D02*
X15747200Y-5784860D01*
X15697200Y-5734860D01*
X15647200Y-5784860D01*
X15697200Y-5834860D01*
X15657690Y-9905470D02*
X15757690Y-10005470D01*
X15757690Y-9905470D02*
X15657690Y-10005470D01*
X15707690Y-10005470D02*
X15757690Y-9955470D01*
X15707690Y-9905470D01*
X15657690Y-9955470D01*
X15707690Y-10005470D01*
X15911690Y-9905470D02*
X16011690Y-10005470D01*
X16011690Y-9905470D02*
X15911690Y-10005470D01*
X15961690Y-10005470D02*
X16011690Y-9955470D01*
X15961690Y-9905470D01*
X15911690Y-9955470D01*
X15961690Y-10005470D01*
X15931200Y-4765360D02*
X16031200Y-4865360D01*
X16031200Y-4765360D02*
X15931200Y-4865360D01*
X15981200Y-4865360D02*
X16031200Y-4815360D01*
X15981200Y-4765360D01*
X15931200Y-4815360D01*
X15981200Y-4865360D01*
X15931200Y-5042360D02*
X16031200Y-5142360D01*
X16031200Y-5042360D02*
X15931200Y-5142360D01*
X15981200Y-5142360D02*
X16031200Y-5092360D01*
X15981200Y-5042360D01*
X15931200Y-5092360D01*
X15981200Y-5142360D01*
X15931200Y-5319360D02*
X16031200Y-5419360D01*
X16031200Y-5319360D02*
X15931200Y-5419360D01*
X15981200Y-5419360D02*
X16031200Y-5369360D01*
X15981200Y-5319360D01*
X15931200Y-5369360D01*
X15981200Y-5419360D01*
X15931200Y-5596360D02*
X16031200Y-5696360D01*
X16031200Y-5596360D02*
X15931200Y-5696360D01*
X15981200Y-5696360D02*
X16031200Y-5646360D01*
X15981200Y-5596360D01*
X15931200Y-5646360D01*
X15981200Y-5696360D01*
X16165690Y-9905470D02*
X16265690Y-10005470D01*
X16265690Y-9905470D02*
X16165690Y-10005470D01*
X16215690Y-10005470D02*
X16265690Y-9955470D01*
X16215690Y-9905470D01*
X16165690Y-9955470D01*
X16215690Y-10005470D01*
D21*
X4023360Y-7114540D02*
X4023360Y-7216140D01*
X3972560Y-7165340D02*
X4074160Y-7165340D01*
X4074160Y-7165340D02*
G75*
G03*
X4074160Y-7165340I-50800J0D01*
G01*
X4716780Y-9011920D02*
X4716780Y-9113520D01*
X4665980Y-9062720D02*
X4767580Y-9062720D01*
X4767580Y-9062720D02*
G75*
G03*
X4767580Y-9062720I-50800J0D01*
G01*
X5201920Y-2951480D02*
X5201920Y-3053080D01*
X5151120Y-3002280D02*
X5252720Y-3002280D01*
X5252720Y-3002280D02*
G75*
G03*
X5252720Y-3002280I-50800J0D01*
G01*
X6461760Y-7614920D02*
X6461760Y-7716520D01*
X6410960Y-7665720D02*
X6512560Y-7665720D01*
X6512560Y-7665720D02*
G75*
G03*
X6512560Y-7665720I-50800J0D01*
G01*
X10089700Y-4066540D02*
X10089700Y-4168140D01*
X10038900Y-4117340D02*
X10140500Y-4117340D01*
X10140500Y-4117340D02*
G75*
G03*
X10140500Y-4117340I-50800J0D01*
G01*
X10546080Y-6522720D02*
X10546080Y-6624320D01*
X10495280Y-6573520D02*
X10596880Y-6573520D01*
X10596880Y-6573520D02*
G75*
G03*
X10596880Y-6573520I-50800J0D01*
G01*
X10713720Y-3644900D02*
X10713720Y-3746500D01*
X10662920Y-3695700D02*
X10764520Y-3695700D01*
X10764520Y-3695700D02*
G75*
G03*
X10764520Y-3695700I-50800J0D01*
G01*
X15562580Y-10365740D02*
X15562580Y-10467340D01*
X15511780Y-10416540D02*
X15613380Y-10416540D01*
X15613380Y-10416540D02*
G75*
G03*
X15613380Y-10416540I-50800J0D01*
G01*
D22*
X4214651Y-6959411D02*
X4214651Y-6881629D01*
X4136869Y-6881629D01*
X4136869Y-6959411D01*
X4214651Y-6959411D01*
X4230760Y-6920520D02*
G75*
G03*
X4230760Y-6920520I-55000J0D01*
G01*
X4468651Y-6959411D02*
X4468651Y-6881629D01*
X4390869Y-6881629D01*
X4390869Y-6959411D01*
X4468651Y-6959411D01*
X4484760Y-6920520D02*
G75*
G03*
X4484760Y-6920520I-55000J0D01*
G01*
X4722651Y-6959411D02*
X4722651Y-6881629D01*
X4644869Y-6881629D01*
X4644869Y-6959411D01*
X4722651Y-6959411D01*
X4738760Y-6920520D02*
G75*
G03*
X4738760Y-6920520I-55000J0D01*
G01*
X14262891Y-10706891D02*
X14262891Y-10629109D01*
X14185109Y-10629109D01*
X14185109Y-10706891D01*
X14262891Y-10706891D01*
X14279000Y-10668000D02*
G75*
G03*
X14279000Y-10668000I-55000J0D01*
G01*
X14262891Y-11214891D02*
X14262891Y-11137109D01*
X14185109Y-11137109D01*
X14185109Y-11214891D01*
X14262891Y-11214891D01*
X14279000Y-11176000D02*
G75*
G03*
X14279000Y-11176000I-55000J0D01*
G01*
X14516891Y-10706891D02*
X14516891Y-10629109D01*
X14439109Y-10629109D01*
X14439109Y-10706891D01*
X14516891Y-10706891D01*
X14533000Y-10668000D02*
G75*
G03*
X14533000Y-10668000I-55000J0D01*
G01*
X14770891Y-10706891D02*
X14770891Y-10629109D01*
X14693109Y-10629109D01*
X14693109Y-10706891D01*
X14770891Y-10706891D01*
X14787000Y-10668000D02*
G75*
G03*
X14787000Y-10668000I-55000J0D01*
G01*
X14770891Y-11214891D02*
X14770891Y-11137109D01*
X14693109Y-11137109D01*
X14693109Y-11214891D01*
X14770891Y-11214891D01*
X14787000Y-11176000D02*
G75*
G03*
X14787000Y-11176000I-55000J0D01*
G01*
D23*
X15621000Y-7160609D02*
X15681000Y-7100609D01*
X15621000Y-7040609D01*
X15561000Y-7100609D01*
X15621000Y-7160609D01*
X15681000Y-7100609D02*
G75*
G03*
X15681000Y-7100609I-60000J0D01*
G01*
X15621000Y-7510609D02*
X15681000Y-7450609D01*
X15621000Y-7390609D01*
X15561000Y-7450609D01*
X15621000Y-7510609D01*
X15681000Y-7450609D02*
G75*
G03*
X15681000Y-7450609I-60000J0D01*
G01*
X15621000Y-7860609D02*
X15681000Y-7800609D01*
X15621000Y-7740609D01*
X15561000Y-7800609D01*
X15621000Y-7860609D01*
X15681000Y-7800609D02*
G75*
G03*
X15681000Y-7800609I-60000J0D01*
G01*
D24*
X8013700Y-3754120D02*
X8013700Y-3886200D01*
X7947660Y-3820160D02*
X8079740Y-3820160D01*
X8060398Y-3866858D02*
X8060398Y-3773462D01*
X7967002Y-3773462D01*
X7967002Y-3866858D01*
X8060398Y-3866858D01*
X8267700Y-4008120D02*
X8267700Y-4140200D01*
X8201660Y-4074160D02*
X8333740Y-4074160D01*
X8314398Y-4120858D02*
X8314398Y-4027462D01*
X8221002Y-4027462D01*
X8221002Y-4120858D01*
X8314398Y-4120858D01*
X8521700Y-2738120D02*
X8521700Y-2870200D01*
X8455660Y-2804160D02*
X8587740Y-2804160D01*
X8568398Y-2850858D02*
X8568398Y-2757462D01*
X8475002Y-2757462D01*
X8475002Y-2850858D01*
X8568398Y-2850858D01*
X8775700Y-3754120D02*
X8775700Y-3886200D01*
X8709660Y-3820160D02*
X8841740Y-3820160D01*
X8822398Y-3866858D02*
X8822398Y-3773462D01*
X8729002Y-3773462D01*
X8729002Y-3866858D01*
X8822398Y-3866858D01*
X9029700Y-2738120D02*
X9029700Y-2870200D01*
X8963660Y-2804160D02*
X9095740Y-2804160D01*
X9076398Y-2850858D02*
X9076398Y-2757462D01*
X8983002Y-2757462D01*
X8983002Y-2850858D01*
X9076398Y-2850858D01*
X9283700Y-4008120D02*
X9283700Y-4140200D01*
X9217660Y-4074160D02*
X9349740Y-4074160D01*
X9330398Y-4120858D02*
X9330398Y-4027462D01*
X9237002Y-4027462D01*
X9237002Y-4120858D01*
X9330398Y-4120858D01*
X9537700Y-3754120D02*
X9537700Y-3886200D01*
X9471660Y-3820160D02*
X9603740Y-3820160D01*
X9584398Y-3866858D02*
X9584398Y-3773462D01*
X9491002Y-3773462D01*
X9491002Y-3866858D01*
X9584398Y-3866858D01*
D25*
X7520000Y-9582000D02*
X7520000Y-9722000D01*
X7450000Y-9652000D02*
X7590000Y-9652000D01*
X7520000Y-9722000D02*
X7590000Y-9652000D01*
X7520000Y-9582000D01*
X7450000Y-9652000D01*
X7520000Y-9722000D01*
X7520000Y-10202000D02*
X7520000Y-10342000D01*
X7450000Y-10272000D02*
X7590000Y-10272000D01*
X7520000Y-10342000D02*
X7590000Y-10272000D01*
X7520000Y-10202000D01*
X7450000Y-10272000D01*
X7520000Y-10342000D01*
X7520000Y-10852000D02*
X7520000Y-10992000D01*
X7450000Y-10922000D02*
X7590000Y-10922000D01*
X7520000Y-10992000D02*
X7590000Y-10922000D01*
X7520000Y-10852000D01*
X7450000Y-10922000D01*
X7520000Y-10992000D01*
X8660000Y-9582000D02*
X8660000Y-9722000D01*
X8590000Y-9652000D02*
X8730000Y-9652000D01*
X8660000Y-9722000D02*
X8730000Y-9652000D01*
X8660000Y-9582000D01*
X8590000Y-9652000D01*
X8660000Y-9722000D01*
X8660000Y-10217000D02*
X8660000Y-10357000D01*
X8590000Y-10287000D02*
X8730000Y-10287000D01*
X8660000Y-10357000D02*
X8730000Y-10287000D01*
X8660000Y-10217000D01*
X8590000Y-10287000D01*
X8660000Y-10357000D01*
X8660000Y-10852000D02*
X8660000Y-10992000D01*
X8590000Y-10922000D02*
X8730000Y-10922000D01*
X8660000Y-10992000D02*
X8730000Y-10922000D01*
X8660000Y-10852000D01*
X8590000Y-10922000D01*
X8660000Y-10992000D01*
X9552000Y-9582000D02*
X9552000Y-9722000D01*
X9482000Y-9652000D02*
X9622000Y-9652000D01*
X9552000Y-9722000D02*
X9622000Y-9652000D01*
X9552000Y-9582000D01*
X9482000Y-9652000D01*
X9552000Y-9722000D01*
X9552000Y-10202000D02*
X9552000Y-10342000D01*
X9482000Y-10272000D02*
X9622000Y-10272000D01*
X9552000Y-10342000D02*
X9622000Y-10272000D01*
X9552000Y-10202000D01*
X9482000Y-10272000D01*
X9552000Y-10342000D01*
X9552000Y-10852000D02*
X9552000Y-10992000D01*
X9482000Y-10922000D02*
X9622000Y-10922000D01*
X9552000Y-10992000D02*
X9622000Y-10922000D01*
X9552000Y-10852000D01*
X9482000Y-10922000D01*
X9552000Y-10992000D01*
X10692000Y-9582000D02*
X10692000Y-9722000D01*
X10622000Y-9652000D02*
X10762000Y-9652000D01*
X10692000Y-9722000D02*
X10762000Y-9652000D01*
X10692000Y-9582000D01*
X10622000Y-9652000D01*
X10692000Y-9722000D01*
X10692000Y-10217000D02*
X10692000Y-10357000D01*
X10622000Y-10287000D02*
X10762000Y-10287000D01*
X10692000Y-10357000D02*
X10762000Y-10287000D01*
X10692000Y-10217000D01*
X10622000Y-10287000D01*
X10692000Y-10357000D01*
X10692000Y-10852000D02*
X10692000Y-10992000D01*
X10622000Y-10922000D02*
X10762000Y-10922000D01*
X10692000Y-10992000D02*
X10762000Y-10922000D01*
X10692000Y-10852000D01*
X10622000Y-10922000D01*
X10692000Y-10992000D01*
D26*
X5032600Y-10070160D02*
X5147600Y-9955160D01*
X5032600Y-9840160D01*
X4917600Y-9955160D01*
X5032600Y-10070160D01*
X5113918Y-10036478D02*
X5113918Y-9873842D01*
X4951282Y-9873842D01*
X4951282Y-10036478D01*
X5113918Y-10036478D01*
X5032600Y-10638160D02*
X5147600Y-10523160D01*
X5032600Y-10408160D01*
X4917600Y-10523160D01*
X5032600Y-10638160D01*
X5113918Y-10604478D02*
X5113918Y-10441842D01*
X4951282Y-10441842D01*
X4951282Y-10604478D01*
X5113918Y-10604478D01*
X5066740Y-3713890D02*
X5181740Y-3598890D01*
X5066740Y-3483890D01*
X4951740Y-3598890D01*
X5066740Y-3713890D01*
X5148058Y-3680208D02*
X5148058Y-3517572D01*
X4985422Y-3517572D01*
X4985422Y-3680208D01*
X5148058Y-3680208D01*
X6266740Y-3713890D02*
X6381740Y-3598890D01*
X6266740Y-3483890D01*
X6151740Y-3598890D01*
X6266740Y-3713890D01*
X6348058Y-3680208D02*
X6348058Y-3517572D01*
X6185422Y-3517572D01*
X6185422Y-3680208D01*
X6348058Y-3680208D01*
X6346600Y-10070160D02*
X6461600Y-9955160D01*
X6346600Y-9840160D01*
X6231600Y-9955160D01*
X6346600Y-10070160D01*
X6427918Y-10036478D02*
X6427918Y-9873842D01*
X6265282Y-9873842D01*
X6265282Y-10036478D01*
X6427918Y-10036478D01*
X6346600Y-10638160D02*
X6461600Y-10523160D01*
X6346600Y-10408160D01*
X6231600Y-10523160D01*
X6346600Y-10638160D01*
X6427918Y-10604478D02*
X6427918Y-10441842D01*
X6265282Y-10441842D01*
X6265282Y-10604478D01*
X6427918Y-10604478D01*
D27*
X10116800Y-3162800D02*
X10436800Y-3482800D01*
X10436800Y-3162800D02*
X10116800Y-3482800D01*
X10276800Y-3162800D02*
X10276800Y-3482800D01*
X10116800Y-3322800D02*
X10436800Y-3322800D01*
X10436800Y-3322800D02*
G75*
G03*
X10436800Y-3322800I-160000J0D01*
G01*
X12616800Y-3162800D02*
X12936800Y-3482800D01*
X12936800Y-3162800D02*
X12616800Y-3482800D01*
X12776800Y-3162800D02*
X12776800Y-3482800D01*
X12616800Y-3322800D02*
X12936800Y-3322800D01*
X12936800Y-3322800D02*
G75*
G03*
X12936800Y-3322800I-160000J0D01*
G01*
X15567200Y-3820860D02*
X15887200Y-4140860D01*
X15887200Y-3820860D02*
X15567200Y-4140860D01*
X15727200Y-3820860D02*
X15727200Y-4140860D01*
X15567200Y-3980860D02*
X15887200Y-3980860D01*
X15887200Y-3980860D02*
G75*
G03*
X15887200Y-3980860I-160000J0D01*
G01*
X15567200Y-6320860D02*
X15887200Y-6640860D01*
X15887200Y-6320860D02*
X15567200Y-6640860D01*
X15727200Y-6320860D02*
X15727200Y-6640860D01*
X15567200Y-6480860D02*
X15887200Y-6480860D01*
X15887200Y-6480860D02*
G75*
G03*
X15887200Y-6480860I-160000J0D01*
G01*
D11*
X4057619Y-11874936D02*
X4057619Y-11674936D01*
X4105238Y-11674936D01*
X4133809Y-11684460D01*
X4152857Y-11703508D01*
X4162381Y-11722555D01*
X4171905Y-11760650D01*
X4171905Y-11789222D01*
X4162381Y-11827317D01*
X4152857Y-11846365D01*
X4133809Y-11865412D01*
X4105238Y-11874936D01*
X4057619Y-11874936D01*
X4257619Y-11874936D02*
X4257619Y-11741603D01*
X4257619Y-11779698D02*
X4267143Y-11760650D01*
X4276667Y-11751127D01*
X4295714Y-11741603D01*
X4314762Y-11741603D01*
X4381429Y-11874936D02*
X4381429Y-11741603D01*
X4381429Y-11674936D02*
X4371905Y-11684460D01*
X4381429Y-11693984D01*
X4390952Y-11684460D01*
X4381429Y-11674936D01*
X4381429Y-11693984D01*
X4505238Y-11874936D02*
X4486190Y-11865412D01*
X4476667Y-11846365D01*
X4476667Y-11674936D01*
X4610000Y-11874936D02*
X4590952Y-11865412D01*
X4581429Y-11846365D01*
X4581429Y-11674936D01*
X4838571Y-11874936D02*
X4838571Y-11674936D01*
X4905238Y-11817793D01*
X4971905Y-11674936D01*
X4971905Y-11874936D01*
X5152857Y-11874936D02*
X5152857Y-11770174D01*
X5143333Y-11751127D01*
X5124286Y-11741603D01*
X5086190Y-11741603D01*
X5067143Y-11751127D01*
X5152857Y-11865412D02*
X5133810Y-11874936D01*
X5086190Y-11874936D01*
X5067143Y-11865412D01*
X5057619Y-11846365D01*
X5057619Y-11827317D01*
X5067143Y-11808269D01*
X5086190Y-11798746D01*
X5133810Y-11798746D01*
X5152857Y-11789222D01*
X5248095Y-11741603D02*
X5248095Y-11941603D01*
X5248095Y-11751127D02*
X5267143Y-11741603D01*
X5305238Y-11741603D01*
X5324286Y-11751127D01*
X5333810Y-11760650D01*
X5343333Y-11779698D01*
X5343333Y-11836841D01*
X5333810Y-11855888D01*
X5324286Y-11865412D01*
X5305238Y-11874936D01*
X5267143Y-11874936D01*
X5248095Y-11865412D01*
X5429048Y-11855888D02*
X5438571Y-11865412D01*
X5429048Y-11874936D01*
X5419524Y-11865412D01*
X5429048Y-11855888D01*
X5429048Y-11874936D01*
X5429048Y-11751127D02*
X5438571Y-11760650D01*
X5429048Y-11770174D01*
X5419524Y-11760650D01*
X5429048Y-11751127D01*
X5429048Y-11770174D01*
D12*
X3769520Y-12189220D02*
X3800000Y-12219700D01*
X3800000Y-12189220D02*
X3769520Y-12219700D01*
D11*
X4095714Y-12094936D02*
X4114762Y-12094936D01*
X4133809Y-12104460D01*
X4143333Y-12113984D01*
X4152857Y-12133031D01*
X4162381Y-12171127D01*
X4162381Y-12218746D01*
X4152857Y-12256841D01*
X4143333Y-12275888D01*
X4133809Y-12285412D01*
X4114762Y-12294936D01*
X4095714Y-12294936D01*
X4076667Y-12285412D01*
X4067143Y-12275888D01*
X4057619Y-12256841D01*
X4048095Y-12218746D01*
X4048095Y-12171127D01*
X4057619Y-12133031D01*
X4067143Y-12113984D01*
X4076667Y-12104460D01*
X4095714Y-12094936D01*
X4248095Y-12275888D02*
X4257619Y-12285412D01*
X4248095Y-12294936D01*
X4238571Y-12285412D01*
X4248095Y-12275888D01*
X4248095Y-12294936D01*
X4324286Y-12094936D02*
X4448095Y-12094936D01*
X4381429Y-12171127D01*
X4410000Y-12171127D01*
X4429048Y-12180650D01*
X4438571Y-12190174D01*
X4448095Y-12209222D01*
X4448095Y-12256841D01*
X4438571Y-12275888D01*
X4429048Y-12285412D01*
X4410000Y-12294936D01*
X4352857Y-12294936D01*
X4333810Y-12285412D01*
X4324286Y-12275888D01*
X4571905Y-12094936D02*
X4590952Y-12094936D01*
X4610000Y-12104460D01*
X4619524Y-12113984D01*
X4629048Y-12133031D01*
X4638571Y-12171127D01*
X4638571Y-12218746D01*
X4629048Y-12256841D01*
X4619524Y-12275888D01*
X4610000Y-12285412D01*
X4590952Y-12294936D01*
X4571905Y-12294936D01*
X4552857Y-12285412D01*
X4543333Y-12275888D01*
X4533810Y-12256841D01*
X4524286Y-12218746D01*
X4524286Y-12171127D01*
X4533810Y-12133031D01*
X4543333Y-12113984D01*
X4552857Y-12104460D01*
X4571905Y-12094936D01*
X4819524Y-12094936D02*
X4724286Y-12094936D01*
X4714762Y-12190174D01*
X4724286Y-12180650D01*
X4743333Y-12171127D01*
X4790952Y-12171127D01*
X4810000Y-12180650D01*
X4819524Y-12190174D01*
X4829048Y-12209222D01*
X4829048Y-12256841D01*
X4819524Y-12275888D01*
X4810000Y-12285412D01*
X4790952Y-12294936D01*
X4743333Y-12294936D01*
X4724286Y-12285412D01*
X4714762Y-12275888D01*
X4914762Y-12294936D02*
X4914762Y-12161603D01*
X4914762Y-12180650D02*
X4924286Y-12171127D01*
X4943333Y-12161603D01*
X4971905Y-12161603D01*
X4990952Y-12171127D01*
X5000476Y-12190174D01*
X5000476Y-12294936D01*
X5000476Y-12190174D02*
X5010000Y-12171127D01*
X5029048Y-12161603D01*
X5057619Y-12161603D01*
X5076667Y-12171127D01*
X5086190Y-12190174D01*
X5086190Y-12294936D01*
X5181429Y-12294936D02*
X5181429Y-12161603D01*
X5181429Y-12180650D02*
X5190952Y-12171127D01*
X5210000Y-12161603D01*
X5238571Y-12161603D01*
X5257619Y-12171127D01*
X5267143Y-12190174D01*
X5267143Y-12294936D01*
X5267143Y-12190174D02*
X5276667Y-12171127D01*
X5295714Y-12161603D01*
X5324286Y-12161603D01*
X5343333Y-12171127D01*
X5352857Y-12190174D01*
X5352857Y-12294936D01*
X5743333Y-12085412D02*
X5571905Y-12342555D01*
X6000476Y-12094936D02*
X6019524Y-12094936D01*
X6038571Y-12104460D01*
X6048095Y-12113984D01*
X6057619Y-12133031D01*
X6067143Y-12171127D01*
X6067143Y-12218746D01*
X6057619Y-12256841D01*
X6048095Y-12275888D01*
X6038571Y-12285412D01*
X6019524Y-12294936D01*
X6000476Y-12294936D01*
X5981428Y-12285412D01*
X5971905Y-12275888D01*
X5962381Y-12256841D01*
X5952857Y-12218746D01*
X5952857Y-12171127D01*
X5962381Y-12133031D01*
X5971905Y-12113984D01*
X5981428Y-12104460D01*
X6000476Y-12094936D01*
X6152857Y-12275888D02*
X6162381Y-12285412D01*
X6152857Y-12294936D01*
X6143333Y-12285412D01*
X6152857Y-12275888D01*
X6152857Y-12294936D01*
X6286190Y-12094936D02*
X6305238Y-12094936D01*
X6324286Y-12104460D01*
X6333809Y-12113984D01*
X6343333Y-12133031D01*
X6352857Y-12171127D01*
X6352857Y-12218746D01*
X6343333Y-12256841D01*
X6333809Y-12275888D01*
X6324286Y-12285412D01*
X6305238Y-12294936D01*
X6286190Y-12294936D01*
X6267143Y-12285412D01*
X6257619Y-12275888D01*
X6248095Y-12256841D01*
X6238571Y-12218746D01*
X6238571Y-12171127D01*
X6248095Y-12133031D01*
X6257619Y-12113984D01*
X6267143Y-12104460D01*
X6286190Y-12094936D01*
X6543333Y-12294936D02*
X6429048Y-12294936D01*
X6486190Y-12294936D02*
X6486190Y-12094936D01*
X6467143Y-12123508D01*
X6448095Y-12142555D01*
X6429048Y-12152079D01*
X6619524Y-12113984D02*
X6629048Y-12104460D01*
X6648095Y-12094936D01*
X6695714Y-12094936D01*
X6714762Y-12104460D01*
X6724286Y-12113984D01*
X6733809Y-12133031D01*
X6733809Y-12152079D01*
X6724286Y-12180650D01*
X6610000Y-12294936D01*
X6733809Y-12294936D01*
X6857619Y-12094936D02*
X6876667Y-12094936D01*
X6895714Y-12104460D01*
X6905238Y-12113984D01*
X6914762Y-12133031D01*
X6924286Y-12171127D01*
X6924286Y-12218746D01*
X6914762Y-12256841D01*
X6905238Y-12275888D01*
X6895714Y-12285412D01*
X6876667Y-12294936D01*
X6857619Y-12294936D01*
X6838571Y-12285412D01*
X6829048Y-12275888D01*
X6819524Y-12256841D01*
X6810000Y-12218746D01*
X6810000Y-12171127D01*
X6819524Y-12133031D01*
X6829048Y-12113984D01*
X6838571Y-12104460D01*
X6857619Y-12094936D01*
X7000476Y-12094936D02*
X7000476Y-12133031D01*
X7076667Y-12094936D02*
X7076667Y-12133031D01*
X7371905Y-12371127D02*
X7362381Y-12361603D01*
X7343333Y-12333031D01*
X7333809Y-12313984D01*
X7324286Y-12285412D01*
X7314762Y-12237793D01*
X7314762Y-12199698D01*
X7324286Y-12152079D01*
X7333809Y-12123508D01*
X7343333Y-12104460D01*
X7362381Y-12075888D01*
X7371905Y-12066365D01*
X7533809Y-12094936D02*
X7495714Y-12094936D01*
X7476667Y-12104460D01*
X7467143Y-12113984D01*
X7448095Y-12142555D01*
X7438571Y-12180650D01*
X7438571Y-12256841D01*
X7448095Y-12275888D01*
X7457619Y-12285412D01*
X7476667Y-12294936D01*
X7514762Y-12294936D01*
X7533809Y-12285412D01*
X7543333Y-12275888D01*
X7552857Y-12256841D01*
X7552857Y-12209222D01*
X7543333Y-12190174D01*
X7533809Y-12180650D01*
X7514762Y-12171127D01*
X7476667Y-12171127D01*
X7457619Y-12180650D01*
X7448095Y-12190174D01*
X7438571Y-12209222D01*
X7648095Y-12294936D02*
X7686190Y-12294936D01*
X7705238Y-12285412D01*
X7714762Y-12275888D01*
X7733809Y-12247317D01*
X7743333Y-12209222D01*
X7743333Y-12133031D01*
X7733809Y-12113984D01*
X7724286Y-12104460D01*
X7705238Y-12094936D01*
X7667143Y-12094936D01*
X7648095Y-12104460D01*
X7638571Y-12113984D01*
X7629048Y-12133031D01*
X7629048Y-12180650D01*
X7638571Y-12199698D01*
X7648095Y-12209222D01*
X7667143Y-12218746D01*
X7705238Y-12218746D01*
X7724286Y-12209222D01*
X7733809Y-12199698D01*
X7743333Y-12180650D01*
X7981428Y-12294936D02*
X7981428Y-12094936D01*
X8067143Y-12294936D02*
X8067143Y-12190174D01*
X8057619Y-12171127D01*
X8038571Y-12161603D01*
X8010000Y-12161603D01*
X7990952Y-12171127D01*
X7981428Y-12180650D01*
X8190952Y-12294936D02*
X8171905Y-12285412D01*
X8162381Y-12275888D01*
X8152857Y-12256841D01*
X8152857Y-12199698D01*
X8162381Y-12180650D01*
X8171905Y-12171127D01*
X8190952Y-12161603D01*
X8219524Y-12161603D01*
X8238571Y-12171127D01*
X8248095Y-12180650D01*
X8257619Y-12199698D01*
X8257619Y-12256841D01*
X8248095Y-12275888D01*
X8238571Y-12285412D01*
X8219524Y-12294936D01*
X8190952Y-12294936D01*
X8371905Y-12294936D02*
X8352857Y-12285412D01*
X8343333Y-12266365D01*
X8343333Y-12094936D01*
X8524286Y-12285412D02*
X8505238Y-12294936D01*
X8467143Y-12294936D01*
X8448095Y-12285412D01*
X8438571Y-12266365D01*
X8438571Y-12190174D01*
X8448095Y-12171127D01*
X8467143Y-12161603D01*
X8505238Y-12161603D01*
X8524286Y-12171127D01*
X8533810Y-12190174D01*
X8533810Y-12209222D01*
X8438571Y-12228269D01*
X8610000Y-12285412D02*
X8629048Y-12294936D01*
X8667143Y-12294936D01*
X8686190Y-12285412D01*
X8695714Y-12266365D01*
X8695714Y-12256841D01*
X8686190Y-12237793D01*
X8667143Y-12228269D01*
X8638571Y-12228269D01*
X8619524Y-12218746D01*
X8610000Y-12199698D01*
X8610000Y-12190174D01*
X8619524Y-12171127D01*
X8638571Y-12161603D01*
X8667143Y-12161603D01*
X8686190Y-12171127D01*
X8762381Y-12371127D02*
X8771905Y-12361603D01*
X8790952Y-12333031D01*
X8800476Y-12313984D01*
X8810000Y-12285412D01*
X8819524Y-12237793D01*
X8819524Y-12199698D01*
X8810000Y-12152079D01*
X8800476Y-12123508D01*
X8790952Y-12104460D01*
X8771905Y-12075888D01*
X8762381Y-12066365D01*
D13*
X3800000Y-12468460D02*
G75*
G03*
X3800000Y-12468460I-20320J0D01*
G01*
D11*
X4095714Y-12358936D02*
X4114762Y-12358936D01*
X4133809Y-12368460D01*
X4143333Y-12377984D01*
X4152857Y-12397031D01*
X4162381Y-12435127D01*
X4162381Y-12482746D01*
X4152857Y-12520841D01*
X4143333Y-12539888D01*
X4133809Y-12549412D01*
X4114762Y-12558936D01*
X4095714Y-12558936D01*
X4076667Y-12549412D01*
X4067143Y-12539888D01*
X4057619Y-12520841D01*
X4048095Y-12482746D01*
X4048095Y-12435127D01*
X4057619Y-12397031D01*
X4067143Y-12377984D01*
X4076667Y-12368460D01*
X4095714Y-12358936D01*
X4248095Y-12539888D02*
X4257619Y-12549412D01*
X4248095Y-12558936D01*
X4238571Y-12549412D01*
X4248095Y-12539888D01*
X4248095Y-12558936D01*
X4429048Y-12425603D02*
X4429048Y-12558936D01*
X4381429Y-12349412D02*
X4333810Y-12492269D01*
X4457619Y-12492269D01*
X4571905Y-12358936D02*
X4590952Y-12358936D01*
X4610000Y-12368460D01*
X4619524Y-12377984D01*
X4629048Y-12397031D01*
X4638571Y-12435127D01*
X4638571Y-12482746D01*
X4629048Y-12520841D01*
X4619524Y-12539888D01*
X4610000Y-12549412D01*
X4590952Y-12558936D01*
X4571905Y-12558936D01*
X4552857Y-12549412D01*
X4543333Y-12539888D01*
X4533810Y-12520841D01*
X4524286Y-12482746D01*
X4524286Y-12435127D01*
X4533810Y-12397031D01*
X4543333Y-12377984D01*
X4552857Y-12368460D01*
X4571905Y-12358936D01*
X4810000Y-12358936D02*
X4771905Y-12358936D01*
X4752857Y-12368460D01*
X4743333Y-12377984D01*
X4724286Y-12406555D01*
X4714762Y-12444650D01*
X4714762Y-12520841D01*
X4724286Y-12539888D01*
X4733810Y-12549412D01*
X4752857Y-12558936D01*
X4790952Y-12558936D01*
X4810000Y-12549412D01*
X4819524Y-12539888D01*
X4829048Y-12520841D01*
X4829048Y-12473222D01*
X4819524Y-12454174D01*
X4810000Y-12444650D01*
X4790952Y-12435127D01*
X4752857Y-12435127D01*
X4733810Y-12444650D01*
X4724286Y-12454174D01*
X4714762Y-12473222D01*
X4914762Y-12558936D02*
X4914762Y-12425603D01*
X4914762Y-12444650D02*
X4924286Y-12435127D01*
X4943333Y-12425603D01*
X4971905Y-12425603D01*
X4990952Y-12435127D01*
X5000476Y-12454174D01*
X5000476Y-12558936D01*
X5000476Y-12454174D02*
X5010000Y-12435127D01*
X5029048Y-12425603D01*
X5057619Y-12425603D01*
X5076667Y-12435127D01*
X5086190Y-12454174D01*
X5086190Y-12558936D01*
X5181429Y-12558936D02*
X5181429Y-12425603D01*
X5181429Y-12444650D02*
X5190952Y-12435127D01*
X5210000Y-12425603D01*
X5238571Y-12425603D01*
X5257619Y-12435127D01*
X5267143Y-12454174D01*
X5267143Y-12558936D01*
X5267143Y-12454174D02*
X5276667Y-12435127D01*
X5295714Y-12425603D01*
X5324286Y-12425603D01*
X5343333Y-12435127D01*
X5352857Y-12454174D01*
X5352857Y-12558936D01*
X5743333Y-12349412D02*
X5571905Y-12606555D01*
X6000476Y-12358936D02*
X6019524Y-12358936D01*
X6038571Y-12368460D01*
X6048095Y-12377984D01*
X6057619Y-12397031D01*
X6067143Y-12435127D01*
X6067143Y-12482746D01*
X6057619Y-12520841D01*
X6048095Y-12539888D01*
X6038571Y-12549412D01*
X6019524Y-12558936D01*
X6000476Y-12558936D01*
X5981428Y-12549412D01*
X5971905Y-12539888D01*
X5962381Y-12520841D01*
X5952857Y-12482746D01*
X5952857Y-12435127D01*
X5962381Y-12397031D01*
X5971905Y-12377984D01*
X5981428Y-12368460D01*
X6000476Y-12358936D01*
X6152857Y-12539888D02*
X6162381Y-12549412D01*
X6152857Y-12558936D01*
X6143333Y-12549412D01*
X6152857Y-12539888D01*
X6152857Y-12558936D01*
X6286190Y-12358936D02*
X6305238Y-12358936D01*
X6324286Y-12368460D01*
X6333809Y-12377984D01*
X6343333Y-12397031D01*
X6352857Y-12435127D01*
X6352857Y-12482746D01*
X6343333Y-12520841D01*
X6333809Y-12539888D01*
X6324286Y-12549412D01*
X6305238Y-12558936D01*
X6286190Y-12558936D01*
X6267143Y-12549412D01*
X6257619Y-12539888D01*
X6248095Y-12520841D01*
X6238571Y-12482746D01*
X6238571Y-12435127D01*
X6248095Y-12397031D01*
X6257619Y-12377984D01*
X6267143Y-12368460D01*
X6286190Y-12358936D01*
X6543333Y-12558936D02*
X6429048Y-12558936D01*
X6486190Y-12558936D02*
X6486190Y-12358936D01*
X6467143Y-12387508D01*
X6448095Y-12406555D01*
X6429048Y-12416079D01*
X6714762Y-12358936D02*
X6676667Y-12358936D01*
X6657619Y-12368460D01*
X6648095Y-12377984D01*
X6629048Y-12406555D01*
X6619524Y-12444650D01*
X6619524Y-12520841D01*
X6629048Y-12539888D01*
X6638571Y-12549412D01*
X6657619Y-12558936D01*
X6695714Y-12558936D01*
X6714762Y-12549412D01*
X6724286Y-12539888D01*
X6733809Y-12520841D01*
X6733809Y-12473222D01*
X6724286Y-12454174D01*
X6714762Y-12444650D01*
X6695714Y-12435127D01*
X6657619Y-12435127D01*
X6638571Y-12444650D01*
X6629048Y-12454174D01*
X6619524Y-12473222D01*
X6857619Y-12358936D02*
X6876667Y-12358936D01*
X6895714Y-12368460D01*
X6905238Y-12377984D01*
X6914762Y-12397031D01*
X6924286Y-12435127D01*
X6924286Y-12482746D01*
X6914762Y-12520841D01*
X6905238Y-12539888D01*
X6895714Y-12549412D01*
X6876667Y-12558936D01*
X6857619Y-12558936D01*
X6838571Y-12549412D01*
X6829048Y-12539888D01*
X6819524Y-12520841D01*
X6810000Y-12482746D01*
X6810000Y-12435127D01*
X6819524Y-12397031D01*
X6829048Y-12377984D01*
X6838571Y-12368460D01*
X6857619Y-12358936D01*
X7000476Y-12358936D02*
X7000476Y-12397031D01*
X7076667Y-12358936D02*
X7076667Y-12397031D01*
X7371905Y-12635127D02*
X7362381Y-12625603D01*
X7343333Y-12597031D01*
X7333809Y-12577984D01*
X7324286Y-12549412D01*
X7314762Y-12501793D01*
X7314762Y-12463698D01*
X7324286Y-12416079D01*
X7333809Y-12387508D01*
X7343333Y-12368460D01*
X7362381Y-12339888D01*
X7371905Y-12330365D01*
X7438571Y-12377984D02*
X7448095Y-12368460D01*
X7467143Y-12358936D01*
X7514762Y-12358936D01*
X7533809Y-12368460D01*
X7543333Y-12377984D01*
X7552857Y-12397031D01*
X7552857Y-12416079D01*
X7543333Y-12444650D01*
X7429048Y-12558936D01*
X7552857Y-12558936D01*
X7619524Y-12358936D02*
X7743333Y-12358936D01*
X7676667Y-12435127D01*
X7705238Y-12435127D01*
X7724286Y-12444650D01*
X7733809Y-12454174D01*
X7743333Y-12473222D01*
X7743333Y-12520841D01*
X7733809Y-12539888D01*
X7724286Y-12549412D01*
X7705238Y-12558936D01*
X7648095Y-12558936D01*
X7629048Y-12549412D01*
X7619524Y-12539888D01*
X7810000Y-12358936D02*
X7933809Y-12358936D01*
X7867143Y-12435127D01*
X7895714Y-12435127D01*
X7914762Y-12444650D01*
X7924286Y-12454174D01*
X7933809Y-12473222D01*
X7933809Y-12520841D01*
X7924286Y-12539888D01*
X7914762Y-12549412D01*
X7895714Y-12558936D01*
X7838571Y-12558936D01*
X7819524Y-12549412D01*
X7810000Y-12539888D01*
X8171905Y-12558936D02*
X8171905Y-12358936D01*
X8257619Y-12558936D02*
X8257619Y-12454174D01*
X8248095Y-12435127D01*
X8229048Y-12425603D01*
X8200476Y-12425603D01*
X8181428Y-12435127D01*
X8171905Y-12444650D01*
X8381428Y-12558936D02*
X8362381Y-12549412D01*
X8352857Y-12539888D01*
X8343333Y-12520841D01*
X8343333Y-12463698D01*
X8352857Y-12444650D01*
X8362381Y-12435127D01*
X8381428Y-12425603D01*
X8410000Y-12425603D01*
X8429048Y-12435127D01*
X8438571Y-12444650D01*
X8448095Y-12463698D01*
X8448095Y-12520841D01*
X8438571Y-12539888D01*
X8429048Y-12549412D01*
X8410000Y-12558936D01*
X8381428Y-12558936D01*
X8562381Y-12558936D02*
X8543333Y-12549412D01*
X8533810Y-12530365D01*
X8533810Y-12358936D01*
X8714762Y-12549412D02*
X8695714Y-12558936D01*
X8657619Y-12558936D01*
X8638571Y-12549412D01*
X8629048Y-12530365D01*
X8629048Y-12454174D01*
X8638571Y-12435127D01*
X8657619Y-12425603D01*
X8695714Y-12425603D01*
X8714762Y-12435127D01*
X8724286Y-12454174D01*
X8724286Y-12473222D01*
X8629048Y-12492269D01*
X8800476Y-12549412D02*
X8819524Y-12558936D01*
X8857619Y-12558936D01*
X8876667Y-12549412D01*
X8886190Y-12530365D01*
X8886190Y-12520841D01*
X8876667Y-12501793D01*
X8857619Y-12492269D01*
X8829048Y-12492269D01*
X8810000Y-12482746D01*
X8800476Y-12463698D01*
X8800476Y-12454174D01*
X8810000Y-12435127D01*
X8829048Y-12425603D01*
X8857619Y-12425603D01*
X8876667Y-12435127D01*
X8952857Y-12635127D02*
X8962381Y-12625603D01*
X8981429Y-12597031D01*
X8990952Y-12577984D01*
X9000476Y-12549412D01*
X9010000Y-12501793D01*
X9010000Y-12463698D01*
X9000476Y-12416079D01*
X8990952Y-12387508D01*
X8981429Y-12368460D01*
X8962381Y-12339888D01*
X8952857Y-12330365D01*
D14*
X3764440Y-12696900D02*
X3764440Y-12768020D01*
X3728880Y-12732460D02*
X3800000Y-12732460D01*
D11*
X4095714Y-12622936D02*
X4114762Y-12622936D01*
X4133809Y-12632460D01*
X4143333Y-12641984D01*
X4152857Y-12661031D01*
X4162381Y-12699127D01*
X4162381Y-12746746D01*
X4152857Y-12784841D01*
X4143333Y-12803888D01*
X4133809Y-12813412D01*
X4114762Y-12822936D01*
X4095714Y-12822936D01*
X4076667Y-12813412D01*
X4067143Y-12803888D01*
X4057619Y-12784841D01*
X4048095Y-12746746D01*
X4048095Y-12699127D01*
X4057619Y-12661031D01*
X4067143Y-12641984D01*
X4076667Y-12632460D01*
X4095714Y-12622936D01*
X4248095Y-12803888D02*
X4257619Y-12813412D01*
X4248095Y-12822936D01*
X4238571Y-12813412D01*
X4248095Y-12803888D01*
X4248095Y-12822936D01*
X4324286Y-12622936D02*
X4457619Y-12622936D01*
X4371905Y-12822936D01*
X4638571Y-12822936D02*
X4524286Y-12822936D01*
X4581429Y-12822936D02*
X4581429Y-12622936D01*
X4562381Y-12651508D01*
X4543333Y-12670555D01*
X4524286Y-12680079D01*
X4829048Y-12822936D02*
X4714762Y-12822936D01*
X4771905Y-12822936D02*
X4771905Y-12622936D01*
X4752857Y-12651508D01*
X4733810Y-12670555D01*
X4714762Y-12680079D01*
X4914762Y-12822936D02*
X4914762Y-12689603D01*
X4914762Y-12708650D02*
X4924286Y-12699127D01*
X4943333Y-12689603D01*
X4971905Y-12689603D01*
X4990952Y-12699127D01*
X5000476Y-12718174D01*
X5000476Y-12822936D01*
X5000476Y-12718174D02*
X5010000Y-12699127D01*
X5029048Y-12689603D01*
X5057619Y-12689603D01*
X5076667Y-12699127D01*
X5086190Y-12718174D01*
X5086190Y-12822936D01*
X5181429Y-12822936D02*
X5181429Y-12689603D01*
X5181429Y-12708650D02*
X5190952Y-12699127D01*
X5210000Y-12689603D01*
X5238571Y-12689603D01*
X5257619Y-12699127D01*
X5267143Y-12718174D01*
X5267143Y-12822936D01*
X5267143Y-12718174D02*
X5276667Y-12699127D01*
X5295714Y-12689603D01*
X5324286Y-12689603D01*
X5343333Y-12699127D01*
X5352857Y-12718174D01*
X5352857Y-12822936D01*
X5743333Y-12613412D02*
X5571905Y-12870555D01*
X6000476Y-12622936D02*
X6019524Y-12622936D01*
X6038571Y-12632460D01*
X6048095Y-12641984D01*
X6057619Y-12661031D01*
X6067143Y-12699127D01*
X6067143Y-12746746D01*
X6057619Y-12784841D01*
X6048095Y-12803888D01*
X6038571Y-12813412D01*
X6019524Y-12822936D01*
X6000476Y-12822936D01*
X5981428Y-12813412D01*
X5971905Y-12803888D01*
X5962381Y-12784841D01*
X5952857Y-12746746D01*
X5952857Y-12699127D01*
X5962381Y-12661031D01*
X5971905Y-12641984D01*
X5981428Y-12632460D01*
X6000476Y-12622936D01*
X6152857Y-12803888D02*
X6162381Y-12813412D01*
X6152857Y-12822936D01*
X6143333Y-12813412D01*
X6152857Y-12803888D01*
X6152857Y-12822936D01*
X6286190Y-12622936D02*
X6305238Y-12622936D01*
X6324286Y-12632460D01*
X6333809Y-12641984D01*
X6343333Y-12661031D01*
X6352857Y-12699127D01*
X6352857Y-12746746D01*
X6343333Y-12784841D01*
X6333809Y-12803888D01*
X6324286Y-12813412D01*
X6305238Y-12822936D01*
X6286190Y-12822936D01*
X6267143Y-12813412D01*
X6257619Y-12803888D01*
X6248095Y-12784841D01*
X6238571Y-12746746D01*
X6238571Y-12699127D01*
X6248095Y-12661031D01*
X6257619Y-12641984D01*
X6267143Y-12632460D01*
X6286190Y-12622936D01*
X6429048Y-12641984D02*
X6438571Y-12632460D01*
X6457619Y-12622936D01*
X6505238Y-12622936D01*
X6524286Y-12632460D01*
X6533809Y-12641984D01*
X6543333Y-12661031D01*
X6543333Y-12680079D01*
X6533809Y-12708650D01*
X6419524Y-12822936D01*
X6543333Y-12822936D01*
X6657619Y-12708650D02*
X6638571Y-12699127D01*
X6629048Y-12689603D01*
X6619524Y-12670555D01*
X6619524Y-12661031D01*
X6629048Y-12641984D01*
X6638571Y-12632460D01*
X6657619Y-12622936D01*
X6695714Y-12622936D01*
X6714762Y-12632460D01*
X6724286Y-12641984D01*
X6733809Y-12661031D01*
X6733809Y-12670555D01*
X6724286Y-12689603D01*
X6714762Y-12699127D01*
X6695714Y-12708650D01*
X6657619Y-12708650D01*
X6638571Y-12718174D01*
X6629048Y-12727698D01*
X6619524Y-12746746D01*
X6619524Y-12784841D01*
X6629048Y-12803888D01*
X6638571Y-12813412D01*
X6657619Y-12822936D01*
X6695714Y-12822936D01*
X6714762Y-12813412D01*
X6724286Y-12803888D01*
X6733809Y-12784841D01*
X6733809Y-12746746D01*
X6724286Y-12727698D01*
X6714762Y-12718174D01*
X6695714Y-12708650D01*
X6857619Y-12622936D02*
X6876667Y-12622936D01*
X6895714Y-12632460D01*
X6905238Y-12641984D01*
X6914762Y-12661031D01*
X6924286Y-12699127D01*
X6924286Y-12746746D01*
X6914762Y-12784841D01*
X6905238Y-12803888D01*
X6895714Y-12813412D01*
X6876667Y-12822936D01*
X6857619Y-12822936D01*
X6838571Y-12813412D01*
X6829048Y-12803888D01*
X6819524Y-12784841D01*
X6810000Y-12746746D01*
X6810000Y-12699127D01*
X6819524Y-12661031D01*
X6829048Y-12641984D01*
X6838571Y-12632460D01*
X6857619Y-12622936D01*
X7000476Y-12622936D02*
X7000476Y-12661031D01*
X7076667Y-12622936D02*
X7076667Y-12661031D01*
X7371905Y-12899127D02*
X7362381Y-12889603D01*
X7343333Y-12861031D01*
X7333809Y-12841984D01*
X7324286Y-12813412D01*
X7314762Y-12765793D01*
X7314762Y-12727698D01*
X7324286Y-12680079D01*
X7333809Y-12651508D01*
X7343333Y-12632460D01*
X7362381Y-12603888D01*
X7371905Y-12594365D01*
X7543333Y-12622936D02*
X7448095Y-12622936D01*
X7438571Y-12718174D01*
X7448095Y-12708650D01*
X7467143Y-12699127D01*
X7514762Y-12699127D01*
X7533809Y-12708650D01*
X7543333Y-12718174D01*
X7552857Y-12737222D01*
X7552857Y-12784841D01*
X7543333Y-12803888D01*
X7533809Y-12813412D01*
X7514762Y-12822936D01*
X7467143Y-12822936D01*
X7448095Y-12813412D01*
X7438571Y-12803888D01*
X7676667Y-12622936D02*
X7695714Y-12622936D01*
X7714762Y-12632460D01*
X7724286Y-12641984D01*
X7733809Y-12661031D01*
X7743333Y-12699127D01*
X7743333Y-12746746D01*
X7733809Y-12784841D01*
X7724286Y-12803888D01*
X7714762Y-12813412D01*
X7695714Y-12822936D01*
X7676667Y-12822936D01*
X7657619Y-12813412D01*
X7648095Y-12803888D01*
X7638571Y-12784841D01*
X7629048Y-12746746D01*
X7629048Y-12699127D01*
X7638571Y-12661031D01*
X7648095Y-12641984D01*
X7657619Y-12632460D01*
X7676667Y-12622936D01*
X7981428Y-12822936D02*
X7981428Y-12622936D01*
X8067143Y-12822936D02*
X8067143Y-12718174D01*
X8057619Y-12699127D01*
X8038571Y-12689603D01*
X8010000Y-12689603D01*
X7990952Y-12699127D01*
X7981428Y-12708650D01*
X8190952Y-12822936D02*
X8171905Y-12813412D01*
X8162381Y-12803888D01*
X8152857Y-12784841D01*
X8152857Y-12727698D01*
X8162381Y-12708650D01*
X8171905Y-12699127D01*
X8190952Y-12689603D01*
X8219524Y-12689603D01*
X8238571Y-12699127D01*
X8248095Y-12708650D01*
X8257619Y-12727698D01*
X8257619Y-12784841D01*
X8248095Y-12803888D01*
X8238571Y-12813412D01*
X8219524Y-12822936D01*
X8190952Y-12822936D01*
X8371905Y-12822936D02*
X8352857Y-12813412D01*
X8343333Y-12794365D01*
X8343333Y-12622936D01*
X8524286Y-12813412D02*
X8505238Y-12822936D01*
X8467143Y-12822936D01*
X8448095Y-12813412D01*
X8438571Y-12794365D01*
X8438571Y-12718174D01*
X8448095Y-12699127D01*
X8467143Y-12689603D01*
X8505238Y-12689603D01*
X8524286Y-12699127D01*
X8533810Y-12718174D01*
X8533810Y-12737222D01*
X8438571Y-12756269D01*
X8610000Y-12813412D02*
X8629048Y-12822936D01*
X8667143Y-12822936D01*
X8686190Y-12813412D01*
X8695714Y-12794365D01*
X8695714Y-12784841D01*
X8686190Y-12765793D01*
X8667143Y-12756269D01*
X8638571Y-12756269D01*
X8619524Y-12746746D01*
X8610000Y-12727698D01*
X8610000Y-12718174D01*
X8619524Y-12699127D01*
X8638571Y-12689603D01*
X8667143Y-12689603D01*
X8686190Y-12699127D01*
X8762381Y-12899127D02*
X8771905Y-12889603D01*
X8790952Y-12861031D01*
X8800476Y-12841984D01*
X8810000Y-12813412D01*
X8819524Y-12765793D01*
X8819524Y-12727698D01*
X8810000Y-12680079D01*
X8800476Y-12651508D01*
X8790952Y-12632460D01*
X8771905Y-12603888D01*
X8762381Y-12594365D01*
D15*
X3788841Y-13023401D02*
X3788841Y-12969519D01*
X3734959Y-12969519D01*
X3734959Y-13023401D01*
X3788841Y-13023401D01*
D11*
X4095714Y-12886936D02*
X4114762Y-12886936D01*
X4133809Y-12896460D01*
X4143333Y-12905984D01*
X4152857Y-12925031D01*
X4162381Y-12963127D01*
X4162381Y-13010746D01*
X4152857Y-13048841D01*
X4143333Y-13067888D01*
X4133809Y-13077412D01*
X4114762Y-13086936D01*
X4095714Y-13086936D01*
X4076667Y-13077412D01*
X4067143Y-13067888D01*
X4057619Y-13048841D01*
X4048095Y-13010746D01*
X4048095Y-12963127D01*
X4057619Y-12925031D01*
X4067143Y-12905984D01*
X4076667Y-12896460D01*
X4095714Y-12886936D01*
X4248095Y-13067888D02*
X4257619Y-13077412D01*
X4248095Y-13086936D01*
X4238571Y-13077412D01*
X4248095Y-13067888D01*
X4248095Y-13086936D01*
X4324286Y-12886936D02*
X4457619Y-12886936D01*
X4371905Y-13086936D01*
X4619524Y-12886936D02*
X4581429Y-12886936D01*
X4562381Y-12896460D01*
X4552857Y-12905984D01*
X4533810Y-12934555D01*
X4524286Y-12972650D01*
X4524286Y-13048841D01*
X4533810Y-13067888D01*
X4543333Y-13077412D01*
X4562381Y-13086936D01*
X4600476Y-13086936D01*
X4619524Y-13077412D01*
X4629048Y-13067888D01*
X4638571Y-13048841D01*
X4638571Y-13001222D01*
X4629048Y-12982174D01*
X4619524Y-12972650D01*
X4600476Y-12963127D01*
X4562381Y-12963127D01*
X4543333Y-12972650D01*
X4533810Y-12982174D01*
X4524286Y-13001222D01*
X4714762Y-12905984D02*
X4724286Y-12896460D01*
X4743333Y-12886936D01*
X4790952Y-12886936D01*
X4810000Y-12896460D01*
X4819524Y-12905984D01*
X4829048Y-12925031D01*
X4829048Y-12944079D01*
X4819524Y-12972650D01*
X4705238Y-13086936D01*
X4829048Y-13086936D01*
X4914762Y-13086936D02*
X4914762Y-12953603D01*
X4914762Y-12972650D02*
X4924286Y-12963127D01*
X4943333Y-12953603D01*
X4971905Y-12953603D01*
X4990952Y-12963127D01*
X5000476Y-12982174D01*
X5000476Y-13086936D01*
X5000476Y-12982174D02*
X5010000Y-12963127D01*
X5029048Y-12953603D01*
X5057619Y-12953603D01*
X5076667Y-12963127D01*
X5086190Y-12982174D01*
X5086190Y-13086936D01*
X5181429Y-13086936D02*
X5181429Y-12953603D01*
X5181429Y-12972650D02*
X5190952Y-12963127D01*
X5210000Y-12953603D01*
X5238571Y-12953603D01*
X5257619Y-12963127D01*
X5267143Y-12982174D01*
X5267143Y-13086936D01*
X5267143Y-12982174D02*
X5276667Y-12963127D01*
X5295714Y-12953603D01*
X5324286Y-12953603D01*
X5343333Y-12963127D01*
X5352857Y-12982174D01*
X5352857Y-13086936D01*
X5743333Y-12877412D02*
X5571905Y-13134555D01*
X6000476Y-12886936D02*
X6019524Y-12886936D01*
X6038571Y-12896460D01*
X6048095Y-12905984D01*
X6057619Y-12925031D01*
X6067143Y-12963127D01*
X6067143Y-13010746D01*
X6057619Y-13048841D01*
X6048095Y-13067888D01*
X6038571Y-13077412D01*
X6019524Y-13086936D01*
X6000476Y-13086936D01*
X5981428Y-13077412D01*
X5971905Y-13067888D01*
X5962381Y-13048841D01*
X5952857Y-13010746D01*
X5952857Y-12963127D01*
X5962381Y-12925031D01*
X5971905Y-12905984D01*
X5981428Y-12896460D01*
X6000476Y-12886936D01*
X6152857Y-13067888D02*
X6162381Y-13077412D01*
X6152857Y-13086936D01*
X6143333Y-13077412D01*
X6152857Y-13067888D01*
X6152857Y-13086936D01*
X6286190Y-12886936D02*
X6305238Y-12886936D01*
X6324286Y-12896460D01*
X6333809Y-12905984D01*
X6343333Y-12925031D01*
X6352857Y-12963127D01*
X6352857Y-13010746D01*
X6343333Y-13048841D01*
X6333809Y-13067888D01*
X6324286Y-13077412D01*
X6305238Y-13086936D01*
X6286190Y-13086936D01*
X6267143Y-13077412D01*
X6257619Y-13067888D01*
X6248095Y-13048841D01*
X6238571Y-13010746D01*
X6238571Y-12963127D01*
X6248095Y-12925031D01*
X6257619Y-12905984D01*
X6267143Y-12896460D01*
X6286190Y-12886936D01*
X6419524Y-12886936D02*
X6543333Y-12886936D01*
X6476667Y-12963127D01*
X6505238Y-12963127D01*
X6524286Y-12972650D01*
X6533809Y-12982174D01*
X6543333Y-13001222D01*
X6543333Y-13048841D01*
X6533809Y-13067888D01*
X6524286Y-13077412D01*
X6505238Y-13086936D01*
X6448095Y-13086936D01*
X6429048Y-13077412D01*
X6419524Y-13067888D01*
X6667143Y-12886936D02*
X6686190Y-12886936D01*
X6705238Y-12896460D01*
X6714762Y-12905984D01*
X6724286Y-12925031D01*
X6733809Y-12963127D01*
X6733809Y-13010746D01*
X6724286Y-13048841D01*
X6714762Y-13067888D01*
X6705238Y-13077412D01*
X6686190Y-13086936D01*
X6667143Y-13086936D01*
X6648095Y-13077412D01*
X6638571Y-13067888D01*
X6629048Y-13048841D01*
X6619524Y-13010746D01*
X6619524Y-12963127D01*
X6629048Y-12925031D01*
X6638571Y-12905984D01*
X6648095Y-12896460D01*
X6667143Y-12886936D01*
X6857619Y-12886936D02*
X6876667Y-12886936D01*
X6895714Y-12896460D01*
X6905238Y-12905984D01*
X6914762Y-12925031D01*
X6924286Y-12963127D01*
X6924286Y-13010746D01*
X6914762Y-13048841D01*
X6905238Y-13067888D01*
X6895714Y-13077412D01*
X6876667Y-13086936D01*
X6857619Y-13086936D01*
X6838571Y-13077412D01*
X6829048Y-13067888D01*
X6819524Y-13048841D01*
X6810000Y-13010746D01*
X6810000Y-12963127D01*
X6819524Y-12925031D01*
X6829048Y-12905984D01*
X6838571Y-12896460D01*
X6857619Y-12886936D01*
X7000476Y-12886936D02*
X7000476Y-12925031D01*
X7076667Y-12886936D02*
X7076667Y-12925031D01*
X7371905Y-13163127D02*
X7362381Y-13153603D01*
X7343333Y-13125031D01*
X7333809Y-13105984D01*
X7324286Y-13077412D01*
X7314762Y-13029793D01*
X7314762Y-12991698D01*
X7324286Y-12944079D01*
X7333809Y-12915508D01*
X7343333Y-12896460D01*
X7362381Y-12867888D01*
X7371905Y-12858365D01*
X7476667Y-12972650D02*
X7457619Y-12963127D01*
X7448095Y-12953603D01*
X7438571Y-12934555D01*
X7438571Y-12925031D01*
X7448095Y-12905984D01*
X7457619Y-12896460D01*
X7476667Y-12886936D01*
X7514762Y-12886936D01*
X7533809Y-12896460D01*
X7543333Y-12905984D01*
X7552857Y-12925031D01*
X7552857Y-12934555D01*
X7543333Y-12953603D01*
X7533809Y-12963127D01*
X7514762Y-12972650D01*
X7476667Y-12972650D01*
X7457619Y-12982174D01*
X7448095Y-12991698D01*
X7438571Y-13010746D01*
X7438571Y-13048841D01*
X7448095Y-13067888D01*
X7457619Y-13077412D01*
X7476667Y-13086936D01*
X7514762Y-13086936D01*
X7533809Y-13077412D01*
X7543333Y-13067888D01*
X7552857Y-13048841D01*
X7552857Y-13010746D01*
X7543333Y-12991698D01*
X7533809Y-12982174D01*
X7514762Y-12972650D01*
X7790952Y-13086936D02*
X7790952Y-12886936D01*
X7876667Y-13086936D02*
X7876667Y-12982174D01*
X7867143Y-12963127D01*
X7848095Y-12953603D01*
X7819524Y-12953603D01*
X7800476Y-12963127D01*
X7790952Y-12972650D01*
X8000476Y-13086936D02*
X7981428Y-13077412D01*
X7971905Y-13067888D01*
X7962381Y-13048841D01*
X7962381Y-12991698D01*
X7971905Y-12972650D01*
X7981428Y-12963127D01*
X8000476Y-12953603D01*
X8029048Y-12953603D01*
X8048095Y-12963127D01*
X8057619Y-12972650D01*
X8067143Y-12991698D01*
X8067143Y-13048841D01*
X8057619Y-13067888D01*
X8048095Y-13077412D01*
X8029048Y-13086936D01*
X8000476Y-13086936D01*
X8181428Y-13086936D02*
X8162381Y-13077412D01*
X8152857Y-13058365D01*
X8152857Y-12886936D01*
X8333809Y-13077412D02*
X8314762Y-13086936D01*
X8276667Y-13086936D01*
X8257619Y-13077412D01*
X8248095Y-13058365D01*
X8248095Y-12982174D01*
X8257619Y-12963127D01*
X8276667Y-12953603D01*
X8314762Y-12953603D01*
X8333809Y-12963127D01*
X8343333Y-12982174D01*
X8343333Y-13001222D01*
X8248095Y-13020269D01*
X8419524Y-13077412D02*
X8438571Y-13086936D01*
X8476667Y-13086936D01*
X8495714Y-13077412D01*
X8505238Y-13058365D01*
X8505238Y-13048841D01*
X8495714Y-13029793D01*
X8476667Y-13020269D01*
X8448095Y-13020269D01*
X8429048Y-13010746D01*
X8419524Y-12991698D01*
X8419524Y-12982174D01*
X8429048Y-12963127D01*
X8448095Y-12953603D01*
X8476667Y-12953603D01*
X8495714Y-12963127D01*
X8571905Y-13163127D02*
X8581429Y-13153603D01*
X8600476Y-13125031D01*
X8610000Y-13105984D01*
X8619524Y-13077412D01*
X8629048Y-13029793D01*
X8629048Y-12991698D01*
X8619524Y-12944079D01*
X8610000Y-12915508D01*
X8600476Y-12896460D01*
X8581429Y-12867888D01*
X8571905Y-12858365D01*
D16*
X3760000Y-13300460D02*
X3800000Y-13260460D01*
X3760000Y-13220460D01*
X3720000Y-13260460D01*
X3760000Y-13300460D01*
D11*
X4095714Y-13150936D02*
X4114762Y-13150936D01*
X4133809Y-13160460D01*
X4143333Y-13169984D01*
X4152857Y-13189031D01*
X4162381Y-13227127D01*
X4162381Y-13274746D01*
X4152857Y-13312841D01*
X4143333Y-13331888D01*
X4133809Y-13341412D01*
X4114762Y-13350936D01*
X4095714Y-13350936D01*
X4076667Y-13341412D01*
X4067143Y-13331888D01*
X4057619Y-13312841D01*
X4048095Y-13274746D01*
X4048095Y-13227127D01*
X4057619Y-13189031D01*
X4067143Y-13169984D01*
X4076667Y-13160460D01*
X4095714Y-13150936D01*
X4248095Y-13331888D02*
X4257619Y-13341412D01*
X4248095Y-13350936D01*
X4238571Y-13341412D01*
X4248095Y-13331888D01*
X4248095Y-13350936D01*
X4371905Y-13236650D02*
X4352857Y-13227127D01*
X4343333Y-13217603D01*
X4333810Y-13198555D01*
X4333810Y-13189031D01*
X4343333Y-13169984D01*
X4352857Y-13160460D01*
X4371905Y-13150936D01*
X4410000Y-13150936D01*
X4429048Y-13160460D01*
X4438571Y-13169984D01*
X4448095Y-13189031D01*
X4448095Y-13198555D01*
X4438571Y-13217603D01*
X4429048Y-13227127D01*
X4410000Y-13236650D01*
X4371905Y-13236650D01*
X4352857Y-13246174D01*
X4343333Y-13255698D01*
X4333810Y-13274746D01*
X4333810Y-13312841D01*
X4343333Y-13331888D01*
X4352857Y-13341412D01*
X4371905Y-13350936D01*
X4410000Y-13350936D01*
X4429048Y-13341412D01*
X4438571Y-13331888D01*
X4448095Y-13312841D01*
X4448095Y-13274746D01*
X4438571Y-13255698D01*
X4429048Y-13246174D01*
X4410000Y-13236650D01*
X4571905Y-13150936D02*
X4590952Y-13150936D01*
X4610000Y-13160460D01*
X4619524Y-13169984D01*
X4629048Y-13189031D01*
X4638571Y-13227127D01*
X4638571Y-13274746D01*
X4629048Y-13312841D01*
X4619524Y-13331888D01*
X4610000Y-13341412D01*
X4590952Y-13350936D01*
X4571905Y-13350936D01*
X4552857Y-13341412D01*
X4543333Y-13331888D01*
X4533810Y-13312841D01*
X4524286Y-13274746D01*
X4524286Y-13227127D01*
X4533810Y-13189031D01*
X4543333Y-13169984D01*
X4552857Y-13160460D01*
X4571905Y-13150936D01*
X4762381Y-13150936D02*
X4781429Y-13150936D01*
X4800476Y-13160460D01*
X4810000Y-13169984D01*
X4819524Y-13189031D01*
X4829048Y-13227127D01*
X4829048Y-13274746D01*
X4819524Y-13312841D01*
X4810000Y-13331888D01*
X4800476Y-13341412D01*
X4781429Y-13350936D01*
X4762381Y-13350936D01*
X4743333Y-13341412D01*
X4733810Y-13331888D01*
X4724286Y-13312841D01*
X4714762Y-13274746D01*
X4714762Y-13227127D01*
X4724286Y-13189031D01*
X4733810Y-13169984D01*
X4743333Y-13160460D01*
X4762381Y-13150936D01*
X4914762Y-13350936D02*
X4914762Y-13217603D01*
X4914762Y-13236650D02*
X4924286Y-13227127D01*
X4943333Y-13217603D01*
X4971905Y-13217603D01*
X4990952Y-13227127D01*
X5000476Y-13246174D01*
X5000476Y-13350936D01*
X5000476Y-13246174D02*
X5010000Y-13227127D01*
X5029048Y-13217603D01*
X5057619Y-13217603D01*
X5076667Y-13227127D01*
X5086190Y-13246174D01*
X5086190Y-13350936D01*
X5181429Y-13350936D02*
X5181429Y-13217603D01*
X5181429Y-13236650D02*
X5190952Y-13227127D01*
X5210000Y-13217603D01*
X5238571Y-13217603D01*
X5257619Y-13227127D01*
X5267143Y-13246174D01*
X5267143Y-13350936D01*
X5267143Y-13246174D02*
X5276667Y-13227127D01*
X5295714Y-13217603D01*
X5324286Y-13217603D01*
X5343333Y-13227127D01*
X5352857Y-13246174D01*
X5352857Y-13350936D01*
X5743333Y-13141412D02*
X5571905Y-13398555D01*
X6000476Y-13150936D02*
X6019524Y-13150936D01*
X6038571Y-13160460D01*
X6048095Y-13169984D01*
X6057619Y-13189031D01*
X6067143Y-13227127D01*
X6067143Y-13274746D01*
X6057619Y-13312841D01*
X6048095Y-13331888D01*
X6038571Y-13341412D01*
X6019524Y-13350936D01*
X6000476Y-13350936D01*
X5981428Y-13341412D01*
X5971905Y-13331888D01*
X5962381Y-13312841D01*
X5952857Y-13274746D01*
X5952857Y-13227127D01*
X5962381Y-13189031D01*
X5971905Y-13169984D01*
X5981428Y-13160460D01*
X6000476Y-13150936D01*
X6152857Y-13331888D02*
X6162381Y-13341412D01*
X6152857Y-13350936D01*
X6143333Y-13341412D01*
X6152857Y-13331888D01*
X6152857Y-13350936D01*
X6286190Y-13150936D02*
X6305238Y-13150936D01*
X6324286Y-13160460D01*
X6333809Y-13169984D01*
X6343333Y-13189031D01*
X6352857Y-13227127D01*
X6352857Y-13274746D01*
X6343333Y-13312841D01*
X6333809Y-13331888D01*
X6324286Y-13341412D01*
X6305238Y-13350936D01*
X6286190Y-13350936D01*
X6267143Y-13341412D01*
X6257619Y-13331888D01*
X6248095Y-13312841D01*
X6238571Y-13274746D01*
X6238571Y-13227127D01*
X6248095Y-13189031D01*
X6257619Y-13169984D01*
X6267143Y-13160460D01*
X6286190Y-13150936D01*
X6419524Y-13150936D02*
X6543333Y-13150936D01*
X6476667Y-13227127D01*
X6505238Y-13227127D01*
X6524286Y-13236650D01*
X6533809Y-13246174D01*
X6543333Y-13265222D01*
X6543333Y-13312841D01*
X6533809Y-13331888D01*
X6524286Y-13341412D01*
X6505238Y-13350936D01*
X6448095Y-13350936D01*
X6429048Y-13341412D01*
X6419524Y-13331888D01*
X6733809Y-13350936D02*
X6619524Y-13350936D01*
X6676667Y-13350936D02*
X6676667Y-13150936D01*
X6657619Y-13179508D01*
X6638571Y-13198555D01*
X6619524Y-13208079D01*
X6914762Y-13150936D02*
X6819524Y-13150936D01*
X6810000Y-13246174D01*
X6819524Y-13236650D01*
X6838571Y-13227127D01*
X6886190Y-13227127D01*
X6905238Y-13236650D01*
X6914762Y-13246174D01*
X6924286Y-13265222D01*
X6924286Y-13312841D01*
X6914762Y-13331888D01*
X6905238Y-13341412D01*
X6886190Y-13350936D01*
X6838571Y-13350936D01*
X6819524Y-13341412D01*
X6810000Y-13331888D01*
X7000476Y-13150936D02*
X7000476Y-13189031D01*
X7076667Y-13150936D02*
X7076667Y-13189031D01*
X7371905Y-13427127D02*
X7362381Y-13417603D01*
X7343333Y-13389031D01*
X7333809Y-13369984D01*
X7324286Y-13341412D01*
X7314762Y-13293793D01*
X7314762Y-13255698D01*
X7324286Y-13208079D01*
X7333809Y-13179508D01*
X7343333Y-13160460D01*
X7362381Y-13131888D01*
X7371905Y-13122365D01*
X7429048Y-13150936D02*
X7562381Y-13150936D01*
X7476667Y-13350936D01*
X7619524Y-13150936D02*
X7752857Y-13150936D01*
X7667143Y-13350936D01*
X7981428Y-13350936D02*
X7981428Y-13150936D01*
X8067143Y-13350936D02*
X8067143Y-13246174D01*
X8057619Y-13227127D01*
X8038571Y-13217603D01*
X8010000Y-13217603D01*
X7990952Y-13227127D01*
X7981428Y-13236650D01*
X8190952Y-13350936D02*
X8171905Y-13341412D01*
X8162381Y-13331888D01*
X8152857Y-13312841D01*
X8152857Y-13255698D01*
X8162381Y-13236650D01*
X8171905Y-13227127D01*
X8190952Y-13217603D01*
X8219524Y-13217603D01*
X8238571Y-13227127D01*
X8248095Y-13236650D01*
X8257619Y-13255698D01*
X8257619Y-13312841D01*
X8248095Y-13331888D01*
X8238571Y-13341412D01*
X8219524Y-13350936D01*
X8190952Y-13350936D01*
X8371905Y-13350936D02*
X8352857Y-13341412D01*
X8343333Y-13322365D01*
X8343333Y-13150936D01*
X8524286Y-13341412D02*
X8505238Y-13350936D01*
X8467143Y-13350936D01*
X8448095Y-13341412D01*
X8438571Y-13322365D01*
X8438571Y-13246174D01*
X8448095Y-13227127D01*
X8467143Y-13217603D01*
X8505238Y-13217603D01*
X8524286Y-13227127D01*
X8533810Y-13246174D01*
X8533810Y-13265222D01*
X8438571Y-13284269D01*
X8610000Y-13341412D02*
X8629048Y-13350936D01*
X8667143Y-13350936D01*
X8686190Y-13341412D01*
X8695714Y-13322365D01*
X8695714Y-13312841D01*
X8686190Y-13293793D01*
X8667143Y-13284269D01*
X8638571Y-13284269D01*
X8619524Y-13274746D01*
X8610000Y-13255698D01*
X8610000Y-13246174D01*
X8619524Y-13227127D01*
X8638571Y-13217603D01*
X8667143Y-13217603D01*
X8686190Y-13227127D01*
X8762381Y-13427127D02*
X8771905Y-13417603D01*
X8790952Y-13389031D01*
X8800476Y-13369984D01*
X8810000Y-13341412D01*
X8819524Y-13293793D01*
X8819524Y-13255698D01*
X8810000Y-13208079D01*
X8800476Y-13179508D01*
X8790952Y-13160460D01*
X8771905Y-13131888D01*
X8762381Y-13122365D01*
D17*
X3708000Y-13478460D02*
X3800000Y-13570460D01*
X3800000Y-13478460D02*
X3708000Y-13570460D01*
X3800000Y-13524460D02*
G75*
G03*
X3800000Y-13524460I-46000J0D01*
G01*
D11*
X4095714Y-13414936D02*
X4114762Y-13414936D01*
X4133809Y-13424460D01*
X4143333Y-13433984D01*
X4152857Y-13453031D01*
X4162381Y-13491127D01*
X4162381Y-13538746D01*
X4152857Y-13576841D01*
X4143333Y-13595888D01*
X4133809Y-13605412D01*
X4114762Y-13614936D01*
X4095714Y-13614936D01*
X4076667Y-13605412D01*
X4067143Y-13595888D01*
X4057619Y-13576841D01*
X4048095Y-13538746D01*
X4048095Y-13491127D01*
X4057619Y-13453031D01*
X4067143Y-13433984D01*
X4076667Y-13424460D01*
X4095714Y-13414936D01*
X4248095Y-13595888D02*
X4257619Y-13605412D01*
X4248095Y-13614936D01*
X4238571Y-13605412D01*
X4248095Y-13595888D01*
X4248095Y-13614936D01*
X4352857Y-13614936D02*
X4390952Y-13614936D01*
X4410000Y-13605412D01*
X4419524Y-13595888D01*
X4438571Y-13567317D01*
X4448095Y-13529222D01*
X4448095Y-13453031D01*
X4438571Y-13433984D01*
X4429048Y-13424460D01*
X4410000Y-13414936D01*
X4371905Y-13414936D01*
X4352857Y-13424460D01*
X4343333Y-13433984D01*
X4333810Y-13453031D01*
X4333810Y-13500650D01*
X4343333Y-13519698D01*
X4352857Y-13529222D01*
X4371905Y-13538746D01*
X4410000Y-13538746D01*
X4429048Y-13529222D01*
X4438571Y-13519698D01*
X4448095Y-13500650D01*
X4524286Y-13433984D02*
X4533810Y-13424460D01*
X4552857Y-13414936D01*
X4600476Y-13414936D01*
X4619524Y-13424460D01*
X4629048Y-13433984D01*
X4638571Y-13453031D01*
X4638571Y-13472079D01*
X4629048Y-13500650D01*
X4514762Y-13614936D01*
X4638571Y-13614936D01*
X4762381Y-13414936D02*
X4781429Y-13414936D01*
X4800476Y-13424460D01*
X4810000Y-13433984D01*
X4819524Y-13453031D01*
X4829048Y-13491127D01*
X4829048Y-13538746D01*
X4819524Y-13576841D01*
X4810000Y-13595888D01*
X4800476Y-13605412D01*
X4781429Y-13614936D01*
X4762381Y-13614936D01*
X4743333Y-13605412D01*
X4733810Y-13595888D01*
X4724286Y-13576841D01*
X4714762Y-13538746D01*
X4714762Y-13491127D01*
X4724286Y-13453031D01*
X4733810Y-13433984D01*
X4743333Y-13424460D01*
X4762381Y-13414936D01*
X4914762Y-13614936D02*
X4914762Y-13481603D01*
X4914762Y-13500650D02*
X4924286Y-13491127D01*
X4943333Y-13481603D01*
X4971905Y-13481603D01*
X4990952Y-13491127D01*
X5000476Y-13510174D01*
X5000476Y-13614936D01*
X5000476Y-13510174D02*
X5010000Y-13491127D01*
X5029048Y-13481603D01*
X5057619Y-13481603D01*
X5076667Y-13491127D01*
X5086190Y-13510174D01*
X5086190Y-13614936D01*
X5181429Y-13614936D02*
X5181429Y-13481603D01*
X5181429Y-13500650D02*
X5190952Y-13491127D01*
X5210000Y-13481603D01*
X5238571Y-13481603D01*
X5257619Y-13491127D01*
X5267143Y-13510174D01*
X5267143Y-13614936D01*
X5267143Y-13510174D02*
X5276667Y-13491127D01*
X5295714Y-13481603D01*
X5324286Y-13481603D01*
X5343333Y-13491127D01*
X5352857Y-13510174D01*
X5352857Y-13614936D01*
X5743333Y-13405412D02*
X5571905Y-13662555D01*
X6000476Y-13414936D02*
X6019524Y-13414936D01*
X6038571Y-13424460D01*
X6048095Y-13433984D01*
X6057619Y-13453031D01*
X6067143Y-13491127D01*
X6067143Y-13538746D01*
X6057619Y-13576841D01*
X6048095Y-13595888D01*
X6038571Y-13605412D01*
X6019524Y-13614936D01*
X6000476Y-13614936D01*
X5981428Y-13605412D01*
X5971905Y-13595888D01*
X5962381Y-13576841D01*
X5952857Y-13538746D01*
X5952857Y-13491127D01*
X5962381Y-13453031D01*
X5971905Y-13433984D01*
X5981428Y-13424460D01*
X6000476Y-13414936D01*
X6152857Y-13595888D02*
X6162381Y-13605412D01*
X6152857Y-13614936D01*
X6143333Y-13605412D01*
X6152857Y-13595888D01*
X6152857Y-13614936D01*
X6286190Y-13414936D02*
X6305238Y-13414936D01*
X6324286Y-13424460D01*
X6333809Y-13433984D01*
X6343333Y-13453031D01*
X6352857Y-13491127D01*
X6352857Y-13538746D01*
X6343333Y-13576841D01*
X6333809Y-13595888D01*
X6324286Y-13605412D01*
X6305238Y-13614936D01*
X6286190Y-13614936D01*
X6267143Y-13605412D01*
X6257619Y-13595888D01*
X6248095Y-13576841D01*
X6238571Y-13538746D01*
X6238571Y-13491127D01*
X6248095Y-13453031D01*
X6257619Y-13433984D01*
X6267143Y-13424460D01*
X6286190Y-13414936D01*
X6419524Y-13414936D02*
X6543333Y-13414936D01*
X6476667Y-13491127D01*
X6505238Y-13491127D01*
X6524286Y-13500650D01*
X6533809Y-13510174D01*
X6543333Y-13529222D01*
X6543333Y-13576841D01*
X6533809Y-13595888D01*
X6524286Y-13605412D01*
X6505238Y-13614936D01*
X6448095Y-13614936D01*
X6429048Y-13605412D01*
X6419524Y-13595888D01*
X6714762Y-13414936D02*
X6676667Y-13414936D01*
X6657619Y-13424460D01*
X6648095Y-13433984D01*
X6629048Y-13462555D01*
X6619524Y-13500650D01*
X6619524Y-13576841D01*
X6629048Y-13595888D01*
X6638571Y-13605412D01*
X6657619Y-13614936D01*
X6695714Y-13614936D01*
X6714762Y-13605412D01*
X6724286Y-13595888D01*
X6733809Y-13576841D01*
X6733809Y-13529222D01*
X6724286Y-13510174D01*
X6714762Y-13500650D01*
X6695714Y-13491127D01*
X6657619Y-13491127D01*
X6638571Y-13500650D01*
X6629048Y-13510174D01*
X6619524Y-13529222D01*
X6810000Y-13433984D02*
X6819524Y-13424460D01*
X6838571Y-13414936D01*
X6886190Y-13414936D01*
X6905238Y-13424460D01*
X6914762Y-13433984D01*
X6924286Y-13453031D01*
X6924286Y-13472079D01*
X6914762Y-13500650D01*
X6800476Y-13614936D01*
X6924286Y-13614936D01*
X7000476Y-13414936D02*
X7000476Y-13453031D01*
X7076667Y-13414936D02*
X7076667Y-13453031D01*
X7371905Y-13691127D02*
X7362381Y-13681603D01*
X7343333Y-13653031D01*
X7333809Y-13633984D01*
X7324286Y-13605412D01*
X7314762Y-13557793D01*
X7314762Y-13519698D01*
X7324286Y-13472079D01*
X7333809Y-13443508D01*
X7343333Y-13424460D01*
X7362381Y-13395888D01*
X7371905Y-13386365D01*
X7476667Y-13500650D02*
X7457619Y-13491127D01*
X7448095Y-13481603D01*
X7438571Y-13462555D01*
X7438571Y-13453031D01*
X7448095Y-13433984D01*
X7457619Y-13424460D01*
X7476667Y-13414936D01*
X7514762Y-13414936D01*
X7533809Y-13424460D01*
X7543333Y-13433984D01*
X7552857Y-13453031D01*
X7552857Y-13462555D01*
X7543333Y-13481603D01*
X7533809Y-13491127D01*
X7514762Y-13500650D01*
X7476667Y-13500650D01*
X7457619Y-13510174D01*
X7448095Y-13519698D01*
X7438571Y-13538746D01*
X7438571Y-13576841D01*
X7448095Y-13595888D01*
X7457619Y-13605412D01*
X7476667Y-13614936D01*
X7514762Y-13614936D01*
X7533809Y-13605412D01*
X7543333Y-13595888D01*
X7552857Y-13576841D01*
X7552857Y-13538746D01*
X7543333Y-13519698D01*
X7533809Y-13510174D01*
X7514762Y-13500650D01*
X7790952Y-13614936D02*
X7790952Y-13414936D01*
X7876667Y-13614936D02*
X7876667Y-13510174D01*
X7867143Y-13491127D01*
X7848095Y-13481603D01*
X7819524Y-13481603D01*
X7800476Y-13491127D01*
X7790952Y-13500650D01*
X8000476Y-13614936D02*
X7981428Y-13605412D01*
X7971905Y-13595888D01*
X7962381Y-13576841D01*
X7962381Y-13519698D01*
X7971905Y-13500650D01*
X7981428Y-13491127D01*
X8000476Y-13481603D01*
X8029048Y-13481603D01*
X8048095Y-13491127D01*
X8057619Y-13500650D01*
X8067143Y-13519698D01*
X8067143Y-13576841D01*
X8057619Y-13595888D01*
X8048095Y-13605412D01*
X8029048Y-13614936D01*
X8000476Y-13614936D01*
X8181428Y-13614936D02*
X8162381Y-13605412D01*
X8152857Y-13586365D01*
X8152857Y-13414936D01*
X8333809Y-13605412D02*
X8314762Y-13614936D01*
X8276667Y-13614936D01*
X8257619Y-13605412D01*
X8248095Y-13586365D01*
X8248095Y-13510174D01*
X8257619Y-13491127D01*
X8276667Y-13481603D01*
X8314762Y-13481603D01*
X8333809Y-13491127D01*
X8343333Y-13510174D01*
X8343333Y-13529222D01*
X8248095Y-13548269D01*
X8419524Y-13605412D02*
X8438571Y-13614936D01*
X8476667Y-13614936D01*
X8495714Y-13605412D01*
X8505238Y-13586365D01*
X8505238Y-13576841D01*
X8495714Y-13557793D01*
X8476667Y-13548269D01*
X8448095Y-13548269D01*
X8429048Y-13538746D01*
X8419524Y-13519698D01*
X8419524Y-13510174D01*
X8429048Y-13491127D01*
X8448095Y-13481603D01*
X8476667Y-13481603D01*
X8495714Y-13491127D01*
X8571905Y-13691127D02*
X8581429Y-13681603D01*
X8600476Y-13653031D01*
X8610000Y-13633984D01*
X8619524Y-13605412D01*
X8629048Y-13557793D01*
X8629048Y-13519698D01*
X8619524Y-13472079D01*
X8610000Y-13443508D01*
X8600476Y-13424460D01*
X8581429Y-13395888D01*
X8571905Y-13386365D01*
D18*
X3705000Y-13740960D02*
X3800000Y-13835960D01*
X3800000Y-13740960D02*
X3705000Y-13835960D01*
X3752500Y-13740960D02*
X3752500Y-13835960D01*
X3705000Y-13788460D02*
X3800000Y-13788460D01*
D11*
X4095714Y-13678936D02*
X4114762Y-13678936D01*
X4133809Y-13688460D01*
X4143333Y-13697984D01*
X4152857Y-13717031D01*
X4162381Y-13755127D01*
X4162381Y-13802746D01*
X4152857Y-13840841D01*
X4143333Y-13859888D01*
X4133809Y-13869412D01*
X4114762Y-13878936D01*
X4095714Y-13878936D01*
X4076667Y-13869412D01*
X4067143Y-13859888D01*
X4057619Y-13840841D01*
X4048095Y-13802746D01*
X4048095Y-13755127D01*
X4057619Y-13717031D01*
X4067143Y-13697984D01*
X4076667Y-13688460D01*
X4095714Y-13678936D01*
X4248095Y-13859888D02*
X4257619Y-13869412D01*
X4248095Y-13878936D01*
X4238571Y-13869412D01*
X4248095Y-13859888D01*
X4248095Y-13878936D01*
X4352857Y-13878936D02*
X4390952Y-13878936D01*
X4410000Y-13869412D01*
X4419524Y-13859888D01*
X4438571Y-13831317D01*
X4448095Y-13793222D01*
X4448095Y-13717031D01*
X4438571Y-13697984D01*
X4429048Y-13688460D01*
X4410000Y-13678936D01*
X4371905Y-13678936D01*
X4352857Y-13688460D01*
X4343333Y-13697984D01*
X4333810Y-13717031D01*
X4333810Y-13764650D01*
X4343333Y-13783698D01*
X4352857Y-13793222D01*
X4371905Y-13802746D01*
X4410000Y-13802746D01*
X4429048Y-13793222D01*
X4438571Y-13783698D01*
X4448095Y-13764650D01*
X4629048Y-13678936D02*
X4533810Y-13678936D01*
X4524286Y-13774174D01*
X4533810Y-13764650D01*
X4552857Y-13755127D01*
X4600476Y-13755127D01*
X4619524Y-13764650D01*
X4629048Y-13774174D01*
X4638571Y-13793222D01*
X4638571Y-13840841D01*
X4629048Y-13859888D01*
X4619524Y-13869412D01*
X4600476Y-13878936D01*
X4552857Y-13878936D01*
X4533810Y-13869412D01*
X4524286Y-13859888D01*
X4762381Y-13678936D02*
X4781429Y-13678936D01*
X4800476Y-13688460D01*
X4810000Y-13697984D01*
X4819524Y-13717031D01*
X4829048Y-13755127D01*
X4829048Y-13802746D01*
X4819524Y-13840841D01*
X4810000Y-13859888D01*
X4800476Y-13869412D01*
X4781429Y-13878936D01*
X4762381Y-13878936D01*
X4743333Y-13869412D01*
X4733810Y-13859888D01*
X4724286Y-13840841D01*
X4714762Y-13802746D01*
X4714762Y-13755127D01*
X4724286Y-13717031D01*
X4733810Y-13697984D01*
X4743333Y-13688460D01*
X4762381Y-13678936D01*
X4914762Y-13878936D02*
X4914762Y-13745603D01*
X4914762Y-13764650D02*
X4924286Y-13755127D01*
X4943333Y-13745603D01*
X4971905Y-13745603D01*
X4990952Y-13755127D01*
X5000476Y-13774174D01*
X5000476Y-13878936D01*
X5000476Y-13774174D02*
X5010000Y-13755127D01*
X5029048Y-13745603D01*
X5057619Y-13745603D01*
X5076667Y-13755127D01*
X5086190Y-13774174D01*
X5086190Y-13878936D01*
X5181429Y-13878936D02*
X5181429Y-13745603D01*
X5181429Y-13764650D02*
X5190952Y-13755127D01*
X5210000Y-13745603D01*
X5238571Y-13745603D01*
X5257619Y-13755127D01*
X5267143Y-13774174D01*
X5267143Y-13878936D01*
X5267143Y-13774174D02*
X5276667Y-13755127D01*
X5295714Y-13745603D01*
X5324286Y-13745603D01*
X5343333Y-13755127D01*
X5352857Y-13774174D01*
X5352857Y-13878936D01*
X5743333Y-13669412D02*
X5571905Y-13926555D01*
X6000476Y-13678936D02*
X6019524Y-13678936D01*
X6038571Y-13688460D01*
X6048095Y-13697984D01*
X6057619Y-13717031D01*
X6067143Y-13755127D01*
X6067143Y-13802746D01*
X6057619Y-13840841D01*
X6048095Y-13859888D01*
X6038571Y-13869412D01*
X6019524Y-13878936D01*
X6000476Y-13878936D01*
X5981428Y-13869412D01*
X5971905Y-13859888D01*
X5962381Y-13840841D01*
X5952857Y-13802746D01*
X5952857Y-13755127D01*
X5962381Y-13717031D01*
X5971905Y-13697984D01*
X5981428Y-13688460D01*
X6000476Y-13678936D01*
X6152857Y-13859888D02*
X6162381Y-13869412D01*
X6152857Y-13878936D01*
X6143333Y-13869412D01*
X6152857Y-13859888D01*
X6152857Y-13878936D01*
X6286190Y-13678936D02*
X6305238Y-13678936D01*
X6324286Y-13688460D01*
X6333809Y-13697984D01*
X6343333Y-13717031D01*
X6352857Y-13755127D01*
X6352857Y-13802746D01*
X6343333Y-13840841D01*
X6333809Y-13859888D01*
X6324286Y-13869412D01*
X6305238Y-13878936D01*
X6286190Y-13878936D01*
X6267143Y-13869412D01*
X6257619Y-13859888D01*
X6248095Y-13840841D01*
X6238571Y-13802746D01*
X6238571Y-13755127D01*
X6248095Y-13717031D01*
X6257619Y-13697984D01*
X6267143Y-13688460D01*
X6286190Y-13678936D01*
X6419524Y-13678936D02*
X6543333Y-13678936D01*
X6476667Y-13755127D01*
X6505238Y-13755127D01*
X6524286Y-13764650D01*
X6533809Y-13774174D01*
X6543333Y-13793222D01*
X6543333Y-13840841D01*
X6533809Y-13859888D01*
X6524286Y-13869412D01*
X6505238Y-13878936D01*
X6448095Y-13878936D01*
X6429048Y-13869412D01*
X6419524Y-13859888D01*
X6610000Y-13678936D02*
X6743333Y-13678936D01*
X6657619Y-13878936D01*
X6905238Y-13745603D02*
X6905238Y-13878936D01*
X6857619Y-13669412D02*
X6810000Y-13812269D01*
X6933809Y-13812269D01*
X7000476Y-13678936D02*
X7000476Y-13717031D01*
X7076667Y-13678936D02*
X7076667Y-13717031D01*
X7371905Y-13955127D02*
X7362381Y-13945603D01*
X7343333Y-13917031D01*
X7333809Y-13897984D01*
X7324286Y-13869412D01*
X7314762Y-13821793D01*
X7314762Y-13783698D01*
X7324286Y-13736079D01*
X7333809Y-13707508D01*
X7343333Y-13688460D01*
X7362381Y-13659888D01*
X7371905Y-13650365D01*
X7533809Y-13745603D02*
X7533809Y-13878936D01*
X7486190Y-13669412D02*
X7438571Y-13812269D01*
X7562381Y-13812269D01*
X7790952Y-13878936D02*
X7790952Y-13678936D01*
X7876667Y-13878936D02*
X7876667Y-13774174D01*
X7867143Y-13755127D01*
X7848095Y-13745603D01*
X7819524Y-13745603D01*
X7800476Y-13755127D01*
X7790952Y-13764650D01*
X8000476Y-13878936D02*
X7981428Y-13869412D01*
X7971905Y-13859888D01*
X7962381Y-13840841D01*
X7962381Y-13783698D01*
X7971905Y-13764650D01*
X7981428Y-13755127D01*
X8000476Y-13745603D01*
X8029048Y-13745603D01*
X8048095Y-13755127D01*
X8057619Y-13764650D01*
X8067143Y-13783698D01*
X8067143Y-13840841D01*
X8057619Y-13859888D01*
X8048095Y-13869412D01*
X8029048Y-13878936D01*
X8000476Y-13878936D01*
X8181428Y-13878936D02*
X8162381Y-13869412D01*
X8152857Y-13850365D01*
X8152857Y-13678936D01*
X8333809Y-13869412D02*
X8314762Y-13878936D01*
X8276667Y-13878936D01*
X8257619Y-13869412D01*
X8248095Y-13850365D01*
X8248095Y-13774174D01*
X8257619Y-13755127D01*
X8276667Y-13745603D01*
X8314762Y-13745603D01*
X8333809Y-13755127D01*
X8343333Y-13774174D01*
X8343333Y-13793222D01*
X8248095Y-13812269D01*
X8419524Y-13869412D02*
X8438571Y-13878936D01*
X8476667Y-13878936D01*
X8495714Y-13869412D01*
X8505238Y-13850365D01*
X8505238Y-13840841D01*
X8495714Y-13821793D01*
X8476667Y-13812269D01*
X8448095Y-13812269D01*
X8429048Y-13802746D01*
X8419524Y-13783698D01*
X8419524Y-13774174D01*
X8429048Y-13755127D01*
X8448095Y-13745603D01*
X8476667Y-13745603D01*
X8495714Y-13755127D01*
X8571905Y-13955127D02*
X8581429Y-13945603D01*
X8600476Y-13917031D01*
X8610000Y-13897984D01*
X8619524Y-13869412D01*
X8629048Y-13821793D01*
X8629048Y-13783698D01*
X8619524Y-13736079D01*
X8610000Y-13707508D01*
X8600476Y-13688460D01*
X8581429Y-13659888D01*
X8571905Y-13650365D01*
D19*
X3700432Y-14002676D02*
X3800000Y-14102244D01*
X3800000Y-14002676D02*
X3700432Y-14102244D01*
X3785419Y-14087663D02*
X3785419Y-14017257D01*
X3715013Y-14017257D01*
X3715013Y-14087663D01*
X3785419Y-14087663D01*
D11*
X4095714Y-13942936D02*
X4114762Y-13942936D01*
X4133809Y-13952460D01*
X4143333Y-13961984D01*
X4152857Y-13981031D01*
X4162381Y-14019127D01*
X4162381Y-14066746D01*
X4152857Y-14104841D01*
X4143333Y-14123888D01*
X4133809Y-14133412D01*
X4114762Y-14142936D01*
X4095714Y-14142936D01*
X4076667Y-14133412D01*
X4067143Y-14123888D01*
X4057619Y-14104841D01*
X4048095Y-14066746D01*
X4048095Y-14019127D01*
X4057619Y-13981031D01*
X4067143Y-13961984D01*
X4076667Y-13952460D01*
X4095714Y-13942936D01*
X4248095Y-14123888D02*
X4257619Y-14133412D01*
X4248095Y-14142936D01*
X4238571Y-14133412D01*
X4248095Y-14123888D01*
X4248095Y-14142936D01*
X4352857Y-14142936D02*
X4390952Y-14142936D01*
X4410000Y-14133412D01*
X4419524Y-14123888D01*
X4438571Y-14095317D01*
X4448095Y-14057222D01*
X4448095Y-13981031D01*
X4438571Y-13961984D01*
X4429048Y-13952460D01*
X4410000Y-13942936D01*
X4371905Y-13942936D01*
X4352857Y-13952460D01*
X4343333Y-13961984D01*
X4333810Y-13981031D01*
X4333810Y-14028650D01*
X4343333Y-14047698D01*
X4352857Y-14057222D01*
X4371905Y-14066746D01*
X4410000Y-14066746D01*
X4429048Y-14057222D01*
X4438571Y-14047698D01*
X4448095Y-14028650D01*
X4543333Y-14142936D02*
X4581429Y-14142936D01*
X4600476Y-14133412D01*
X4610000Y-14123888D01*
X4629048Y-14095317D01*
X4638571Y-14057222D01*
X4638571Y-13981031D01*
X4629048Y-13961984D01*
X4619524Y-13952460D01*
X4600476Y-13942936D01*
X4562381Y-13942936D01*
X4543333Y-13952460D01*
X4533810Y-13961984D01*
X4524286Y-13981031D01*
X4524286Y-14028650D01*
X4533810Y-14047698D01*
X4543333Y-14057222D01*
X4562381Y-14066746D01*
X4600476Y-14066746D01*
X4619524Y-14057222D01*
X4629048Y-14047698D01*
X4638571Y-14028650D01*
X4810000Y-13942936D02*
X4771905Y-13942936D01*
X4752857Y-13952460D01*
X4743333Y-13961984D01*
X4724286Y-13990555D01*
X4714762Y-14028650D01*
X4714762Y-14104841D01*
X4724286Y-14123888D01*
X4733810Y-14133412D01*
X4752857Y-14142936D01*
X4790952Y-14142936D01*
X4810000Y-14133412D01*
X4819524Y-14123888D01*
X4829048Y-14104841D01*
X4829048Y-14057222D01*
X4819524Y-14038174D01*
X4810000Y-14028650D01*
X4790952Y-14019127D01*
X4752857Y-14019127D01*
X4733810Y-14028650D01*
X4724286Y-14038174D01*
X4714762Y-14057222D01*
X4914762Y-14142936D02*
X4914762Y-14009603D01*
X4914762Y-14028650D02*
X4924286Y-14019127D01*
X4943333Y-14009603D01*
X4971905Y-14009603D01*
X4990952Y-14019127D01*
X5000476Y-14038174D01*
X5000476Y-14142936D01*
X5000476Y-14038174D02*
X5010000Y-14019127D01*
X5029048Y-14009603D01*
X5057619Y-14009603D01*
X5076667Y-14019127D01*
X5086190Y-14038174D01*
X5086190Y-14142936D01*
X5181429Y-14142936D02*
X5181429Y-14009603D01*
X5181429Y-14028650D02*
X5190952Y-14019127D01*
X5210000Y-14009603D01*
X5238571Y-14009603D01*
X5257619Y-14019127D01*
X5267143Y-14038174D01*
X5267143Y-14142936D01*
X5267143Y-14038174D02*
X5276667Y-14019127D01*
X5295714Y-14009603D01*
X5324286Y-14009603D01*
X5343333Y-14019127D01*
X5352857Y-14038174D01*
X5352857Y-14142936D01*
X5743333Y-13933412D02*
X5571905Y-14190555D01*
X6000476Y-13942936D02*
X6019524Y-13942936D01*
X6038571Y-13952460D01*
X6048095Y-13961984D01*
X6057619Y-13981031D01*
X6067143Y-14019127D01*
X6067143Y-14066746D01*
X6057619Y-14104841D01*
X6048095Y-14123888D01*
X6038571Y-14133412D01*
X6019524Y-14142936D01*
X6000476Y-14142936D01*
X5981428Y-14133412D01*
X5971905Y-14123888D01*
X5962381Y-14104841D01*
X5952857Y-14066746D01*
X5952857Y-14019127D01*
X5962381Y-13981031D01*
X5971905Y-13961984D01*
X5981428Y-13952460D01*
X6000476Y-13942936D01*
X6152857Y-14123888D02*
X6162381Y-14133412D01*
X6152857Y-14142936D01*
X6143333Y-14133412D01*
X6152857Y-14123888D01*
X6152857Y-14142936D01*
X6286190Y-13942936D02*
X6305238Y-13942936D01*
X6324286Y-13952460D01*
X6333809Y-13961984D01*
X6343333Y-13981031D01*
X6352857Y-14019127D01*
X6352857Y-14066746D01*
X6343333Y-14104841D01*
X6333809Y-14123888D01*
X6324286Y-14133412D01*
X6305238Y-14142936D01*
X6286190Y-14142936D01*
X6267143Y-14133412D01*
X6257619Y-14123888D01*
X6248095Y-14104841D01*
X6238571Y-14066746D01*
X6238571Y-14019127D01*
X6248095Y-13981031D01*
X6257619Y-13961984D01*
X6267143Y-13952460D01*
X6286190Y-13942936D01*
X6419524Y-13942936D02*
X6543333Y-13942936D01*
X6476667Y-14019127D01*
X6505238Y-14019127D01*
X6524286Y-14028650D01*
X6533809Y-14038174D01*
X6543333Y-14057222D01*
X6543333Y-14104841D01*
X6533809Y-14123888D01*
X6524286Y-14133412D01*
X6505238Y-14142936D01*
X6448095Y-14142936D01*
X6429048Y-14133412D01*
X6419524Y-14123888D01*
X6638571Y-14142936D02*
X6676667Y-14142936D01*
X6695714Y-14133412D01*
X6705238Y-14123888D01*
X6724286Y-14095317D01*
X6733809Y-14057222D01*
X6733809Y-13981031D01*
X6724286Y-13961984D01*
X6714762Y-13952460D01*
X6695714Y-13942936D01*
X6657619Y-13942936D01*
X6638571Y-13952460D01*
X6629048Y-13961984D01*
X6619524Y-13981031D01*
X6619524Y-14028650D01*
X6629048Y-14047698D01*
X6638571Y-14057222D01*
X6657619Y-14066746D01*
X6695714Y-14066746D01*
X6714762Y-14057222D01*
X6724286Y-14047698D01*
X6733809Y-14028650D01*
X6810000Y-13961984D02*
X6819524Y-13952460D01*
X6838571Y-13942936D01*
X6886190Y-13942936D01*
X6905238Y-13952460D01*
X6914762Y-13961984D01*
X6924286Y-13981031D01*
X6924286Y-14000079D01*
X6914762Y-14028650D01*
X6800476Y-14142936D01*
X6924286Y-14142936D01*
X7000476Y-13942936D02*
X7000476Y-13981031D01*
X7076667Y-13942936D02*
X7076667Y-13981031D01*
X7371905Y-14219127D02*
X7362381Y-14209603D01*
X7343333Y-14181031D01*
X7333809Y-14161984D01*
X7324286Y-14133412D01*
X7314762Y-14085793D01*
X7314762Y-14047698D01*
X7324286Y-14000079D01*
X7333809Y-13971508D01*
X7343333Y-13952460D01*
X7362381Y-13923888D01*
X7371905Y-13914365D01*
X7486190Y-13942936D02*
X7505238Y-13942936D01*
X7524286Y-13952460D01*
X7533809Y-13961984D01*
X7543333Y-13981031D01*
X7552857Y-14019127D01*
X7552857Y-14066746D01*
X7543333Y-14104841D01*
X7533809Y-14123888D01*
X7524286Y-14133412D01*
X7505238Y-14142936D01*
X7486190Y-14142936D01*
X7467143Y-14133412D01*
X7457619Y-14123888D01*
X7448095Y-14104841D01*
X7438571Y-14066746D01*
X7438571Y-14019127D01*
X7448095Y-13981031D01*
X7457619Y-13961984D01*
X7467143Y-13952460D01*
X7486190Y-13942936D01*
X7790952Y-14142936D02*
X7790952Y-13942936D01*
X7876667Y-14142936D02*
X7876667Y-14038174D01*
X7867143Y-14019127D01*
X7848095Y-14009603D01*
X7819524Y-14009603D01*
X7800476Y-14019127D01*
X7790952Y-14028650D01*
X8000476Y-14142936D02*
X7981428Y-14133412D01*
X7971905Y-14123888D01*
X7962381Y-14104841D01*
X7962381Y-14047698D01*
X7971905Y-14028650D01*
X7981428Y-14019127D01*
X8000476Y-14009603D01*
X8029048Y-14009603D01*
X8048095Y-14019127D01*
X8057619Y-14028650D01*
X8067143Y-14047698D01*
X8067143Y-14104841D01*
X8057619Y-14123888D01*
X8048095Y-14133412D01*
X8029048Y-14142936D01*
X8000476Y-14142936D01*
X8181428Y-14142936D02*
X8162381Y-14133412D01*
X8152857Y-14114365D01*
X8152857Y-13942936D01*
X8333809Y-14133412D02*
X8314762Y-14142936D01*
X8276667Y-14142936D01*
X8257619Y-14133412D01*
X8248095Y-14114365D01*
X8248095Y-14038174D01*
X8257619Y-14019127D01*
X8276667Y-14009603D01*
X8314762Y-14009603D01*
X8333809Y-14019127D01*
X8343333Y-14038174D01*
X8343333Y-14057222D01*
X8248095Y-14076269D01*
X8419524Y-14133412D02*
X8438571Y-14142936D01*
X8476667Y-14142936D01*
X8495714Y-14133412D01*
X8505238Y-14114365D01*
X8505238Y-14104841D01*
X8495714Y-14085793D01*
X8476667Y-14076269D01*
X8448095Y-14076269D01*
X8429048Y-14066746D01*
X8419524Y-14047698D01*
X8419524Y-14038174D01*
X8429048Y-14019127D01*
X8448095Y-14009603D01*
X8476667Y-14009603D01*
X8495714Y-14019127D01*
X8743333Y-14066746D02*
X8895714Y-14066746D01*
X8819524Y-14142936D02*
X8819524Y-13990555D01*
X9229048Y-13942936D02*
X9190952Y-13942936D01*
X9171905Y-13952460D01*
X9162381Y-13961984D01*
X9143333Y-13990555D01*
X9133810Y-14028650D01*
X9133810Y-14104841D01*
X9143333Y-14123888D01*
X9152857Y-14133412D01*
X9171905Y-14142936D01*
X9210000Y-14142936D01*
X9229048Y-14133412D01*
X9238571Y-14123888D01*
X9248095Y-14104841D01*
X9248095Y-14057222D01*
X9238571Y-14038174D01*
X9229048Y-14028650D01*
X9210000Y-14019127D01*
X9171905Y-14019127D01*
X9152857Y-14028650D01*
X9143333Y-14038174D01*
X9133810Y-14057222D01*
X9476667Y-14133412D02*
X9495714Y-14142936D01*
X9533810Y-14142936D01*
X9552857Y-14133412D01*
X9562381Y-14114365D01*
X9562381Y-14104841D01*
X9552857Y-14085793D01*
X9533810Y-14076269D01*
X9505238Y-14076269D01*
X9486190Y-14066746D01*
X9476667Y-14047698D01*
X9476667Y-14038174D01*
X9486190Y-14019127D01*
X9505238Y-14009603D01*
X9533810Y-14009603D01*
X9552857Y-14019127D01*
X9676667Y-14142936D02*
X9657619Y-14133412D01*
X9648095Y-14114365D01*
X9648095Y-13942936D01*
X9781429Y-14142936D02*
X9762381Y-14133412D01*
X9752857Y-14123888D01*
X9743333Y-14104841D01*
X9743333Y-14047698D01*
X9752857Y-14028650D01*
X9762381Y-14019127D01*
X9781429Y-14009603D01*
X9810000Y-14009603D01*
X9829048Y-14019127D01*
X9838571Y-14028650D01*
X9848095Y-14047698D01*
X9848095Y-14104841D01*
X9838571Y-14123888D01*
X9829048Y-14133412D01*
X9810000Y-14142936D01*
X9781429Y-14142936D01*
X9905238Y-14009603D02*
X9981429Y-14009603D01*
X9933810Y-13942936D02*
X9933810Y-14114365D01*
X9943333Y-14133412D01*
X9962381Y-14142936D01*
X9981429Y-14142936D01*
X10038571Y-14133412D02*
X10057619Y-14142936D01*
X10095714Y-14142936D01*
X10114762Y-14133412D01*
X10124286Y-14114365D01*
X10124286Y-14104841D01*
X10114762Y-14085793D01*
X10095714Y-14076269D01*
X10067143Y-14076269D01*
X10048095Y-14066746D01*
X10038571Y-14047698D01*
X10038571Y-14038174D01*
X10048095Y-14019127D01*
X10067143Y-14009603D01*
X10095714Y-14009603D01*
X10114762Y-14019127D01*
X10190952Y-14219127D02*
X10200476Y-14209603D01*
X10219524Y-14181031D01*
X10229048Y-14161984D01*
X10238571Y-14133412D01*
X10248095Y-14085793D01*
X10248095Y-14047698D01*
X10238571Y-14000079D01*
X10229048Y-13971508D01*
X10219524Y-13952460D01*
X10200476Y-13923888D01*
X10190952Y-13914365D01*
D20*
X3700000Y-14266460D02*
X3800000Y-14366460D01*
X3800000Y-14266460D02*
X3700000Y-14366460D01*
X3750000Y-14366460D02*
X3800000Y-14316460D01*
X3750000Y-14266460D01*
X3700000Y-14316460D01*
X3750000Y-14366460D01*
D11*
X4162381Y-14406936D02*
X4048095Y-14406936D01*
X4105238Y-14406936D02*
X4105238Y-14206936D01*
X4086190Y-14235508D01*
X4067143Y-14254555D01*
X4048095Y-14264079D01*
X4248095Y-14387888D02*
X4257619Y-14397412D01*
X4248095Y-14406936D01*
X4238571Y-14397412D01*
X4248095Y-14387888D01*
X4248095Y-14406936D01*
X4381429Y-14206936D02*
X4400476Y-14206936D01*
X4419524Y-14216460D01*
X4429048Y-14225984D01*
X4438571Y-14245031D01*
X4448095Y-14283127D01*
X4448095Y-14330746D01*
X4438571Y-14368841D01*
X4429048Y-14387888D01*
X4419524Y-14397412D01*
X4400476Y-14406936D01*
X4381429Y-14406936D01*
X4362381Y-14397412D01*
X4352857Y-14387888D01*
X4343333Y-14368841D01*
X4333810Y-14330746D01*
X4333810Y-14283127D01*
X4343333Y-14245031D01*
X4352857Y-14225984D01*
X4362381Y-14216460D01*
X4381429Y-14206936D01*
X4571905Y-14206936D02*
X4590952Y-14206936D01*
X4610000Y-14216460D01*
X4619524Y-14225984D01*
X4629048Y-14245031D01*
X4638571Y-14283127D01*
X4638571Y-14330746D01*
X4629048Y-14368841D01*
X4619524Y-14387888D01*
X4610000Y-14397412D01*
X4590952Y-14406936D01*
X4571905Y-14406936D01*
X4552857Y-14397412D01*
X4543333Y-14387888D01*
X4533810Y-14368841D01*
X4524286Y-14330746D01*
X4524286Y-14283127D01*
X4533810Y-14245031D01*
X4543333Y-14225984D01*
X4552857Y-14216460D01*
X4571905Y-14206936D01*
X4762381Y-14206936D02*
X4781429Y-14206936D01*
X4800476Y-14216460D01*
X4810000Y-14225984D01*
X4819524Y-14245031D01*
X4829048Y-14283127D01*
X4829048Y-14330746D01*
X4819524Y-14368841D01*
X4810000Y-14387888D01*
X4800476Y-14397412D01*
X4781429Y-14406936D01*
X4762381Y-14406936D01*
X4743333Y-14397412D01*
X4733810Y-14387888D01*
X4724286Y-14368841D01*
X4714762Y-14330746D01*
X4714762Y-14283127D01*
X4724286Y-14245031D01*
X4733810Y-14225984D01*
X4743333Y-14216460D01*
X4762381Y-14206936D01*
X4914762Y-14406936D02*
X4914762Y-14273603D01*
X4914762Y-14292650D02*
X4924286Y-14283127D01*
X4943333Y-14273603D01*
X4971905Y-14273603D01*
X4990952Y-14283127D01*
X5000476Y-14302174D01*
X5000476Y-14406936D01*
X5000476Y-14302174D02*
X5010000Y-14283127D01*
X5029048Y-14273603D01*
X5057619Y-14273603D01*
X5076667Y-14283127D01*
X5086190Y-14302174D01*
X5086190Y-14406936D01*
X5181429Y-14406936D02*
X5181429Y-14273603D01*
X5181429Y-14292650D02*
X5190952Y-14283127D01*
X5210000Y-14273603D01*
X5238571Y-14273603D01*
X5257619Y-14283127D01*
X5267143Y-14302174D01*
X5267143Y-14406936D01*
X5267143Y-14302174D02*
X5276667Y-14283127D01*
X5295714Y-14273603D01*
X5324286Y-14273603D01*
X5343333Y-14283127D01*
X5352857Y-14302174D01*
X5352857Y-14406936D01*
X5743333Y-14197412D02*
X5571905Y-14454555D01*
X6000476Y-14206936D02*
X6019524Y-14206936D01*
X6038571Y-14216460D01*
X6048095Y-14225984D01*
X6057619Y-14245031D01*
X6067143Y-14283127D01*
X6067143Y-14330746D01*
X6057619Y-14368841D01*
X6048095Y-14387888D01*
X6038571Y-14397412D01*
X6019524Y-14406936D01*
X6000476Y-14406936D01*
X5981428Y-14397412D01*
X5971905Y-14387888D01*
X5962381Y-14368841D01*
X5952857Y-14330746D01*
X5952857Y-14283127D01*
X5962381Y-14245031D01*
X5971905Y-14225984D01*
X5981428Y-14216460D01*
X6000476Y-14206936D01*
X6152857Y-14387888D02*
X6162381Y-14397412D01*
X6152857Y-14406936D01*
X6143333Y-14397412D01*
X6152857Y-14387888D01*
X6152857Y-14406936D01*
X6286190Y-14206936D02*
X6305238Y-14206936D01*
X6324286Y-14216460D01*
X6333809Y-14225984D01*
X6343333Y-14245031D01*
X6352857Y-14283127D01*
X6352857Y-14330746D01*
X6343333Y-14368841D01*
X6333809Y-14387888D01*
X6324286Y-14397412D01*
X6305238Y-14406936D01*
X6286190Y-14406936D01*
X6267143Y-14397412D01*
X6257619Y-14387888D01*
X6248095Y-14368841D01*
X6238571Y-14330746D01*
X6238571Y-14283127D01*
X6248095Y-14245031D01*
X6257619Y-14225984D01*
X6267143Y-14216460D01*
X6286190Y-14206936D01*
X6419524Y-14206936D02*
X6543333Y-14206936D01*
X6476667Y-14283127D01*
X6505238Y-14283127D01*
X6524286Y-14292650D01*
X6533809Y-14302174D01*
X6543333Y-14321222D01*
X6543333Y-14368841D01*
X6533809Y-14387888D01*
X6524286Y-14397412D01*
X6505238Y-14406936D01*
X6448095Y-14406936D01*
X6429048Y-14397412D01*
X6419524Y-14387888D01*
X6638571Y-14406936D02*
X6676667Y-14406936D01*
X6695714Y-14397412D01*
X6705238Y-14387888D01*
X6724286Y-14359317D01*
X6733809Y-14321222D01*
X6733809Y-14245031D01*
X6724286Y-14225984D01*
X6714762Y-14216460D01*
X6695714Y-14206936D01*
X6657619Y-14206936D01*
X6638571Y-14216460D01*
X6629048Y-14225984D01*
X6619524Y-14245031D01*
X6619524Y-14292650D01*
X6629048Y-14311698D01*
X6638571Y-14321222D01*
X6657619Y-14330746D01*
X6695714Y-14330746D01*
X6714762Y-14321222D01*
X6724286Y-14311698D01*
X6733809Y-14292650D01*
X6905238Y-14273603D02*
X6905238Y-14406936D01*
X6857619Y-14197412D02*
X6810000Y-14340269D01*
X6933809Y-14340269D01*
X7000476Y-14206936D02*
X7000476Y-14245031D01*
X7076667Y-14206936D02*
X7076667Y-14245031D01*
X7371905Y-14483127D02*
X7362381Y-14473603D01*
X7343333Y-14445031D01*
X7333809Y-14425984D01*
X7324286Y-14397412D01*
X7314762Y-14349793D01*
X7314762Y-14311698D01*
X7324286Y-14264079D01*
X7333809Y-14235508D01*
X7343333Y-14216460D01*
X7362381Y-14187888D01*
X7371905Y-14178365D01*
X7429048Y-14206936D02*
X7552857Y-14206936D01*
X7486190Y-14283127D01*
X7514762Y-14283127D01*
X7533809Y-14292650D01*
X7543333Y-14302174D01*
X7552857Y-14321222D01*
X7552857Y-14368841D01*
X7543333Y-14387888D01*
X7533809Y-14397412D01*
X7514762Y-14406936D01*
X7457619Y-14406936D01*
X7438571Y-14397412D01*
X7429048Y-14387888D01*
X7629048Y-14225984D02*
X7638571Y-14216460D01*
X7657619Y-14206936D01*
X7705238Y-14206936D01*
X7724286Y-14216460D01*
X7733809Y-14225984D01*
X7743333Y-14245031D01*
X7743333Y-14264079D01*
X7733809Y-14292650D01*
X7619524Y-14406936D01*
X7743333Y-14406936D01*
X7981428Y-14406936D02*
X7981428Y-14206936D01*
X8067143Y-14406936D02*
X8067143Y-14302174D01*
X8057619Y-14283127D01*
X8038571Y-14273603D01*
X8010000Y-14273603D01*
X7990952Y-14283127D01*
X7981428Y-14292650D01*
X8190952Y-14406936D02*
X8171905Y-14397412D01*
X8162381Y-14387888D01*
X8152857Y-14368841D01*
X8152857Y-14311698D01*
X8162381Y-14292650D01*
X8171905Y-14283127D01*
X8190952Y-14273603D01*
X8219524Y-14273603D01*
X8238571Y-14283127D01*
X8248095Y-14292650D01*
X8257619Y-14311698D01*
X8257619Y-14368841D01*
X8248095Y-14387888D01*
X8238571Y-14397412D01*
X8219524Y-14406936D01*
X8190952Y-14406936D01*
X8371905Y-14406936D02*
X8352857Y-14397412D01*
X8343333Y-14378365D01*
X8343333Y-14206936D01*
X8524286Y-14397412D02*
X8505238Y-14406936D01*
X8467143Y-14406936D01*
X8448095Y-14397412D01*
X8438571Y-14378365D01*
X8438571Y-14302174D01*
X8448095Y-14283127D01*
X8467143Y-14273603D01*
X8505238Y-14273603D01*
X8524286Y-14283127D01*
X8533810Y-14302174D01*
X8533810Y-14321222D01*
X8438571Y-14340269D01*
X8610000Y-14397412D02*
X8629048Y-14406936D01*
X8667143Y-14406936D01*
X8686190Y-14397412D01*
X8695714Y-14378365D01*
X8695714Y-14368841D01*
X8686190Y-14349793D01*
X8667143Y-14340269D01*
X8638571Y-14340269D01*
X8619524Y-14330746D01*
X8610000Y-14311698D01*
X8610000Y-14302174D01*
X8619524Y-14283127D01*
X8638571Y-14273603D01*
X8667143Y-14273603D01*
X8686190Y-14283127D01*
X8933810Y-14330746D02*
X9086190Y-14330746D01*
X9010000Y-14406936D02*
X9010000Y-14254555D01*
X9419524Y-14206936D02*
X9381429Y-14206936D01*
X9362381Y-14216460D01*
X9352857Y-14225984D01*
X9333810Y-14254555D01*
X9324286Y-14292650D01*
X9324286Y-14368841D01*
X9333810Y-14387888D01*
X9343333Y-14397412D01*
X9362381Y-14406936D01*
X9400476Y-14406936D01*
X9419524Y-14397412D01*
X9429048Y-14387888D01*
X9438571Y-14368841D01*
X9438571Y-14321222D01*
X9429048Y-14302174D01*
X9419524Y-14292650D01*
X9400476Y-14283127D01*
X9362381Y-14283127D01*
X9343333Y-14292650D01*
X9333810Y-14302174D01*
X9324286Y-14321222D01*
X9667143Y-14397412D02*
X9686190Y-14406936D01*
X9724286Y-14406936D01*
X9743333Y-14397412D01*
X9752857Y-14378365D01*
X9752857Y-14368841D01*
X9743333Y-14349793D01*
X9724286Y-14340269D01*
X9695714Y-14340269D01*
X9676667Y-14330746D01*
X9667143Y-14311698D01*
X9667143Y-14302174D01*
X9676667Y-14283127D01*
X9695714Y-14273603D01*
X9724286Y-14273603D01*
X9743333Y-14283127D01*
X9867143Y-14406936D02*
X9848095Y-14397412D01*
X9838571Y-14378365D01*
X9838571Y-14206936D01*
X9971905Y-14406936D02*
X9952857Y-14397412D01*
X9943333Y-14387888D01*
X9933810Y-14368841D01*
X9933810Y-14311698D01*
X9943333Y-14292650D01*
X9952857Y-14283127D01*
X9971905Y-14273603D01*
X10000476Y-14273603D01*
X10019524Y-14283127D01*
X10029048Y-14292650D01*
X10038571Y-14311698D01*
X10038571Y-14368841D01*
X10029048Y-14387888D01*
X10019524Y-14397412D01*
X10000476Y-14406936D01*
X9971905Y-14406936D01*
X10095714Y-14273603D02*
X10171905Y-14273603D01*
X10124286Y-14206936D02*
X10124286Y-14378365D01*
X10133810Y-14397412D01*
X10152857Y-14406936D01*
X10171905Y-14406936D01*
X10229048Y-14397412D02*
X10248095Y-14406936D01*
X10286190Y-14406936D01*
X10305238Y-14397412D01*
X10314762Y-14378365D01*
X10314762Y-14368841D01*
X10305238Y-14349793D01*
X10286190Y-14340269D01*
X10257619Y-14340269D01*
X10238571Y-14330746D01*
X10229048Y-14311698D01*
X10229048Y-14302174D01*
X10238571Y-14283127D01*
X10257619Y-14273603D01*
X10286190Y-14273603D01*
X10305238Y-14283127D01*
X10381429Y-14483127D02*
X10390952Y-14473603D01*
X10410000Y-14445031D01*
X10419524Y-14425984D01*
X10429048Y-14397412D01*
X10438571Y-14349793D01*
X10438571Y-14311698D01*
X10429048Y-14264079D01*
X10419524Y-14235508D01*
X10410000Y-14216460D01*
X10390952Y-14187888D01*
X10381429Y-14178365D01*
D21*
X3749200Y-14529660D02*
X3749200Y-14631260D01*
X3698400Y-14580460D02*
X3800000Y-14580460D01*
X3800000Y-14580460D02*
G75*
G03*
X3800000Y-14580460I-50800J0D01*
G01*
D11*
X4162381Y-14670936D02*
X4048095Y-14670936D01*
X4105238Y-14670936D02*
X4105238Y-14470936D01*
X4086190Y-14499508D01*
X4067143Y-14518555D01*
X4048095Y-14528079D01*
X4248095Y-14651888D02*
X4257619Y-14661412D01*
X4248095Y-14670936D01*
X4238571Y-14661412D01*
X4248095Y-14651888D01*
X4248095Y-14670936D01*
X4381429Y-14470936D02*
X4400476Y-14470936D01*
X4419524Y-14480460D01*
X4429048Y-14489984D01*
X4438571Y-14509031D01*
X4448095Y-14547127D01*
X4448095Y-14594746D01*
X4438571Y-14632841D01*
X4429048Y-14651888D01*
X4419524Y-14661412D01*
X4400476Y-14670936D01*
X4381429Y-14670936D01*
X4362381Y-14661412D01*
X4352857Y-14651888D01*
X4343333Y-14632841D01*
X4333810Y-14594746D01*
X4333810Y-14547127D01*
X4343333Y-14509031D01*
X4352857Y-14489984D01*
X4362381Y-14480460D01*
X4381429Y-14470936D01*
X4638571Y-14670936D02*
X4524286Y-14670936D01*
X4581429Y-14670936D02*
X4581429Y-14470936D01*
X4562381Y-14499508D01*
X4543333Y-14518555D01*
X4524286Y-14528079D01*
X4810000Y-14470936D02*
X4771905Y-14470936D01*
X4752857Y-14480460D01*
X4743333Y-14489984D01*
X4724286Y-14518555D01*
X4714762Y-14556650D01*
X4714762Y-14632841D01*
X4724286Y-14651888D01*
X4733810Y-14661412D01*
X4752857Y-14670936D01*
X4790952Y-14670936D01*
X4810000Y-14661412D01*
X4819524Y-14651888D01*
X4829048Y-14632841D01*
X4829048Y-14585222D01*
X4819524Y-14566174D01*
X4810000Y-14556650D01*
X4790952Y-14547127D01*
X4752857Y-14547127D01*
X4733810Y-14556650D01*
X4724286Y-14566174D01*
X4714762Y-14585222D01*
X4914762Y-14670936D02*
X4914762Y-14537603D01*
X4914762Y-14556650D02*
X4924286Y-14547127D01*
X4943333Y-14537603D01*
X4971905Y-14537603D01*
X4990952Y-14547127D01*
X5000476Y-14566174D01*
X5000476Y-14670936D01*
X5000476Y-14566174D02*
X5010000Y-14547127D01*
X5029048Y-14537603D01*
X5057619Y-14537603D01*
X5076667Y-14547127D01*
X5086190Y-14566174D01*
X5086190Y-14670936D01*
X5181429Y-14670936D02*
X5181429Y-14537603D01*
X5181429Y-14556650D02*
X5190952Y-14547127D01*
X5210000Y-14537603D01*
X5238571Y-14537603D01*
X5257619Y-14547127D01*
X5267143Y-14566174D01*
X5267143Y-14670936D01*
X5267143Y-14566174D02*
X5276667Y-14547127D01*
X5295714Y-14537603D01*
X5324286Y-14537603D01*
X5343333Y-14547127D01*
X5352857Y-14566174D01*
X5352857Y-14670936D01*
X5743333Y-14461412D02*
X5571905Y-14718555D01*
X6000476Y-14470936D02*
X6019524Y-14470936D01*
X6038571Y-14480460D01*
X6048095Y-14489984D01*
X6057619Y-14509031D01*
X6067143Y-14547127D01*
X6067143Y-14594746D01*
X6057619Y-14632841D01*
X6048095Y-14651888D01*
X6038571Y-14661412D01*
X6019524Y-14670936D01*
X6000476Y-14670936D01*
X5981428Y-14661412D01*
X5971905Y-14651888D01*
X5962381Y-14632841D01*
X5952857Y-14594746D01*
X5952857Y-14547127D01*
X5962381Y-14509031D01*
X5971905Y-14489984D01*
X5981428Y-14480460D01*
X6000476Y-14470936D01*
X6152857Y-14651888D02*
X6162381Y-14661412D01*
X6152857Y-14670936D01*
X6143333Y-14661412D01*
X6152857Y-14651888D01*
X6152857Y-14670936D01*
X6286190Y-14470936D02*
X6305238Y-14470936D01*
X6324286Y-14480460D01*
X6333809Y-14489984D01*
X6343333Y-14509031D01*
X6352857Y-14547127D01*
X6352857Y-14594746D01*
X6343333Y-14632841D01*
X6333809Y-14651888D01*
X6324286Y-14661412D01*
X6305238Y-14670936D01*
X6286190Y-14670936D01*
X6267143Y-14661412D01*
X6257619Y-14651888D01*
X6248095Y-14632841D01*
X6238571Y-14594746D01*
X6238571Y-14547127D01*
X6248095Y-14509031D01*
X6257619Y-14489984D01*
X6267143Y-14480460D01*
X6286190Y-14470936D01*
X6524286Y-14537603D02*
X6524286Y-14670936D01*
X6476667Y-14461412D02*
X6429048Y-14604269D01*
X6552857Y-14604269D01*
X6667143Y-14470936D02*
X6686190Y-14470936D01*
X6705238Y-14480460D01*
X6714762Y-14489984D01*
X6724286Y-14509031D01*
X6733809Y-14547127D01*
X6733809Y-14594746D01*
X6724286Y-14632841D01*
X6714762Y-14651888D01*
X6705238Y-14661412D01*
X6686190Y-14670936D01*
X6667143Y-14670936D01*
X6648095Y-14661412D01*
X6638571Y-14651888D01*
X6629048Y-14632841D01*
X6619524Y-14594746D01*
X6619524Y-14547127D01*
X6629048Y-14509031D01*
X6638571Y-14489984D01*
X6648095Y-14480460D01*
X6667143Y-14470936D01*
X6857619Y-14470936D02*
X6876667Y-14470936D01*
X6895714Y-14480460D01*
X6905238Y-14489984D01*
X6914762Y-14509031D01*
X6924286Y-14547127D01*
X6924286Y-14594746D01*
X6914762Y-14632841D01*
X6905238Y-14651888D01*
X6895714Y-14661412D01*
X6876667Y-14670936D01*
X6857619Y-14670936D01*
X6838571Y-14661412D01*
X6829048Y-14651888D01*
X6819524Y-14632841D01*
X6810000Y-14594746D01*
X6810000Y-14547127D01*
X6819524Y-14509031D01*
X6829048Y-14489984D01*
X6838571Y-14480460D01*
X6857619Y-14470936D01*
X7000476Y-14470936D02*
X7000476Y-14509031D01*
X7076667Y-14470936D02*
X7076667Y-14509031D01*
X7371905Y-14747127D02*
X7362381Y-14737603D01*
X7343333Y-14709031D01*
X7333809Y-14689984D01*
X7324286Y-14661412D01*
X7314762Y-14613793D01*
X7314762Y-14575698D01*
X7324286Y-14528079D01*
X7333809Y-14499508D01*
X7343333Y-14480460D01*
X7362381Y-14451888D01*
X7371905Y-14442365D01*
X7476667Y-14556650D02*
X7457619Y-14547127D01*
X7448095Y-14537603D01*
X7438571Y-14518555D01*
X7438571Y-14509031D01*
X7448095Y-14489984D01*
X7457619Y-14480460D01*
X7476667Y-14470936D01*
X7514762Y-14470936D01*
X7533809Y-14480460D01*
X7543333Y-14489984D01*
X7552857Y-14509031D01*
X7552857Y-14518555D01*
X7543333Y-14537603D01*
X7533809Y-14547127D01*
X7514762Y-14556650D01*
X7476667Y-14556650D01*
X7457619Y-14566174D01*
X7448095Y-14575698D01*
X7438571Y-14594746D01*
X7438571Y-14632841D01*
X7448095Y-14651888D01*
X7457619Y-14661412D01*
X7476667Y-14670936D01*
X7514762Y-14670936D01*
X7533809Y-14661412D01*
X7543333Y-14651888D01*
X7552857Y-14632841D01*
X7552857Y-14594746D01*
X7543333Y-14575698D01*
X7533809Y-14566174D01*
X7514762Y-14556650D01*
X7790952Y-14670936D02*
X7790952Y-14470936D01*
X7876667Y-14670936D02*
X7876667Y-14566174D01*
X7867143Y-14547127D01*
X7848095Y-14537603D01*
X7819524Y-14537603D01*
X7800476Y-14547127D01*
X7790952Y-14556650D01*
X8000476Y-14670936D02*
X7981428Y-14661412D01*
X7971905Y-14651888D01*
X7962381Y-14632841D01*
X7962381Y-14575698D01*
X7971905Y-14556650D01*
X7981428Y-14547127D01*
X8000476Y-14537603D01*
X8029048Y-14537603D01*
X8048095Y-14547127D01*
X8057619Y-14556650D01*
X8067143Y-14575698D01*
X8067143Y-14632841D01*
X8057619Y-14651888D01*
X8048095Y-14661412D01*
X8029048Y-14670936D01*
X8000476Y-14670936D01*
X8181428Y-14670936D02*
X8162381Y-14661412D01*
X8152857Y-14642365D01*
X8152857Y-14470936D01*
X8333809Y-14661412D02*
X8314762Y-14670936D01*
X8276667Y-14670936D01*
X8257619Y-14661412D01*
X8248095Y-14642365D01*
X8248095Y-14566174D01*
X8257619Y-14547127D01*
X8276667Y-14537603D01*
X8314762Y-14537603D01*
X8333809Y-14547127D01*
X8343333Y-14566174D01*
X8343333Y-14585222D01*
X8248095Y-14604269D01*
X8419524Y-14661412D02*
X8438571Y-14670936D01*
X8476667Y-14670936D01*
X8495714Y-14661412D01*
X8505238Y-14642365D01*
X8505238Y-14632841D01*
X8495714Y-14613793D01*
X8476667Y-14604269D01*
X8448095Y-14604269D01*
X8429048Y-14594746D01*
X8419524Y-14575698D01*
X8419524Y-14566174D01*
X8429048Y-14547127D01*
X8448095Y-14537603D01*
X8476667Y-14537603D01*
X8495714Y-14547127D01*
X8571905Y-14747127D02*
X8581429Y-14737603D01*
X8600476Y-14709031D01*
X8610000Y-14689984D01*
X8619524Y-14661412D01*
X8629048Y-14613793D01*
X8629048Y-14575698D01*
X8619524Y-14528079D01*
X8610000Y-14499508D01*
X8600476Y-14480460D01*
X8581429Y-14451888D01*
X8571905Y-14442365D01*
D22*
X3783891Y-14883351D02*
X3783891Y-14805569D01*
X3706109Y-14805569D01*
X3706109Y-14883351D01*
X3783891Y-14883351D01*
X3800000Y-14844460D02*
G75*
G03*
X3800000Y-14844460I-55000J0D01*
G01*
D11*
X4162381Y-14934936D02*
X4048095Y-14934936D01*
X4105238Y-14934936D02*
X4105238Y-14734936D01*
X4086190Y-14763508D01*
X4067143Y-14782555D01*
X4048095Y-14792079D01*
X4248095Y-14915888D02*
X4257619Y-14925412D01*
X4248095Y-14934936D01*
X4238571Y-14925412D01*
X4248095Y-14915888D01*
X4248095Y-14934936D01*
X4448095Y-14934936D02*
X4333810Y-14934936D01*
X4390952Y-14934936D02*
X4390952Y-14734936D01*
X4371905Y-14763508D01*
X4352857Y-14782555D01*
X4333810Y-14792079D01*
X4571905Y-14734936D02*
X4590952Y-14734936D01*
X4610000Y-14744460D01*
X4619524Y-14753984D01*
X4629048Y-14773031D01*
X4638571Y-14811127D01*
X4638571Y-14858746D01*
X4629048Y-14896841D01*
X4619524Y-14915888D01*
X4610000Y-14925412D01*
X4590952Y-14934936D01*
X4571905Y-14934936D01*
X4552857Y-14925412D01*
X4543333Y-14915888D01*
X4533810Y-14896841D01*
X4524286Y-14858746D01*
X4524286Y-14811127D01*
X4533810Y-14773031D01*
X4543333Y-14753984D01*
X4552857Y-14744460D01*
X4571905Y-14734936D01*
X4762381Y-14734936D02*
X4781429Y-14734936D01*
X4800476Y-14744460D01*
X4810000Y-14753984D01*
X4819524Y-14773031D01*
X4829048Y-14811127D01*
X4829048Y-14858746D01*
X4819524Y-14896841D01*
X4810000Y-14915888D01*
X4800476Y-14925412D01*
X4781429Y-14934936D01*
X4762381Y-14934936D01*
X4743333Y-14925412D01*
X4733810Y-14915888D01*
X4724286Y-14896841D01*
X4714762Y-14858746D01*
X4714762Y-14811127D01*
X4724286Y-14773031D01*
X4733810Y-14753984D01*
X4743333Y-14744460D01*
X4762381Y-14734936D01*
X4914762Y-14934936D02*
X4914762Y-14801603D01*
X4914762Y-14820650D02*
X4924286Y-14811127D01*
X4943333Y-14801603D01*
X4971905Y-14801603D01*
X4990952Y-14811127D01*
X5000476Y-14830174D01*
X5000476Y-14934936D01*
X5000476Y-14830174D02*
X5010000Y-14811127D01*
X5029048Y-14801603D01*
X5057619Y-14801603D01*
X5076667Y-14811127D01*
X5086190Y-14830174D01*
X5086190Y-14934936D01*
X5181429Y-14934936D02*
X5181429Y-14801603D01*
X5181429Y-14820650D02*
X5190952Y-14811127D01*
X5210000Y-14801603D01*
X5238571Y-14801603D01*
X5257619Y-14811127D01*
X5267143Y-14830174D01*
X5267143Y-14934936D01*
X5267143Y-14830174D02*
X5276667Y-14811127D01*
X5295714Y-14801603D01*
X5324286Y-14801603D01*
X5343333Y-14811127D01*
X5352857Y-14830174D01*
X5352857Y-14934936D01*
X5743333Y-14725412D02*
X5571905Y-14982555D01*
X6000476Y-14734936D02*
X6019524Y-14734936D01*
X6038571Y-14744460D01*
X6048095Y-14753984D01*
X6057619Y-14773031D01*
X6067143Y-14811127D01*
X6067143Y-14858746D01*
X6057619Y-14896841D01*
X6048095Y-14915888D01*
X6038571Y-14925412D01*
X6019524Y-14934936D01*
X6000476Y-14934936D01*
X5981428Y-14925412D01*
X5971905Y-14915888D01*
X5962381Y-14896841D01*
X5952857Y-14858746D01*
X5952857Y-14811127D01*
X5962381Y-14773031D01*
X5971905Y-14753984D01*
X5981428Y-14744460D01*
X6000476Y-14734936D01*
X6152857Y-14915888D02*
X6162381Y-14925412D01*
X6152857Y-14934936D01*
X6143333Y-14925412D01*
X6152857Y-14915888D01*
X6152857Y-14934936D01*
X6286190Y-14734936D02*
X6305238Y-14734936D01*
X6324286Y-14744460D01*
X6333809Y-14753984D01*
X6343333Y-14773031D01*
X6352857Y-14811127D01*
X6352857Y-14858746D01*
X6343333Y-14896841D01*
X6333809Y-14915888D01*
X6324286Y-14925412D01*
X6305238Y-14934936D01*
X6286190Y-14934936D01*
X6267143Y-14925412D01*
X6257619Y-14915888D01*
X6248095Y-14896841D01*
X6238571Y-14858746D01*
X6238571Y-14811127D01*
X6248095Y-14773031D01*
X6257619Y-14753984D01*
X6267143Y-14744460D01*
X6286190Y-14734936D01*
X6524286Y-14801603D02*
X6524286Y-14934936D01*
X6476667Y-14725412D02*
X6429048Y-14868269D01*
X6552857Y-14868269D01*
X6610000Y-14734936D02*
X6733809Y-14734936D01*
X6667143Y-14811127D01*
X6695714Y-14811127D01*
X6714762Y-14820650D01*
X6724286Y-14830174D01*
X6733809Y-14849222D01*
X6733809Y-14896841D01*
X6724286Y-14915888D01*
X6714762Y-14925412D01*
X6695714Y-14934936D01*
X6638571Y-14934936D01*
X6619524Y-14925412D01*
X6610000Y-14915888D01*
X6800476Y-14734936D02*
X6924286Y-14734936D01*
X6857619Y-14811127D01*
X6886190Y-14811127D01*
X6905238Y-14820650D01*
X6914762Y-14830174D01*
X6924286Y-14849222D01*
X6924286Y-14896841D01*
X6914762Y-14915888D01*
X6905238Y-14925412D01*
X6886190Y-14934936D01*
X6829048Y-14934936D01*
X6810000Y-14925412D01*
X6800476Y-14915888D01*
X7000476Y-14734936D02*
X7000476Y-14773031D01*
X7076667Y-14734936D02*
X7076667Y-14773031D01*
X7371905Y-15011127D02*
X7362381Y-15001603D01*
X7343333Y-14973031D01*
X7333809Y-14953984D01*
X7324286Y-14925412D01*
X7314762Y-14877793D01*
X7314762Y-14839698D01*
X7324286Y-14792079D01*
X7333809Y-14763508D01*
X7343333Y-14744460D01*
X7362381Y-14715888D01*
X7371905Y-14706365D01*
X7476667Y-14820650D02*
X7457619Y-14811127D01*
X7448095Y-14801603D01*
X7438571Y-14782555D01*
X7438571Y-14773031D01*
X7448095Y-14753984D01*
X7457619Y-14744460D01*
X7476667Y-14734936D01*
X7514762Y-14734936D01*
X7533809Y-14744460D01*
X7543333Y-14753984D01*
X7552857Y-14773031D01*
X7552857Y-14782555D01*
X7543333Y-14801603D01*
X7533809Y-14811127D01*
X7514762Y-14820650D01*
X7476667Y-14820650D01*
X7457619Y-14830174D01*
X7448095Y-14839698D01*
X7438571Y-14858746D01*
X7438571Y-14896841D01*
X7448095Y-14915888D01*
X7457619Y-14925412D01*
X7476667Y-14934936D01*
X7514762Y-14934936D01*
X7533809Y-14925412D01*
X7543333Y-14915888D01*
X7552857Y-14896841D01*
X7552857Y-14858746D01*
X7543333Y-14839698D01*
X7533809Y-14830174D01*
X7514762Y-14820650D01*
X7790952Y-14934936D02*
X7790952Y-14734936D01*
X7876667Y-14934936D02*
X7876667Y-14830174D01*
X7867143Y-14811127D01*
X7848095Y-14801603D01*
X7819524Y-14801603D01*
X7800476Y-14811127D01*
X7790952Y-14820650D01*
X8000476Y-14934936D02*
X7981428Y-14925412D01*
X7971905Y-14915888D01*
X7962381Y-14896841D01*
X7962381Y-14839698D01*
X7971905Y-14820650D01*
X7981428Y-14811127D01*
X8000476Y-14801603D01*
X8029048Y-14801603D01*
X8048095Y-14811127D01*
X8057619Y-14820650D01*
X8067143Y-14839698D01*
X8067143Y-14896841D01*
X8057619Y-14915888D01*
X8048095Y-14925412D01*
X8029048Y-14934936D01*
X8000476Y-14934936D01*
X8181428Y-14934936D02*
X8162381Y-14925412D01*
X8152857Y-14906365D01*
X8152857Y-14734936D01*
X8333809Y-14925412D02*
X8314762Y-14934936D01*
X8276667Y-14934936D01*
X8257619Y-14925412D01*
X8248095Y-14906365D01*
X8248095Y-14830174D01*
X8257619Y-14811127D01*
X8276667Y-14801603D01*
X8314762Y-14801603D01*
X8333809Y-14811127D01*
X8343333Y-14830174D01*
X8343333Y-14849222D01*
X8248095Y-14868269D01*
X8419524Y-14925412D02*
X8438571Y-14934936D01*
X8476667Y-14934936D01*
X8495714Y-14925412D01*
X8505238Y-14906365D01*
X8505238Y-14896841D01*
X8495714Y-14877793D01*
X8476667Y-14868269D01*
X8448095Y-14868269D01*
X8429048Y-14858746D01*
X8419524Y-14839698D01*
X8419524Y-14830174D01*
X8429048Y-14811127D01*
X8448095Y-14801603D01*
X8476667Y-14801603D01*
X8495714Y-14811127D01*
X8571905Y-15011127D02*
X8581429Y-15001603D01*
X8600476Y-14973031D01*
X8610000Y-14953984D01*
X8619524Y-14925412D01*
X8629048Y-14877793D01*
X8629048Y-14839698D01*
X8619524Y-14792079D01*
X8610000Y-14763508D01*
X8600476Y-14744460D01*
X8581429Y-14715888D01*
X8571905Y-14706365D01*
D23*
X3740000Y-15168460D02*
X3800000Y-15108460D01*
X3740000Y-15048460D01*
X3680000Y-15108460D01*
X3740000Y-15168460D01*
X3800000Y-15108460D02*
G75*
G03*
X3800000Y-15108460I-60000J0D01*
G01*
D11*
X4162381Y-15198936D02*
X4048095Y-15198936D01*
X4105238Y-15198936D02*
X4105238Y-14998936D01*
X4086190Y-15027508D01*
X4067143Y-15046555D01*
X4048095Y-15056079D01*
X4248095Y-15179888D02*
X4257619Y-15189412D01*
X4248095Y-15198936D01*
X4238571Y-15189412D01*
X4248095Y-15179888D01*
X4248095Y-15198936D01*
X4333810Y-15017984D02*
X4343333Y-15008460D01*
X4362381Y-14998936D01*
X4410000Y-14998936D01*
X4429048Y-15008460D01*
X4438571Y-15017984D01*
X4448095Y-15037031D01*
X4448095Y-15056079D01*
X4438571Y-15084650D01*
X4324286Y-15198936D01*
X4448095Y-15198936D01*
X4571905Y-14998936D02*
X4590952Y-14998936D01*
X4610000Y-15008460D01*
X4619524Y-15017984D01*
X4629048Y-15037031D01*
X4638571Y-15075127D01*
X4638571Y-15122746D01*
X4629048Y-15160841D01*
X4619524Y-15179888D01*
X4610000Y-15189412D01*
X4590952Y-15198936D01*
X4571905Y-15198936D01*
X4552857Y-15189412D01*
X4543333Y-15179888D01*
X4533810Y-15160841D01*
X4524286Y-15122746D01*
X4524286Y-15075127D01*
X4533810Y-15037031D01*
X4543333Y-15017984D01*
X4552857Y-15008460D01*
X4571905Y-14998936D01*
X4762381Y-14998936D02*
X4781429Y-14998936D01*
X4800476Y-15008460D01*
X4810000Y-15017984D01*
X4819524Y-15037031D01*
X4829048Y-15075127D01*
X4829048Y-15122746D01*
X4819524Y-15160841D01*
X4810000Y-15179888D01*
X4800476Y-15189412D01*
X4781429Y-15198936D01*
X4762381Y-15198936D01*
X4743333Y-15189412D01*
X4733810Y-15179888D01*
X4724286Y-15160841D01*
X4714762Y-15122746D01*
X4714762Y-15075127D01*
X4724286Y-15037031D01*
X4733810Y-15017984D01*
X4743333Y-15008460D01*
X4762381Y-14998936D01*
X4914762Y-15198936D02*
X4914762Y-15065603D01*
X4914762Y-15084650D02*
X4924286Y-15075127D01*
X4943333Y-15065603D01*
X4971905Y-15065603D01*
X4990952Y-15075127D01*
X5000476Y-15094174D01*
X5000476Y-15198936D01*
X5000476Y-15094174D02*
X5010000Y-15075127D01*
X5029048Y-15065603D01*
X5057619Y-15065603D01*
X5076667Y-15075127D01*
X5086190Y-15094174D01*
X5086190Y-15198936D01*
X5181429Y-15198936D02*
X5181429Y-15065603D01*
X5181429Y-15084650D02*
X5190952Y-15075127D01*
X5210000Y-15065603D01*
X5238571Y-15065603D01*
X5257619Y-15075127D01*
X5267143Y-15094174D01*
X5267143Y-15198936D01*
X5267143Y-15094174D02*
X5276667Y-15075127D01*
X5295714Y-15065603D01*
X5324286Y-15065603D01*
X5343333Y-15075127D01*
X5352857Y-15094174D01*
X5352857Y-15198936D01*
X5743333Y-14989412D02*
X5571905Y-15246555D01*
X6000476Y-14998936D02*
X6019524Y-14998936D01*
X6038571Y-15008460D01*
X6048095Y-15017984D01*
X6057619Y-15037031D01*
X6067143Y-15075127D01*
X6067143Y-15122746D01*
X6057619Y-15160841D01*
X6048095Y-15179888D01*
X6038571Y-15189412D01*
X6019524Y-15198936D01*
X6000476Y-15198936D01*
X5981428Y-15189412D01*
X5971905Y-15179888D01*
X5962381Y-15160841D01*
X5952857Y-15122746D01*
X5952857Y-15075127D01*
X5962381Y-15037031D01*
X5971905Y-15017984D01*
X5981428Y-15008460D01*
X6000476Y-14998936D01*
X6152857Y-15179888D02*
X6162381Y-15189412D01*
X6152857Y-15198936D01*
X6143333Y-15189412D01*
X6152857Y-15179888D01*
X6152857Y-15198936D01*
X6286190Y-14998936D02*
X6305238Y-14998936D01*
X6324286Y-15008460D01*
X6333809Y-15017984D01*
X6343333Y-15037031D01*
X6352857Y-15075127D01*
X6352857Y-15122746D01*
X6343333Y-15160841D01*
X6333809Y-15179888D01*
X6324286Y-15189412D01*
X6305238Y-15198936D01*
X6286190Y-15198936D01*
X6267143Y-15189412D01*
X6257619Y-15179888D01*
X6248095Y-15160841D01*
X6238571Y-15122746D01*
X6238571Y-15075127D01*
X6248095Y-15037031D01*
X6257619Y-15017984D01*
X6267143Y-15008460D01*
X6286190Y-14998936D01*
X6524286Y-15065603D02*
X6524286Y-15198936D01*
X6476667Y-14989412D02*
X6429048Y-15132269D01*
X6552857Y-15132269D01*
X6610000Y-14998936D02*
X6743333Y-14998936D01*
X6657619Y-15198936D01*
X6810000Y-15017984D02*
X6819524Y-15008460D01*
X6838571Y-14998936D01*
X6886190Y-14998936D01*
X6905238Y-15008460D01*
X6914762Y-15017984D01*
X6924286Y-15037031D01*
X6924286Y-15056079D01*
X6914762Y-15084650D01*
X6800476Y-15198936D01*
X6924286Y-15198936D01*
X7000476Y-14998936D02*
X7000476Y-15037031D01*
X7076667Y-14998936D02*
X7076667Y-15037031D01*
X7371905Y-15275127D02*
X7362381Y-15265603D01*
X7343333Y-15237031D01*
X7333809Y-15217984D01*
X7324286Y-15189412D01*
X7314762Y-15141793D01*
X7314762Y-15103698D01*
X7324286Y-15056079D01*
X7333809Y-15027508D01*
X7343333Y-15008460D01*
X7362381Y-14979888D01*
X7371905Y-14970365D01*
X7429048Y-14998936D02*
X7552857Y-14998936D01*
X7486190Y-15075127D01*
X7514762Y-15075127D01*
X7533809Y-15084650D01*
X7543333Y-15094174D01*
X7552857Y-15113222D01*
X7552857Y-15160841D01*
X7543333Y-15179888D01*
X7533809Y-15189412D01*
X7514762Y-15198936D01*
X7457619Y-15198936D01*
X7438571Y-15189412D01*
X7429048Y-15179888D01*
X7790952Y-15198936D02*
X7790952Y-14998936D01*
X7876667Y-15198936D02*
X7876667Y-15094174D01*
X7867143Y-15075127D01*
X7848095Y-15065603D01*
X7819524Y-15065603D01*
X7800476Y-15075127D01*
X7790952Y-15084650D01*
X8000476Y-15198936D02*
X7981428Y-15189412D01*
X7971905Y-15179888D01*
X7962381Y-15160841D01*
X7962381Y-15103698D01*
X7971905Y-15084650D01*
X7981428Y-15075127D01*
X8000476Y-15065603D01*
X8029048Y-15065603D01*
X8048095Y-15075127D01*
X8057619Y-15084650D01*
X8067143Y-15103698D01*
X8067143Y-15160841D01*
X8057619Y-15179888D01*
X8048095Y-15189412D01*
X8029048Y-15198936D01*
X8000476Y-15198936D01*
X8181428Y-15198936D02*
X8162381Y-15189412D01*
X8152857Y-15170365D01*
X8152857Y-14998936D01*
X8333809Y-15189412D02*
X8314762Y-15198936D01*
X8276667Y-15198936D01*
X8257619Y-15189412D01*
X8248095Y-15170365D01*
X8248095Y-15094174D01*
X8257619Y-15075127D01*
X8276667Y-15065603D01*
X8314762Y-15065603D01*
X8333809Y-15075127D01*
X8343333Y-15094174D01*
X8343333Y-15113222D01*
X8248095Y-15132269D01*
X8419524Y-15189412D02*
X8438571Y-15198936D01*
X8476667Y-15198936D01*
X8495714Y-15189412D01*
X8505238Y-15170365D01*
X8505238Y-15160841D01*
X8495714Y-15141793D01*
X8476667Y-15132269D01*
X8448095Y-15132269D01*
X8429048Y-15122746D01*
X8419524Y-15103698D01*
X8419524Y-15094174D01*
X8429048Y-15075127D01*
X8448095Y-15065603D01*
X8476667Y-15065603D01*
X8495714Y-15075127D01*
X8571905Y-15275127D02*
X8581429Y-15265603D01*
X8600476Y-15237031D01*
X8610000Y-15217984D01*
X8619524Y-15189412D01*
X8629048Y-15141793D01*
X8629048Y-15103698D01*
X8619524Y-15056079D01*
X8610000Y-15027508D01*
X8600476Y-15008460D01*
X8581429Y-14979888D01*
X8571905Y-14970365D01*
D24*
X3733960Y-15306420D02*
X3733960Y-15438500D01*
X3667920Y-15372460D02*
X3800000Y-15372460D01*
X3780658Y-15419158D02*
X3780658Y-15325762D01*
X3687262Y-15325762D01*
X3687262Y-15419158D01*
X3780658Y-15419158D01*
D11*
X4162381Y-15462936D02*
X4048095Y-15462936D01*
X4105238Y-15462936D02*
X4105238Y-15262936D01*
X4086190Y-15291508D01*
X4067143Y-15310555D01*
X4048095Y-15320079D01*
X4248095Y-15443888D02*
X4257619Y-15453412D01*
X4248095Y-15462936D01*
X4238571Y-15453412D01*
X4248095Y-15443888D01*
X4248095Y-15462936D01*
X4324286Y-15262936D02*
X4448095Y-15262936D01*
X4381429Y-15339127D01*
X4410000Y-15339127D01*
X4429048Y-15348650D01*
X4438571Y-15358174D01*
X4448095Y-15377222D01*
X4448095Y-15424841D01*
X4438571Y-15443888D01*
X4429048Y-15453412D01*
X4410000Y-15462936D01*
X4352857Y-15462936D01*
X4333810Y-15453412D01*
X4324286Y-15443888D01*
X4524286Y-15281984D02*
X4533810Y-15272460D01*
X4552857Y-15262936D01*
X4600476Y-15262936D01*
X4619524Y-15272460D01*
X4629048Y-15281984D01*
X4638571Y-15301031D01*
X4638571Y-15320079D01*
X4629048Y-15348650D01*
X4514762Y-15462936D01*
X4638571Y-15462936D01*
X4829048Y-15462936D02*
X4714762Y-15462936D01*
X4771905Y-15462936D02*
X4771905Y-15262936D01*
X4752857Y-15291508D01*
X4733810Y-15310555D01*
X4714762Y-15320079D01*
X4914762Y-15462936D02*
X4914762Y-15329603D01*
X4914762Y-15348650D02*
X4924286Y-15339127D01*
X4943333Y-15329603D01*
X4971905Y-15329603D01*
X4990952Y-15339127D01*
X5000476Y-15358174D01*
X5000476Y-15462936D01*
X5000476Y-15358174D02*
X5010000Y-15339127D01*
X5029048Y-15329603D01*
X5057619Y-15329603D01*
X5076667Y-15339127D01*
X5086190Y-15358174D01*
X5086190Y-15462936D01*
X5181429Y-15462936D02*
X5181429Y-15329603D01*
X5181429Y-15348650D02*
X5190952Y-15339127D01*
X5210000Y-15329603D01*
X5238571Y-15329603D01*
X5257619Y-15339127D01*
X5267143Y-15358174D01*
X5267143Y-15462936D01*
X5267143Y-15358174D02*
X5276667Y-15339127D01*
X5295714Y-15329603D01*
X5324286Y-15329603D01*
X5343333Y-15339127D01*
X5352857Y-15358174D01*
X5352857Y-15462936D01*
X5743333Y-15253412D02*
X5571905Y-15510555D01*
X6000476Y-15262936D02*
X6019524Y-15262936D01*
X6038571Y-15272460D01*
X6048095Y-15281984D01*
X6057619Y-15301031D01*
X6067143Y-15339127D01*
X6067143Y-15386746D01*
X6057619Y-15424841D01*
X6048095Y-15443888D01*
X6038571Y-15453412D01*
X6019524Y-15462936D01*
X6000476Y-15462936D01*
X5981428Y-15453412D01*
X5971905Y-15443888D01*
X5962381Y-15424841D01*
X5952857Y-15386746D01*
X5952857Y-15339127D01*
X5962381Y-15301031D01*
X5971905Y-15281984D01*
X5981428Y-15272460D01*
X6000476Y-15262936D01*
X6152857Y-15443888D02*
X6162381Y-15453412D01*
X6152857Y-15462936D01*
X6143333Y-15453412D01*
X6152857Y-15443888D01*
X6152857Y-15462936D01*
X6286190Y-15262936D02*
X6305238Y-15262936D01*
X6324286Y-15272460D01*
X6333809Y-15281984D01*
X6343333Y-15301031D01*
X6352857Y-15339127D01*
X6352857Y-15386746D01*
X6343333Y-15424841D01*
X6333809Y-15443888D01*
X6324286Y-15453412D01*
X6305238Y-15462936D01*
X6286190Y-15462936D01*
X6267143Y-15453412D01*
X6257619Y-15443888D01*
X6248095Y-15424841D01*
X6238571Y-15386746D01*
X6238571Y-15339127D01*
X6248095Y-15301031D01*
X6257619Y-15281984D01*
X6267143Y-15272460D01*
X6286190Y-15262936D01*
X6533809Y-15262936D02*
X6438571Y-15262936D01*
X6429048Y-15358174D01*
X6438571Y-15348650D01*
X6457619Y-15339127D01*
X6505238Y-15339127D01*
X6524286Y-15348650D01*
X6533809Y-15358174D01*
X6543333Y-15377222D01*
X6543333Y-15424841D01*
X6533809Y-15443888D01*
X6524286Y-15453412D01*
X6505238Y-15462936D01*
X6457619Y-15462936D01*
X6438571Y-15453412D01*
X6429048Y-15443888D01*
X6619524Y-15281984D02*
X6629048Y-15272460D01*
X6648095Y-15262936D01*
X6695714Y-15262936D01*
X6714762Y-15272460D01*
X6724286Y-15281984D01*
X6733809Y-15301031D01*
X6733809Y-15320079D01*
X6724286Y-15348650D01*
X6610000Y-15462936D01*
X6733809Y-15462936D01*
X6857619Y-15262936D02*
X6876667Y-15262936D01*
X6895714Y-15272460D01*
X6905238Y-15281984D01*
X6914762Y-15301031D01*
X6924286Y-15339127D01*
X6924286Y-15386746D01*
X6914762Y-15424841D01*
X6905238Y-15443888D01*
X6895714Y-15453412D01*
X6876667Y-15462936D01*
X6857619Y-15462936D01*
X6838571Y-15453412D01*
X6829048Y-15443888D01*
X6819524Y-15424841D01*
X6810000Y-15386746D01*
X6810000Y-15339127D01*
X6819524Y-15301031D01*
X6829048Y-15281984D01*
X6838571Y-15272460D01*
X6857619Y-15262936D01*
X7000476Y-15262936D02*
X7000476Y-15301031D01*
X7076667Y-15262936D02*
X7076667Y-15301031D01*
X7371905Y-15539127D02*
X7362381Y-15529603D01*
X7343333Y-15501031D01*
X7333809Y-15481984D01*
X7324286Y-15453412D01*
X7314762Y-15405793D01*
X7314762Y-15367698D01*
X7324286Y-15320079D01*
X7333809Y-15291508D01*
X7343333Y-15272460D01*
X7362381Y-15243888D01*
X7371905Y-15234365D01*
X7429048Y-15262936D02*
X7562381Y-15262936D01*
X7476667Y-15462936D01*
X7790952Y-15462936D02*
X7790952Y-15262936D01*
X7876667Y-15462936D02*
X7876667Y-15358174D01*
X7867143Y-15339127D01*
X7848095Y-15329603D01*
X7819524Y-15329603D01*
X7800476Y-15339127D01*
X7790952Y-15348650D01*
X8000476Y-15462936D02*
X7981428Y-15453412D01*
X7971905Y-15443888D01*
X7962381Y-15424841D01*
X7962381Y-15367698D01*
X7971905Y-15348650D01*
X7981428Y-15339127D01*
X8000476Y-15329603D01*
X8029048Y-15329603D01*
X8048095Y-15339127D01*
X8057619Y-15348650D01*
X8067143Y-15367698D01*
X8067143Y-15424841D01*
X8057619Y-15443888D01*
X8048095Y-15453412D01*
X8029048Y-15462936D01*
X8000476Y-15462936D01*
X8181428Y-15462936D02*
X8162381Y-15453412D01*
X8152857Y-15434365D01*
X8152857Y-15262936D01*
X8333809Y-15453412D02*
X8314762Y-15462936D01*
X8276667Y-15462936D01*
X8257619Y-15453412D01*
X8248095Y-15434365D01*
X8248095Y-15358174D01*
X8257619Y-15339127D01*
X8276667Y-15329603D01*
X8314762Y-15329603D01*
X8333809Y-15339127D01*
X8343333Y-15358174D01*
X8343333Y-15377222D01*
X8248095Y-15396269D01*
X8419524Y-15453412D02*
X8438571Y-15462936D01*
X8476667Y-15462936D01*
X8495714Y-15453412D01*
X8505238Y-15434365D01*
X8505238Y-15424841D01*
X8495714Y-15405793D01*
X8476667Y-15396269D01*
X8448095Y-15396269D01*
X8429048Y-15386746D01*
X8419524Y-15367698D01*
X8419524Y-15358174D01*
X8429048Y-15339127D01*
X8448095Y-15329603D01*
X8476667Y-15329603D01*
X8495714Y-15339127D01*
X8571905Y-15539127D02*
X8581429Y-15529603D01*
X8600476Y-15501031D01*
X8610000Y-15481984D01*
X8619524Y-15453412D01*
X8629048Y-15405793D01*
X8629048Y-15367698D01*
X8619524Y-15320079D01*
X8610000Y-15291508D01*
X8600476Y-15272460D01*
X8581429Y-15243888D01*
X8571905Y-15234365D01*
D25*
X3730000Y-15566460D02*
X3730000Y-15706460D01*
X3660000Y-15636460D02*
X3800000Y-15636460D01*
X3730000Y-15706460D02*
X3800000Y-15636460D01*
X3730000Y-15566460D01*
X3660000Y-15636460D01*
X3730000Y-15706460D01*
D11*
X4162381Y-15726936D02*
X4048095Y-15726936D01*
X4105238Y-15726936D02*
X4105238Y-15526936D01*
X4086190Y-15555508D01*
X4067143Y-15574555D01*
X4048095Y-15584079D01*
X4248095Y-15707888D02*
X4257619Y-15717412D01*
X4248095Y-15726936D01*
X4238571Y-15717412D01*
X4248095Y-15707888D01*
X4248095Y-15726936D01*
X4429048Y-15593603D02*
X4429048Y-15726936D01*
X4381429Y-15517412D02*
X4333810Y-15660269D01*
X4457619Y-15660269D01*
X4571905Y-15526936D02*
X4590952Y-15526936D01*
X4610000Y-15536460D01*
X4619524Y-15545984D01*
X4629048Y-15565031D01*
X4638571Y-15603127D01*
X4638571Y-15650746D01*
X4629048Y-15688841D01*
X4619524Y-15707888D01*
X4610000Y-15717412D01*
X4590952Y-15726936D01*
X4571905Y-15726936D01*
X4552857Y-15717412D01*
X4543333Y-15707888D01*
X4533810Y-15688841D01*
X4524286Y-15650746D01*
X4524286Y-15603127D01*
X4533810Y-15565031D01*
X4543333Y-15545984D01*
X4552857Y-15536460D01*
X4571905Y-15526936D01*
X4762381Y-15526936D02*
X4781429Y-15526936D01*
X4800476Y-15536460D01*
X4810000Y-15545984D01*
X4819524Y-15565031D01*
X4829048Y-15603127D01*
X4829048Y-15650746D01*
X4819524Y-15688841D01*
X4810000Y-15707888D01*
X4800476Y-15717412D01*
X4781429Y-15726936D01*
X4762381Y-15726936D01*
X4743333Y-15717412D01*
X4733810Y-15707888D01*
X4724286Y-15688841D01*
X4714762Y-15650746D01*
X4714762Y-15603127D01*
X4724286Y-15565031D01*
X4733810Y-15545984D01*
X4743333Y-15536460D01*
X4762381Y-15526936D01*
X4914762Y-15726936D02*
X4914762Y-15593603D01*
X4914762Y-15612650D02*
X4924286Y-15603127D01*
X4943333Y-15593603D01*
X4971905Y-15593603D01*
X4990952Y-15603127D01*
X5000476Y-15622174D01*
X5000476Y-15726936D01*
X5000476Y-15622174D02*
X5010000Y-15603127D01*
X5029048Y-15593603D01*
X5057619Y-15593603D01*
X5076667Y-15603127D01*
X5086190Y-15622174D01*
X5086190Y-15726936D01*
X5181429Y-15726936D02*
X5181429Y-15593603D01*
X5181429Y-15612650D02*
X5190952Y-15603127D01*
X5210000Y-15593603D01*
X5238571Y-15593603D01*
X5257619Y-15603127D01*
X5267143Y-15622174D01*
X5267143Y-15726936D01*
X5267143Y-15622174D02*
X5276667Y-15603127D01*
X5295714Y-15593603D01*
X5324286Y-15593603D01*
X5343333Y-15603127D01*
X5352857Y-15622174D01*
X5352857Y-15726936D01*
X5743333Y-15517412D02*
X5571905Y-15774555D01*
X6000476Y-15526936D02*
X6019524Y-15526936D01*
X6038571Y-15536460D01*
X6048095Y-15545984D01*
X6057619Y-15565031D01*
X6067143Y-15603127D01*
X6067143Y-15650746D01*
X6057619Y-15688841D01*
X6048095Y-15707888D01*
X6038571Y-15717412D01*
X6019524Y-15726936D01*
X6000476Y-15726936D01*
X5981428Y-15717412D01*
X5971905Y-15707888D01*
X5962381Y-15688841D01*
X5952857Y-15650746D01*
X5952857Y-15603127D01*
X5962381Y-15565031D01*
X5971905Y-15545984D01*
X5981428Y-15536460D01*
X6000476Y-15526936D01*
X6152857Y-15707888D02*
X6162381Y-15717412D01*
X6152857Y-15726936D01*
X6143333Y-15717412D01*
X6152857Y-15707888D01*
X6152857Y-15726936D01*
X6286190Y-15526936D02*
X6305238Y-15526936D01*
X6324286Y-15536460D01*
X6333809Y-15545984D01*
X6343333Y-15565031D01*
X6352857Y-15603127D01*
X6352857Y-15650746D01*
X6343333Y-15688841D01*
X6333809Y-15707888D01*
X6324286Y-15717412D01*
X6305238Y-15726936D01*
X6286190Y-15726936D01*
X6267143Y-15717412D01*
X6257619Y-15707888D01*
X6248095Y-15688841D01*
X6238571Y-15650746D01*
X6238571Y-15603127D01*
X6248095Y-15565031D01*
X6257619Y-15545984D01*
X6267143Y-15536460D01*
X6286190Y-15526936D01*
X6533809Y-15526936D02*
X6438571Y-15526936D01*
X6429048Y-15622174D01*
X6438571Y-15612650D01*
X6457619Y-15603127D01*
X6505238Y-15603127D01*
X6524286Y-15612650D01*
X6533809Y-15622174D01*
X6543333Y-15641222D01*
X6543333Y-15688841D01*
X6533809Y-15707888D01*
X6524286Y-15717412D01*
X6505238Y-15726936D01*
X6457619Y-15726936D01*
X6438571Y-15717412D01*
X6429048Y-15707888D01*
X6724286Y-15526936D02*
X6629048Y-15526936D01*
X6619524Y-15622174D01*
X6629048Y-15612650D01*
X6648095Y-15603127D01*
X6695714Y-15603127D01*
X6714762Y-15612650D01*
X6724286Y-15622174D01*
X6733809Y-15641222D01*
X6733809Y-15688841D01*
X6724286Y-15707888D01*
X6714762Y-15717412D01*
X6695714Y-15726936D01*
X6648095Y-15726936D01*
X6629048Y-15717412D01*
X6619524Y-15707888D01*
X6924286Y-15726936D02*
X6810000Y-15726936D01*
X6867143Y-15726936D02*
X6867143Y-15526936D01*
X6848095Y-15555508D01*
X6829048Y-15574555D01*
X6810000Y-15584079D01*
X7000476Y-15526936D02*
X7000476Y-15565031D01*
X7076667Y-15526936D02*
X7076667Y-15565031D01*
X7371905Y-15803127D02*
X7362381Y-15793603D01*
X7343333Y-15765031D01*
X7333809Y-15745984D01*
X7324286Y-15717412D01*
X7314762Y-15669793D01*
X7314762Y-15631698D01*
X7324286Y-15584079D01*
X7333809Y-15555508D01*
X7343333Y-15536460D01*
X7362381Y-15507888D01*
X7371905Y-15498365D01*
X7552857Y-15726936D02*
X7438571Y-15726936D01*
X7495714Y-15726936D02*
X7495714Y-15526936D01*
X7476667Y-15555508D01*
X7457619Y-15574555D01*
X7438571Y-15584079D01*
X7629048Y-15545984D02*
X7638571Y-15536460D01*
X7657619Y-15526936D01*
X7705238Y-15526936D01*
X7724286Y-15536460D01*
X7733809Y-15545984D01*
X7743333Y-15565031D01*
X7743333Y-15584079D01*
X7733809Y-15612650D01*
X7619524Y-15726936D01*
X7743333Y-15726936D01*
X7981428Y-15726936D02*
X7981428Y-15526936D01*
X8067143Y-15726936D02*
X8067143Y-15622174D01*
X8057619Y-15603127D01*
X8038571Y-15593603D01*
X8010000Y-15593603D01*
X7990952Y-15603127D01*
X7981428Y-15612650D01*
X8190952Y-15726936D02*
X8171905Y-15717412D01*
X8162381Y-15707888D01*
X8152857Y-15688841D01*
X8152857Y-15631698D01*
X8162381Y-15612650D01*
X8171905Y-15603127D01*
X8190952Y-15593603D01*
X8219524Y-15593603D01*
X8238571Y-15603127D01*
X8248095Y-15612650D01*
X8257619Y-15631698D01*
X8257619Y-15688841D01*
X8248095Y-15707888D01*
X8238571Y-15717412D01*
X8219524Y-15726936D01*
X8190952Y-15726936D01*
X8371905Y-15726936D02*
X8352857Y-15717412D01*
X8343333Y-15698365D01*
X8343333Y-15526936D01*
X8524286Y-15717412D02*
X8505238Y-15726936D01*
X8467143Y-15726936D01*
X8448095Y-15717412D01*
X8438571Y-15698365D01*
X8438571Y-15622174D01*
X8448095Y-15603127D01*
X8467143Y-15593603D01*
X8505238Y-15593603D01*
X8524286Y-15603127D01*
X8533810Y-15622174D01*
X8533810Y-15641222D01*
X8438571Y-15660269D01*
X8610000Y-15717412D02*
X8629048Y-15726936D01*
X8667143Y-15726936D01*
X8686190Y-15717412D01*
X8695714Y-15698365D01*
X8695714Y-15688841D01*
X8686190Y-15669793D01*
X8667143Y-15660269D01*
X8638571Y-15660269D01*
X8619524Y-15650746D01*
X8610000Y-15631698D01*
X8610000Y-15622174D01*
X8619524Y-15603127D01*
X8638571Y-15593603D01*
X8667143Y-15593603D01*
X8686190Y-15603127D01*
X8762381Y-15803127D02*
X8771905Y-15793603D01*
X8790952Y-15765031D01*
X8800476Y-15745984D01*
X8810000Y-15717412D01*
X8819524Y-15669793D01*
X8819524Y-15631698D01*
X8810000Y-15584079D01*
X8800476Y-15555508D01*
X8790952Y-15536460D01*
X8771905Y-15507888D01*
X8762381Y-15498365D01*
X3700000Y-16000460D02*
X3800000Y-15900460D01*
X3700000Y-15800460D01*
X3600000Y-15900460D01*
X3700000Y-16000460D01*
X3770711Y-15971171D02*
X3770711Y-15829749D01*
X3629289Y-15829749D01*
X3629289Y-15971171D01*
X3770711Y-15971171D01*
X4048095Y-15809984D02*
X4057619Y-15800460D01*
X4076667Y-15790936D01*
X4124286Y-15790936D01*
X4143333Y-15800460D01*
X4152857Y-15809984D01*
X4162381Y-15829031D01*
X4162381Y-15848079D01*
X4152857Y-15876650D01*
X4038571Y-15990936D01*
X4162381Y-15990936D01*
X4248095Y-15971888D02*
X4257619Y-15981412D01*
X4248095Y-15990936D01*
X4238571Y-15981412D01*
X4248095Y-15971888D01*
X4248095Y-15990936D01*
X4324286Y-15790936D02*
X4448095Y-15790936D01*
X4381429Y-15867127D01*
X4410000Y-15867127D01*
X4429048Y-15876650D01*
X4438571Y-15886174D01*
X4448095Y-15905222D01*
X4448095Y-15952841D01*
X4438571Y-15971888D01*
X4429048Y-15981412D01*
X4410000Y-15990936D01*
X4352857Y-15990936D01*
X4333810Y-15981412D01*
X4324286Y-15971888D01*
X4571905Y-15790936D02*
X4590952Y-15790936D01*
X4610000Y-15800460D01*
X4619524Y-15809984D01*
X4629048Y-15829031D01*
X4638571Y-15867127D01*
X4638571Y-15914746D01*
X4629048Y-15952841D01*
X4619524Y-15971888D01*
X4610000Y-15981412D01*
X4590952Y-15990936D01*
X4571905Y-15990936D01*
X4552857Y-15981412D01*
X4543333Y-15971888D01*
X4533810Y-15952841D01*
X4524286Y-15914746D01*
X4524286Y-15867127D01*
X4533810Y-15829031D01*
X4543333Y-15809984D01*
X4552857Y-15800460D01*
X4571905Y-15790936D01*
X4762381Y-15790936D02*
X4781429Y-15790936D01*
X4800476Y-15800460D01*
X4810000Y-15809984D01*
X4819524Y-15829031D01*
X4829048Y-15867127D01*
X4829048Y-15914746D01*
X4819524Y-15952841D01*
X4810000Y-15971888D01*
X4800476Y-15981412D01*
X4781429Y-15990936D01*
X4762381Y-15990936D01*
X4743333Y-15981412D01*
X4733810Y-15971888D01*
X4724286Y-15952841D01*
X4714762Y-15914746D01*
X4714762Y-15867127D01*
X4724286Y-15829031D01*
X4733810Y-15809984D01*
X4743333Y-15800460D01*
X4762381Y-15790936D01*
X4914762Y-15990936D02*
X4914762Y-15857603D01*
X4914762Y-15876650D02*
X4924286Y-15867127D01*
X4943333Y-15857603D01*
X4971905Y-15857603D01*
X4990952Y-15867127D01*
X5000476Y-15886174D01*
X5000476Y-15990936D01*
X5000476Y-15886174D02*
X5010000Y-15867127D01*
X5029048Y-15857603D01*
X5057619Y-15857603D01*
X5076667Y-15867127D01*
X5086190Y-15886174D01*
X5086190Y-15990936D01*
X5181429Y-15990936D02*
X5181429Y-15857603D01*
X5181429Y-15876650D02*
X5190952Y-15867127D01*
X5210000Y-15857603D01*
X5238571Y-15857603D01*
X5257619Y-15867127D01*
X5267143Y-15886174D01*
X5267143Y-15990936D01*
X5267143Y-15886174D02*
X5276667Y-15867127D01*
X5295714Y-15857603D01*
X5324286Y-15857603D01*
X5343333Y-15867127D01*
X5352857Y-15886174D01*
X5352857Y-15990936D01*
X5743333Y-15781412D02*
X5571905Y-16038555D01*
X6000476Y-15790936D02*
X6019524Y-15790936D01*
X6038571Y-15800460D01*
X6048095Y-15809984D01*
X6057619Y-15829031D01*
X6067143Y-15867127D01*
X6067143Y-15914746D01*
X6057619Y-15952841D01*
X6048095Y-15971888D01*
X6038571Y-15981412D01*
X6019524Y-15990936D01*
X6000476Y-15990936D01*
X5981428Y-15981412D01*
X5971905Y-15971888D01*
X5962381Y-15952841D01*
X5952857Y-15914746D01*
X5952857Y-15867127D01*
X5962381Y-15829031D01*
X5971905Y-15809984D01*
X5981428Y-15800460D01*
X6000476Y-15790936D01*
X6152857Y-15971888D02*
X6162381Y-15981412D01*
X6152857Y-15990936D01*
X6143333Y-15981412D01*
X6152857Y-15971888D01*
X6152857Y-15990936D01*
X6286190Y-15790936D02*
X6305238Y-15790936D01*
X6324286Y-15800460D01*
X6333809Y-15809984D01*
X6343333Y-15829031D01*
X6352857Y-15867127D01*
X6352857Y-15914746D01*
X6343333Y-15952841D01*
X6333809Y-15971888D01*
X6324286Y-15981412D01*
X6305238Y-15990936D01*
X6286190Y-15990936D01*
X6267143Y-15981412D01*
X6257619Y-15971888D01*
X6248095Y-15952841D01*
X6238571Y-15914746D01*
X6238571Y-15867127D01*
X6248095Y-15829031D01*
X6257619Y-15809984D01*
X6267143Y-15800460D01*
X6286190Y-15790936D01*
X6448095Y-15990936D02*
X6486190Y-15990936D01*
X6505238Y-15981412D01*
X6514762Y-15971888D01*
X6533809Y-15943317D01*
X6543333Y-15905222D01*
X6543333Y-15829031D01*
X6533809Y-15809984D01*
X6524286Y-15800460D01*
X6505238Y-15790936D01*
X6467143Y-15790936D01*
X6448095Y-15800460D01*
X6438571Y-15809984D01*
X6429048Y-15829031D01*
X6429048Y-15876650D01*
X6438571Y-15895698D01*
X6448095Y-15905222D01*
X6467143Y-15914746D01*
X6505238Y-15914746D01*
X6524286Y-15905222D01*
X6533809Y-15895698D01*
X6543333Y-15876650D01*
X6667143Y-15790936D02*
X6686190Y-15790936D01*
X6705238Y-15800460D01*
X6714762Y-15809984D01*
X6724286Y-15829031D01*
X6733809Y-15867127D01*
X6733809Y-15914746D01*
X6724286Y-15952841D01*
X6714762Y-15971888D01*
X6705238Y-15981412D01*
X6686190Y-15990936D01*
X6667143Y-15990936D01*
X6648095Y-15981412D01*
X6638571Y-15971888D01*
X6629048Y-15952841D01*
X6619524Y-15914746D01*
X6619524Y-15867127D01*
X6629048Y-15829031D01*
X6638571Y-15809984D01*
X6648095Y-15800460D01*
X6667143Y-15790936D01*
X6905238Y-15790936D02*
X6867143Y-15790936D01*
X6848095Y-15800460D01*
X6838571Y-15809984D01*
X6819524Y-15838555D01*
X6810000Y-15876650D01*
X6810000Y-15952841D01*
X6819524Y-15971888D01*
X6829048Y-15981412D01*
X6848095Y-15990936D01*
X6886190Y-15990936D01*
X6905238Y-15981412D01*
X6914762Y-15971888D01*
X6924286Y-15952841D01*
X6924286Y-15905222D01*
X6914762Y-15886174D01*
X6905238Y-15876650D01*
X6886190Y-15867127D01*
X6848095Y-15867127D01*
X6829048Y-15876650D01*
X6819524Y-15886174D01*
X6810000Y-15905222D01*
X7000476Y-15790936D02*
X7000476Y-15829031D01*
X7076667Y-15790936D02*
X7076667Y-15829031D01*
X7371905Y-16067127D02*
X7362381Y-16057603D01*
X7343333Y-16029031D01*
X7333809Y-16009984D01*
X7324286Y-15981412D01*
X7314762Y-15933793D01*
X7314762Y-15895698D01*
X7324286Y-15848079D01*
X7333809Y-15819508D01*
X7343333Y-15800460D01*
X7362381Y-15771888D01*
X7371905Y-15762365D01*
X7533809Y-15790936D02*
X7495714Y-15790936D01*
X7476667Y-15800460D01*
X7467143Y-15809984D01*
X7448095Y-15838555D01*
X7438571Y-15876650D01*
X7438571Y-15952841D01*
X7448095Y-15971888D01*
X7457619Y-15981412D01*
X7476667Y-15990936D01*
X7514762Y-15990936D01*
X7533809Y-15981412D01*
X7543333Y-15971888D01*
X7552857Y-15952841D01*
X7552857Y-15905222D01*
X7543333Y-15886174D01*
X7533809Y-15876650D01*
X7514762Y-15867127D01*
X7476667Y-15867127D01*
X7457619Y-15876650D01*
X7448095Y-15886174D01*
X7438571Y-15905222D01*
X7790952Y-15990936D02*
X7790952Y-15790936D01*
X7876667Y-15990936D02*
X7876667Y-15886174D01*
X7867143Y-15867127D01*
X7848095Y-15857603D01*
X7819524Y-15857603D01*
X7800476Y-15867127D01*
X7790952Y-15876650D01*
X8000476Y-15990936D02*
X7981428Y-15981412D01*
X7971905Y-15971888D01*
X7962381Y-15952841D01*
X7962381Y-15895698D01*
X7971905Y-15876650D01*
X7981428Y-15867127D01*
X8000476Y-15857603D01*
X8029048Y-15857603D01*
X8048095Y-15867127D01*
X8057619Y-15876650D01*
X8067143Y-15895698D01*
X8067143Y-15952841D01*
X8057619Y-15971888D01*
X8048095Y-15981412D01*
X8029048Y-15990936D01*
X8000476Y-15990936D01*
X8181428Y-15990936D02*
X8162381Y-15981412D01*
X8152857Y-15962365D01*
X8152857Y-15790936D01*
X8333809Y-15981412D02*
X8314762Y-15990936D01*
X8276667Y-15990936D01*
X8257619Y-15981412D01*
X8248095Y-15962365D01*
X8248095Y-15886174D01*
X8257619Y-15867127D01*
X8276667Y-15857603D01*
X8314762Y-15857603D01*
X8333809Y-15867127D01*
X8343333Y-15886174D01*
X8343333Y-15905222D01*
X8248095Y-15924269D01*
X8419524Y-15981412D02*
X8438571Y-15990936D01*
X8476667Y-15990936D01*
X8495714Y-15981412D01*
X8505238Y-15962365D01*
X8505238Y-15952841D01*
X8495714Y-15933793D01*
X8476667Y-15924269D01*
X8448095Y-15924269D01*
X8429048Y-15914746D01*
X8419524Y-15895698D01*
X8419524Y-15886174D01*
X8429048Y-15867127D01*
X8448095Y-15857603D01*
X8476667Y-15857603D01*
X8495714Y-15867127D01*
X8571905Y-16067127D02*
X8581429Y-16057603D01*
X8600476Y-16029031D01*
X8610000Y-16009984D01*
X8619524Y-15981412D01*
X8629048Y-15933793D01*
X8629048Y-15895698D01*
X8619524Y-15848079D01*
X8610000Y-15819508D01*
X8600476Y-15800460D01*
X8581429Y-15771888D01*
X8571905Y-15762365D01*
X3600000Y-16120460D02*
X3800000Y-16320460D01*
X3800000Y-16120460D02*
X3600000Y-16320460D01*
X3700000Y-16120460D02*
X3700000Y-16320460D01*
X3600000Y-16220460D02*
X3800000Y-16220460D01*
X3800000Y-16220460D02*
G75*
G03*
X3800000Y-16220460I-100000J0D01*
G01*
X4038571Y-16110936D02*
X4162381Y-16110936D01*
X4095714Y-16187127D01*
X4124286Y-16187127D01*
X4143333Y-16196650D01*
X4152857Y-16206174D01*
X4162381Y-16225222D01*
X4162381Y-16272841D01*
X4152857Y-16291888D01*
X4143333Y-16301412D01*
X4124286Y-16310936D01*
X4067143Y-16310936D01*
X4048095Y-16301412D01*
X4038571Y-16291888D01*
X4248095Y-16291888D02*
X4257619Y-16301412D01*
X4248095Y-16310936D01*
X4238571Y-16301412D01*
X4248095Y-16291888D01*
X4248095Y-16310936D01*
X4333810Y-16129984D02*
X4343333Y-16120460D01*
X4362381Y-16110936D01*
X4410000Y-16110936D01*
X4429048Y-16120460D01*
X4438571Y-16129984D01*
X4448095Y-16149031D01*
X4448095Y-16168079D01*
X4438571Y-16196650D01*
X4324286Y-16310936D01*
X4448095Y-16310936D01*
X4571905Y-16110936D02*
X4590952Y-16110936D01*
X4610000Y-16120460D01*
X4619524Y-16129984D01*
X4629048Y-16149031D01*
X4638571Y-16187127D01*
X4638571Y-16234746D01*
X4629048Y-16272841D01*
X4619524Y-16291888D01*
X4610000Y-16301412D01*
X4590952Y-16310936D01*
X4571905Y-16310936D01*
X4552857Y-16301412D01*
X4543333Y-16291888D01*
X4533810Y-16272841D01*
X4524286Y-16234746D01*
X4524286Y-16187127D01*
X4533810Y-16149031D01*
X4543333Y-16129984D01*
X4552857Y-16120460D01*
X4571905Y-16110936D01*
X4762381Y-16110936D02*
X4781429Y-16110936D01*
X4800476Y-16120460D01*
X4810000Y-16129984D01*
X4819524Y-16149031D01*
X4829048Y-16187127D01*
X4829048Y-16234746D01*
X4819524Y-16272841D01*
X4810000Y-16291888D01*
X4800476Y-16301412D01*
X4781429Y-16310936D01*
X4762381Y-16310936D01*
X4743333Y-16301412D01*
X4733810Y-16291888D01*
X4724286Y-16272841D01*
X4714762Y-16234746D01*
X4714762Y-16187127D01*
X4724286Y-16149031D01*
X4733810Y-16129984D01*
X4743333Y-16120460D01*
X4762381Y-16110936D01*
X4914762Y-16310936D02*
X4914762Y-16177603D01*
X4914762Y-16196650D02*
X4924286Y-16187127D01*
X4943333Y-16177603D01*
X4971905Y-16177603D01*
X4990952Y-16187127D01*
X5000476Y-16206174D01*
X5000476Y-16310936D01*
X5000476Y-16206174D02*
X5010000Y-16187127D01*
X5029048Y-16177603D01*
X5057619Y-16177603D01*
X5076667Y-16187127D01*
X5086190Y-16206174D01*
X5086190Y-16310936D01*
X5181429Y-16310936D02*
X5181429Y-16177603D01*
X5181429Y-16196650D02*
X5190952Y-16187127D01*
X5210000Y-16177603D01*
X5238571Y-16177603D01*
X5257619Y-16187127D01*
X5267143Y-16206174D01*
X5267143Y-16310936D01*
X5267143Y-16206174D02*
X5276667Y-16187127D01*
X5295714Y-16177603D01*
X5324286Y-16177603D01*
X5343333Y-16187127D01*
X5352857Y-16206174D01*
X5352857Y-16310936D01*
X5743333Y-16101412D02*
X5571905Y-16358555D01*
X6000476Y-16110936D02*
X6019524Y-16110936D01*
X6038571Y-16120460D01*
X6048095Y-16129984D01*
X6057619Y-16149031D01*
X6067143Y-16187127D01*
X6067143Y-16234746D01*
X6057619Y-16272841D01*
X6048095Y-16291888D01*
X6038571Y-16301412D01*
X6019524Y-16310936D01*
X6000476Y-16310936D01*
X5981428Y-16301412D01*
X5971905Y-16291888D01*
X5962381Y-16272841D01*
X5952857Y-16234746D01*
X5952857Y-16187127D01*
X5962381Y-16149031D01*
X5971905Y-16129984D01*
X5981428Y-16120460D01*
X6000476Y-16110936D01*
X6152857Y-16291888D02*
X6162381Y-16301412D01*
X6152857Y-16310936D01*
X6143333Y-16301412D01*
X6152857Y-16291888D01*
X6152857Y-16310936D01*
X6352857Y-16310936D02*
X6238571Y-16310936D01*
X6295714Y-16310936D02*
X6295714Y-16110936D01*
X6276667Y-16139508D01*
X6257619Y-16158555D01*
X6238571Y-16168079D01*
X6429048Y-16129984D02*
X6438571Y-16120460D01*
X6457619Y-16110936D01*
X6505238Y-16110936D01*
X6524286Y-16120460D01*
X6533809Y-16129984D01*
X6543333Y-16149031D01*
X6543333Y-16168079D01*
X6533809Y-16196650D01*
X6419524Y-16310936D01*
X6543333Y-16310936D01*
X6714762Y-16110936D02*
X6676667Y-16110936D01*
X6657619Y-16120460D01*
X6648095Y-16129984D01*
X6629048Y-16158555D01*
X6619524Y-16196650D01*
X6619524Y-16272841D01*
X6629048Y-16291888D01*
X6638571Y-16301412D01*
X6657619Y-16310936D01*
X6695714Y-16310936D01*
X6714762Y-16301412D01*
X6724286Y-16291888D01*
X6733809Y-16272841D01*
X6733809Y-16225222D01*
X6724286Y-16206174D01*
X6714762Y-16196650D01*
X6695714Y-16187127D01*
X6657619Y-16187127D01*
X6638571Y-16196650D01*
X6629048Y-16206174D01*
X6619524Y-16225222D01*
X6857619Y-16110936D02*
X6876667Y-16110936D01*
X6895714Y-16120460D01*
X6905238Y-16129984D01*
X6914762Y-16149031D01*
X6924286Y-16187127D01*
X6924286Y-16234746D01*
X6914762Y-16272841D01*
X6905238Y-16291888D01*
X6895714Y-16301412D01*
X6876667Y-16310936D01*
X6857619Y-16310936D01*
X6838571Y-16301412D01*
X6829048Y-16291888D01*
X6819524Y-16272841D01*
X6810000Y-16234746D01*
X6810000Y-16187127D01*
X6819524Y-16149031D01*
X6829048Y-16129984D01*
X6838571Y-16120460D01*
X6857619Y-16110936D01*
X7000476Y-16110936D02*
X7000476Y-16149031D01*
X7076667Y-16110936D02*
X7076667Y-16149031D01*
X7371905Y-16387127D02*
X7362381Y-16377603D01*
X7343333Y-16349031D01*
X7333809Y-16329984D01*
X7324286Y-16301412D01*
X7314762Y-16253793D01*
X7314762Y-16215698D01*
X7324286Y-16168079D01*
X7333809Y-16139508D01*
X7343333Y-16120460D01*
X7362381Y-16091888D01*
X7371905Y-16082365D01*
X7533809Y-16177603D02*
X7533809Y-16310936D01*
X7486190Y-16101412D02*
X7438571Y-16244269D01*
X7562381Y-16244269D01*
X7790952Y-16310936D02*
X7790952Y-16110936D01*
X7876667Y-16310936D02*
X7876667Y-16206174D01*
X7867143Y-16187127D01*
X7848095Y-16177603D01*
X7819524Y-16177603D01*
X7800476Y-16187127D01*
X7790952Y-16196650D01*
X8000476Y-16310936D02*
X7981428Y-16301412D01*
X7971905Y-16291888D01*
X7962381Y-16272841D01*
X7962381Y-16215698D01*
X7971905Y-16196650D01*
X7981428Y-16187127D01*
X8000476Y-16177603D01*
X8029048Y-16177603D01*
X8048095Y-16187127D01*
X8057619Y-16196650D01*
X8067143Y-16215698D01*
X8067143Y-16272841D01*
X8057619Y-16291888D01*
X8048095Y-16301412D01*
X8029048Y-16310936D01*
X8000476Y-16310936D01*
X8181428Y-16310936D02*
X8162381Y-16301412D01*
X8152857Y-16282365D01*
X8152857Y-16110936D01*
X8333809Y-16301412D02*
X8314762Y-16310936D01*
X8276667Y-16310936D01*
X8257619Y-16301412D01*
X8248095Y-16282365D01*
X8248095Y-16206174D01*
X8257619Y-16187127D01*
X8276667Y-16177603D01*
X8314762Y-16177603D01*
X8333809Y-16187127D01*
X8343333Y-16206174D01*
X8343333Y-16225222D01*
X8248095Y-16244269D01*
X8419524Y-16301412D02*
X8438571Y-16310936D01*
X8476667Y-16310936D01*
X8495714Y-16301412D01*
X8505238Y-16282365D01*
X8505238Y-16272841D01*
X8495714Y-16253793D01*
X8476667Y-16244269D01*
X8448095Y-16244269D01*
X8429048Y-16234746D01*
X8419524Y-16215698D01*
X8419524Y-16206174D01*
X8429048Y-16187127D01*
X8448095Y-16177603D01*
X8476667Y-16177603D01*
X8495714Y-16187127D01*
X8571905Y-16387127D02*
X8581429Y-16377603D01*
X8600476Y-16349031D01*
X8610000Y-16329984D01*
X8619524Y-16301412D01*
X8629048Y-16253793D01*
X8629048Y-16215698D01*
X8619524Y-16168079D01*
X8610000Y-16139508D01*
X8600476Y-16120460D01*
X8581429Y-16091888D01*
X8571905Y-16082365D01*
M02*
