%FSLAX45Y45*%
G04 Gerber Fmt 4.5, Leading zero omitted, Abs format (unit mm)*
G04 Created by KiCad (PCBNEW 6.0.2+dfsg-1) date 2024-03-10 18:31:01*
%MOMM*%
%LPD*%
G01*
G04 APERTURE LIST*
%TA.AperFunction,Profile*%
%ADD10C,0.200000*%
%TD*%
%ADD11C,0.200000*%
%ADD12C,0.279400*%
%ADD13C,0.320000*%
%ADD14C,0.350000*%
G04 APERTURE END LIST*
D10*
X3810000Y-2550160D02*
X16510000Y-2550160D01*
X16510000Y-2550160D02*
X16510000Y-11554460D01*
X16510000Y-11554460D02*
X3810000Y-11554460D01*
X3810000Y-11554460D02*
X3810000Y-2550160D01*
D11*
X7980000Y-9092000D02*
X8180000Y-9292000D01*
X8180000Y-9092000D02*
X7980000Y-9292000D01*
X10012000Y-9092000D02*
X10212000Y-9292000D01*
X10212000Y-9092000D02*
X10012000Y-9292000D01*
D12*
X8153400Y-3312160D02*
G75*
G03*
X8153400Y-3312160I-139700J0D01*
G01*
X9677400Y-3312160D02*
G75*
G03*
X9677400Y-3312160I-139700J0D01*
G01*
D13*
X4533900Y-3065800D02*
X4533900Y-3385800D01*
X4373900Y-3225800D02*
X4693900Y-3225800D01*
X4533900Y-10718820D02*
X4533900Y-11038820D01*
X4373900Y-10878820D02*
X4693900Y-10878820D01*
X15786100Y-3065800D02*
X15786100Y-3385800D01*
X15626100Y-3225800D02*
X15946100Y-3225800D01*
X15786100Y-10718820D02*
X15786100Y-11038820D01*
X15626100Y-10878820D02*
X15946100Y-10878820D01*
D14*
X4553505Y-8710265D02*
X4553505Y-8462775D01*
X4306015Y-8462775D01*
X4306015Y-8710265D01*
X4553505Y-8710265D01*
D11*
X4057619Y-11874936D02*
X4057619Y-11674936D01*
X4105238Y-11674936D01*
X4133809Y-11684460D01*
X4152857Y-11703508D01*
X4162381Y-11722555D01*
X4171905Y-11760650D01*
X4171905Y-11789222D01*
X4162381Y-11827317D01*
X4152857Y-11846365D01*
X4133809Y-11865412D01*
X4105238Y-11874936D01*
X4057619Y-11874936D01*
X4257619Y-11874936D02*
X4257619Y-11741603D01*
X4257619Y-11779698D02*
X4267143Y-11760650D01*
X4276667Y-11751127D01*
X4295714Y-11741603D01*
X4314762Y-11741603D01*
X4381429Y-11874936D02*
X4381429Y-11741603D01*
X4381429Y-11674936D02*
X4371905Y-11684460D01*
X4381429Y-11693984D01*
X4390952Y-11684460D01*
X4381429Y-11674936D01*
X4381429Y-11693984D01*
X4505238Y-11874936D02*
X4486190Y-11865412D01*
X4476667Y-11846365D01*
X4476667Y-11674936D01*
X4610000Y-11874936D02*
X4590952Y-11865412D01*
X4581429Y-11846365D01*
X4581429Y-11674936D01*
X4838571Y-11874936D02*
X4838571Y-11674936D01*
X4905238Y-11817793D01*
X4971905Y-11674936D01*
X4971905Y-11874936D01*
X5152857Y-11874936D02*
X5152857Y-11770174D01*
X5143333Y-11751127D01*
X5124286Y-11741603D01*
X5086190Y-11741603D01*
X5067143Y-11751127D01*
X5152857Y-11865412D02*
X5133810Y-11874936D01*
X5086190Y-11874936D01*
X5067143Y-11865412D01*
X5057619Y-11846365D01*
X5057619Y-11827317D01*
X5067143Y-11808269D01*
X5086190Y-11798746D01*
X5133810Y-11798746D01*
X5152857Y-11789222D01*
X5248095Y-11741603D02*
X5248095Y-11941603D01*
X5248095Y-11751127D02*
X5267143Y-11741603D01*
X5305238Y-11741603D01*
X5324286Y-11751127D01*
X5333810Y-11760650D01*
X5343333Y-11779698D01*
X5343333Y-11836841D01*
X5333810Y-11855888D01*
X5324286Y-11865412D01*
X5305238Y-11874936D01*
X5267143Y-11874936D01*
X5248095Y-11865412D01*
X5429048Y-11855888D02*
X5438571Y-11865412D01*
X5429048Y-11874936D01*
X5419524Y-11865412D01*
X5429048Y-11855888D01*
X5429048Y-11874936D01*
X5429048Y-11751127D02*
X5438571Y-11760650D01*
X5429048Y-11770174D01*
X5419524Y-11760650D01*
X5429048Y-11751127D01*
X5429048Y-11770174D01*
X3600000Y-12104460D02*
X3800000Y-12304460D01*
X3800000Y-12104460D02*
X3600000Y-12304460D01*
X4048095Y-12113984D02*
X4057619Y-12104460D01*
X4076667Y-12094936D01*
X4124286Y-12094936D01*
X4143333Y-12104460D01*
X4152857Y-12113984D01*
X4162381Y-12133031D01*
X4162381Y-12152079D01*
X4152857Y-12180650D01*
X4038571Y-12294936D01*
X4162381Y-12294936D01*
X4248095Y-12275888D02*
X4257619Y-12285412D01*
X4248095Y-12294936D01*
X4238571Y-12285412D01*
X4248095Y-12275888D01*
X4248095Y-12294936D01*
X4381429Y-12094936D02*
X4400476Y-12094936D01*
X4419524Y-12104460D01*
X4429048Y-12113984D01*
X4438571Y-12133031D01*
X4448095Y-12171127D01*
X4448095Y-12218746D01*
X4438571Y-12256841D01*
X4429048Y-12275888D01*
X4419524Y-12285412D01*
X4400476Y-12294936D01*
X4381429Y-12294936D01*
X4362381Y-12285412D01*
X4352857Y-12275888D01*
X4343333Y-12256841D01*
X4333810Y-12218746D01*
X4333810Y-12171127D01*
X4343333Y-12133031D01*
X4352857Y-12113984D01*
X4362381Y-12104460D01*
X4381429Y-12094936D01*
X4571905Y-12094936D02*
X4590952Y-12094936D01*
X4610000Y-12104460D01*
X4619524Y-12113984D01*
X4629048Y-12133031D01*
X4638571Y-12171127D01*
X4638571Y-12218746D01*
X4629048Y-12256841D01*
X4619524Y-12275888D01*
X4610000Y-12285412D01*
X4590952Y-12294936D01*
X4571905Y-12294936D01*
X4552857Y-12285412D01*
X4543333Y-12275888D01*
X4533810Y-12256841D01*
X4524286Y-12218746D01*
X4524286Y-12171127D01*
X4533810Y-12133031D01*
X4543333Y-12113984D01*
X4552857Y-12104460D01*
X4571905Y-12094936D01*
X4762381Y-12094936D02*
X4781429Y-12094936D01*
X4800476Y-12104460D01*
X4810000Y-12113984D01*
X4819524Y-12133031D01*
X4829048Y-12171127D01*
X4829048Y-12218746D01*
X4819524Y-12256841D01*
X4810000Y-12275888D01*
X4800476Y-12285412D01*
X4781429Y-12294936D01*
X4762381Y-12294936D01*
X4743333Y-12285412D01*
X4733810Y-12275888D01*
X4724286Y-12256841D01*
X4714762Y-12218746D01*
X4714762Y-12171127D01*
X4724286Y-12133031D01*
X4733810Y-12113984D01*
X4743333Y-12104460D01*
X4762381Y-12094936D01*
X4914762Y-12294936D02*
X4914762Y-12161603D01*
X4914762Y-12180650D02*
X4924286Y-12171127D01*
X4943333Y-12161603D01*
X4971905Y-12161603D01*
X4990952Y-12171127D01*
X5000476Y-12190174D01*
X5000476Y-12294936D01*
X5000476Y-12190174D02*
X5010000Y-12171127D01*
X5029048Y-12161603D01*
X5057619Y-12161603D01*
X5076667Y-12171127D01*
X5086190Y-12190174D01*
X5086190Y-12294936D01*
X5181429Y-12294936D02*
X5181429Y-12161603D01*
X5181429Y-12180650D02*
X5190952Y-12171127D01*
X5210000Y-12161603D01*
X5238571Y-12161603D01*
X5257619Y-12171127D01*
X5267143Y-12190174D01*
X5267143Y-12294936D01*
X5267143Y-12190174D02*
X5276667Y-12171127D01*
X5295714Y-12161603D01*
X5324286Y-12161603D01*
X5343333Y-12171127D01*
X5352857Y-12190174D01*
X5352857Y-12294936D01*
X5743333Y-12085412D02*
X5571905Y-12342555D01*
X6000476Y-12094936D02*
X6019524Y-12094936D01*
X6038571Y-12104460D01*
X6048095Y-12113984D01*
X6057619Y-12133031D01*
X6067143Y-12171127D01*
X6067143Y-12218746D01*
X6057619Y-12256841D01*
X6048095Y-12275888D01*
X6038571Y-12285412D01*
X6019524Y-12294936D01*
X6000476Y-12294936D01*
X5981428Y-12285412D01*
X5971905Y-12275888D01*
X5962381Y-12256841D01*
X5952857Y-12218746D01*
X5952857Y-12171127D01*
X5962381Y-12133031D01*
X5971905Y-12113984D01*
X5981428Y-12104460D01*
X6000476Y-12094936D01*
X6152857Y-12275888D02*
X6162381Y-12285412D01*
X6152857Y-12294936D01*
X6143333Y-12285412D01*
X6152857Y-12275888D01*
X6152857Y-12294936D01*
X6286190Y-12094936D02*
X6305238Y-12094936D01*
X6324286Y-12104460D01*
X6333809Y-12113984D01*
X6343333Y-12133031D01*
X6352857Y-12171127D01*
X6352857Y-12218746D01*
X6343333Y-12256841D01*
X6333809Y-12275888D01*
X6324286Y-12285412D01*
X6305238Y-12294936D01*
X6286190Y-12294936D01*
X6267143Y-12285412D01*
X6257619Y-12275888D01*
X6248095Y-12256841D01*
X6238571Y-12218746D01*
X6238571Y-12171127D01*
X6248095Y-12133031D01*
X6257619Y-12113984D01*
X6267143Y-12104460D01*
X6286190Y-12094936D01*
X6419524Y-12094936D02*
X6552857Y-12094936D01*
X6467143Y-12294936D01*
X6657619Y-12180650D02*
X6638571Y-12171127D01*
X6629048Y-12161603D01*
X6619524Y-12142555D01*
X6619524Y-12133031D01*
X6629048Y-12113984D01*
X6638571Y-12104460D01*
X6657619Y-12094936D01*
X6695714Y-12094936D01*
X6714762Y-12104460D01*
X6724286Y-12113984D01*
X6733809Y-12133031D01*
X6733809Y-12142555D01*
X6724286Y-12161603D01*
X6714762Y-12171127D01*
X6695714Y-12180650D01*
X6657619Y-12180650D01*
X6638571Y-12190174D01*
X6629048Y-12199698D01*
X6619524Y-12218746D01*
X6619524Y-12256841D01*
X6629048Y-12275888D01*
X6638571Y-12285412D01*
X6657619Y-12294936D01*
X6695714Y-12294936D01*
X6714762Y-12285412D01*
X6724286Y-12275888D01*
X6733809Y-12256841D01*
X6733809Y-12218746D01*
X6724286Y-12199698D01*
X6714762Y-12190174D01*
X6695714Y-12180650D01*
X6800476Y-12094936D02*
X6933809Y-12094936D01*
X6848095Y-12294936D01*
X7000476Y-12094936D02*
X7000476Y-12133031D01*
X7076667Y-12094936D02*
X7076667Y-12133031D01*
X7371905Y-12371127D02*
X7362381Y-12361603D01*
X7343333Y-12333031D01*
X7333809Y-12313984D01*
X7324286Y-12285412D01*
X7314762Y-12237793D01*
X7314762Y-12199698D01*
X7324286Y-12152079D01*
X7333809Y-12123508D01*
X7343333Y-12104460D01*
X7362381Y-12075888D01*
X7371905Y-12066365D01*
X7438571Y-12113984D02*
X7448095Y-12104460D01*
X7467143Y-12094936D01*
X7514762Y-12094936D01*
X7533809Y-12104460D01*
X7543333Y-12113984D01*
X7552857Y-12133031D01*
X7552857Y-12152079D01*
X7543333Y-12180650D01*
X7429048Y-12294936D01*
X7552857Y-12294936D01*
X7790952Y-12294936D02*
X7790952Y-12094936D01*
X7876667Y-12294936D02*
X7876667Y-12190174D01*
X7867143Y-12171127D01*
X7848095Y-12161603D01*
X7819524Y-12161603D01*
X7800476Y-12171127D01*
X7790952Y-12180650D01*
X8000476Y-12294936D02*
X7981428Y-12285412D01*
X7971905Y-12275888D01*
X7962381Y-12256841D01*
X7962381Y-12199698D01*
X7971905Y-12180650D01*
X7981428Y-12171127D01*
X8000476Y-12161603D01*
X8029048Y-12161603D01*
X8048095Y-12171127D01*
X8057619Y-12180650D01*
X8067143Y-12199698D01*
X8067143Y-12256841D01*
X8057619Y-12275888D01*
X8048095Y-12285412D01*
X8029048Y-12294936D01*
X8000476Y-12294936D01*
X8181428Y-12294936D02*
X8162381Y-12285412D01*
X8152857Y-12266365D01*
X8152857Y-12094936D01*
X8333809Y-12285412D02*
X8314762Y-12294936D01*
X8276667Y-12294936D01*
X8257619Y-12285412D01*
X8248095Y-12266365D01*
X8248095Y-12190174D01*
X8257619Y-12171127D01*
X8276667Y-12161603D01*
X8314762Y-12161603D01*
X8333809Y-12171127D01*
X8343333Y-12190174D01*
X8343333Y-12209222D01*
X8248095Y-12228269D01*
X8419524Y-12285412D02*
X8438571Y-12294936D01*
X8476667Y-12294936D01*
X8495714Y-12285412D01*
X8505238Y-12266365D01*
X8505238Y-12256841D01*
X8495714Y-12237793D01*
X8476667Y-12228269D01*
X8448095Y-12228269D01*
X8429048Y-12218746D01*
X8419524Y-12199698D01*
X8419524Y-12190174D01*
X8429048Y-12171127D01*
X8448095Y-12161603D01*
X8476667Y-12161603D01*
X8495714Y-12171127D01*
X8571905Y-12371127D02*
X8581429Y-12361603D01*
X8600476Y-12333031D01*
X8610000Y-12313984D01*
X8619524Y-12285412D01*
X8629048Y-12237793D01*
X8629048Y-12199698D01*
X8619524Y-12152079D01*
X8610000Y-12123508D01*
X8600476Y-12104460D01*
X8581429Y-12075888D01*
X8571905Y-12066365D01*
X8933810Y-12371127D02*
X8924286Y-12361603D01*
X8905238Y-12333031D01*
X8895714Y-12313984D01*
X8886190Y-12285412D01*
X8876667Y-12237793D01*
X8876667Y-12199698D01*
X8886190Y-12152079D01*
X8895714Y-12123508D01*
X8905238Y-12104460D01*
X8924286Y-12075888D01*
X8933810Y-12066365D01*
X9010000Y-12161603D02*
X9010000Y-12294936D01*
X9010000Y-12180650D02*
X9019524Y-12171127D01*
X9038571Y-12161603D01*
X9067143Y-12161603D01*
X9086190Y-12171127D01*
X9095714Y-12190174D01*
X9095714Y-12294936D01*
X9219524Y-12294936D02*
X9200476Y-12285412D01*
X9190952Y-12275888D01*
X9181429Y-12256841D01*
X9181429Y-12199698D01*
X9190952Y-12180650D01*
X9200476Y-12171127D01*
X9219524Y-12161603D01*
X9248095Y-12161603D01*
X9267143Y-12171127D01*
X9276667Y-12180650D01*
X9286190Y-12199698D01*
X9286190Y-12256841D01*
X9276667Y-12275888D01*
X9267143Y-12285412D01*
X9248095Y-12294936D01*
X9219524Y-12294936D01*
X9343333Y-12161603D02*
X9419524Y-12161603D01*
X9371905Y-12094936D02*
X9371905Y-12266365D01*
X9381429Y-12285412D01*
X9400476Y-12294936D01*
X9419524Y-12294936D01*
X9638571Y-12161603D02*
X9638571Y-12361603D01*
X9638571Y-12171127D02*
X9657619Y-12161603D01*
X9695714Y-12161603D01*
X9714762Y-12171127D01*
X9724286Y-12180650D01*
X9733810Y-12199698D01*
X9733810Y-12256841D01*
X9724286Y-12275888D01*
X9714762Y-12285412D01*
X9695714Y-12294936D01*
X9657619Y-12294936D01*
X9638571Y-12285412D01*
X9848095Y-12294936D02*
X9829048Y-12285412D01*
X9819524Y-12266365D01*
X9819524Y-12094936D01*
X10010000Y-12294936D02*
X10010000Y-12190174D01*
X10000476Y-12171127D01*
X9981429Y-12161603D01*
X9943333Y-12161603D01*
X9924286Y-12171127D01*
X10010000Y-12285412D02*
X9990952Y-12294936D01*
X9943333Y-12294936D01*
X9924286Y-12285412D01*
X9914762Y-12266365D01*
X9914762Y-12247317D01*
X9924286Y-12228269D01*
X9943333Y-12218746D01*
X9990952Y-12218746D01*
X10010000Y-12209222D01*
X10076667Y-12161603D02*
X10152857Y-12161603D01*
X10105238Y-12094936D02*
X10105238Y-12266365D01*
X10114762Y-12285412D01*
X10133810Y-12294936D01*
X10152857Y-12294936D01*
X10295714Y-12285412D02*
X10276667Y-12294936D01*
X10238571Y-12294936D01*
X10219524Y-12285412D01*
X10210000Y-12266365D01*
X10210000Y-12190174D01*
X10219524Y-12171127D01*
X10238571Y-12161603D01*
X10276667Y-12161603D01*
X10295714Y-12171127D01*
X10305238Y-12190174D01*
X10305238Y-12209222D01*
X10210000Y-12228269D01*
X10476667Y-12294936D02*
X10476667Y-12094936D01*
X10476667Y-12285412D02*
X10457619Y-12294936D01*
X10419524Y-12294936D01*
X10400476Y-12285412D01*
X10390952Y-12275888D01*
X10381429Y-12256841D01*
X10381429Y-12199698D01*
X10390952Y-12180650D01*
X10400476Y-12171127D01*
X10419524Y-12161603D01*
X10457619Y-12161603D01*
X10476667Y-12171127D01*
X10552857Y-12371127D02*
X10562381Y-12361603D01*
X10581429Y-12333031D01*
X10590952Y-12313984D01*
X10600476Y-12285412D01*
X10610000Y-12237793D01*
X10610000Y-12199698D01*
X10600476Y-12152079D01*
X10590952Y-12123508D01*
X10581429Y-12104460D01*
X10562381Y-12075888D01*
X10552857Y-12066365D01*
X3800000Y-12524460D02*
G75*
G03*
X3800000Y-12524460I-100000J0D01*
G01*
X4048095Y-12433984D02*
X4057619Y-12424460D01*
X4076667Y-12414936D01*
X4124286Y-12414936D01*
X4143333Y-12424460D01*
X4152857Y-12433984D01*
X4162381Y-12453031D01*
X4162381Y-12472079D01*
X4152857Y-12500650D01*
X4038571Y-12614936D01*
X4162381Y-12614936D01*
X4248095Y-12595888D02*
X4257619Y-12605412D01*
X4248095Y-12614936D01*
X4238571Y-12605412D01*
X4248095Y-12595888D01*
X4248095Y-12614936D01*
X4324286Y-12414936D02*
X4457619Y-12414936D01*
X4371905Y-12614936D01*
X4543333Y-12614936D02*
X4581429Y-12614936D01*
X4600476Y-12605412D01*
X4610000Y-12595888D01*
X4629048Y-12567317D01*
X4638571Y-12529222D01*
X4638571Y-12453031D01*
X4629048Y-12433984D01*
X4619524Y-12424460D01*
X4600476Y-12414936D01*
X4562381Y-12414936D01*
X4543333Y-12424460D01*
X4533810Y-12433984D01*
X4524286Y-12453031D01*
X4524286Y-12500650D01*
X4533810Y-12519698D01*
X4543333Y-12529222D01*
X4562381Y-12538746D01*
X4600476Y-12538746D01*
X4619524Y-12529222D01*
X4629048Y-12519698D01*
X4638571Y-12500650D01*
X4810000Y-12481603D02*
X4810000Y-12614936D01*
X4762381Y-12405412D02*
X4714762Y-12548269D01*
X4838571Y-12548269D01*
X4914762Y-12614936D02*
X4914762Y-12481603D01*
X4914762Y-12500650D02*
X4924286Y-12491127D01*
X4943333Y-12481603D01*
X4971905Y-12481603D01*
X4990952Y-12491127D01*
X5000476Y-12510174D01*
X5000476Y-12614936D01*
X5000476Y-12510174D02*
X5010000Y-12491127D01*
X5029048Y-12481603D01*
X5057619Y-12481603D01*
X5076667Y-12491127D01*
X5086190Y-12510174D01*
X5086190Y-12614936D01*
X5181429Y-12614936D02*
X5181429Y-12481603D01*
X5181429Y-12500650D02*
X5190952Y-12491127D01*
X5210000Y-12481603D01*
X5238571Y-12481603D01*
X5257619Y-12491127D01*
X5267143Y-12510174D01*
X5267143Y-12614936D01*
X5267143Y-12510174D02*
X5276667Y-12491127D01*
X5295714Y-12481603D01*
X5324286Y-12481603D01*
X5343333Y-12491127D01*
X5352857Y-12510174D01*
X5352857Y-12614936D01*
X5743333Y-12405412D02*
X5571905Y-12662555D01*
X6000476Y-12414936D02*
X6019524Y-12414936D01*
X6038571Y-12424460D01*
X6048095Y-12433984D01*
X6057619Y-12453031D01*
X6067143Y-12491127D01*
X6067143Y-12538746D01*
X6057619Y-12576841D01*
X6048095Y-12595888D01*
X6038571Y-12605412D01*
X6019524Y-12614936D01*
X6000476Y-12614936D01*
X5981428Y-12605412D01*
X5971905Y-12595888D01*
X5962381Y-12576841D01*
X5952857Y-12538746D01*
X5952857Y-12491127D01*
X5962381Y-12453031D01*
X5971905Y-12433984D01*
X5981428Y-12424460D01*
X6000476Y-12414936D01*
X6152857Y-12595888D02*
X6162381Y-12605412D01*
X6152857Y-12614936D01*
X6143333Y-12605412D01*
X6152857Y-12595888D01*
X6152857Y-12614936D01*
X6352857Y-12614936D02*
X6238571Y-12614936D01*
X6295714Y-12614936D02*
X6295714Y-12414936D01*
X6276667Y-12443508D01*
X6257619Y-12462555D01*
X6238571Y-12472079D01*
X6543333Y-12614936D02*
X6429048Y-12614936D01*
X6486190Y-12614936D02*
X6486190Y-12414936D01*
X6467143Y-12443508D01*
X6448095Y-12462555D01*
X6429048Y-12472079D01*
X6667143Y-12414936D02*
X6686190Y-12414936D01*
X6705238Y-12424460D01*
X6714762Y-12433984D01*
X6724286Y-12453031D01*
X6733809Y-12491127D01*
X6733809Y-12538746D01*
X6724286Y-12576841D01*
X6714762Y-12595888D01*
X6705238Y-12605412D01*
X6686190Y-12614936D01*
X6667143Y-12614936D01*
X6648095Y-12605412D01*
X6638571Y-12595888D01*
X6629048Y-12576841D01*
X6619524Y-12538746D01*
X6619524Y-12491127D01*
X6629048Y-12453031D01*
X6638571Y-12433984D01*
X6648095Y-12424460D01*
X6667143Y-12414936D01*
X6857619Y-12414936D02*
X6876667Y-12414936D01*
X6895714Y-12424460D01*
X6905238Y-12433984D01*
X6914762Y-12453031D01*
X6924286Y-12491127D01*
X6924286Y-12538746D01*
X6914762Y-12576841D01*
X6905238Y-12595888D01*
X6895714Y-12605412D01*
X6876667Y-12614936D01*
X6857619Y-12614936D01*
X6838571Y-12605412D01*
X6829048Y-12595888D01*
X6819524Y-12576841D01*
X6810000Y-12538746D01*
X6810000Y-12491127D01*
X6819524Y-12453031D01*
X6829048Y-12433984D01*
X6838571Y-12424460D01*
X6857619Y-12414936D01*
X7000476Y-12414936D02*
X7000476Y-12453031D01*
X7076667Y-12414936D02*
X7076667Y-12453031D01*
X7371905Y-12691127D02*
X7362381Y-12681603D01*
X7343333Y-12653031D01*
X7333809Y-12633984D01*
X7324286Y-12605412D01*
X7314762Y-12557793D01*
X7314762Y-12519698D01*
X7324286Y-12472079D01*
X7333809Y-12443508D01*
X7343333Y-12424460D01*
X7362381Y-12395888D01*
X7371905Y-12386365D01*
X7438571Y-12433984D02*
X7448095Y-12424460D01*
X7467143Y-12414936D01*
X7514762Y-12414936D01*
X7533809Y-12424460D01*
X7543333Y-12433984D01*
X7552857Y-12453031D01*
X7552857Y-12472079D01*
X7543333Y-12500650D01*
X7429048Y-12614936D01*
X7552857Y-12614936D01*
X7790952Y-12614936D02*
X7790952Y-12414936D01*
X7876667Y-12614936D02*
X7876667Y-12510174D01*
X7867143Y-12491127D01*
X7848095Y-12481603D01*
X7819524Y-12481603D01*
X7800476Y-12491127D01*
X7790952Y-12500650D01*
X8000476Y-12614936D02*
X7981428Y-12605412D01*
X7971905Y-12595888D01*
X7962381Y-12576841D01*
X7962381Y-12519698D01*
X7971905Y-12500650D01*
X7981428Y-12491127D01*
X8000476Y-12481603D01*
X8029048Y-12481603D01*
X8048095Y-12491127D01*
X8057619Y-12500650D01*
X8067143Y-12519698D01*
X8067143Y-12576841D01*
X8057619Y-12595888D01*
X8048095Y-12605412D01*
X8029048Y-12614936D01*
X8000476Y-12614936D01*
X8181428Y-12614936D02*
X8162381Y-12605412D01*
X8152857Y-12586365D01*
X8152857Y-12414936D01*
X8333809Y-12605412D02*
X8314762Y-12614936D01*
X8276667Y-12614936D01*
X8257619Y-12605412D01*
X8248095Y-12586365D01*
X8248095Y-12510174D01*
X8257619Y-12491127D01*
X8276667Y-12481603D01*
X8314762Y-12481603D01*
X8333809Y-12491127D01*
X8343333Y-12510174D01*
X8343333Y-12529222D01*
X8248095Y-12548269D01*
X8419524Y-12605412D02*
X8438571Y-12614936D01*
X8476667Y-12614936D01*
X8495714Y-12605412D01*
X8505238Y-12586365D01*
X8505238Y-12576841D01*
X8495714Y-12557793D01*
X8476667Y-12548269D01*
X8448095Y-12548269D01*
X8429048Y-12538746D01*
X8419524Y-12519698D01*
X8419524Y-12510174D01*
X8429048Y-12491127D01*
X8448095Y-12481603D01*
X8476667Y-12481603D01*
X8495714Y-12491127D01*
X8571905Y-12691127D02*
X8581429Y-12681603D01*
X8600476Y-12653031D01*
X8610000Y-12633984D01*
X8619524Y-12605412D01*
X8629048Y-12557793D01*
X8629048Y-12519698D01*
X8619524Y-12472079D01*
X8610000Y-12443508D01*
X8600476Y-12424460D01*
X8581429Y-12395888D01*
X8571905Y-12386365D01*
X8933810Y-12691127D02*
X8924286Y-12681603D01*
X8905238Y-12653031D01*
X8895714Y-12633984D01*
X8886190Y-12605412D01*
X8876667Y-12557793D01*
X8876667Y-12519698D01*
X8886190Y-12472079D01*
X8895714Y-12443508D01*
X8905238Y-12424460D01*
X8924286Y-12395888D01*
X8933810Y-12386365D01*
X9010000Y-12481603D02*
X9010000Y-12614936D01*
X9010000Y-12500650D02*
X9019524Y-12491127D01*
X9038571Y-12481603D01*
X9067143Y-12481603D01*
X9086190Y-12491127D01*
X9095714Y-12510174D01*
X9095714Y-12614936D01*
X9219524Y-12614936D02*
X9200476Y-12605412D01*
X9190952Y-12595888D01*
X9181429Y-12576841D01*
X9181429Y-12519698D01*
X9190952Y-12500650D01*
X9200476Y-12491127D01*
X9219524Y-12481603D01*
X9248095Y-12481603D01*
X9267143Y-12491127D01*
X9276667Y-12500650D01*
X9286190Y-12519698D01*
X9286190Y-12576841D01*
X9276667Y-12595888D01*
X9267143Y-12605412D01*
X9248095Y-12614936D01*
X9219524Y-12614936D01*
X9343333Y-12481603D02*
X9419524Y-12481603D01*
X9371905Y-12414936D02*
X9371905Y-12586365D01*
X9381429Y-12605412D01*
X9400476Y-12614936D01*
X9419524Y-12614936D01*
X9638571Y-12481603D02*
X9638571Y-12681603D01*
X9638571Y-12491127D02*
X9657619Y-12481603D01*
X9695714Y-12481603D01*
X9714762Y-12491127D01*
X9724286Y-12500650D01*
X9733810Y-12519698D01*
X9733810Y-12576841D01*
X9724286Y-12595888D01*
X9714762Y-12605412D01*
X9695714Y-12614936D01*
X9657619Y-12614936D01*
X9638571Y-12605412D01*
X9848095Y-12614936D02*
X9829048Y-12605412D01*
X9819524Y-12586365D01*
X9819524Y-12414936D01*
X10010000Y-12614936D02*
X10010000Y-12510174D01*
X10000476Y-12491127D01*
X9981429Y-12481603D01*
X9943333Y-12481603D01*
X9924286Y-12491127D01*
X10010000Y-12605412D02*
X9990952Y-12614936D01*
X9943333Y-12614936D01*
X9924286Y-12605412D01*
X9914762Y-12586365D01*
X9914762Y-12567317D01*
X9924286Y-12548269D01*
X9943333Y-12538746D01*
X9990952Y-12538746D01*
X10010000Y-12529222D01*
X10076667Y-12481603D02*
X10152857Y-12481603D01*
X10105238Y-12414936D02*
X10105238Y-12586365D01*
X10114762Y-12605412D01*
X10133810Y-12614936D01*
X10152857Y-12614936D01*
X10295714Y-12605412D02*
X10276667Y-12614936D01*
X10238571Y-12614936D01*
X10219524Y-12605412D01*
X10210000Y-12586365D01*
X10210000Y-12510174D01*
X10219524Y-12491127D01*
X10238571Y-12481603D01*
X10276667Y-12481603D01*
X10295714Y-12491127D01*
X10305238Y-12510174D01*
X10305238Y-12529222D01*
X10210000Y-12548269D01*
X10476667Y-12614936D02*
X10476667Y-12414936D01*
X10476667Y-12605412D02*
X10457619Y-12614936D01*
X10419524Y-12614936D01*
X10400476Y-12605412D01*
X10390952Y-12595888D01*
X10381429Y-12576841D01*
X10381429Y-12519698D01*
X10390952Y-12500650D01*
X10400476Y-12491127D01*
X10419524Y-12481603D01*
X10457619Y-12481603D01*
X10476667Y-12491127D01*
X10552857Y-12691127D02*
X10562381Y-12681603D01*
X10581429Y-12653031D01*
X10590952Y-12633984D01*
X10600476Y-12605412D01*
X10610000Y-12557793D01*
X10610000Y-12519698D01*
X10600476Y-12472079D01*
X10590952Y-12443508D01*
X10581429Y-12424460D01*
X10562381Y-12395888D01*
X10552857Y-12386365D01*
X3700000Y-12744460D02*
X3700000Y-12944460D01*
X3600000Y-12844460D02*
X3800000Y-12844460D01*
X4038571Y-12734936D02*
X4162381Y-12734936D01*
X4095714Y-12811127D01*
X4124286Y-12811127D01*
X4143333Y-12820650D01*
X4152857Y-12830174D01*
X4162381Y-12849222D01*
X4162381Y-12896841D01*
X4152857Y-12915888D01*
X4143333Y-12925412D01*
X4124286Y-12934936D01*
X4067143Y-12934936D01*
X4048095Y-12925412D01*
X4038571Y-12915888D01*
X4248095Y-12915888D02*
X4257619Y-12925412D01*
X4248095Y-12934936D01*
X4238571Y-12925412D01*
X4248095Y-12915888D01*
X4248095Y-12934936D01*
X4333810Y-12753984D02*
X4343333Y-12744460D01*
X4362381Y-12734936D01*
X4410000Y-12734936D01*
X4429048Y-12744460D01*
X4438571Y-12753984D01*
X4448095Y-12773031D01*
X4448095Y-12792079D01*
X4438571Y-12820650D01*
X4324286Y-12934936D01*
X4448095Y-12934936D01*
X4571905Y-12734936D02*
X4590952Y-12734936D01*
X4610000Y-12744460D01*
X4619524Y-12753984D01*
X4629048Y-12773031D01*
X4638571Y-12811127D01*
X4638571Y-12858746D01*
X4629048Y-12896841D01*
X4619524Y-12915888D01*
X4610000Y-12925412D01*
X4590952Y-12934936D01*
X4571905Y-12934936D01*
X4552857Y-12925412D01*
X4543333Y-12915888D01*
X4533810Y-12896841D01*
X4524286Y-12858746D01*
X4524286Y-12811127D01*
X4533810Y-12773031D01*
X4543333Y-12753984D01*
X4552857Y-12744460D01*
X4571905Y-12734936D01*
X4762381Y-12734936D02*
X4781429Y-12734936D01*
X4800476Y-12744460D01*
X4810000Y-12753984D01*
X4819524Y-12773031D01*
X4829048Y-12811127D01*
X4829048Y-12858746D01*
X4819524Y-12896841D01*
X4810000Y-12915888D01*
X4800476Y-12925412D01*
X4781429Y-12934936D01*
X4762381Y-12934936D01*
X4743333Y-12925412D01*
X4733810Y-12915888D01*
X4724286Y-12896841D01*
X4714762Y-12858746D01*
X4714762Y-12811127D01*
X4724286Y-12773031D01*
X4733810Y-12753984D01*
X4743333Y-12744460D01*
X4762381Y-12734936D01*
X4914762Y-12934936D02*
X4914762Y-12801603D01*
X4914762Y-12820650D02*
X4924286Y-12811127D01*
X4943333Y-12801603D01*
X4971905Y-12801603D01*
X4990952Y-12811127D01*
X5000476Y-12830174D01*
X5000476Y-12934936D01*
X5000476Y-12830174D02*
X5010000Y-12811127D01*
X5029048Y-12801603D01*
X5057619Y-12801603D01*
X5076667Y-12811127D01*
X5086190Y-12830174D01*
X5086190Y-12934936D01*
X5181429Y-12934936D02*
X5181429Y-12801603D01*
X5181429Y-12820650D02*
X5190952Y-12811127D01*
X5210000Y-12801603D01*
X5238571Y-12801603D01*
X5257619Y-12811127D01*
X5267143Y-12830174D01*
X5267143Y-12934936D01*
X5267143Y-12830174D02*
X5276667Y-12811127D01*
X5295714Y-12801603D01*
X5324286Y-12801603D01*
X5343333Y-12811127D01*
X5352857Y-12830174D01*
X5352857Y-12934936D01*
X5743333Y-12725412D02*
X5571905Y-12982555D01*
X6000476Y-12734936D02*
X6019524Y-12734936D01*
X6038571Y-12744460D01*
X6048095Y-12753984D01*
X6057619Y-12773031D01*
X6067143Y-12811127D01*
X6067143Y-12858746D01*
X6057619Y-12896841D01*
X6048095Y-12915888D01*
X6038571Y-12925412D01*
X6019524Y-12934936D01*
X6000476Y-12934936D01*
X5981428Y-12925412D01*
X5971905Y-12915888D01*
X5962381Y-12896841D01*
X5952857Y-12858746D01*
X5952857Y-12811127D01*
X5962381Y-12773031D01*
X5971905Y-12753984D01*
X5981428Y-12744460D01*
X6000476Y-12734936D01*
X6152857Y-12915888D02*
X6162381Y-12925412D01*
X6152857Y-12934936D01*
X6143333Y-12925412D01*
X6152857Y-12915888D01*
X6152857Y-12934936D01*
X6352857Y-12934936D02*
X6238571Y-12934936D01*
X6295714Y-12934936D02*
X6295714Y-12734936D01*
X6276667Y-12763508D01*
X6257619Y-12782555D01*
X6238571Y-12792079D01*
X6429048Y-12753984D02*
X6438571Y-12744460D01*
X6457619Y-12734936D01*
X6505238Y-12734936D01*
X6524286Y-12744460D01*
X6533809Y-12753984D01*
X6543333Y-12773031D01*
X6543333Y-12792079D01*
X6533809Y-12820650D01*
X6419524Y-12934936D01*
X6543333Y-12934936D01*
X6714762Y-12734936D02*
X6676667Y-12734936D01*
X6657619Y-12744460D01*
X6648095Y-12753984D01*
X6629048Y-12782555D01*
X6619524Y-12820650D01*
X6619524Y-12896841D01*
X6629048Y-12915888D01*
X6638571Y-12925412D01*
X6657619Y-12934936D01*
X6695714Y-12934936D01*
X6714762Y-12925412D01*
X6724286Y-12915888D01*
X6733809Y-12896841D01*
X6733809Y-12849222D01*
X6724286Y-12830174D01*
X6714762Y-12820650D01*
X6695714Y-12811127D01*
X6657619Y-12811127D01*
X6638571Y-12820650D01*
X6629048Y-12830174D01*
X6619524Y-12849222D01*
X6857619Y-12734936D02*
X6876667Y-12734936D01*
X6895714Y-12744460D01*
X6905238Y-12753984D01*
X6914762Y-12773031D01*
X6924286Y-12811127D01*
X6924286Y-12858746D01*
X6914762Y-12896841D01*
X6905238Y-12915888D01*
X6895714Y-12925412D01*
X6876667Y-12934936D01*
X6857619Y-12934936D01*
X6838571Y-12925412D01*
X6829048Y-12915888D01*
X6819524Y-12896841D01*
X6810000Y-12858746D01*
X6810000Y-12811127D01*
X6819524Y-12773031D01*
X6829048Y-12753984D01*
X6838571Y-12744460D01*
X6857619Y-12734936D01*
X7000476Y-12734936D02*
X7000476Y-12773031D01*
X7076667Y-12734936D02*
X7076667Y-12773031D01*
X7371905Y-13011127D02*
X7362381Y-13001603D01*
X7343333Y-12973031D01*
X7333809Y-12953984D01*
X7324286Y-12925412D01*
X7314762Y-12877793D01*
X7314762Y-12839698D01*
X7324286Y-12792079D01*
X7333809Y-12763508D01*
X7343333Y-12744460D01*
X7362381Y-12715888D01*
X7371905Y-12706365D01*
X7533809Y-12801603D02*
X7533809Y-12934936D01*
X7486190Y-12725412D02*
X7438571Y-12868269D01*
X7562381Y-12868269D01*
X7790952Y-12934936D02*
X7790952Y-12734936D01*
X7876667Y-12934936D02*
X7876667Y-12830174D01*
X7867143Y-12811127D01*
X7848095Y-12801603D01*
X7819524Y-12801603D01*
X7800476Y-12811127D01*
X7790952Y-12820650D01*
X8000476Y-12934936D02*
X7981428Y-12925412D01*
X7971905Y-12915888D01*
X7962381Y-12896841D01*
X7962381Y-12839698D01*
X7971905Y-12820650D01*
X7981428Y-12811127D01*
X8000476Y-12801603D01*
X8029048Y-12801603D01*
X8048095Y-12811127D01*
X8057619Y-12820650D01*
X8067143Y-12839698D01*
X8067143Y-12896841D01*
X8057619Y-12915888D01*
X8048095Y-12925412D01*
X8029048Y-12934936D01*
X8000476Y-12934936D01*
X8181428Y-12934936D02*
X8162381Y-12925412D01*
X8152857Y-12906365D01*
X8152857Y-12734936D01*
X8333809Y-12925412D02*
X8314762Y-12934936D01*
X8276667Y-12934936D01*
X8257619Y-12925412D01*
X8248095Y-12906365D01*
X8248095Y-12830174D01*
X8257619Y-12811127D01*
X8276667Y-12801603D01*
X8314762Y-12801603D01*
X8333809Y-12811127D01*
X8343333Y-12830174D01*
X8343333Y-12849222D01*
X8248095Y-12868269D01*
X8419524Y-12925412D02*
X8438571Y-12934936D01*
X8476667Y-12934936D01*
X8495714Y-12925412D01*
X8505238Y-12906365D01*
X8505238Y-12896841D01*
X8495714Y-12877793D01*
X8476667Y-12868269D01*
X8448095Y-12868269D01*
X8429048Y-12858746D01*
X8419524Y-12839698D01*
X8419524Y-12830174D01*
X8429048Y-12811127D01*
X8448095Y-12801603D01*
X8476667Y-12801603D01*
X8495714Y-12811127D01*
X8571905Y-13011127D02*
X8581429Y-13001603D01*
X8600476Y-12973031D01*
X8610000Y-12953984D01*
X8619524Y-12925412D01*
X8629048Y-12877793D01*
X8629048Y-12839698D01*
X8619524Y-12792079D01*
X8610000Y-12763508D01*
X8600476Y-12744460D01*
X8581429Y-12715888D01*
X8571905Y-12706365D01*
X8933810Y-13011127D02*
X8924286Y-13001603D01*
X8905238Y-12973031D01*
X8895714Y-12953984D01*
X8886190Y-12925412D01*
X8876667Y-12877793D01*
X8876667Y-12839698D01*
X8886190Y-12792079D01*
X8895714Y-12763508D01*
X8905238Y-12744460D01*
X8924286Y-12715888D01*
X8933810Y-12706365D01*
X9010000Y-12801603D02*
X9010000Y-12934936D01*
X9010000Y-12820650D02*
X9019524Y-12811127D01*
X9038571Y-12801603D01*
X9067143Y-12801603D01*
X9086190Y-12811127D01*
X9095714Y-12830174D01*
X9095714Y-12934936D01*
X9219524Y-12934936D02*
X9200476Y-12925412D01*
X9190952Y-12915888D01*
X9181429Y-12896841D01*
X9181429Y-12839698D01*
X9190952Y-12820650D01*
X9200476Y-12811127D01*
X9219524Y-12801603D01*
X9248095Y-12801603D01*
X9267143Y-12811127D01*
X9276667Y-12820650D01*
X9286190Y-12839698D01*
X9286190Y-12896841D01*
X9276667Y-12915888D01*
X9267143Y-12925412D01*
X9248095Y-12934936D01*
X9219524Y-12934936D01*
X9343333Y-12801603D02*
X9419524Y-12801603D01*
X9371905Y-12734936D02*
X9371905Y-12906365D01*
X9381429Y-12925412D01*
X9400476Y-12934936D01*
X9419524Y-12934936D01*
X9638571Y-12801603D02*
X9638571Y-13001603D01*
X9638571Y-12811127D02*
X9657619Y-12801603D01*
X9695714Y-12801603D01*
X9714762Y-12811127D01*
X9724286Y-12820650D01*
X9733810Y-12839698D01*
X9733810Y-12896841D01*
X9724286Y-12915888D01*
X9714762Y-12925412D01*
X9695714Y-12934936D01*
X9657619Y-12934936D01*
X9638571Y-12925412D01*
X9848095Y-12934936D02*
X9829048Y-12925412D01*
X9819524Y-12906365D01*
X9819524Y-12734936D01*
X10010000Y-12934936D02*
X10010000Y-12830174D01*
X10000476Y-12811127D01*
X9981429Y-12801603D01*
X9943333Y-12801603D01*
X9924286Y-12811127D01*
X10010000Y-12925412D02*
X9990952Y-12934936D01*
X9943333Y-12934936D01*
X9924286Y-12925412D01*
X9914762Y-12906365D01*
X9914762Y-12887317D01*
X9924286Y-12868269D01*
X9943333Y-12858746D01*
X9990952Y-12858746D01*
X10010000Y-12849222D01*
X10076667Y-12801603D02*
X10152857Y-12801603D01*
X10105238Y-12734936D02*
X10105238Y-12906365D01*
X10114762Y-12925412D01*
X10133810Y-12934936D01*
X10152857Y-12934936D01*
X10295714Y-12925412D02*
X10276667Y-12934936D01*
X10238571Y-12934936D01*
X10219524Y-12925412D01*
X10210000Y-12906365D01*
X10210000Y-12830174D01*
X10219524Y-12811127D01*
X10238571Y-12801603D01*
X10276667Y-12801603D01*
X10295714Y-12811127D01*
X10305238Y-12830174D01*
X10305238Y-12849222D01*
X10210000Y-12868269D01*
X10476667Y-12934936D02*
X10476667Y-12734936D01*
X10476667Y-12925412D02*
X10457619Y-12934936D01*
X10419524Y-12934936D01*
X10400476Y-12925412D01*
X10390952Y-12915888D01*
X10381429Y-12896841D01*
X10381429Y-12839698D01*
X10390952Y-12820650D01*
X10400476Y-12811127D01*
X10419524Y-12801603D01*
X10457619Y-12801603D01*
X10476667Y-12811127D01*
X10552857Y-13011127D02*
X10562381Y-13001603D01*
X10581429Y-12973031D01*
X10590952Y-12953984D01*
X10600476Y-12925412D01*
X10610000Y-12877793D01*
X10610000Y-12839698D01*
X10600476Y-12792079D01*
X10590952Y-12763508D01*
X10581429Y-12744460D01*
X10562381Y-12715888D01*
X10552857Y-12706365D01*
X3770711Y-13235171D02*
X3770711Y-13093749D01*
X3629289Y-13093749D01*
X3629289Y-13235171D01*
X3770711Y-13235171D01*
X4038571Y-13054936D02*
X4162381Y-13054936D01*
X4095714Y-13131127D01*
X4124286Y-13131127D01*
X4143333Y-13140650D01*
X4152857Y-13150174D01*
X4162381Y-13169222D01*
X4162381Y-13216841D01*
X4152857Y-13235888D01*
X4143333Y-13245412D01*
X4124286Y-13254936D01*
X4067143Y-13254936D01*
X4048095Y-13245412D01*
X4038571Y-13235888D01*
X4248095Y-13235888D02*
X4257619Y-13245412D01*
X4248095Y-13254936D01*
X4238571Y-13245412D01*
X4248095Y-13235888D01*
X4248095Y-13254936D01*
X4438571Y-13054936D02*
X4343333Y-13054936D01*
X4333810Y-13150174D01*
X4343333Y-13140650D01*
X4362381Y-13131127D01*
X4410000Y-13131127D01*
X4429048Y-13140650D01*
X4438571Y-13150174D01*
X4448095Y-13169222D01*
X4448095Y-13216841D01*
X4438571Y-13235888D01*
X4429048Y-13245412D01*
X4410000Y-13254936D01*
X4362381Y-13254936D01*
X4343333Y-13245412D01*
X4333810Y-13235888D01*
X4571905Y-13054936D02*
X4590952Y-13054936D01*
X4610000Y-13064460D01*
X4619524Y-13073984D01*
X4629048Y-13093031D01*
X4638571Y-13131127D01*
X4638571Y-13178746D01*
X4629048Y-13216841D01*
X4619524Y-13235888D01*
X4610000Y-13245412D01*
X4590952Y-13254936D01*
X4571905Y-13254936D01*
X4552857Y-13245412D01*
X4543333Y-13235888D01*
X4533810Y-13216841D01*
X4524286Y-13178746D01*
X4524286Y-13131127D01*
X4533810Y-13093031D01*
X4543333Y-13073984D01*
X4552857Y-13064460D01*
X4571905Y-13054936D01*
X4762381Y-13054936D02*
X4781429Y-13054936D01*
X4800476Y-13064460D01*
X4810000Y-13073984D01*
X4819524Y-13093031D01*
X4829048Y-13131127D01*
X4829048Y-13178746D01*
X4819524Y-13216841D01*
X4810000Y-13235888D01*
X4800476Y-13245412D01*
X4781429Y-13254936D01*
X4762381Y-13254936D01*
X4743333Y-13245412D01*
X4733810Y-13235888D01*
X4724286Y-13216841D01*
X4714762Y-13178746D01*
X4714762Y-13131127D01*
X4724286Y-13093031D01*
X4733810Y-13073984D01*
X4743333Y-13064460D01*
X4762381Y-13054936D01*
X4914762Y-13254936D02*
X4914762Y-13121603D01*
X4914762Y-13140650D02*
X4924286Y-13131127D01*
X4943333Y-13121603D01*
X4971905Y-13121603D01*
X4990952Y-13131127D01*
X5000476Y-13150174D01*
X5000476Y-13254936D01*
X5000476Y-13150174D02*
X5010000Y-13131127D01*
X5029048Y-13121603D01*
X5057619Y-13121603D01*
X5076667Y-13131127D01*
X5086190Y-13150174D01*
X5086190Y-13254936D01*
X5181429Y-13254936D02*
X5181429Y-13121603D01*
X5181429Y-13140650D02*
X5190952Y-13131127D01*
X5210000Y-13121603D01*
X5238571Y-13121603D01*
X5257619Y-13131127D01*
X5267143Y-13150174D01*
X5267143Y-13254936D01*
X5267143Y-13150174D02*
X5276667Y-13131127D01*
X5295714Y-13121603D01*
X5324286Y-13121603D01*
X5343333Y-13131127D01*
X5352857Y-13150174D01*
X5352857Y-13254936D01*
X5743333Y-13045412D02*
X5571905Y-13302555D01*
X6000476Y-13054936D02*
X6019524Y-13054936D01*
X6038571Y-13064460D01*
X6048095Y-13073984D01*
X6057619Y-13093031D01*
X6067143Y-13131127D01*
X6067143Y-13178746D01*
X6057619Y-13216841D01*
X6048095Y-13235888D01*
X6038571Y-13245412D01*
X6019524Y-13254936D01*
X6000476Y-13254936D01*
X5981428Y-13245412D01*
X5971905Y-13235888D01*
X5962381Y-13216841D01*
X5952857Y-13178746D01*
X5952857Y-13131127D01*
X5962381Y-13093031D01*
X5971905Y-13073984D01*
X5981428Y-13064460D01*
X6000476Y-13054936D01*
X6152857Y-13235888D02*
X6162381Y-13245412D01*
X6152857Y-13254936D01*
X6143333Y-13245412D01*
X6152857Y-13235888D01*
X6152857Y-13254936D01*
X6352857Y-13254936D02*
X6238571Y-13254936D01*
X6295714Y-13254936D02*
X6295714Y-13054936D01*
X6276667Y-13083508D01*
X6257619Y-13102555D01*
X6238571Y-13112079D01*
X6419524Y-13054936D02*
X6543333Y-13054936D01*
X6476667Y-13131127D01*
X6505238Y-13131127D01*
X6524286Y-13140650D01*
X6533809Y-13150174D01*
X6543333Y-13169222D01*
X6543333Y-13216841D01*
X6533809Y-13235888D01*
X6524286Y-13245412D01*
X6505238Y-13254936D01*
X6448095Y-13254936D01*
X6429048Y-13245412D01*
X6419524Y-13235888D01*
X6610000Y-13054936D02*
X6743333Y-13054936D01*
X6657619Y-13254936D01*
X6848095Y-13140650D02*
X6829048Y-13131127D01*
X6819524Y-13121603D01*
X6810000Y-13102555D01*
X6810000Y-13093031D01*
X6819524Y-13073984D01*
X6829048Y-13064460D01*
X6848095Y-13054936D01*
X6886190Y-13054936D01*
X6905238Y-13064460D01*
X6914762Y-13073984D01*
X6924286Y-13093031D01*
X6924286Y-13102555D01*
X6914762Y-13121603D01*
X6905238Y-13131127D01*
X6886190Y-13140650D01*
X6848095Y-13140650D01*
X6829048Y-13150174D01*
X6819524Y-13159698D01*
X6810000Y-13178746D01*
X6810000Y-13216841D01*
X6819524Y-13235888D01*
X6829048Y-13245412D01*
X6848095Y-13254936D01*
X6886190Y-13254936D01*
X6905238Y-13245412D01*
X6914762Y-13235888D01*
X6924286Y-13216841D01*
X6924286Y-13178746D01*
X6914762Y-13159698D01*
X6905238Y-13150174D01*
X6886190Y-13140650D01*
X7000476Y-13054936D02*
X7000476Y-13093031D01*
X7076667Y-13054936D02*
X7076667Y-13093031D01*
X7371905Y-13331127D02*
X7362381Y-13321603D01*
X7343333Y-13293031D01*
X7333809Y-13273984D01*
X7324286Y-13245412D01*
X7314762Y-13197793D01*
X7314762Y-13159698D01*
X7324286Y-13112079D01*
X7333809Y-13083508D01*
X7343333Y-13064460D01*
X7362381Y-13035888D01*
X7371905Y-13026365D01*
X7552857Y-13254936D02*
X7438571Y-13254936D01*
X7495714Y-13254936D02*
X7495714Y-13054936D01*
X7476667Y-13083508D01*
X7457619Y-13102555D01*
X7438571Y-13112079D01*
X7790952Y-13254936D02*
X7790952Y-13054936D01*
X7876667Y-13254936D02*
X7876667Y-13150174D01*
X7867143Y-13131127D01*
X7848095Y-13121603D01*
X7819524Y-13121603D01*
X7800476Y-13131127D01*
X7790952Y-13140650D01*
X8000476Y-13254936D02*
X7981428Y-13245412D01*
X7971905Y-13235888D01*
X7962381Y-13216841D01*
X7962381Y-13159698D01*
X7971905Y-13140650D01*
X7981428Y-13131127D01*
X8000476Y-13121603D01*
X8029048Y-13121603D01*
X8048095Y-13131127D01*
X8057619Y-13140650D01*
X8067143Y-13159698D01*
X8067143Y-13216841D01*
X8057619Y-13235888D01*
X8048095Y-13245412D01*
X8029048Y-13254936D01*
X8000476Y-13254936D01*
X8181428Y-13254936D02*
X8162381Y-13245412D01*
X8152857Y-13226365D01*
X8152857Y-13054936D01*
X8333809Y-13245412D02*
X8314762Y-13254936D01*
X8276667Y-13254936D01*
X8257619Y-13245412D01*
X8248095Y-13226365D01*
X8248095Y-13150174D01*
X8257619Y-13131127D01*
X8276667Y-13121603D01*
X8314762Y-13121603D01*
X8333809Y-13131127D01*
X8343333Y-13150174D01*
X8343333Y-13169222D01*
X8248095Y-13188269D01*
X8410000Y-13331127D02*
X8419524Y-13321603D01*
X8438571Y-13293031D01*
X8448095Y-13273984D01*
X8457619Y-13245412D01*
X8467143Y-13197793D01*
X8467143Y-13159698D01*
X8457619Y-13112079D01*
X8448095Y-13083508D01*
X8438571Y-13064460D01*
X8419524Y-13035888D01*
X8410000Y-13026365D01*
X8771905Y-13331127D02*
X8762381Y-13321603D01*
X8743333Y-13293031D01*
X8733810Y-13273984D01*
X8724286Y-13245412D01*
X8714762Y-13197793D01*
X8714762Y-13159698D01*
X8724286Y-13112079D01*
X8733810Y-13083508D01*
X8743333Y-13064460D01*
X8762381Y-13035888D01*
X8771905Y-13026365D01*
X8848095Y-13121603D02*
X8848095Y-13254936D01*
X8848095Y-13140650D02*
X8857619Y-13131127D01*
X8876667Y-13121603D01*
X8905238Y-13121603D01*
X8924286Y-13131127D01*
X8933810Y-13150174D01*
X8933810Y-13254936D01*
X9057619Y-13254936D02*
X9038571Y-13245412D01*
X9029048Y-13235888D01*
X9019524Y-13216841D01*
X9019524Y-13159698D01*
X9029048Y-13140650D01*
X9038571Y-13131127D01*
X9057619Y-13121603D01*
X9086190Y-13121603D01*
X9105238Y-13131127D01*
X9114762Y-13140650D01*
X9124286Y-13159698D01*
X9124286Y-13216841D01*
X9114762Y-13235888D01*
X9105238Y-13245412D01*
X9086190Y-13254936D01*
X9057619Y-13254936D01*
X9181429Y-13121603D02*
X9257619Y-13121603D01*
X9210000Y-13054936D02*
X9210000Y-13226365D01*
X9219524Y-13245412D01*
X9238571Y-13254936D01*
X9257619Y-13254936D01*
X9476667Y-13121603D02*
X9476667Y-13321603D01*
X9476667Y-13131127D02*
X9495714Y-13121603D01*
X9533810Y-13121603D01*
X9552857Y-13131127D01*
X9562381Y-13140650D01*
X9571905Y-13159698D01*
X9571905Y-13216841D01*
X9562381Y-13235888D01*
X9552857Y-13245412D01*
X9533810Y-13254936D01*
X9495714Y-13254936D01*
X9476667Y-13245412D01*
X9686190Y-13254936D02*
X9667143Y-13245412D01*
X9657619Y-13226365D01*
X9657619Y-13054936D01*
X9848095Y-13254936D02*
X9848095Y-13150174D01*
X9838571Y-13131127D01*
X9819524Y-13121603D01*
X9781429Y-13121603D01*
X9762381Y-13131127D01*
X9848095Y-13245412D02*
X9829048Y-13254936D01*
X9781429Y-13254936D01*
X9762381Y-13245412D01*
X9752857Y-13226365D01*
X9752857Y-13207317D01*
X9762381Y-13188269D01*
X9781429Y-13178746D01*
X9829048Y-13178746D01*
X9848095Y-13169222D01*
X9914762Y-13121603D02*
X9990952Y-13121603D01*
X9943333Y-13054936D02*
X9943333Y-13226365D01*
X9952857Y-13245412D01*
X9971905Y-13254936D01*
X9990952Y-13254936D01*
X10133810Y-13245412D02*
X10114762Y-13254936D01*
X10076667Y-13254936D01*
X10057619Y-13245412D01*
X10048095Y-13226365D01*
X10048095Y-13150174D01*
X10057619Y-13131127D01*
X10076667Y-13121603D01*
X10114762Y-13121603D01*
X10133810Y-13131127D01*
X10143333Y-13150174D01*
X10143333Y-13169222D01*
X10048095Y-13188269D01*
X10314762Y-13254936D02*
X10314762Y-13054936D01*
X10314762Y-13245412D02*
X10295714Y-13254936D01*
X10257619Y-13254936D01*
X10238571Y-13245412D01*
X10229048Y-13235888D01*
X10219524Y-13216841D01*
X10219524Y-13159698D01*
X10229048Y-13140650D01*
X10238571Y-13131127D01*
X10257619Y-13121603D01*
X10295714Y-13121603D01*
X10314762Y-13131127D01*
X10390952Y-13331127D02*
X10400476Y-13321603D01*
X10419524Y-13293031D01*
X10429048Y-13273984D01*
X10438571Y-13245412D01*
X10448095Y-13197793D01*
X10448095Y-13159698D01*
X10438571Y-13112079D01*
X10429048Y-13083508D01*
X10419524Y-13064460D01*
X10400476Y-13035888D01*
X10390952Y-13026365D01*
M02*
